%TF.GenerationSoftware,KiCad,Pcbnew,9.0.1*%
%TF.CreationDate,2025-09-29T11:29:20+02:00*%
%TF.ProjectId,Main_Board,4d61696e-5f42-46f6-9172-642e6b696361,rev?*%
%TF.SameCoordinates,Original*%
%TF.FileFunction,Copper,L2,Inr*%
%TF.FilePolarity,Positive*%
%FSLAX46Y46*%
G04 Gerber Fmt 4.6, Leading zero omitted, Abs format (unit mm)*
G04 Created by KiCad (PCBNEW 9.0.1) date 2025-09-29 11:29:20*
%MOMM*%
%LPD*%
G01*
G04 APERTURE LIST*
G04 Aperture macros list*
%AMRoundRect*
0 Rectangle with rounded corners*
0 $1 Rounding radius*
0 $2 $3 $4 $5 $6 $7 $8 $9 X,Y pos of 4 corners*
0 Add a 4 corners polygon primitive as box body*
4,1,4,$2,$3,$4,$5,$6,$7,$8,$9,$2,$3,0*
0 Add four circle primitives for the rounded corners*
1,1,$1+$1,$2,$3*
1,1,$1+$1,$4,$5*
1,1,$1+$1,$6,$7*
1,1,$1+$1,$8,$9*
0 Add four rect primitives between the rounded corners*
20,1,$1+$1,$2,$3,$4,$5,0*
20,1,$1+$1,$4,$5,$6,$7,0*
20,1,$1+$1,$6,$7,$8,$9,0*
20,1,$1+$1,$8,$9,$2,$3,0*%
G04 Aperture macros list end*
%TA.AperFunction,ComponentPad*%
%ADD10RoundRect,0.250000X-0.350000X-0.625000X0.350000X-0.625000X0.350000X0.625000X-0.350000X0.625000X0*%
%TD*%
%TA.AperFunction,ComponentPad*%
%ADD11O,1.200000X1.750000*%
%TD*%
%TA.AperFunction,ComponentPad*%
%ADD12C,0.800000*%
%TD*%
%TA.AperFunction,ComponentPad*%
%ADD13C,6.400000*%
%TD*%
%TA.AperFunction,ComponentPad*%
%ADD14RoundRect,0.250000X-0.600000X-0.750000X0.600000X-0.750000X0.600000X0.750000X-0.600000X0.750000X0*%
%TD*%
%TA.AperFunction,ComponentPad*%
%ADD15O,1.700000X2.000000*%
%TD*%
%TA.AperFunction,ComponentPad*%
%ADD16R,2.750000X2.750000*%
%TD*%
%TA.AperFunction,ComponentPad*%
%ADD17C,2.750000*%
%TD*%
%TA.AperFunction,ViaPad*%
%ADD18C,0.600000*%
%TD*%
G04 APERTURE END LIST*
D10*
%TO.N,Net-(J2-Pin_1)*%
%TO.C,J2*%
X73750000Y-157000000D03*
D11*
%TO.N,GND*%
X75750000Y-157000000D03*
%TO.N,Net-(J2-Pin_3)*%
X77750000Y-157000000D03*
%TO.N,+5V*%
X79750000Y-157000000D03*
%TD*%
D12*
%TO.N,GND*%
%TO.C,H1*%
X36047056Y-125900000D03*
X36750000Y-124202944D03*
X36750000Y-127597056D03*
X38447056Y-123500000D03*
D13*
X38447056Y-125900000D03*
D12*
X38447056Y-128300000D03*
X40144112Y-124202944D03*
X40144112Y-127597056D03*
X40847056Y-125900000D03*
%TD*%
D14*
%TO.N,/V_bat*%
%TO.C,J9*%
X75500000Y-125475000D03*
D15*
%TO.N,GND*%
X78000000Y-125475000D03*
%TD*%
D10*
%TO.N,/I2C/SD1*%
%TO.C,J4*%
X44750000Y-160750000D03*
D11*
%TO.N,/I2C/SC1*%
X46750000Y-160750000D03*
%TO.N,GND*%
X48750000Y-160750000D03*
%TO.N,+3.3V*%
X50750000Y-160750000D03*
%TD*%
D10*
%TO.N,/I2C/SD0*%
%TO.C,J3*%
X44750000Y-155250000D03*
D11*
%TO.N,/I2C/SC0*%
X46750000Y-155250000D03*
%TO.N,GND*%
X48750000Y-155250000D03*
%TO.N,+3.3V*%
X50750000Y-155250000D03*
%TD*%
D12*
%TO.N,GND*%
%TO.C,H2*%
X84500000Y-160600000D03*
X85202944Y-158902944D03*
X85202944Y-162297056D03*
X86900000Y-158200000D03*
D13*
X86900000Y-160600000D03*
D12*
X86900000Y-163000000D03*
X88597056Y-158902944D03*
X88597056Y-162297056D03*
X89300000Y-160600000D03*
%TD*%
D10*
%TO.N,/I2C_SDA*%
%TO.C,J8*%
X56750000Y-160750000D03*
D11*
%TO.N,/I2C_SCL*%
X58750000Y-160750000D03*
%TO.N,GND*%
X60750000Y-160750000D03*
%TO.N,+3.3V*%
X62750000Y-160750000D03*
%TD*%
D12*
%TO.N,GND*%
%TO.C,H3*%
X36000000Y-160650000D03*
X36702944Y-158952944D03*
X36702944Y-162347056D03*
X38400000Y-158250000D03*
D13*
X38400000Y-160650000D03*
D12*
X38400000Y-163050000D03*
X40097056Y-158952944D03*
X40097056Y-162347056D03*
X40800000Y-160650000D03*
%TD*%
D10*
%TO.N,/I2C/SD2*%
%TO.C,J5*%
X44750000Y-125000000D03*
D11*
%TO.N,/I2C/SC2*%
X46750000Y-125000000D03*
%TO.N,GND*%
X48750000Y-125000000D03*
%TO.N,+3.3V*%
X50750000Y-125000000D03*
%TD*%
D10*
%TO.N,/I2C_SDA*%
%TO.C,J7*%
X56750000Y-155200000D03*
D11*
%TO.N,/I2C_SCL*%
X58750000Y-155200000D03*
%TO.N,GND*%
X60750000Y-155200000D03*
%TO.N,+3.3V*%
X62750000Y-155200000D03*
%TD*%
D10*
%TO.N,/I2C/SD3*%
%TO.C,J6*%
X44750000Y-130750000D03*
D11*
%TO.N,/I2C/SC3*%
X46750000Y-130750000D03*
%TO.N,GND*%
X48750000Y-130750000D03*
%TO.N,+3.3V*%
X50750000Y-130750000D03*
%TD*%
D16*
%TO.N,/OUT_BUTTON*%
%TO.C,SW1*%
X60000000Y-126250000D03*
D17*
%TO.N,/V_bat*%
X64700000Y-126250000D03*
%TO.N,unconnected-(SW1-Pad3)*%
X69400000Y-126250000D03*
%TD*%
D12*
%TO.N,GND*%
%TO.C,H4*%
X84600000Y-125900000D03*
X85302944Y-124202944D03*
X85302944Y-127597056D03*
X87000000Y-123500000D03*
D13*
X87000000Y-125900000D03*
D12*
X87000000Y-128300000D03*
X88697056Y-124202944D03*
X88697056Y-127597056D03*
X89400000Y-125900000D03*
%TD*%
D18*
%TO.N,/OUT_BUTTON*%
X59690000Y-129740000D03*
X58820000Y-129740000D03*
X61400000Y-129760000D03*
X60530000Y-129740000D03*
X59690000Y-130530000D03*
X58820000Y-130530000D03*
X60530000Y-130530000D03*
X61400000Y-130550000D03*
%TO.N,/STM32/RX*%
X81514000Y-151280000D03*
%TO.N,/PWM_2_M1*%
X57909000Y-143120000D03*
%TO.N,GND*%
X80880000Y-148330000D03*
X80470000Y-149450000D03*
X70540000Y-142160000D03*
%TO.N,+5V*%
X64000000Y-147330000D03*
X64940000Y-146630000D03*
X71000000Y-146560000D03*
%TO.N,/PB4_RST*%
X65000001Y-143217000D03*
X64849266Y-145489264D03*
%TO.N,/PWM_2_M2*%
X81892612Y-142906698D03*
%TO.N,/STM32/RX*%
X73750000Y-137040000D03*
%TO.N,/STM32/ENCODEUR_A_M1*%
X81625457Y-141334012D03*
%TO.N,/STM32/ENCODEUR_B_M1*%
X81820000Y-142110000D03*
%TO.N,/PWM_1_M1*%
X71180000Y-136760000D03*
%TO.N,+8V*%
X61006110Y-149304655D03*
%TO.N,/PWM_1_M2*%
X57511235Y-147266949D03*
%TO.N,/PWM_2_M1*%
X72446810Y-142900008D03*
%TO.N,/STM32/RX*%
X78490000Y-154530000D03*
%TO.N,GND*%
X71000000Y-139000000D03*
X83025000Y-138765952D03*
X60000000Y-123000000D03*
X66000000Y-123000000D03*
X61640000Y-150690000D03*
X78000000Y-123000000D03*
X90210000Y-138900000D03*
X57048400Y-163169600D03*
X86320000Y-137690000D03*
X57607200Y-148437600D03*
X78000000Y-162000000D03*
X84975000Y-137240000D03*
X85630000Y-141030000D03*
X44700000Y-159070000D03*
X61197000Y-137857000D03*
X55250000Y-140960000D03*
X57090000Y-136140000D03*
X64460000Y-130460000D03*
X54000000Y-129000000D03*
X67570000Y-148850000D03*
X53690000Y-142410000D03*
X89510000Y-153770000D03*
X87820000Y-141070000D03*
X72066456Y-146475000D03*
X87130000Y-138920000D03*
X89390000Y-142000000D03*
X72460000Y-158130000D03*
X54000000Y-123000000D03*
X74000000Y-154050000D03*
X88610000Y-141070000D03*
X39000000Y-141000000D03*
X55650000Y-132820000D03*
X90150000Y-142000000D03*
X87810000Y-142010000D03*
X89470000Y-137700000D03*
X87870000Y-137680000D03*
X75000000Y-123000000D03*
X89100000Y-156470000D03*
X87000000Y-156000000D03*
X89662000Y-135026400D03*
X81000000Y-126000000D03*
X63820000Y-157410000D03*
X39000000Y-156000000D03*
X56800000Y-141100000D03*
X89450000Y-138900000D03*
X57000000Y-126000000D03*
X75000000Y-162000000D03*
X64860000Y-159750000D03*
X90230000Y-137700000D03*
X86715600Y-150418800D03*
X88660000Y-138910000D03*
X72000000Y-123000000D03*
X90000000Y-147000000D03*
X79000000Y-139250000D03*
X84840000Y-141040000D03*
X71180000Y-132040000D03*
X72000000Y-162000000D03*
X87110000Y-137680000D03*
X81000000Y-129000000D03*
X63000000Y-123000000D03*
X73228200Y-154559000D03*
X71120000Y-135910000D03*
X63190000Y-143890002D03*
X53959054Y-153050946D03*
X54000000Y-126000000D03*
X56780000Y-142540000D03*
X76439060Y-148892398D03*
X39000000Y-153000000D03*
X39000000Y-144000000D03*
X48000000Y-146350000D03*
X88680000Y-137710000D03*
X57000000Y-123000000D03*
X78260000Y-152320000D03*
X67350000Y-150740000D03*
X85547200Y-156819600D03*
X87890000Y-138920000D03*
X89690000Y-150910000D03*
X39000000Y-138000000D03*
X53730000Y-162410000D03*
X81000000Y-162000000D03*
X84840000Y-141660000D03*
X81000000Y-123000000D03*
X69000000Y-123000000D03*
X71180000Y-132980000D03*
X67700000Y-133000000D03*
X52500000Y-141300000D03*
X53740000Y-140970000D03*
X90160000Y-141060000D03*
X86710000Y-141580000D03*
X88600000Y-142010000D03*
X76530000Y-132000000D03*
X46220000Y-156650000D03*
X87426800Y-145161000D03*
X59888562Y-144495453D03*
X89400000Y-141060000D03*
X57700000Y-144500000D03*
X69400000Y-150460000D03*
X86360000Y-138930000D03*
X71190000Y-134780000D03*
X90000000Y-144000000D03*
X71180000Y-134080000D03*
X39000000Y-132000000D03*
X80100000Y-135000000D03*
X75509840Y-154150000D03*
X84000000Y-129000000D03*
X53494104Y-147199632D03*
X78000000Y-129000000D03*
X39000000Y-147000000D03*
X45500000Y-141350000D03*
X75000000Y-132000000D03*
%TO.N,+8V*%
X57502000Y-146467000D03*
X68532687Y-159197687D03*
X60465808Y-137532406D03*
X62300000Y-153200000D03*
X55600000Y-136900000D03*
X55313356Y-137833175D03*
X55600000Y-135400000D03*
X55300000Y-145600000D03*
X55500000Y-146600000D03*
%TO.N,/PWM_1_M1*%
X57625000Y-139255000D03*
%TO.N,+3.3V*%
X81400000Y-131500000D03*
X61550000Y-139200000D03*
X83000000Y-137250000D03*
X49600000Y-156670000D03*
X49830000Y-162980000D03*
X78503900Y-148690000D03*
X66598000Y-153531000D03*
X73650000Y-133050519D03*
X49640000Y-131800000D03*
X42930000Y-162310000D03*
X60387000Y-151919000D03*
X85000000Y-138750000D03*
X60312000Y-150902000D03*
X67592120Y-147677120D03*
X72800000Y-145525000D03*
X49450000Y-126200000D03*
X87579200Y-143205200D03*
X73625000Y-134500266D03*
X73625000Y-135985540D03*
X43270000Y-126250000D03*
X73300000Y-145000000D03*
X71800003Y-139000000D03*
X43680000Y-158430000D03*
X43320000Y-133660000D03*
X47890000Y-140320000D03*
%TO.N,/PWM_1_M1*%
X82234067Y-143833880D03*
%TO.N,/PWM_2_M2*%
X56600000Y-138002498D03*
%TO.N,/I2C/SC0*%
X56353404Y-151092774D03*
%TO.N,/I2C/SD0*%
X55880000Y-151930000D03*
%TO.N,/I2C/SD1*%
X56865218Y-150477920D03*
%TO.N,/I2C/SC1*%
X56537108Y-149748298D03*
%TO.N,/I2C/SC2*%
X56221437Y-147731606D03*
%TO.N,/I2C/SD2*%
X56370000Y-148517692D03*
%TO.N,/I2C/SC3*%
X54292550Y-147249519D03*
%TO.N,+5V*%
X70040000Y-130540000D03*
X61009000Y-143124883D03*
X61910000Y-151610000D03*
X63050000Y-151650000D03*
%TO.N,/I2C/SD3*%
X55079044Y-147395897D03*
%TO.N,/I2C_SCL*%
X69500000Y-147050002D03*
X76100000Y-145650000D03*
%TO.N,/I2C_SDA*%
X72250000Y-150150000D03*
X76700000Y-146200000D03*
%TO.N,/STM32/ENCODEUR_A_M2*%
X52345491Y-159356949D03*
X78515000Y-145693584D03*
%TO.N,/STM32/ENCODEUR_B_M2*%
X52380000Y-158550000D03*
X79064504Y-146275000D03*
%TO.N,/I_bat*%
X80740000Y-144850000D03*
%TO.N,/PB4_RST*%
X54760000Y-152800000D03*
X57830000Y-152670000D03*
X71731543Y-141757001D03*
%TO.N,/STM32/TENSION_BAT*%
X84000000Y-147250000D03*
%TO.N,/INT2*%
X71300000Y-157150000D03*
X78595233Y-136475000D03*
%TO.N,/SINGLE_TAP*%
X70550000Y-157900000D03*
X79331099Y-136788850D03*
%TO.N,/STM32/chatsouris*%
X77764206Y-136632650D03*
X83900000Y-132800000D03*
%TO.N,/PWM_1_M2*%
X72970000Y-143510000D03*
%TD*%
%TA.AperFunction,Conductor*%
%TO.N,GND*%
G36*
X84776448Y-122662669D02*
G01*
X84843480Y-122682373D01*
X84889219Y-122735190D01*
X84899143Y-122804351D01*
X84870100Y-122867899D01*
X84845302Y-122889771D01*
X84793252Y-122924550D01*
X84565233Y-123111679D01*
X84565233Y-123111680D01*
X86059301Y-124605748D01*
X85957670Y-124679588D01*
X85779588Y-124857670D01*
X85705748Y-124959301D01*
X84211680Y-123465233D01*
X84211679Y-123465233D01*
X84024548Y-123693254D01*
X84024545Y-123693258D01*
X83822581Y-123995519D01*
X83822570Y-123995537D01*
X83651209Y-124316130D01*
X83651207Y-124316135D01*
X83512086Y-124652002D01*
X83406553Y-124999898D01*
X83406550Y-124999909D01*
X83335632Y-125356443D01*
X83300000Y-125718234D01*
X83300000Y-126081765D01*
X83335632Y-126443556D01*
X83406550Y-126800090D01*
X83406553Y-126800101D01*
X83512086Y-127147997D01*
X83651207Y-127483864D01*
X83651209Y-127483869D01*
X83822570Y-127804462D01*
X83822581Y-127804480D01*
X84024551Y-128106750D01*
X84211678Y-128334765D01*
X84211679Y-128334766D01*
X85705747Y-126840697D01*
X85779588Y-126942330D01*
X85957670Y-127120412D01*
X86059301Y-127194251D01*
X84565232Y-128688319D01*
X84565233Y-128688320D01*
X84793249Y-128875448D01*
X85095519Y-129077418D01*
X85095537Y-129077429D01*
X85416130Y-129248790D01*
X85416135Y-129248792D01*
X85752002Y-129387913D01*
X86099898Y-129493446D01*
X86099909Y-129493449D01*
X86456443Y-129564367D01*
X86818234Y-129600000D01*
X87181766Y-129600000D01*
X87543556Y-129564367D01*
X87900090Y-129493449D01*
X87900101Y-129493446D01*
X88247997Y-129387913D01*
X88583864Y-129248792D01*
X88583869Y-129248790D01*
X88904462Y-129077429D01*
X88904480Y-129077418D01*
X89206736Y-128875457D01*
X89206750Y-128875447D01*
X89434765Y-128688320D01*
X89434766Y-128688319D01*
X87940698Y-127194251D01*
X88042330Y-127120412D01*
X88220412Y-126942330D01*
X88294251Y-126840698D01*
X89788319Y-128334766D01*
X89788320Y-128334765D01*
X89975447Y-128106750D01*
X89975454Y-128106741D01*
X90016459Y-128045372D01*
X90070071Y-128000567D01*
X90139396Y-127991858D01*
X90202424Y-128022013D01*
X90239143Y-128081455D01*
X90243561Y-128113876D01*
X90263200Y-134425416D01*
X90269500Y-136450320D01*
X90269500Y-136489562D01*
X90269623Y-136490022D01*
X90269625Y-136490497D01*
X90269630Y-136490519D01*
X90269631Y-136490522D01*
X90277222Y-136518504D01*
X90279857Y-136528216D01*
X90289979Y-136565989D01*
X90290212Y-136566392D01*
X90290338Y-136566856D01*
X90300362Y-136584094D01*
X90309950Y-136600583D01*
X90310027Y-136600715D01*
X90329540Y-136634512D01*
X90329970Y-136635072D01*
X90330106Y-136635249D01*
X90330114Y-136635257D01*
X90330115Y-136635258D01*
X90350937Y-136655951D01*
X90357853Y-136662824D01*
X90357854Y-136662826D01*
X90358016Y-136662987D01*
X90385489Y-136690460D01*
X90385895Y-136690694D01*
X90386233Y-136691030D01*
X90386237Y-136691032D01*
X90386238Y-136691033D01*
X90420093Y-136710438D01*
X90454011Y-136730021D01*
X90454020Y-136730023D01*
X90454436Y-136730196D01*
X90454437Y-136730196D01*
X90454447Y-136730201D01*
X90454875Y-136730378D01*
X90492578Y-136740355D01*
X90492581Y-136740356D01*
X90492706Y-136740389D01*
X90530438Y-136750500D01*
X90530912Y-136750500D01*
X90531373Y-136750622D01*
X90531374Y-136750622D01*
X90554667Y-136750549D01*
X90570136Y-136750500D01*
X90570522Y-136750500D01*
X90866000Y-136750500D01*
X90933039Y-136770185D01*
X90978794Y-136822989D01*
X90990000Y-136874500D01*
X90990000Y-147975500D01*
X90970315Y-148042539D01*
X90917511Y-148088294D01*
X90866000Y-148099500D01*
X90579316Y-148099500D01*
X90579076Y-148099436D01*
X90539514Y-148099500D01*
X90500425Y-148099500D01*
X90500366Y-148099508D01*
X90500363Y-148099508D01*
X90499958Y-148099562D01*
X90461865Y-148109835D01*
X90461673Y-148109887D01*
X90424006Y-148119980D01*
X90423831Y-148120052D01*
X90423741Y-148120090D01*
X90423567Y-148120161D01*
X90389700Y-148139787D01*
X90389531Y-148139885D01*
X90355485Y-148159541D01*
X90355151Y-148159797D01*
X90355104Y-148159834D01*
X90327464Y-148187563D01*
X90327326Y-148187702D01*
X90299533Y-148215496D01*
X90299249Y-148215865D01*
X90279667Y-148249909D01*
X90259979Y-148284011D01*
X90259914Y-148284250D01*
X90259792Y-148284464D01*
X90249661Y-148322517D01*
X90239500Y-148360438D01*
X90239500Y-148360683D01*
X90239436Y-148360924D01*
X90239500Y-148400476D01*
X90239500Y-148439562D01*
X90239562Y-148439795D01*
X90239575Y-148448009D01*
X90239576Y-148448010D01*
X90255927Y-158553703D01*
X90236351Y-158620775D01*
X90183621Y-158666615D01*
X90114479Y-158676670D01*
X90050876Y-158647748D01*
X90028825Y-158622794D01*
X89875454Y-158393256D01*
X89875450Y-158393251D01*
X89688320Y-158165233D01*
X89688319Y-158165232D01*
X88194251Y-159659301D01*
X88120412Y-159557670D01*
X87942330Y-159379588D01*
X87840698Y-159305748D01*
X89334766Y-157811679D01*
X89334765Y-157811678D01*
X89106750Y-157624551D01*
X88804480Y-157422581D01*
X88804462Y-157422570D01*
X88483869Y-157251209D01*
X88483864Y-157251207D01*
X88147997Y-157112086D01*
X87800101Y-157006553D01*
X87800090Y-157006550D01*
X87443556Y-156935632D01*
X87081766Y-156900000D01*
X86718234Y-156900000D01*
X86356443Y-156935632D01*
X85999909Y-157006550D01*
X85999898Y-157006553D01*
X85652002Y-157112086D01*
X85316135Y-157251207D01*
X85316130Y-157251209D01*
X84995537Y-157422570D01*
X84995519Y-157422581D01*
X84693258Y-157624545D01*
X84693254Y-157624548D01*
X84465233Y-157811679D01*
X84465233Y-157811680D01*
X85959301Y-159305748D01*
X85857670Y-159379588D01*
X85679588Y-159557670D01*
X85605748Y-159659301D01*
X84111680Y-158165233D01*
X84111679Y-158165233D01*
X83924548Y-158393254D01*
X83924545Y-158393258D01*
X83722581Y-158695519D01*
X83722570Y-158695537D01*
X83551209Y-159016130D01*
X83551207Y-159016135D01*
X83412086Y-159352002D01*
X83306553Y-159699898D01*
X83306550Y-159699909D01*
X83235632Y-160056443D01*
X83200000Y-160418234D01*
X83200000Y-160781765D01*
X83235632Y-161143556D01*
X83306550Y-161500090D01*
X83306553Y-161500101D01*
X83412086Y-161847997D01*
X83551207Y-162183864D01*
X83551209Y-162183869D01*
X83722570Y-162504462D01*
X83722581Y-162504480D01*
X83924551Y-162806750D01*
X84111678Y-163034765D01*
X84111679Y-163034766D01*
X85605747Y-161540697D01*
X85679588Y-161642330D01*
X85857670Y-161820412D01*
X85959301Y-161894251D01*
X84465232Y-163388319D01*
X84465233Y-163388320D01*
X84693246Y-163575445D01*
X84696464Y-163577596D01*
X84741267Y-163631210D01*
X84749972Y-163700536D01*
X84719814Y-163763562D01*
X84660370Y-163800279D01*
X84627746Y-163804696D01*
X40653513Y-163867454D01*
X40586445Y-163847865D01*
X40540615Y-163795126D01*
X40530573Y-163725982D01*
X40559507Y-163662385D01*
X40584447Y-163640351D01*
X40606732Y-163625460D01*
X40606750Y-163625447D01*
X40834765Y-163438320D01*
X40834766Y-163438319D01*
X39340698Y-161944251D01*
X39442330Y-161870412D01*
X39620412Y-161692330D01*
X39694251Y-161590698D01*
X41188319Y-163084766D01*
X41188320Y-163084765D01*
X41328375Y-162914108D01*
X49329500Y-162914108D01*
X49329500Y-163045891D01*
X49363608Y-163173187D01*
X49381733Y-163204579D01*
X49429500Y-163287314D01*
X49522686Y-163380500D01*
X49636814Y-163446392D01*
X49764108Y-163480500D01*
X49764110Y-163480500D01*
X49895890Y-163480500D01*
X49895892Y-163480500D01*
X50023186Y-163446392D01*
X50137314Y-163380500D01*
X50230500Y-163287314D01*
X50296392Y-163173186D01*
X50330500Y-163045892D01*
X50330500Y-162914108D01*
X50296392Y-162786814D01*
X50230500Y-162672686D01*
X50137314Y-162579500D01*
X50079654Y-162546210D01*
X50023187Y-162513608D01*
X49959539Y-162496554D01*
X49895892Y-162479500D01*
X49764108Y-162479500D01*
X49636812Y-162513608D01*
X49522686Y-162579500D01*
X49522683Y-162579502D01*
X49429502Y-162672683D01*
X49429500Y-162672686D01*
X49363608Y-162786812D01*
X49329500Y-162914108D01*
X41328375Y-162914108D01*
X41375447Y-162856750D01*
X41375457Y-162856736D01*
X41577418Y-162554480D01*
X41577429Y-162554462D01*
X41743317Y-162244108D01*
X42429500Y-162244108D01*
X42429500Y-162375891D01*
X42463608Y-162503187D01*
X42488448Y-162546210D01*
X42529500Y-162617314D01*
X42622686Y-162710500D01*
X42736814Y-162776392D01*
X42864108Y-162810500D01*
X42864110Y-162810500D01*
X42995890Y-162810500D01*
X42995892Y-162810500D01*
X43123186Y-162776392D01*
X43237314Y-162710500D01*
X43330500Y-162617314D01*
X43396392Y-162503186D01*
X43430500Y-162375892D01*
X43430500Y-162244108D01*
X43396392Y-162116814D01*
X43330500Y-162002686D01*
X43237314Y-161909500D01*
X43169612Y-161870412D01*
X43123187Y-161843608D01*
X43044954Y-161822646D01*
X42995892Y-161809500D01*
X42864108Y-161809500D01*
X42736812Y-161843608D01*
X42622686Y-161909500D01*
X42622683Y-161909502D01*
X42529502Y-162002683D01*
X42529500Y-162002686D01*
X42463608Y-162116812D01*
X42429500Y-162244108D01*
X41743317Y-162244108D01*
X41748790Y-162233869D01*
X41748792Y-162233864D01*
X41767572Y-162188528D01*
X41887913Y-161897997D01*
X41993446Y-161550101D01*
X41993449Y-161550090D01*
X42064367Y-161193556D01*
X42100000Y-160831765D01*
X42100000Y-160468234D01*
X42064367Y-160106446D01*
X42061499Y-160092023D01*
X42061499Y-160092021D01*
X42057264Y-160070730D01*
X43949500Y-160070730D01*
X43949500Y-161429269D01*
X43952353Y-161459699D01*
X43952353Y-161459701D01*
X43989052Y-161564577D01*
X43997207Y-161587882D01*
X44077850Y-161697150D01*
X44187118Y-161777793D01*
X44229845Y-161792744D01*
X44315299Y-161822646D01*
X44345730Y-161825500D01*
X44345734Y-161825500D01*
X45154270Y-161825500D01*
X45184699Y-161822646D01*
X45184701Y-161822646D01*
X45248790Y-161800219D01*
X45312882Y-161777793D01*
X45422150Y-161697150D01*
X45502793Y-161587882D01*
X45537539Y-161488583D01*
X45547646Y-161459701D01*
X45547646Y-161459699D01*
X45550500Y-161429269D01*
X45550500Y-160396153D01*
X45949500Y-160396153D01*
X45949500Y-161103846D01*
X45980261Y-161258489D01*
X45980264Y-161258501D01*
X46040602Y-161404172D01*
X46040609Y-161404185D01*
X46128210Y-161535288D01*
X46128213Y-161535292D01*
X46239707Y-161646786D01*
X46239711Y-161646789D01*
X46370814Y-161734390D01*
X46370827Y-161734397D01*
X46475596Y-161777793D01*
X46516503Y-161794737D01*
X46645579Y-161820412D01*
X46671153Y-161825499D01*
X46671156Y-161825500D01*
X46671158Y-161825500D01*
X46828844Y-161825500D01*
X46828845Y-161825499D01*
X46983497Y-161794737D01*
X47129179Y-161734394D01*
X47260289Y-161646789D01*
X47371789Y-161535289D01*
X47459394Y-161404179D01*
X47459395Y-161404176D01*
X47459397Y-161404173D01*
X47474904Y-161366735D01*
X47518744Y-161312331D01*
X47585038Y-161290266D01*
X47652738Y-161307545D01*
X47700348Y-161358682D01*
X47707396Y-161375869D01*
X47730591Y-161447255D01*
X47809195Y-161601524D01*
X47910967Y-161741602D01*
X48033397Y-161864032D01*
X48173475Y-161965804D01*
X48327744Y-162044408D01*
X48492415Y-162097914D01*
X48492414Y-162097914D01*
X48499999Y-162099115D01*
X48500000Y-162099114D01*
X48500000Y-161030330D01*
X48519745Y-161050075D01*
X48605255Y-161099444D01*
X48700630Y-161125000D01*
X48799370Y-161125000D01*
X48894745Y-161099444D01*
X48980255Y-161050075D01*
X49000000Y-161030330D01*
X49000000Y-162099115D01*
X49007584Y-162097914D01*
X49172255Y-162044408D01*
X49326524Y-161965804D01*
X49466602Y-161864032D01*
X49589032Y-161741602D01*
X49690804Y-161601524D01*
X49769409Y-161447253D01*
X49792603Y-161375870D01*
X49832040Y-161318194D01*
X49896398Y-161290995D01*
X49965244Y-161302909D01*
X50016721Y-161350153D01*
X50025095Y-161366733D01*
X50028880Y-161375870D01*
X50040603Y-161404172D01*
X50040606Y-161404178D01*
X50040609Y-161404185D01*
X50128210Y-161535288D01*
X50128213Y-161535292D01*
X50239707Y-161646786D01*
X50239711Y-161646789D01*
X50370814Y-161734390D01*
X50370827Y-161734397D01*
X50475596Y-161777793D01*
X50516503Y-161794737D01*
X50645579Y-161820412D01*
X50671153Y-161825499D01*
X50671156Y-161825500D01*
X50671158Y-161825500D01*
X50828844Y-161825500D01*
X50828845Y-161825499D01*
X50983497Y-161794737D01*
X51129179Y-161734394D01*
X51260289Y-161646789D01*
X51371789Y-161535289D01*
X51459394Y-161404179D01*
X51519737Y-161258497D01*
X51550500Y-161103842D01*
X51550500Y-160396158D01*
X51550500Y-160396155D01*
X51550499Y-160396153D01*
X51519738Y-160241510D01*
X51519737Y-160241503D01*
X51495010Y-160181806D01*
X51467474Y-160115327D01*
X51467458Y-160115289D01*
X51463795Y-160106446D01*
X51459394Y-160095821D01*
X51459391Y-160095816D01*
X51459390Y-160095814D01*
X51442629Y-160070730D01*
X55949500Y-160070730D01*
X55949500Y-161429269D01*
X55952353Y-161459699D01*
X55952353Y-161459701D01*
X55989052Y-161564577D01*
X55997207Y-161587882D01*
X56077850Y-161697150D01*
X56187118Y-161777793D01*
X56229845Y-161792744D01*
X56315299Y-161822646D01*
X56345730Y-161825500D01*
X56345734Y-161825500D01*
X57154270Y-161825500D01*
X57184699Y-161822646D01*
X57184701Y-161822646D01*
X57248790Y-161800219D01*
X57312882Y-161777793D01*
X57422150Y-161697150D01*
X57502793Y-161587882D01*
X57537539Y-161488583D01*
X57547646Y-161459701D01*
X57547646Y-161459699D01*
X57550500Y-161429269D01*
X57550500Y-160396153D01*
X57949500Y-160396153D01*
X57949500Y-161103846D01*
X57980261Y-161258489D01*
X57980264Y-161258501D01*
X58040602Y-161404172D01*
X58040609Y-161404185D01*
X58128210Y-161535288D01*
X58128213Y-161535292D01*
X58239707Y-161646786D01*
X58239711Y-161646789D01*
X58370814Y-161734390D01*
X58370827Y-161734397D01*
X58475596Y-161777793D01*
X58516503Y-161794737D01*
X58645579Y-161820412D01*
X58671153Y-161825499D01*
X58671156Y-161825500D01*
X58671158Y-161825500D01*
X58828844Y-161825500D01*
X58828845Y-161825499D01*
X58983497Y-161794737D01*
X59129179Y-161734394D01*
X59260289Y-161646789D01*
X59371789Y-161535289D01*
X59459394Y-161404179D01*
X59459395Y-161404176D01*
X59459397Y-161404173D01*
X59474904Y-161366735D01*
X59518744Y-161312331D01*
X59585038Y-161290266D01*
X59652738Y-161307545D01*
X59700348Y-161358682D01*
X59707396Y-161375869D01*
X59730591Y-161447255D01*
X59809195Y-161601524D01*
X59910967Y-161741602D01*
X60033397Y-161864032D01*
X60173475Y-161965804D01*
X60327744Y-162044408D01*
X60492415Y-162097914D01*
X60492414Y-162097914D01*
X60499999Y-162099115D01*
X60500000Y-162099114D01*
X60500000Y-161030330D01*
X60519745Y-161050075D01*
X60605255Y-161099444D01*
X60700630Y-161125000D01*
X60799370Y-161125000D01*
X60894745Y-161099444D01*
X60980255Y-161050075D01*
X61000000Y-161030330D01*
X61000000Y-162099115D01*
X61007584Y-162097914D01*
X61172255Y-162044408D01*
X61326524Y-161965804D01*
X61466602Y-161864032D01*
X61589032Y-161741602D01*
X61690804Y-161601524D01*
X61769409Y-161447253D01*
X61792603Y-161375870D01*
X61832040Y-161318194D01*
X61896398Y-161290995D01*
X61965244Y-161302909D01*
X62016721Y-161350153D01*
X62025095Y-161366733D01*
X62028880Y-161375870D01*
X62040603Y-161404172D01*
X62040606Y-161404178D01*
X62040609Y-161404185D01*
X62128210Y-161535288D01*
X62128213Y-161535292D01*
X62239707Y-161646786D01*
X62239711Y-161646789D01*
X62370814Y-161734390D01*
X62370827Y-161734397D01*
X62475596Y-161777793D01*
X62516503Y-161794737D01*
X62645579Y-161820412D01*
X62671153Y-161825499D01*
X62671156Y-161825500D01*
X62671158Y-161825500D01*
X62828844Y-161825500D01*
X62828845Y-161825499D01*
X62983497Y-161794737D01*
X63129179Y-161734394D01*
X63260289Y-161646789D01*
X63371789Y-161535289D01*
X63459394Y-161404179D01*
X63519737Y-161258497D01*
X63550500Y-161103842D01*
X63550500Y-160396158D01*
X63550500Y-160396155D01*
X63550499Y-160396153D01*
X63519738Y-160241510D01*
X63519737Y-160241503D01*
X63495010Y-160181806D01*
X63459397Y-160095827D01*
X63459390Y-160095814D01*
X63371789Y-159964711D01*
X63371786Y-159964707D01*
X63260292Y-159853213D01*
X63260288Y-159853210D01*
X63129185Y-159765609D01*
X63129172Y-159765602D01*
X62983501Y-159705264D01*
X62983489Y-159705261D01*
X62828845Y-159674500D01*
X62828842Y-159674500D01*
X62671158Y-159674500D01*
X62671155Y-159674500D01*
X62516510Y-159705261D01*
X62516498Y-159705264D01*
X62370827Y-159765602D01*
X62370814Y-159765609D01*
X62239711Y-159853210D01*
X62239707Y-159853213D01*
X62128213Y-159964707D01*
X62128210Y-159964711D01*
X62040609Y-160095814D01*
X62040603Y-160095826D01*
X62025094Y-160133267D01*
X61981252Y-160187670D01*
X61914957Y-160209733D01*
X61847258Y-160192453D01*
X61799649Y-160141314D01*
X61792603Y-160124130D01*
X61769408Y-160052744D01*
X61690804Y-159898475D01*
X61589032Y-159758397D01*
X61466602Y-159635967D01*
X61326524Y-159534195D01*
X61172257Y-159455591D01*
X61007589Y-159402087D01*
X61007581Y-159402085D01*
X61000000Y-159400884D01*
X61000000Y-160469670D01*
X60980255Y-160449925D01*
X60894745Y-160400556D01*
X60799370Y-160375000D01*
X60700630Y-160375000D01*
X60605255Y-160400556D01*
X60519745Y-160449925D01*
X60500000Y-160469670D01*
X60500000Y-159400884D01*
X60499999Y-159400884D01*
X60492418Y-159402085D01*
X60492410Y-159402087D01*
X60327742Y-159455591D01*
X60173475Y-159534195D01*
X60033397Y-159635967D01*
X59910967Y-159758397D01*
X59809195Y-159898475D01*
X59730591Y-160052742D01*
X59707396Y-160124131D01*
X59667958Y-160181806D01*
X59603599Y-160209004D01*
X59534753Y-160197089D01*
X59483277Y-160149845D01*
X59474904Y-160133265D01*
X59459395Y-160095823D01*
X59459390Y-160095814D01*
X59371789Y-159964711D01*
X59371786Y-159964707D01*
X59260292Y-159853213D01*
X59260288Y-159853210D01*
X59129185Y-159765609D01*
X59129172Y-159765602D01*
X58983501Y-159705264D01*
X58983489Y-159705261D01*
X58828845Y-159674500D01*
X58828842Y-159674500D01*
X58671158Y-159674500D01*
X58671155Y-159674500D01*
X58516510Y-159705261D01*
X58516498Y-159705264D01*
X58370827Y-159765602D01*
X58370814Y-159765609D01*
X58239711Y-159853210D01*
X58239707Y-159853213D01*
X58128213Y-159964707D01*
X58128210Y-159964711D01*
X58040609Y-160095814D01*
X58040602Y-160095827D01*
X57980264Y-160241498D01*
X57980261Y-160241510D01*
X57949500Y-160396153D01*
X57550500Y-160396153D01*
X57550500Y-160070730D01*
X57547646Y-160040300D01*
X57547646Y-160040298D01*
X57502793Y-159912119D01*
X57502792Y-159912117D01*
X57492724Y-159898475D01*
X57422150Y-159802850D01*
X57312882Y-159722207D01*
X57312880Y-159722206D01*
X57184700Y-159677353D01*
X57154270Y-159674500D01*
X57154266Y-159674500D01*
X56345734Y-159674500D01*
X56345730Y-159674500D01*
X56315300Y-159677353D01*
X56315298Y-159677353D01*
X56187119Y-159722206D01*
X56187117Y-159722207D01*
X56077850Y-159802850D01*
X55997207Y-159912117D01*
X55997206Y-159912119D01*
X55952353Y-160040298D01*
X55952353Y-160040300D01*
X55949500Y-160070730D01*
X51442629Y-160070730D01*
X51371789Y-159964711D01*
X51371786Y-159964707D01*
X51260292Y-159853213D01*
X51260288Y-159853210D01*
X51129185Y-159765609D01*
X51129172Y-159765602D01*
X50983501Y-159705264D01*
X50983489Y-159705261D01*
X50828845Y-159674500D01*
X50828842Y-159674500D01*
X50671158Y-159674500D01*
X50671155Y-159674500D01*
X50516510Y-159705261D01*
X50516498Y-159705264D01*
X50370827Y-159765602D01*
X50370814Y-159765609D01*
X50239711Y-159853210D01*
X50239707Y-159853213D01*
X50128213Y-159964707D01*
X50128210Y-159964711D01*
X50040609Y-160095814D01*
X50040603Y-160095826D01*
X50025094Y-160133267D01*
X49981252Y-160187670D01*
X49914957Y-160209733D01*
X49847258Y-160192453D01*
X49799649Y-160141314D01*
X49792603Y-160124130D01*
X49769408Y-160052744D01*
X49690804Y-159898475D01*
X49589032Y-159758397D01*
X49466602Y-159635967D01*
X49326524Y-159534195D01*
X49172257Y-159455591D01*
X49044533Y-159414091D01*
X49000000Y-159430384D01*
X49000000Y-160469670D01*
X48980255Y-160449925D01*
X48894745Y-160400556D01*
X48799370Y-160375000D01*
X48700630Y-160375000D01*
X48605255Y-160400556D01*
X48519745Y-160449925D01*
X48500000Y-160469670D01*
X48500000Y-159400884D01*
X48499999Y-159400884D01*
X48492418Y-159402085D01*
X48492410Y-159402087D01*
X48327742Y-159455591D01*
X48173475Y-159534195D01*
X48033397Y-159635967D01*
X47910967Y-159758397D01*
X47809195Y-159898475D01*
X47730591Y-160052742D01*
X47707396Y-160124131D01*
X47667958Y-160181806D01*
X47603599Y-160209004D01*
X47534753Y-160197089D01*
X47483277Y-160149845D01*
X47474904Y-160133265D01*
X47459395Y-160095823D01*
X47459390Y-160095814D01*
X47371789Y-159964711D01*
X47371786Y-159964707D01*
X47260292Y-159853213D01*
X47260288Y-159853210D01*
X47129185Y-159765609D01*
X47129172Y-159765602D01*
X46983501Y-159705264D01*
X46983489Y-159705261D01*
X46828845Y-159674500D01*
X46828842Y-159674500D01*
X46671158Y-159674500D01*
X46671155Y-159674500D01*
X46516510Y-159705261D01*
X46516498Y-159705264D01*
X46370827Y-159765602D01*
X46370814Y-159765609D01*
X46239711Y-159853210D01*
X46239707Y-159853213D01*
X46128213Y-159964707D01*
X46128210Y-159964711D01*
X46040609Y-160095814D01*
X46040602Y-160095827D01*
X45980264Y-160241498D01*
X45980261Y-160241510D01*
X45949500Y-160396153D01*
X45550500Y-160396153D01*
X45550500Y-160070730D01*
X45547646Y-160040300D01*
X45547646Y-160040298D01*
X45502793Y-159912119D01*
X45502792Y-159912117D01*
X45492724Y-159898475D01*
X45422150Y-159802850D01*
X45312882Y-159722207D01*
X45312880Y-159722206D01*
X45184700Y-159677353D01*
X45154270Y-159674500D01*
X45154266Y-159674500D01*
X44345734Y-159674500D01*
X44345730Y-159674500D01*
X44315300Y-159677353D01*
X44315298Y-159677353D01*
X44187119Y-159722206D01*
X44187117Y-159722207D01*
X44077850Y-159802850D01*
X43997207Y-159912117D01*
X43997206Y-159912119D01*
X43952353Y-160040298D01*
X43952353Y-160040300D01*
X43949500Y-160070730D01*
X42057264Y-160070730D01*
X41993449Y-159749909D01*
X41993446Y-159749898D01*
X41887913Y-159402002D01*
X41841958Y-159291057D01*
X51844991Y-159291057D01*
X51844991Y-159422840D01*
X51879099Y-159550136D01*
X51883449Y-159557670D01*
X51944991Y-159664263D01*
X52038177Y-159757449D01*
X52152305Y-159823341D01*
X52279599Y-159857449D01*
X52279601Y-159857449D01*
X52411381Y-159857449D01*
X52411383Y-159857449D01*
X52538677Y-159823341D01*
X52652805Y-159757449D01*
X52745991Y-159664263D01*
X52811883Y-159550135D01*
X52845991Y-159422841D01*
X52845991Y-159291057D01*
X52811883Y-159163763D01*
X52793426Y-159131795D01*
X68032187Y-159131795D01*
X68032187Y-159263578D01*
X68066295Y-159390874D01*
X68084751Y-159422840D01*
X68132187Y-159505001D01*
X68225373Y-159598187D01*
X68339501Y-159664079D01*
X68466795Y-159698187D01*
X68466797Y-159698187D01*
X68598577Y-159698187D01*
X68598579Y-159698187D01*
X68725873Y-159664079D01*
X68840001Y-159598187D01*
X68933187Y-159505001D01*
X68999079Y-159390873D01*
X69033187Y-159263579D01*
X69033187Y-159131795D01*
X68999079Y-159004501D01*
X68933187Y-158890373D01*
X68840001Y-158797187D01*
X68750510Y-158745519D01*
X68725874Y-158731295D01*
X68662226Y-158714241D01*
X68598579Y-158697187D01*
X68466795Y-158697187D01*
X68339499Y-158731295D01*
X68225373Y-158797187D01*
X68225370Y-158797189D01*
X68132189Y-158890370D01*
X68132187Y-158890373D01*
X68066295Y-159004499D01*
X68032187Y-159131795D01*
X52793426Y-159131795D01*
X52745991Y-159049635D01*
X52741614Y-159045258D01*
X52734470Y-159032795D01*
X52728196Y-159006584D01*
X52718478Y-158981446D01*
X52720186Y-158973115D01*
X52718207Y-158964845D01*
X52727101Y-158939400D01*
X52732516Y-158913001D01*
X52739750Y-158903215D01*
X52741263Y-158898889D01*
X52745256Y-158895768D01*
X52754362Y-158883451D01*
X52780500Y-158857314D01*
X52846392Y-158743186D01*
X52880500Y-158615892D01*
X52880500Y-158484108D01*
X52846392Y-158356814D01*
X52780500Y-158242686D01*
X52687314Y-158149500D01*
X52625882Y-158114032D01*
X52573187Y-158083608D01*
X52509539Y-158066554D01*
X52445892Y-158049500D01*
X52314108Y-158049500D01*
X52186812Y-158083608D01*
X52072686Y-158149500D01*
X52072683Y-158149502D01*
X51979502Y-158242683D01*
X51979500Y-158242686D01*
X51913608Y-158356812D01*
X51901902Y-158400500D01*
X51879500Y-158484108D01*
X51879500Y-158615892D01*
X51881455Y-158623187D01*
X51913608Y-158743187D01*
X51979502Y-158857317D01*
X51981818Y-158860335D01*
X51982979Y-158863340D01*
X51983564Y-158864352D01*
X51983406Y-158864443D01*
X52007012Y-158925504D01*
X51992973Y-158993949D01*
X51971125Y-159023501D01*
X51944991Y-159049635D01*
X51879099Y-159163761D01*
X51844991Y-159291057D01*
X41841958Y-159291057D01*
X41748792Y-159066135D01*
X41748790Y-159066130D01*
X41577429Y-158745537D01*
X41577418Y-158745519D01*
X41375450Y-158443251D01*
X41368386Y-158434644D01*
X41368385Y-158434643D01*
X41310498Y-158364108D01*
X43179500Y-158364108D01*
X43179500Y-158495891D01*
X43213608Y-158623187D01*
X43227789Y-158647748D01*
X43279500Y-158737314D01*
X43372686Y-158830500D01*
X43486814Y-158896392D01*
X43614108Y-158930500D01*
X43614110Y-158930500D01*
X43745890Y-158930500D01*
X43745892Y-158930500D01*
X43873186Y-158896392D01*
X43987314Y-158830500D01*
X44080500Y-158737314D01*
X44146392Y-158623186D01*
X44180500Y-158495892D01*
X44180500Y-158364108D01*
X44146392Y-158236814D01*
X44080500Y-158122686D01*
X43987314Y-158029500D01*
X43909194Y-157984397D01*
X43873187Y-157963608D01*
X43849349Y-157957221D01*
X43745892Y-157929500D01*
X43614108Y-157929500D01*
X43486812Y-157963608D01*
X43372686Y-158029500D01*
X43372683Y-158029502D01*
X43279502Y-158122683D01*
X43279500Y-158122686D01*
X43213608Y-158236812D01*
X43179500Y-158364108D01*
X41310498Y-158364108D01*
X41188320Y-158215233D01*
X41188319Y-158215232D01*
X39694251Y-159709300D01*
X39620412Y-159607670D01*
X39442330Y-159429588D01*
X39340697Y-159355747D01*
X40834766Y-157861679D01*
X40834765Y-157861678D01*
X40801171Y-157834108D01*
X70049500Y-157834108D01*
X70049500Y-157965892D01*
X70056389Y-157991602D01*
X70083608Y-158093187D01*
X70095643Y-158114032D01*
X70149500Y-158207314D01*
X70242686Y-158300500D01*
X70356814Y-158366392D01*
X70484108Y-158400500D01*
X70484110Y-158400500D01*
X70615890Y-158400500D01*
X70615892Y-158400500D01*
X70743186Y-158366392D01*
X70857314Y-158300500D01*
X70950500Y-158207314D01*
X71016392Y-158093186D01*
X71050500Y-157965892D01*
X71050500Y-157834108D01*
X71038882Y-157790748D01*
X71040544Y-157720901D01*
X71079705Y-157663038D01*
X71143934Y-157635533D01*
X71190747Y-157638881D01*
X71234108Y-157650500D01*
X71234110Y-157650500D01*
X71365890Y-157650500D01*
X71365892Y-157650500D01*
X71493186Y-157616392D01*
X71607314Y-157550500D01*
X71700500Y-157457314D01*
X71766392Y-157343186D01*
X71800500Y-157215892D01*
X71800500Y-157084108D01*
X71766392Y-156956814D01*
X71700500Y-156842686D01*
X71607314Y-156749500D01*
X71521448Y-156699925D01*
X71493187Y-156683608D01*
X71429539Y-156666554D01*
X71365892Y-156649500D01*
X71234108Y-156649500D01*
X71106812Y-156683608D01*
X70992686Y-156749500D01*
X70992683Y-156749502D01*
X70899502Y-156842683D01*
X70899500Y-156842686D01*
X70833608Y-156956812D01*
X70799500Y-157084108D01*
X70799500Y-157215891D01*
X70811118Y-157259250D01*
X70809455Y-157329100D01*
X70770292Y-157386962D01*
X70706064Y-157414466D01*
X70659251Y-157411118D01*
X70615892Y-157399500D01*
X70484108Y-157399500D01*
X70356812Y-157433608D01*
X70242686Y-157499500D01*
X70242683Y-157499502D01*
X70149502Y-157592683D01*
X70149500Y-157592686D01*
X70083608Y-157706812D01*
X70049501Y-157834106D01*
X70049500Y-157834108D01*
X40801171Y-157834108D01*
X40606750Y-157674551D01*
X40304480Y-157472581D01*
X40304462Y-157472570D01*
X39983869Y-157301209D01*
X39983864Y-157301207D01*
X39647997Y-157162086D01*
X39300101Y-157056553D01*
X39300090Y-157056550D01*
X38943556Y-156985632D01*
X38581766Y-156950000D01*
X38218234Y-156950000D01*
X37856443Y-156985632D01*
X37499909Y-157056550D01*
X37499892Y-157056555D01*
X37484996Y-157061073D01*
X37415129Y-157061692D01*
X37356018Y-157024440D01*
X37326431Y-156961144D01*
X37325012Y-156941602D01*
X37340909Y-154570730D01*
X43949500Y-154570730D01*
X43949500Y-155929269D01*
X43952353Y-155959699D01*
X43952353Y-155959701D01*
X43992115Y-156073330D01*
X43997207Y-156087882D01*
X44077850Y-156197150D01*
X44187118Y-156277793D01*
X44222861Y-156290300D01*
X44315299Y-156322646D01*
X44345730Y-156325500D01*
X44345734Y-156325500D01*
X45154270Y-156325500D01*
X45184699Y-156322646D01*
X45184701Y-156322646D01*
X45257694Y-156297104D01*
X45312882Y-156277793D01*
X45422150Y-156197150D01*
X45502793Y-156087882D01*
X45538692Y-155985288D01*
X45547646Y-155959701D01*
X45547646Y-155959699D01*
X45550500Y-155929269D01*
X45550500Y-154896153D01*
X45949500Y-154896153D01*
X45949500Y-155603846D01*
X45980261Y-155758489D01*
X45980264Y-155758501D01*
X46040602Y-155904172D01*
X46040609Y-155904185D01*
X46128210Y-156035288D01*
X46128213Y-156035292D01*
X46239707Y-156146786D01*
X46239711Y-156146789D01*
X46370814Y-156234390D01*
X46370827Y-156234397D01*
X46475596Y-156277793D01*
X46516503Y-156294737D01*
X46641708Y-156319642D01*
X46671153Y-156325499D01*
X46671156Y-156325500D01*
X46671158Y-156325500D01*
X46828844Y-156325500D01*
X46828845Y-156325499D01*
X46983497Y-156294737D01*
X47129179Y-156234394D01*
X47260289Y-156146789D01*
X47371789Y-156035289D01*
X47459394Y-155904179D01*
X47459395Y-155904176D01*
X47459397Y-155904173D01*
X47474904Y-155866735D01*
X47518744Y-155812331D01*
X47585038Y-155790266D01*
X47652738Y-155807545D01*
X47700348Y-155858682D01*
X47707396Y-155875869D01*
X47730591Y-155947255D01*
X47809195Y-156101524D01*
X47910967Y-156241602D01*
X48033397Y-156364032D01*
X48173475Y-156465804D01*
X48327744Y-156544408D01*
X48492415Y-156597914D01*
X48492414Y-156597914D01*
X48499999Y-156599115D01*
X48500000Y-156599114D01*
X48500000Y-155530330D01*
X48519745Y-155550075D01*
X48605255Y-155599444D01*
X48700630Y-155625000D01*
X48799370Y-155625000D01*
X48894745Y-155599444D01*
X48980255Y-155550075D01*
X49000000Y-155530330D01*
X49000000Y-156599114D01*
X49017416Y-156613990D01*
X49025396Y-156615022D01*
X49078848Y-156660019D01*
X49099487Y-156726770D01*
X49099500Y-156728540D01*
X49099500Y-156735891D01*
X49133608Y-156863187D01*
X49166554Y-156920250D01*
X49199500Y-156977314D01*
X49292686Y-157070500D01*
X49406814Y-157136392D01*
X49534108Y-157170500D01*
X49534110Y-157170500D01*
X49665890Y-157170500D01*
X49665892Y-157170500D01*
X49793186Y-157136392D01*
X49907314Y-157070500D01*
X50000500Y-156977314D01*
X50066392Y-156863186D01*
X50100500Y-156735892D01*
X50100500Y-156604108D01*
X50066392Y-156476814D01*
X50000500Y-156362686D01*
X49907314Y-156269500D01*
X49793186Y-156203608D01*
X49793181Y-156203605D01*
X49789629Y-156202134D01*
X49787091Y-156200089D01*
X49786147Y-156199544D01*
X49786232Y-156199396D01*
X49782191Y-156196140D01*
X49772955Y-156193704D01*
X49755429Y-156174575D01*
X49735225Y-156158294D01*
X49732207Y-156149229D01*
X49725756Y-156142187D01*
X49721354Y-156116620D01*
X49713160Y-156092000D01*
X49715206Y-156080909D01*
X49713902Y-156073330D01*
X49720858Y-156050285D01*
X49722904Y-156039203D01*
X49796357Y-155865817D01*
X49815232Y-155842774D01*
X49832040Y-155818194D01*
X49837130Y-155816042D01*
X49840633Y-155811767D01*
X49868961Y-155802590D01*
X49896398Y-155790995D01*
X49901845Y-155791937D01*
X49907102Y-155790235D01*
X49935892Y-155797829D01*
X49965244Y-155802909D01*
X49969316Y-155806646D01*
X49974660Y-155808056D01*
X49994777Y-155830013D01*
X50016721Y-155850153D01*
X50021011Y-155858648D01*
X50021859Y-155859573D01*
X50022055Y-155860715D01*
X50025095Y-155866733D01*
X50030287Y-155879266D01*
X50040603Y-155904172D01*
X50040606Y-155904178D01*
X50040609Y-155904185D01*
X50128210Y-156035288D01*
X50128213Y-156035292D01*
X50239707Y-156146786D01*
X50239711Y-156146789D01*
X50370814Y-156234390D01*
X50370827Y-156234397D01*
X50475596Y-156277793D01*
X50516503Y-156294737D01*
X50641708Y-156319642D01*
X50671153Y-156325499D01*
X50671156Y-156325500D01*
X50671158Y-156325500D01*
X50828844Y-156325500D01*
X50828845Y-156325499D01*
X50983497Y-156294737D01*
X51129179Y-156234394D01*
X51260289Y-156146789D01*
X51371789Y-156035289D01*
X51459394Y-155904179D01*
X51519737Y-155758497D01*
X51550500Y-155603842D01*
X51550500Y-154896158D01*
X51550500Y-154896155D01*
X51550499Y-154896153D01*
X51540553Y-154846153D01*
X51519737Y-154741503D01*
X51499420Y-154692453D01*
X51459397Y-154595827D01*
X51459392Y-154595818D01*
X51453316Y-154586724D01*
X51453315Y-154586722D01*
X51409220Y-154520730D01*
X55949500Y-154520730D01*
X55949500Y-155879269D01*
X55952353Y-155909699D01*
X55952353Y-155909701D01*
X55997206Y-156037880D01*
X55997207Y-156037882D01*
X56077850Y-156147150D01*
X56187118Y-156227793D01*
X56226582Y-156241602D01*
X56315299Y-156272646D01*
X56345730Y-156275500D01*
X56345734Y-156275500D01*
X57154270Y-156275500D01*
X57184699Y-156272646D01*
X57184701Y-156272646D01*
X57248790Y-156250219D01*
X57312882Y-156227793D01*
X57422150Y-156147150D01*
X57502793Y-156037882D01*
X57534505Y-155947255D01*
X57547646Y-155909701D01*
X57547646Y-155909699D01*
X57550500Y-155879269D01*
X57550500Y-154846153D01*
X57949500Y-154846153D01*
X57949500Y-155553846D01*
X57980261Y-155708489D01*
X57980264Y-155708501D01*
X58040602Y-155854172D01*
X58040609Y-155854185D01*
X58128210Y-155985288D01*
X58128213Y-155985292D01*
X58239707Y-156096786D01*
X58239711Y-156096789D01*
X58370814Y-156184390D01*
X58370827Y-156184397D01*
X58497126Y-156236711D01*
X58516503Y-156244737D01*
X58656810Y-156272646D01*
X58671153Y-156275499D01*
X58671156Y-156275500D01*
X58671158Y-156275500D01*
X58828844Y-156275500D01*
X58828845Y-156275499D01*
X58983497Y-156244737D01*
X59129179Y-156184394D01*
X59260289Y-156096789D01*
X59371789Y-155985289D01*
X59459394Y-155854179D01*
X59459395Y-155854176D01*
X59459397Y-155854173D01*
X59474904Y-155816735D01*
X59518744Y-155762331D01*
X59585038Y-155740266D01*
X59652738Y-155757545D01*
X59700348Y-155808682D01*
X59707396Y-155825869D01*
X59730591Y-155897255D01*
X59809195Y-156051524D01*
X59910967Y-156191602D01*
X60033397Y-156314032D01*
X60173475Y-156415804D01*
X60327744Y-156494408D01*
X60492415Y-156547914D01*
X60492414Y-156547914D01*
X60499999Y-156549115D01*
X60500000Y-156549114D01*
X60500000Y-155480330D01*
X60519745Y-155500075D01*
X60605255Y-155549444D01*
X60700630Y-155575000D01*
X60799370Y-155575000D01*
X60894745Y-155549444D01*
X60980255Y-155500075D01*
X61000000Y-155480330D01*
X61000000Y-156549115D01*
X61007584Y-156547914D01*
X61172255Y-156494408D01*
X61326524Y-156415804D01*
X61457383Y-156320730D01*
X72949500Y-156320730D01*
X72949500Y-157679269D01*
X72952353Y-157709699D01*
X72952353Y-157709701D01*
X72995886Y-157834108D01*
X72997207Y-157837882D01*
X73077850Y-157947150D01*
X73187118Y-158027793D01*
X73229845Y-158042744D01*
X73315299Y-158072646D01*
X73345730Y-158075500D01*
X73345734Y-158075500D01*
X74154270Y-158075500D01*
X74184699Y-158072646D01*
X74184701Y-158072646D01*
X74250847Y-158049500D01*
X74312882Y-158027793D01*
X74422150Y-157947150D01*
X74502793Y-157837882D01*
X74528895Y-157763285D01*
X74569615Y-157706513D01*
X74634567Y-157680765D01*
X74703129Y-157694221D01*
X74753532Y-157742608D01*
X74756419Y-157747947D01*
X74809194Y-157851521D01*
X74910967Y-157991602D01*
X75033397Y-158114032D01*
X75173475Y-158215804D01*
X75327744Y-158294408D01*
X75492415Y-158347914D01*
X75492414Y-158347914D01*
X75499999Y-158349115D01*
X75500000Y-158349114D01*
X75500000Y-157280330D01*
X75519745Y-157300075D01*
X75605255Y-157349444D01*
X75700630Y-157375000D01*
X75799370Y-157375000D01*
X75894745Y-157349444D01*
X75980255Y-157300075D01*
X76000000Y-157280330D01*
X76000000Y-158349115D01*
X76007584Y-158347914D01*
X76172255Y-158294408D01*
X76326524Y-158215804D01*
X76466602Y-158114032D01*
X76589032Y-157991602D01*
X76690804Y-157851524D01*
X76769409Y-157697253D01*
X76792603Y-157625870D01*
X76832040Y-157568194D01*
X76896398Y-157540995D01*
X76965244Y-157552909D01*
X77016721Y-157600153D01*
X77025095Y-157616733D01*
X77028880Y-157625870D01*
X77040603Y-157654172D01*
X77040606Y-157654178D01*
X77040609Y-157654185D01*
X77128210Y-157785288D01*
X77128213Y-157785292D01*
X77239707Y-157896786D01*
X77239711Y-157896789D01*
X77370814Y-157984390D01*
X77370827Y-157984397D01*
X77475596Y-158027793D01*
X77516503Y-158044737D01*
X77656810Y-158072646D01*
X77671153Y-158075499D01*
X77671156Y-158075500D01*
X77671158Y-158075500D01*
X77828844Y-158075500D01*
X77828845Y-158075499D01*
X77983497Y-158044737D01*
X78129179Y-157984394D01*
X78260289Y-157896789D01*
X78371789Y-157785289D01*
X78459394Y-157654179D01*
X78519737Y-157508497D01*
X78550500Y-157353842D01*
X78550500Y-156646158D01*
X78550500Y-156646155D01*
X78550499Y-156646153D01*
X78949500Y-156646153D01*
X78949500Y-157353846D01*
X78980261Y-157508489D01*
X78980264Y-157508501D01*
X79040602Y-157654172D01*
X79040609Y-157654185D01*
X79128210Y-157785288D01*
X79128213Y-157785292D01*
X79239707Y-157896786D01*
X79239711Y-157896789D01*
X79370814Y-157984390D01*
X79370827Y-157984397D01*
X79475596Y-158027793D01*
X79516503Y-158044737D01*
X79656810Y-158072646D01*
X79671153Y-158075499D01*
X79671156Y-158075500D01*
X79671158Y-158075500D01*
X79828844Y-158075500D01*
X79828845Y-158075499D01*
X79983497Y-158044737D01*
X80129179Y-157984394D01*
X80260289Y-157896789D01*
X80371789Y-157785289D01*
X80459394Y-157654179D01*
X80519737Y-157508497D01*
X80550500Y-157353842D01*
X80550500Y-156646158D01*
X80550500Y-156646155D01*
X80550499Y-156646153D01*
X80542136Y-156604108D01*
X80519737Y-156491503D01*
X80471120Y-156374130D01*
X80459397Y-156345827D01*
X80459390Y-156345814D01*
X80371789Y-156214711D01*
X80371786Y-156214707D01*
X80260292Y-156103213D01*
X80260288Y-156103210D01*
X80129185Y-156015609D01*
X80129172Y-156015602D01*
X79983501Y-155955264D01*
X79983489Y-155955261D01*
X79828845Y-155924500D01*
X79828842Y-155924500D01*
X79671158Y-155924500D01*
X79671155Y-155924500D01*
X79516510Y-155955261D01*
X79516498Y-155955264D01*
X79370827Y-156015602D01*
X79370814Y-156015609D01*
X79239711Y-156103210D01*
X79239707Y-156103213D01*
X79128213Y-156214707D01*
X79128210Y-156214711D01*
X79040609Y-156345814D01*
X79040602Y-156345827D01*
X78980264Y-156491498D01*
X78980261Y-156491510D01*
X78949500Y-156646153D01*
X78550499Y-156646153D01*
X78542136Y-156604108D01*
X78519737Y-156491503D01*
X78471120Y-156374130D01*
X78459397Y-156345827D01*
X78459390Y-156345814D01*
X78371789Y-156214711D01*
X78371786Y-156214707D01*
X78260292Y-156103213D01*
X78260288Y-156103210D01*
X78129185Y-156015609D01*
X78129172Y-156015602D01*
X77983501Y-155955264D01*
X77983489Y-155955261D01*
X77828845Y-155924500D01*
X77828842Y-155924500D01*
X77671158Y-155924500D01*
X77671155Y-155924500D01*
X77516510Y-155955261D01*
X77516498Y-155955264D01*
X77370827Y-156015602D01*
X77370814Y-156015609D01*
X77239711Y-156103210D01*
X77239707Y-156103213D01*
X77128213Y-156214707D01*
X77128210Y-156214711D01*
X77040609Y-156345814D01*
X77040603Y-156345826D01*
X77025094Y-156383267D01*
X76981252Y-156437670D01*
X76914957Y-156459733D01*
X76847258Y-156442453D01*
X76799649Y-156391314D01*
X76792603Y-156374130D01*
X76769408Y-156302744D01*
X76690804Y-156148475D01*
X76589032Y-156008397D01*
X76466602Y-155885967D01*
X76326524Y-155784195D01*
X76172257Y-155705591D01*
X76007589Y-155652087D01*
X76007581Y-155652085D01*
X76000000Y-155650884D01*
X76000000Y-156719670D01*
X75980255Y-156699925D01*
X75894745Y-156650556D01*
X75799370Y-156625000D01*
X75700630Y-156625000D01*
X75605255Y-156650556D01*
X75519745Y-156699925D01*
X75500000Y-156719670D01*
X75500000Y-155650884D01*
X75499999Y-155650884D01*
X75492418Y-155652085D01*
X75492410Y-155652087D01*
X75327742Y-155705591D01*
X75173475Y-155784195D01*
X75033397Y-155885967D01*
X74910967Y-156008397D01*
X74809194Y-156148478D01*
X74756419Y-156252052D01*
X74708444Y-156302848D01*
X74640623Y-156319642D01*
X74574488Y-156297104D01*
X74531038Y-156242388D01*
X74528908Y-156236751D01*
X74502793Y-156162118D01*
X74422150Y-156052850D01*
X74312882Y-155972207D01*
X74312880Y-155972206D01*
X74184700Y-155927353D01*
X74154270Y-155924500D01*
X74154266Y-155924500D01*
X73345734Y-155924500D01*
X73345730Y-155924500D01*
X73315300Y-155927353D01*
X73315298Y-155927353D01*
X73187119Y-155972206D01*
X73187117Y-155972207D01*
X73077850Y-156052850D01*
X72997207Y-156162117D01*
X72997206Y-156162119D01*
X72952353Y-156290298D01*
X72952353Y-156290300D01*
X72949500Y-156320730D01*
X61457383Y-156320730D01*
X61466602Y-156314032D01*
X61589032Y-156191602D01*
X61690804Y-156051524D01*
X61769409Y-155897253D01*
X61792603Y-155825870D01*
X61832040Y-155768194D01*
X61896398Y-155740995D01*
X61965244Y-155752909D01*
X62016721Y-155800153D01*
X62025095Y-155816733D01*
X62028880Y-155825870D01*
X62040603Y-155854172D01*
X62040606Y-155854178D01*
X62040609Y-155854185D01*
X62128210Y-155985288D01*
X62128213Y-155985292D01*
X62239707Y-156096786D01*
X62239711Y-156096789D01*
X62370814Y-156184390D01*
X62370827Y-156184397D01*
X62497126Y-156236711D01*
X62516503Y-156244737D01*
X62656810Y-156272646D01*
X62671153Y-156275499D01*
X62671156Y-156275500D01*
X62671158Y-156275500D01*
X62828844Y-156275500D01*
X62828845Y-156275499D01*
X62983497Y-156244737D01*
X63055987Y-156214711D01*
X63083599Y-156203274D01*
X63129173Y-156184397D01*
X63129176Y-156184395D01*
X63129179Y-156184394D01*
X63260289Y-156096789D01*
X63371789Y-155985289D01*
X63459394Y-155854179D01*
X63519737Y-155708497D01*
X63550500Y-155553842D01*
X63550500Y-154846158D01*
X63550500Y-154846155D01*
X63550499Y-154846153D01*
X63529684Y-154741510D01*
X63519737Y-154691503D01*
X63518149Y-154687670D01*
X63459397Y-154545827D01*
X63459390Y-154545814D01*
X63445397Y-154524872D01*
X63404795Y-154464108D01*
X77989500Y-154464108D01*
X77989500Y-154595891D01*
X78023608Y-154723187D01*
X78034180Y-154741498D01*
X78089500Y-154837314D01*
X78182686Y-154930500D01*
X78296814Y-154996392D01*
X78424108Y-155030500D01*
X78424110Y-155030500D01*
X78555890Y-155030500D01*
X78555892Y-155030500D01*
X78683186Y-154996392D01*
X78797314Y-154930500D01*
X78890500Y-154837314D01*
X78956392Y-154723186D01*
X78990500Y-154595892D01*
X78990500Y-154464108D01*
X78956392Y-154336814D01*
X78890500Y-154222686D01*
X78797314Y-154129500D01*
X78721913Y-154085967D01*
X78683187Y-154063608D01*
X78619539Y-154046554D01*
X78555892Y-154029500D01*
X78424108Y-154029500D01*
X78296812Y-154063608D01*
X78182686Y-154129500D01*
X78182683Y-154129502D01*
X78089502Y-154222683D01*
X78089500Y-154222686D01*
X78023608Y-154336812D01*
X77989500Y-154464108D01*
X63404795Y-154464108D01*
X63371789Y-154414711D01*
X63371786Y-154414707D01*
X63260292Y-154303213D01*
X63260288Y-154303210D01*
X63129185Y-154215609D01*
X63129172Y-154215602D01*
X62983501Y-154155264D01*
X62983489Y-154155261D01*
X62828845Y-154124500D01*
X62828842Y-154124500D01*
X62671158Y-154124500D01*
X62671155Y-154124500D01*
X62516510Y-154155261D01*
X62516498Y-154155264D01*
X62370827Y-154215602D01*
X62370814Y-154215609D01*
X62239711Y-154303210D01*
X62239707Y-154303213D01*
X62128213Y-154414707D01*
X62128210Y-154414711D01*
X62040609Y-154545814D01*
X62040603Y-154545826D01*
X62025094Y-154583267D01*
X61981252Y-154637670D01*
X61914957Y-154659733D01*
X61847258Y-154642453D01*
X61799649Y-154591314D01*
X61792603Y-154574130D01*
X61769408Y-154502744D01*
X61690804Y-154348475D01*
X61589032Y-154208397D01*
X61466602Y-154085967D01*
X61326524Y-153984195D01*
X61172257Y-153905591D01*
X61007589Y-153852087D01*
X61007581Y-153852085D01*
X61000000Y-153850884D01*
X61000000Y-154919670D01*
X60980255Y-154899925D01*
X60894745Y-154850556D01*
X60799370Y-154825000D01*
X60700630Y-154825000D01*
X60605255Y-154850556D01*
X60519745Y-154899925D01*
X60500000Y-154919670D01*
X60500000Y-153850884D01*
X60499999Y-153850884D01*
X60492418Y-153852085D01*
X60492410Y-153852087D01*
X60327742Y-153905591D01*
X60173475Y-153984195D01*
X60033397Y-154085967D01*
X59910967Y-154208397D01*
X59809195Y-154348475D01*
X59730591Y-154502742D01*
X59707396Y-154574131D01*
X59667958Y-154631806D01*
X59603599Y-154659004D01*
X59534753Y-154647089D01*
X59483277Y-154599845D01*
X59474904Y-154583265D01*
X59459395Y-154545823D01*
X59459390Y-154545814D01*
X59371789Y-154414711D01*
X59371786Y-154414707D01*
X59260292Y-154303213D01*
X59260288Y-154303210D01*
X59129185Y-154215609D01*
X59129172Y-154215602D01*
X58983501Y-154155264D01*
X58983489Y-154155261D01*
X58828845Y-154124500D01*
X58828842Y-154124500D01*
X58671158Y-154124500D01*
X58671155Y-154124500D01*
X58516510Y-154155261D01*
X58516498Y-154155264D01*
X58370827Y-154215602D01*
X58370814Y-154215609D01*
X58239711Y-154303210D01*
X58239707Y-154303213D01*
X58128213Y-154414707D01*
X58128210Y-154414711D01*
X58040609Y-154545814D01*
X58040602Y-154545827D01*
X57980264Y-154691498D01*
X57980261Y-154691510D01*
X57949500Y-154846153D01*
X57550500Y-154846153D01*
X57550500Y-154520730D01*
X57547646Y-154490300D01*
X57547646Y-154490298D01*
X57502793Y-154362119D01*
X57502792Y-154362117D01*
X57496219Y-154353211D01*
X57422150Y-154252850D01*
X57312882Y-154172207D01*
X57312880Y-154172206D01*
X57184700Y-154127353D01*
X57154270Y-154124500D01*
X57154266Y-154124500D01*
X56345734Y-154124500D01*
X56345730Y-154124500D01*
X56315300Y-154127353D01*
X56315298Y-154127353D01*
X56187119Y-154172206D01*
X56187117Y-154172207D01*
X56077850Y-154252850D01*
X55997207Y-154362117D01*
X55997206Y-154362119D01*
X55952353Y-154490298D01*
X55952353Y-154490300D01*
X55949500Y-154520730D01*
X51409220Y-154520730D01*
X51371789Y-154464711D01*
X51371786Y-154464707D01*
X51260292Y-154353213D01*
X51260288Y-154353210D01*
X51129185Y-154265609D01*
X51129172Y-154265602D01*
X50983501Y-154205264D01*
X50983489Y-154205261D01*
X50828845Y-154174500D01*
X50828842Y-154174500D01*
X50671158Y-154174500D01*
X50671155Y-154174500D01*
X50516510Y-154205261D01*
X50516498Y-154205264D01*
X50370827Y-154265602D01*
X50370814Y-154265609D01*
X50239711Y-154353210D01*
X50239707Y-154353213D01*
X50128213Y-154464707D01*
X50128210Y-154464711D01*
X50040609Y-154595814D01*
X50040603Y-154595826D01*
X50025094Y-154633267D01*
X49981252Y-154687670D01*
X49914957Y-154709733D01*
X49847258Y-154692453D01*
X49799649Y-154641314D01*
X49792603Y-154624130D01*
X49769408Y-154552744D01*
X49690804Y-154398475D01*
X49589032Y-154258397D01*
X49466602Y-154135967D01*
X49326524Y-154034195D01*
X49172257Y-153955591D01*
X49007589Y-153902087D01*
X49007581Y-153902085D01*
X49000000Y-153900884D01*
X49000000Y-154969670D01*
X48980255Y-154949925D01*
X48894745Y-154900556D01*
X48799370Y-154875000D01*
X48700630Y-154875000D01*
X48605255Y-154900556D01*
X48519745Y-154949925D01*
X48500000Y-154969670D01*
X48500000Y-153900884D01*
X48499999Y-153900884D01*
X48492418Y-153902085D01*
X48492410Y-153902087D01*
X48327742Y-153955591D01*
X48173475Y-154034195D01*
X48033397Y-154135967D01*
X47910967Y-154258397D01*
X47809195Y-154398475D01*
X47730591Y-154552742D01*
X47707396Y-154624131D01*
X47667958Y-154681806D01*
X47603599Y-154709004D01*
X47534753Y-154697089D01*
X47483277Y-154649845D01*
X47474904Y-154633265D01*
X47459395Y-154595823D01*
X47459390Y-154595814D01*
X47371789Y-154464711D01*
X47371786Y-154464707D01*
X47260292Y-154353213D01*
X47260288Y-154353210D01*
X47129185Y-154265609D01*
X47129172Y-154265602D01*
X46983501Y-154205264D01*
X46983489Y-154205261D01*
X46828845Y-154174500D01*
X46828842Y-154174500D01*
X46671158Y-154174500D01*
X46671155Y-154174500D01*
X46516510Y-154205261D01*
X46516498Y-154205264D01*
X46370827Y-154265602D01*
X46370814Y-154265609D01*
X46239711Y-154353210D01*
X46239707Y-154353213D01*
X46128213Y-154464707D01*
X46128210Y-154464711D01*
X46040609Y-154595814D01*
X46040602Y-154595827D01*
X45980264Y-154741498D01*
X45980261Y-154741510D01*
X45949500Y-154896153D01*
X45550500Y-154896153D01*
X45550500Y-154570730D01*
X45547646Y-154540300D01*
X45547646Y-154540298D01*
X45502793Y-154412119D01*
X45502792Y-154412117D01*
X45465892Y-154362119D01*
X45422150Y-154302850D01*
X45312882Y-154222207D01*
X45312880Y-154222206D01*
X45184700Y-154177353D01*
X45154270Y-154174500D01*
X45154266Y-154174500D01*
X44345734Y-154174500D01*
X44345730Y-154174500D01*
X44315300Y-154177353D01*
X44315298Y-154177353D01*
X44187119Y-154222206D01*
X44187117Y-154222207D01*
X44077850Y-154302850D01*
X43997207Y-154412117D01*
X43997206Y-154412119D01*
X43952353Y-154540298D01*
X43952353Y-154540300D01*
X43949500Y-154570730D01*
X37340909Y-154570730D01*
X37353224Y-152734108D01*
X54259500Y-152734108D01*
X54259500Y-152865892D01*
X54276554Y-152929539D01*
X54293608Y-152993187D01*
X54301475Y-153006812D01*
X54359500Y-153107314D01*
X54452686Y-153200500D01*
X54551521Y-153257563D01*
X54565944Y-153265890D01*
X54566814Y-153266392D01*
X54694108Y-153300500D01*
X54694110Y-153300500D01*
X54825890Y-153300500D01*
X54825892Y-153300500D01*
X54953186Y-153266392D01*
X55067314Y-153200500D01*
X55160500Y-153107314D01*
X55226392Y-152993186D01*
X55260500Y-152865892D01*
X55260500Y-152734108D01*
X55226392Y-152606814D01*
X55224830Y-152604108D01*
X57329500Y-152604108D01*
X57329500Y-152735891D01*
X57363608Y-152863187D01*
X57365170Y-152865892D01*
X57429500Y-152977314D01*
X57522686Y-153070500D01*
X57636814Y-153136392D01*
X57764108Y-153170500D01*
X57764110Y-153170500D01*
X57895890Y-153170500D01*
X57895892Y-153170500D01*
X58023186Y-153136392D01*
X58027142Y-153134108D01*
X61799500Y-153134108D01*
X61799500Y-153265891D01*
X61833608Y-153393187D01*
X61834644Y-153394981D01*
X61899500Y-153507314D01*
X61992686Y-153600500D01*
X62106814Y-153666392D01*
X62234108Y-153700500D01*
X62234110Y-153700500D01*
X62365890Y-153700500D01*
X62365892Y-153700500D01*
X62493186Y-153666392D01*
X62607314Y-153600500D01*
X62700500Y-153507314D01*
X62724868Y-153465108D01*
X66097500Y-153465108D01*
X66097500Y-153596892D01*
X66098467Y-153600500D01*
X66131608Y-153724187D01*
X66164554Y-153781250D01*
X66197500Y-153838314D01*
X66290686Y-153931500D01*
X66404814Y-153997392D01*
X66532108Y-154031500D01*
X66532110Y-154031500D01*
X66663890Y-154031500D01*
X66663892Y-154031500D01*
X66791186Y-153997392D01*
X66905314Y-153931500D01*
X66998500Y-153838314D01*
X67064392Y-153724186D01*
X67098500Y-153596892D01*
X67098500Y-153465108D01*
X67064392Y-153337814D01*
X66998500Y-153223686D01*
X66905314Y-153130500D01*
X66848250Y-153097554D01*
X66791187Y-153064608D01*
X66693002Y-153038300D01*
X66663892Y-153030500D01*
X66532108Y-153030500D01*
X66404812Y-153064608D01*
X66290686Y-153130500D01*
X66290683Y-153130502D01*
X66197502Y-153223683D01*
X66197500Y-153223686D01*
X66131608Y-153337812D01*
X66116290Y-153394981D01*
X66097500Y-153465108D01*
X62724868Y-153465108D01*
X62766392Y-153393186D01*
X62800500Y-153265892D01*
X62800500Y-153134108D01*
X62766392Y-153006814D01*
X62700500Y-152892686D01*
X62607314Y-152799500D01*
X62550250Y-152766554D01*
X62493187Y-152733608D01*
X62429539Y-152716554D01*
X62365892Y-152699500D01*
X62234108Y-152699500D01*
X62106812Y-152733608D01*
X61992686Y-152799500D01*
X61992683Y-152799502D01*
X61899502Y-152892683D01*
X61899500Y-152892686D01*
X61833608Y-153006812D01*
X61799500Y-153134108D01*
X58027142Y-153134108D01*
X58137314Y-153070500D01*
X58230500Y-152977314D01*
X58296392Y-152863186D01*
X58330500Y-152735892D01*
X58330500Y-152604108D01*
X58296392Y-152476814D01*
X58230500Y-152362686D01*
X58137314Y-152269500D01*
X58080250Y-152236554D01*
X58023187Y-152203608D01*
X57959539Y-152186554D01*
X57895892Y-152169500D01*
X57764108Y-152169500D01*
X57636812Y-152203608D01*
X57522686Y-152269500D01*
X57522683Y-152269502D01*
X57429502Y-152362683D01*
X57429500Y-152362686D01*
X57363608Y-152476812D01*
X57329500Y-152604108D01*
X55224830Y-152604108D01*
X55160500Y-152492686D01*
X55067314Y-152399500D01*
X55010250Y-152366554D01*
X54953187Y-152333608D01*
X54889539Y-152316554D01*
X54825892Y-152299500D01*
X54694108Y-152299500D01*
X54566812Y-152333608D01*
X54452686Y-152399500D01*
X54452683Y-152399502D01*
X54359502Y-152492683D01*
X54359500Y-152492686D01*
X54293608Y-152606812D01*
X54287911Y-152628074D01*
X54259500Y-152734108D01*
X37353224Y-152734108D01*
X37359058Y-151864108D01*
X55379500Y-151864108D01*
X55379500Y-151995892D01*
X55383414Y-152010499D01*
X55413608Y-152123187D01*
X55440347Y-152169500D01*
X55479500Y-152237314D01*
X55572686Y-152330500D01*
X55686814Y-152396392D01*
X55814108Y-152430500D01*
X55814110Y-152430500D01*
X55945890Y-152430500D01*
X55945892Y-152430500D01*
X56073186Y-152396392D01*
X56187314Y-152330500D01*
X56280500Y-152237314D01*
X56346392Y-152123186D01*
X56380500Y-151995892D01*
X56380500Y-151864108D01*
X56347483Y-151740886D01*
X56349146Y-151671040D01*
X56388308Y-151613177D01*
X56435161Y-151589022D01*
X56546590Y-151559166D01*
X56660718Y-151493274D01*
X56753904Y-151400088D01*
X56819796Y-151285960D01*
X56853904Y-151158666D01*
X56853904Y-151094255D01*
X56873589Y-151027216D01*
X56926393Y-150981461D01*
X56945800Y-150974483D01*
X57058404Y-150944312D01*
X57172532Y-150878420D01*
X57214844Y-150836108D01*
X59811500Y-150836108D01*
X59811500Y-150967891D01*
X59845608Y-151095187D01*
X59876966Y-151149500D01*
X59911500Y-151209314D01*
X60004686Y-151302500D01*
X60049223Y-151328214D01*
X60097438Y-151378779D01*
X60110662Y-151447386D01*
X60084694Y-151512251D01*
X60074905Y-151523281D01*
X59986500Y-151611686D01*
X59920608Y-151725812D01*
X59905955Y-151780499D01*
X59886500Y-151853108D01*
X59886500Y-151984892D01*
X59893361Y-152010497D01*
X59920608Y-152112187D01*
X59953554Y-152169250D01*
X59986500Y-152226314D01*
X60079686Y-152319500D01*
X60193814Y-152385392D01*
X60321108Y-152419500D01*
X60321110Y-152419500D01*
X60452890Y-152419500D01*
X60452892Y-152419500D01*
X60580186Y-152385392D01*
X60694314Y-152319500D01*
X60787500Y-152226314D01*
X60853392Y-152112186D01*
X60887500Y-151984892D01*
X60887500Y-151853108D01*
X60853392Y-151725814D01*
X60787500Y-151611686D01*
X60719922Y-151544108D01*
X61409500Y-151544108D01*
X61409500Y-151675892D01*
X61410735Y-151680500D01*
X61443608Y-151803187D01*
X61472432Y-151853110D01*
X61509500Y-151917314D01*
X61602686Y-152010500D01*
X61716814Y-152076392D01*
X61844108Y-152110500D01*
X61844110Y-152110500D01*
X61975890Y-152110500D01*
X61975892Y-152110500D01*
X62103186Y-152076392D01*
X62217314Y-152010500D01*
X62310500Y-151917314D01*
X62361675Y-151828675D01*
X62412242Y-151780460D01*
X62480849Y-151767237D01*
X62545714Y-151793205D01*
X62578650Y-151836662D01*
X62579544Y-151836147D01*
X62583607Y-151843185D01*
X62583608Y-151843186D01*
X62649500Y-151957314D01*
X62742686Y-152050500D01*
X62856814Y-152116392D01*
X62984108Y-152150500D01*
X62984110Y-152150500D01*
X63115890Y-152150500D01*
X63115892Y-152150500D01*
X63243186Y-152116392D01*
X63357314Y-152050500D01*
X63450500Y-151957314D01*
X63516392Y-151843186D01*
X63550500Y-151715892D01*
X63550500Y-151584108D01*
X63516392Y-151456814D01*
X63450500Y-151342686D01*
X63357314Y-151249500D01*
X63296013Y-151214108D01*
X81013500Y-151214108D01*
X81013500Y-151345892D01*
X81022312Y-151378779D01*
X81047608Y-151473187D01*
X81070162Y-151512251D01*
X81113500Y-151587314D01*
X81206686Y-151680500D01*
X81320814Y-151746392D01*
X81448108Y-151780500D01*
X81448110Y-151780500D01*
X81579890Y-151780500D01*
X81579892Y-151780500D01*
X81707186Y-151746392D01*
X81821314Y-151680500D01*
X81914500Y-151587314D01*
X81980392Y-151473186D01*
X82014500Y-151345892D01*
X82014500Y-151214108D01*
X81980392Y-151086814D01*
X81914500Y-150972686D01*
X81821314Y-150879500D01*
X81746157Y-150836108D01*
X81707187Y-150813608D01*
X81602135Y-150785460D01*
X81579892Y-150779500D01*
X81448108Y-150779500D01*
X81320812Y-150813608D01*
X81206686Y-150879500D01*
X81206683Y-150879502D01*
X81113502Y-150972683D01*
X81113500Y-150972686D01*
X81047608Y-151086812D01*
X81045364Y-151095187D01*
X81013500Y-151214108D01*
X63296013Y-151214108D01*
X63288032Y-151209500D01*
X63243187Y-151183608D01*
X63150100Y-151158666D01*
X63115892Y-151149500D01*
X62984108Y-151149500D01*
X62856812Y-151183608D01*
X62742686Y-151249500D01*
X62742683Y-151249502D01*
X62649502Y-151342683D01*
X62649496Y-151342692D01*
X62598323Y-151431324D01*
X62547756Y-151479539D01*
X62479149Y-151492761D01*
X62414284Y-151466793D01*
X62381350Y-151423336D01*
X62380456Y-151423853D01*
X62366735Y-151400088D01*
X62310500Y-151302686D01*
X62217314Y-151209500D01*
X62160250Y-151176554D01*
X62103187Y-151143608D01*
X62039539Y-151126554D01*
X61975892Y-151109500D01*
X61844108Y-151109500D01*
X61716812Y-151143608D01*
X61602686Y-151209500D01*
X61602683Y-151209502D01*
X61509502Y-151302683D01*
X61509500Y-151302686D01*
X61443608Y-151416812D01*
X61413414Y-151529500D01*
X61409500Y-151544108D01*
X60719922Y-151544108D01*
X60694314Y-151518500D01*
X60639545Y-151486879D01*
X60630614Y-151479147D01*
X60617847Y-151459300D01*
X60601560Y-151442219D01*
X60599293Y-151430457D01*
X60592814Y-151420385D01*
X60592803Y-151396788D01*
X60588337Y-151373612D01*
X60592789Y-151362491D01*
X60592784Y-151350515D01*
X60605532Y-151330658D01*
X60614305Y-151308747D01*
X60624079Y-151297734D01*
X60712500Y-151209314D01*
X60778392Y-151095186D01*
X60812500Y-150967892D01*
X60812500Y-150836108D01*
X60778392Y-150708814D01*
X60712500Y-150594686D01*
X60619314Y-150501500D01*
X60562250Y-150468554D01*
X60505187Y-150435608D01*
X60441539Y-150418554D01*
X60377892Y-150401500D01*
X60246108Y-150401500D01*
X60118812Y-150435608D01*
X60004686Y-150501500D01*
X60004683Y-150501502D01*
X59911502Y-150594683D01*
X59911500Y-150594686D01*
X59845608Y-150708812D01*
X59811500Y-150836108D01*
X57214844Y-150836108D01*
X57265718Y-150785234D01*
X57331610Y-150671106D01*
X57365718Y-150543812D01*
X57365718Y-150412028D01*
X57331610Y-150284734D01*
X57265718Y-150170606D01*
X57179220Y-150084108D01*
X71749500Y-150084108D01*
X71749500Y-150215892D01*
X71755106Y-150236814D01*
X71783608Y-150343187D01*
X71816554Y-150400250D01*
X71849500Y-150457314D01*
X71942686Y-150550500D01*
X72056814Y-150616392D01*
X72184108Y-150650500D01*
X72184110Y-150650500D01*
X72315890Y-150650500D01*
X72315892Y-150650500D01*
X72443186Y-150616392D01*
X72557314Y-150550500D01*
X72650500Y-150457314D01*
X72716392Y-150343186D01*
X72750500Y-150215892D01*
X72750500Y-150084108D01*
X72716392Y-149956814D01*
X72650500Y-149842686D01*
X72557314Y-149749500D01*
X72500250Y-149716554D01*
X72443187Y-149683608D01*
X72379539Y-149666554D01*
X72315892Y-149649500D01*
X72184108Y-149649500D01*
X72056812Y-149683608D01*
X71942686Y-149749500D01*
X71942683Y-149749502D01*
X71849502Y-149842683D01*
X71849500Y-149842686D01*
X71783608Y-149956812D01*
X71757136Y-150055611D01*
X71749500Y-150084108D01*
X57179220Y-150084108D01*
X57172532Y-150077420D01*
X57077001Y-150022265D01*
X57028786Y-149971697D01*
X57015564Y-149903090D01*
X57019223Y-149882800D01*
X57037608Y-149814190D01*
X57037608Y-149682406D01*
X57003500Y-149555112D01*
X56937608Y-149440984D01*
X56844422Y-149347798D01*
X56773557Y-149306884D01*
X56730295Y-149281906D01*
X56663430Y-149263990D01*
X56603000Y-149247798D01*
X56471216Y-149247798D01*
X56410787Y-149263989D01*
X56410785Y-149263990D01*
X56343920Y-149281906D01*
X56229794Y-149347798D01*
X56229791Y-149347800D01*
X56136610Y-149440981D01*
X56136608Y-149440984D01*
X56070716Y-149555110D01*
X56055481Y-149611969D01*
X56036608Y-149682406D01*
X56036608Y-149814190D01*
X56053662Y-149877837D01*
X56070716Y-149941485D01*
X56098382Y-149989403D01*
X56136608Y-150055612D01*
X56229794Y-150148798D01*
X56307742Y-150193801D01*
X56325323Y-150203952D01*
X56339334Y-150218646D01*
X56356488Y-150229508D01*
X56362953Y-150243417D01*
X56373539Y-150254519D01*
X56377381Y-150274456D01*
X56385939Y-150292867D01*
X56384808Y-150312993D01*
X56386761Y-150323126D01*
X56386177Y-150328160D01*
X56385118Y-150335892D01*
X56364718Y-150412028D01*
X56364718Y-150484889D01*
X56363572Y-150493259D01*
X56352590Y-150517739D01*
X56345033Y-150543477D01*
X56338508Y-150549130D01*
X56334975Y-150557008D01*
X56312502Y-150571665D01*
X56292229Y-150589232D01*
X56277385Y-150594568D01*
X56276453Y-150595177D01*
X56275679Y-150595182D01*
X56272814Y-150596212D01*
X56160218Y-150626382D01*
X56160216Y-150626382D01*
X56160216Y-150626383D01*
X56046090Y-150692274D01*
X56046087Y-150692276D01*
X55952906Y-150785457D01*
X55952904Y-150785460D01*
X55887012Y-150899586D01*
X55866945Y-150974480D01*
X55852904Y-151026882D01*
X55852904Y-151158666D01*
X55867760Y-151214110D01*
X55885920Y-151281884D01*
X55884257Y-151351734D01*
X55845094Y-151409596D01*
X55798238Y-151433752D01*
X55686814Y-151463608D01*
X55686812Y-151463608D01*
X55686812Y-151463609D01*
X55572686Y-151529500D01*
X55572683Y-151529502D01*
X55479502Y-151622683D01*
X55479500Y-151622686D01*
X55413608Y-151736812D01*
X55388994Y-151828676D01*
X55379500Y-151864108D01*
X37359058Y-151864108D01*
X37376662Y-149238763D01*
X60505610Y-149238763D01*
X60505610Y-149370546D01*
X60539718Y-149497842D01*
X60572664Y-149554905D01*
X60605610Y-149611969D01*
X60698796Y-149705155D01*
X60812924Y-149771047D01*
X60940218Y-149805155D01*
X60940220Y-149805155D01*
X61072000Y-149805155D01*
X61072002Y-149805155D01*
X61199296Y-149771047D01*
X61313424Y-149705155D01*
X61406610Y-149611969D01*
X61472502Y-149497841D01*
X61506610Y-149370547D01*
X61506610Y-149238763D01*
X61472502Y-149111469D01*
X61406610Y-148997341D01*
X61313424Y-148904155D01*
X61256360Y-148871209D01*
X61199297Y-148838263D01*
X61135649Y-148821209D01*
X61072002Y-148804155D01*
X60940218Y-148804155D01*
X60812922Y-148838263D01*
X60698796Y-148904155D01*
X60698793Y-148904157D01*
X60605612Y-148997338D01*
X60605610Y-148997341D01*
X60539718Y-149111467D01*
X60505610Y-149238763D01*
X37376662Y-149238763D01*
X37390442Y-147183627D01*
X53792050Y-147183627D01*
X53792050Y-147315411D01*
X53803278Y-147357315D01*
X53826158Y-147442706D01*
X53853371Y-147489839D01*
X53892050Y-147556833D01*
X53985236Y-147650019D01*
X54099364Y-147715911D01*
X54226658Y-147750019D01*
X54226660Y-147750019D01*
X54358440Y-147750019D01*
X54358442Y-147750019D01*
X54485736Y-147715911D01*
X54533622Y-147688263D01*
X54601521Y-147671791D01*
X54667548Y-147694643D01*
X54683303Y-147707970D01*
X54771730Y-147796397D01*
X54885858Y-147862289D01*
X55013152Y-147896397D01*
X55013154Y-147896397D01*
X55144934Y-147896397D01*
X55144936Y-147896397D01*
X55272230Y-147862289D01*
X55386358Y-147796397D01*
X55479544Y-147703211D01*
X55489550Y-147685879D01*
X55540117Y-147637664D01*
X55608724Y-147624441D01*
X55673589Y-147650409D01*
X55714117Y-147707323D01*
X55720937Y-147747880D01*
X55720937Y-147797497D01*
X55755045Y-147924793D01*
X55755046Y-147924794D01*
X55820937Y-148038920D01*
X55820939Y-148038922D01*
X55910599Y-148128582D01*
X55944084Y-148189905D01*
X55939100Y-148259597D01*
X55930306Y-148278262D01*
X55903608Y-148324503D01*
X55869500Y-148451800D01*
X55869500Y-148583584D01*
X55880358Y-148624108D01*
X55903608Y-148710879D01*
X55929596Y-148755890D01*
X55969500Y-148825006D01*
X56062686Y-148918192D01*
X56176814Y-148984084D01*
X56304108Y-149018192D01*
X56304110Y-149018192D01*
X56377815Y-149018192D01*
X56435892Y-149018192D01*
X56563186Y-148984084D01*
X56677314Y-148918192D01*
X56770500Y-148825006D01*
X56836392Y-148710878D01*
X56859642Y-148624108D01*
X78003400Y-148624108D01*
X78003400Y-148755891D01*
X78037508Y-148883187D01*
X78057717Y-148918189D01*
X78103400Y-148997314D01*
X78196586Y-149090500D01*
X78310714Y-149156392D01*
X78438008Y-149190500D01*
X78438010Y-149190500D01*
X78569790Y-149190500D01*
X78569792Y-149190500D01*
X78697086Y-149156392D01*
X78811214Y-149090500D01*
X78904400Y-148997314D01*
X78970292Y-148883186D01*
X79004400Y-148755892D01*
X79004400Y-148624108D01*
X78970292Y-148496814D01*
X78904400Y-148382686D01*
X78811214Y-148289500D01*
X78742641Y-148249909D01*
X78697087Y-148223608D01*
X78571303Y-148189905D01*
X78569792Y-148189500D01*
X78438008Y-148189500D01*
X78310712Y-148223608D01*
X78196586Y-148289500D01*
X78196583Y-148289502D01*
X78103402Y-148382683D01*
X78103400Y-148382686D01*
X78037508Y-148496812D01*
X78003400Y-148624108D01*
X56859642Y-148624108D01*
X56870500Y-148583584D01*
X56870500Y-148451800D01*
X56836392Y-148324506D01*
X56770500Y-148210378D01*
X56680836Y-148120714D01*
X56647352Y-148059390D01*
X56652336Y-147989699D01*
X56661128Y-147971038D01*
X56687829Y-147924792D01*
X56721937Y-147797498D01*
X56721937Y-147665714D01*
X56687829Y-147538420D01*
X56621937Y-147424292D01*
X56528751Y-147331106D01*
X56471687Y-147298160D01*
X56414624Y-147265214D01*
X56332420Y-147243188D01*
X56287329Y-147231106D01*
X56155545Y-147231106D01*
X56028249Y-147265214D01*
X55914123Y-147331106D01*
X55914120Y-147331108D01*
X55820939Y-147424289D01*
X55820935Y-147424295D01*
X55810930Y-147441624D01*
X55760362Y-147489839D01*
X55691755Y-147503060D01*
X55626891Y-147477091D01*
X55586363Y-147420176D01*
X55581288Y-147400345D01*
X55579544Y-147390056D01*
X55579544Y-147330005D01*
X55551837Y-147226601D01*
X55550865Y-147220865D01*
X55554310Y-147191724D01*
X55555009Y-147162386D01*
X55558365Y-147157426D01*
X55559069Y-147151479D01*
X55577719Y-147128830D01*
X55594171Y-147104523D01*
X55600366Y-147101329D01*
X55603484Y-147097543D01*
X55614691Y-147093943D01*
X55641025Y-147080368D01*
X55693186Y-147066392D01*
X55807314Y-147000500D01*
X55900500Y-146907314D01*
X55966392Y-146793186D01*
X56000500Y-146665892D01*
X56000500Y-146534108D01*
X55966392Y-146406814D01*
X55963098Y-146401108D01*
X57001500Y-146401108D01*
X57001500Y-146532892D01*
X57014743Y-146582316D01*
X57035608Y-146660187D01*
X57056222Y-146695890D01*
X57101500Y-146774314D01*
X57101501Y-146774315D01*
X57101502Y-146774316D01*
X57111096Y-146783910D01*
X57144581Y-146845233D01*
X57139597Y-146914925D01*
X57115234Y-146952840D01*
X57115684Y-146953185D01*
X57111557Y-146958562D01*
X57111111Y-146959258D01*
X57110738Y-146959630D01*
X57044843Y-147073762D01*
X57010735Y-147201057D01*
X57010735Y-147332840D01*
X57044843Y-147460136D01*
X57069626Y-147503060D01*
X57110735Y-147574263D01*
X57203921Y-147667449D01*
X57288691Y-147716391D01*
X57313126Y-147730499D01*
X57318049Y-147733341D01*
X57445343Y-147767449D01*
X57445345Y-147767449D01*
X57577125Y-147767449D01*
X57577127Y-147767449D01*
X57704421Y-147733341D01*
X57818549Y-147667449D01*
X57911735Y-147574263D01*
X57977627Y-147460135D01*
X58011735Y-147332841D01*
X58011735Y-147264108D01*
X63499500Y-147264108D01*
X63499500Y-147395892D01*
X63511754Y-147441624D01*
X63533608Y-147523187D01*
X63566554Y-147580250D01*
X63599500Y-147637314D01*
X63692686Y-147730500D01*
X63806814Y-147796392D01*
X63934108Y-147830500D01*
X63934110Y-147830500D01*
X64065890Y-147830500D01*
X64065892Y-147830500D01*
X64193186Y-147796392D01*
X64307314Y-147730500D01*
X64400500Y-147637314D01*
X64415561Y-147611228D01*
X67091620Y-147611228D01*
X67091620Y-147743012D01*
X67098168Y-147767448D01*
X67125728Y-147870307D01*
X67157186Y-147924792D01*
X67191620Y-147984434D01*
X67284806Y-148077620D01*
X67398934Y-148143512D01*
X67526228Y-148177620D01*
X67526230Y-148177620D01*
X67658010Y-148177620D01*
X67658012Y-148177620D01*
X67785306Y-148143512D01*
X67899434Y-148077620D01*
X67992620Y-147984434D01*
X68058512Y-147870306D01*
X68092620Y-147743012D01*
X68092620Y-147611228D01*
X68058512Y-147483934D01*
X67992620Y-147369806D01*
X67899434Y-147276620D01*
X67802864Y-147220865D01*
X67785307Y-147210728D01*
X67714381Y-147191724D01*
X67658012Y-147176620D01*
X67526228Y-147176620D01*
X67398932Y-147210728D01*
X67284806Y-147276620D01*
X67284803Y-147276622D01*
X67191622Y-147369803D01*
X67191620Y-147369806D01*
X67125728Y-147483932D01*
X67101524Y-147574265D01*
X67091620Y-147611228D01*
X64415561Y-147611228D01*
X64466392Y-147523186D01*
X64500500Y-147395892D01*
X64500500Y-147264108D01*
X64479737Y-147186619D01*
X64481400Y-147116774D01*
X64520562Y-147058912D01*
X64584790Y-147031407D01*
X64653692Y-147042993D01*
X64661512Y-147047143D01*
X64684647Y-147060500D01*
X64746814Y-147096392D01*
X64874108Y-147130500D01*
X64874110Y-147130500D01*
X65005890Y-147130500D01*
X65005892Y-147130500D01*
X65133186Y-147096392D01*
X65247314Y-147030500D01*
X65293704Y-146984110D01*
X68999500Y-146984110D01*
X68999500Y-147115894D01*
X69009035Y-147151479D01*
X69033608Y-147243189D01*
X69052910Y-147276620D01*
X69099500Y-147357316D01*
X69192686Y-147450502D01*
X69306814Y-147516394D01*
X69434108Y-147550502D01*
X69434110Y-147550502D01*
X69565890Y-147550502D01*
X69565892Y-147550502D01*
X69693186Y-147516394D01*
X69807314Y-147450502D01*
X69900500Y-147357316D01*
X69966392Y-147243188D01*
X69982222Y-147184108D01*
X83499500Y-147184108D01*
X83499500Y-147315892D01*
X83510600Y-147357318D01*
X83533608Y-147443187D01*
X83543394Y-147460136D01*
X83599500Y-147557314D01*
X83692686Y-147650500D01*
X83806814Y-147716392D01*
X83934108Y-147750500D01*
X83934110Y-147750500D01*
X84065890Y-147750500D01*
X84065892Y-147750500D01*
X84193186Y-147716392D01*
X84307314Y-147650500D01*
X84400500Y-147557314D01*
X84466392Y-147443186D01*
X84500500Y-147315892D01*
X84500500Y-147184108D01*
X84466392Y-147056814D01*
X84400500Y-146942686D01*
X84307314Y-146849500D01*
X84220163Y-146799183D01*
X84193187Y-146783608D01*
X84118742Y-146763661D01*
X84065892Y-146749500D01*
X83934108Y-146749500D01*
X83806812Y-146783608D01*
X83692686Y-146849500D01*
X83692683Y-146849502D01*
X83599502Y-146942683D01*
X83599500Y-146942686D01*
X83533608Y-147056812D01*
X83513864Y-147130499D01*
X83499500Y-147184108D01*
X69982222Y-147184108D01*
X70000500Y-147115894D01*
X70000500Y-146984110D01*
X69966392Y-146856816D01*
X69900500Y-146742688D01*
X69807314Y-146649502D01*
X69807312Y-146649501D01*
X69807310Y-146649499D01*
X69710088Y-146593368D01*
X69710087Y-146593368D01*
X69693187Y-146583610D01*
X69620403Y-146564108D01*
X69565892Y-146549502D01*
X69434108Y-146549502D01*
X69306812Y-146583610D01*
X69192686Y-146649502D01*
X69192683Y-146649504D01*
X69099502Y-146742685D01*
X69099500Y-146742688D01*
X69033608Y-146856814D01*
X69003032Y-146970929D01*
X68999500Y-146984110D01*
X65293704Y-146984110D01*
X65340500Y-146937314D01*
X65406392Y-146823186D01*
X65440500Y-146695892D01*
X65440500Y-146564108D01*
X65421744Y-146494108D01*
X70499500Y-146494108D01*
X70499500Y-146625892D01*
X70512792Y-146675499D01*
X70533608Y-146753187D01*
X70560164Y-146799183D01*
X70599500Y-146867314D01*
X70692686Y-146960500D01*
X70806814Y-147026392D01*
X70934108Y-147060500D01*
X70934110Y-147060500D01*
X71065890Y-147060500D01*
X71065892Y-147060500D01*
X71193186Y-147026392D01*
X71307314Y-146960500D01*
X71400500Y-146867314D01*
X71466392Y-146753186D01*
X71500500Y-146625892D01*
X71500500Y-146494108D01*
X71466392Y-146366814D01*
X71400500Y-146252686D01*
X71307314Y-146159500D01*
X71232649Y-146116392D01*
X71193187Y-146093608D01*
X71129539Y-146076554D01*
X71065892Y-146059500D01*
X70934108Y-146059500D01*
X70806812Y-146093608D01*
X70692686Y-146159500D01*
X70692683Y-146159502D01*
X70599502Y-146252683D01*
X70599500Y-146252686D01*
X70533608Y-146366812D01*
X70506446Y-146468186D01*
X70499500Y-146494108D01*
X65421744Y-146494108D01*
X65406392Y-146436814D01*
X65399614Y-146425075D01*
X65365976Y-146366812D01*
X65340500Y-146322686D01*
X65247314Y-146229500D01*
X65133186Y-146163608D01*
X65114361Y-146158564D01*
X65054703Y-146122199D01*
X65024175Y-146059352D01*
X65032470Y-145989976D01*
X65076956Y-145936099D01*
X65084434Y-145931417D01*
X65156580Y-145889764D01*
X65249766Y-145796578D01*
X65315658Y-145682450D01*
X65349766Y-145555156D01*
X65349766Y-145459108D01*
X72299500Y-145459108D01*
X72299500Y-145590892D01*
X72309361Y-145627694D01*
X72333608Y-145718187D01*
X72349260Y-145745296D01*
X72399500Y-145832314D01*
X72492686Y-145925500D01*
X72606814Y-145991392D01*
X72734108Y-146025500D01*
X72734110Y-146025500D01*
X72865890Y-146025500D01*
X72865892Y-146025500D01*
X72993186Y-145991392D01*
X73107314Y-145925500D01*
X73200500Y-145832314D01*
X73266392Y-145718186D01*
X73300500Y-145590892D01*
X73300500Y-145590890D01*
X73302317Y-145584108D01*
X75599500Y-145584108D01*
X75599500Y-145715891D01*
X75633608Y-145843187D01*
X75651687Y-145874500D01*
X75699500Y-145957314D01*
X75792686Y-146050500D01*
X75891521Y-146107563D01*
X75906673Y-146116311D01*
X75906814Y-146116392D01*
X76034108Y-146150500D01*
X76034110Y-146150500D01*
X76075563Y-146150500D01*
X76142602Y-146170185D01*
X76188357Y-146222989D01*
X76198502Y-146258310D01*
X76199500Y-146265892D01*
X76233608Y-146393187D01*
X76258797Y-146436814D01*
X76299500Y-146507314D01*
X76392686Y-146600500D01*
X76477555Y-146649499D01*
X76505944Y-146665890D01*
X76506814Y-146666392D01*
X76634108Y-146700500D01*
X76634110Y-146700500D01*
X76765890Y-146700500D01*
X76765892Y-146700500D01*
X76893186Y-146666392D01*
X77007314Y-146600500D01*
X77100500Y-146507314D01*
X77166392Y-146393186D01*
X77200500Y-146265892D01*
X77200500Y-146134108D01*
X77166392Y-146006814D01*
X77100500Y-145892686D01*
X77007314Y-145799500D01*
X76893186Y-145733608D01*
X76765892Y-145699500D01*
X76711999Y-145699500D01*
X76699810Y-145697030D01*
X76679464Y-145686294D01*
X76657398Y-145679815D01*
X76649153Y-145670300D01*
X76638015Y-145664423D01*
X76626702Y-145644390D01*
X76612233Y-145627692D01*
X78014500Y-145627692D01*
X78014500Y-145759476D01*
X78023533Y-145793187D01*
X78048608Y-145886771D01*
X78060469Y-145907314D01*
X78114500Y-146000898D01*
X78207686Y-146094084D01*
X78305399Y-146150499D01*
X78321311Y-146159686D01*
X78321814Y-146159976D01*
X78449108Y-146194084D01*
X78449117Y-146194084D01*
X78456189Y-146195016D01*
X78520085Y-146223282D01*
X78558557Y-146281606D01*
X78564004Y-146317955D01*
X78564004Y-146340891D01*
X78598112Y-146468187D01*
X78620704Y-146507316D01*
X78664004Y-146582314D01*
X78757190Y-146675500D01*
X78871318Y-146741392D01*
X78998612Y-146775500D01*
X78998614Y-146775500D01*
X79130394Y-146775500D01*
X79130396Y-146775500D01*
X79257690Y-146741392D01*
X79371818Y-146675500D01*
X79465004Y-146582314D01*
X79530896Y-146468186D01*
X79565004Y-146340892D01*
X79565004Y-146209108D01*
X79530896Y-146081814D01*
X79465004Y-145967686D01*
X79371818Y-145874500D01*
X79314754Y-145841554D01*
X79257691Y-145808608D01*
X79200134Y-145793186D01*
X79130396Y-145774500D01*
X79130395Y-145774500D01*
X79130391Y-145774499D01*
X79123307Y-145773566D01*
X79059413Y-145745296D01*
X79020945Y-145686969D01*
X79015500Y-145650628D01*
X79015500Y-145627694D01*
X79015500Y-145627692D01*
X78981392Y-145500398D01*
X78915500Y-145386270D01*
X78822314Y-145293084D01*
X78748555Y-145250499D01*
X78708187Y-145227192D01*
X78644539Y-145210138D01*
X78580892Y-145193084D01*
X78449108Y-145193084D01*
X78321812Y-145227192D01*
X78207686Y-145293084D01*
X78207683Y-145293086D01*
X78114502Y-145386267D01*
X78114500Y-145386270D01*
X78048608Y-145500396D01*
X78021936Y-145599939D01*
X78014500Y-145627692D01*
X76612233Y-145627692D01*
X76611643Y-145627011D01*
X76606213Y-145608107D01*
X76603659Y-145603584D01*
X76603867Y-145599939D01*
X76601498Y-145591690D01*
X76600500Y-145584114D01*
X76600500Y-145584108D01*
X76566392Y-145456814D01*
X76500500Y-145342686D01*
X76407314Y-145249500D01*
X76350250Y-145216554D01*
X76293187Y-145183608D01*
X76229539Y-145166554D01*
X76165892Y-145149500D01*
X76034108Y-145149500D01*
X75906812Y-145183608D01*
X75792686Y-145249500D01*
X75792683Y-145249502D01*
X75699502Y-145342683D01*
X75699500Y-145342686D01*
X75633608Y-145456812D01*
X75599500Y-145584108D01*
X73302317Y-145584108D01*
X73302603Y-145583042D01*
X73305671Y-145583864D01*
X73307150Y-145580517D01*
X73309816Y-145562083D01*
X73320978Y-145549222D01*
X73327861Y-145533646D01*
X73343404Y-145523383D01*
X73355614Y-145509317D01*
X73383123Y-145497160D01*
X73386169Y-145495150D01*
X73387731Y-145494681D01*
X73389049Y-145494295D01*
X73493186Y-145466392D01*
X73607314Y-145400500D01*
X73700500Y-145307314D01*
X73766392Y-145193186D01*
X73800500Y-145065892D01*
X73800500Y-144934108D01*
X73766392Y-144806814D01*
X73753283Y-144784108D01*
X80239500Y-144784108D01*
X80239500Y-144915892D01*
X80246265Y-144941139D01*
X80273608Y-145043187D01*
X80299924Y-145088766D01*
X80339500Y-145157314D01*
X80432686Y-145250500D01*
X80546814Y-145316392D01*
X80674108Y-145350500D01*
X80674110Y-145350500D01*
X80805890Y-145350500D01*
X80805892Y-145350500D01*
X80933186Y-145316392D01*
X81047314Y-145250500D01*
X81140500Y-145157314D01*
X81206392Y-145043186D01*
X81240500Y-144915892D01*
X81240500Y-144784108D01*
X81206392Y-144656814D01*
X81140500Y-144542686D01*
X81047314Y-144449500D01*
X80990250Y-144416554D01*
X80933187Y-144383608D01*
X80869539Y-144366554D01*
X80805892Y-144349500D01*
X80674108Y-144349500D01*
X80546812Y-144383608D01*
X80432686Y-144449500D01*
X80432683Y-144449502D01*
X80339502Y-144542683D01*
X80339500Y-144542686D01*
X80273608Y-144656812D01*
X80263997Y-144692683D01*
X80239500Y-144784108D01*
X73753283Y-144784108D01*
X73700500Y-144692686D01*
X73607314Y-144599500D01*
X73508910Y-144542686D01*
X73493187Y-144533608D01*
X73429539Y-144516554D01*
X73365892Y-144499500D01*
X73234108Y-144499500D01*
X73106812Y-144533608D01*
X72992686Y-144599500D01*
X72992683Y-144599502D01*
X72899502Y-144692683D01*
X72899500Y-144692686D01*
X72833608Y-144806812D01*
X72833270Y-144808074D01*
X72804382Y-144915890D01*
X72797397Y-144941958D01*
X72794342Y-144941139D01*
X72772076Y-144991426D01*
X72713739Y-145029877D01*
X72709528Y-145031085D01*
X72606814Y-145058608D01*
X72606812Y-145058608D01*
X72606812Y-145058609D01*
X72492686Y-145124500D01*
X72492683Y-145124502D01*
X72399502Y-145217683D01*
X72399500Y-145217686D01*
X72333608Y-145331812D01*
X72313512Y-145406814D01*
X72299500Y-145459108D01*
X65349766Y-145459108D01*
X65349766Y-145423372D01*
X65315658Y-145296078D01*
X65313929Y-145293084D01*
X65289343Y-145250499D01*
X65249766Y-145181950D01*
X65156580Y-145088764D01*
X65077637Y-145043186D01*
X65042453Y-145022872D01*
X64978805Y-145005818D01*
X64915158Y-144988764D01*
X64783374Y-144988764D01*
X64656078Y-145022872D01*
X64541952Y-145088764D01*
X64541949Y-145088766D01*
X64448768Y-145181947D01*
X64448766Y-145181950D01*
X64382874Y-145296076D01*
X64368292Y-145350499D01*
X64348766Y-145423372D01*
X64348766Y-145555156D01*
X64361742Y-145603584D01*
X64382874Y-145682451D01*
X64397917Y-145708505D01*
X64448766Y-145796578D01*
X64541952Y-145889764D01*
X64656080Y-145955656D01*
X64674900Y-145960698D01*
X64734560Y-145997062D01*
X64765090Y-146059908D01*
X64756796Y-146129284D01*
X64712312Y-146183162D01*
X64704808Y-146187860D01*
X64632686Y-146229500D01*
X64632683Y-146229502D01*
X64539502Y-146322683D01*
X64539500Y-146322686D01*
X64473608Y-146436812D01*
X64454718Y-146507313D01*
X64439500Y-146564108D01*
X64439500Y-146695892D01*
X64458002Y-146764944D01*
X64460262Y-146773376D01*
X64458599Y-146843226D01*
X64419436Y-146901088D01*
X64355208Y-146928592D01*
X64286306Y-146917005D01*
X64278487Y-146912856D01*
X64193189Y-146863609D01*
X64193186Y-146863608D01*
X64065892Y-146829500D01*
X63934108Y-146829500D01*
X63806812Y-146863608D01*
X63692686Y-146929500D01*
X63692683Y-146929502D01*
X63599502Y-147022683D01*
X63599500Y-147022686D01*
X63533608Y-147136812D01*
X63518895Y-147191724D01*
X63499500Y-147264108D01*
X58011735Y-147264108D01*
X58011735Y-147201057D01*
X57977627Y-147073763D01*
X57911735Y-146959635D01*
X57902138Y-146950038D01*
X57868653Y-146888715D01*
X57873637Y-146819023D01*
X57898003Y-146781112D01*
X57897551Y-146780765D01*
X57901714Y-146775338D01*
X57902145Y-146774669D01*
X57902146Y-146774667D01*
X57902500Y-146774314D01*
X57968392Y-146660186D01*
X58002500Y-146532892D01*
X58002500Y-146401108D01*
X57968392Y-146273814D01*
X57902500Y-146159686D01*
X57809314Y-146066500D01*
X57738300Y-146025500D01*
X57695187Y-146000608D01*
X57631539Y-145983554D01*
X57567892Y-145966500D01*
X57436108Y-145966500D01*
X57308812Y-146000608D01*
X57194686Y-146066500D01*
X57194683Y-146066502D01*
X57101502Y-146159683D01*
X57101500Y-146159686D01*
X57035608Y-146273812D01*
X57010689Y-146366812D01*
X57001500Y-146401108D01*
X55963098Y-146401108D01*
X55900500Y-146292686D01*
X55807314Y-146199500D01*
X55694307Y-146134255D01*
X55646091Y-146083688D01*
X55632869Y-146015081D01*
X55658837Y-145950216D01*
X55668619Y-145939194D01*
X55700500Y-145907314D01*
X55766392Y-145793186D01*
X55800500Y-145665892D01*
X55800500Y-145534108D01*
X55766392Y-145406814D01*
X55700500Y-145292686D01*
X55607314Y-145199500D01*
X55550250Y-145166554D01*
X55493187Y-145133608D01*
X55429539Y-145116554D01*
X55365892Y-145099500D01*
X55234108Y-145099500D01*
X55106812Y-145133608D01*
X54992686Y-145199500D01*
X54992683Y-145199502D01*
X54899502Y-145292683D01*
X54899500Y-145292686D01*
X54833608Y-145406812D01*
X54799500Y-145534108D01*
X54799500Y-145665891D01*
X54833608Y-145793187D01*
X54856200Y-145832316D01*
X54899500Y-145907314D01*
X54992686Y-146000500D01*
X55105692Y-146065744D01*
X55153908Y-146116311D01*
X55167131Y-146184918D01*
X55141163Y-146249783D01*
X55131374Y-146260811D01*
X55099503Y-146292682D01*
X55099500Y-146292686D01*
X55033608Y-146406812D01*
X55017163Y-146468187D01*
X54999500Y-146534108D01*
X54999500Y-146665892D01*
X55025697Y-146763661D01*
X55025680Y-146764351D01*
X55026033Y-146764944D01*
X55024851Y-146799183D01*
X55024034Y-146833511D01*
X55023646Y-146834083D01*
X55023623Y-146834772D01*
X55004100Y-146862961D01*
X54984871Y-146891373D01*
X54984105Y-146891833D01*
X54983844Y-146892212D01*
X54981483Y-146893412D01*
X54953512Y-146910258D01*
X54945932Y-146913408D01*
X54885858Y-146929505D01*
X54831007Y-146961173D01*
X54823561Y-146964268D01*
X54796510Y-146967209D01*
X54770069Y-146973623D01*
X54762288Y-146970929D01*
X54754101Y-146971820D01*
X54729752Y-146959668D01*
X54704043Y-146950770D01*
X54692704Y-146941179D01*
X54691584Y-146940620D01*
X54691118Y-146939837D01*
X54688290Y-146937445D01*
X54599866Y-146849021D01*
X54599864Y-146849019D01*
X54513546Y-146799183D01*
X54485737Y-146783127D01*
X54373997Y-146753187D01*
X54358442Y-146749019D01*
X54226658Y-146749019D01*
X54099362Y-146783127D01*
X53985236Y-146849019D01*
X53985233Y-146849021D01*
X53892052Y-146942202D01*
X53892050Y-146942205D01*
X53826158Y-147056331D01*
X53792050Y-147183627D01*
X37390442Y-147183627D01*
X37418131Y-143054108D01*
X57408500Y-143054108D01*
X57408500Y-143185892D01*
X57416035Y-143214012D01*
X57442608Y-143313187D01*
X57468264Y-143357624D01*
X57508500Y-143427314D01*
X57601686Y-143520500D01*
X57715814Y-143586392D01*
X57843108Y-143620500D01*
X57843110Y-143620500D01*
X57974890Y-143620500D01*
X57974892Y-143620500D01*
X58102186Y-143586392D01*
X58216314Y-143520500D01*
X58309500Y-143427314D01*
X58375392Y-143313186D01*
X58409500Y-143185892D01*
X58409500Y-143058991D01*
X60508500Y-143058991D01*
X60508500Y-143190775D01*
X60512934Y-143207322D01*
X60542608Y-143318070D01*
X60558594Y-143345758D01*
X60608500Y-143432197D01*
X60701686Y-143525383D01*
X60815814Y-143591275D01*
X60943108Y-143625383D01*
X60943110Y-143625383D01*
X61074890Y-143625383D01*
X61074892Y-143625383D01*
X61202186Y-143591275D01*
X61316314Y-143525383D01*
X61409500Y-143432197D01*
X61475392Y-143318069D01*
X61509500Y-143190775D01*
X61509500Y-143151108D01*
X64499501Y-143151108D01*
X64499501Y-143282892D01*
X64508590Y-143316812D01*
X64533609Y-143410187D01*
X64546317Y-143432197D01*
X64599501Y-143524314D01*
X64692687Y-143617500D01*
X64806815Y-143683392D01*
X64934109Y-143717500D01*
X64934111Y-143717500D01*
X65065891Y-143717500D01*
X65065893Y-143717500D01*
X65193187Y-143683392D01*
X65307315Y-143617500D01*
X65400501Y-143524314D01*
X65466393Y-143410186D01*
X65500501Y-143282892D01*
X65500501Y-143151108D01*
X65466393Y-143023814D01*
X65400501Y-142909686D01*
X65324931Y-142834116D01*
X71946310Y-142834116D01*
X71946310Y-142965900D01*
X71958231Y-143010391D01*
X71980418Y-143093195D01*
X71984280Y-143099884D01*
X72046310Y-143207322D01*
X72139496Y-143300508D01*
X72253624Y-143366400D01*
X72377596Y-143399617D01*
X72437253Y-143435980D01*
X72467783Y-143498827D01*
X72469500Y-143519391D01*
X72469500Y-143575892D01*
X72480649Y-143617500D01*
X72503608Y-143703187D01*
X72511872Y-143717500D01*
X72569500Y-143817314D01*
X72662686Y-143910500D01*
X72776814Y-143976392D01*
X72904108Y-144010500D01*
X72904110Y-144010500D01*
X73035890Y-144010500D01*
X73035892Y-144010500D01*
X73163186Y-143976392D01*
X73277314Y-143910500D01*
X73370500Y-143817314D01*
X73436392Y-143703186D01*
X73470500Y-143575892D01*
X73470500Y-143444108D01*
X73436392Y-143316814D01*
X73430838Y-143307195D01*
X73409994Y-143271092D01*
X73370500Y-143202686D01*
X73277314Y-143109500D01*
X73163186Y-143043608D01*
X73039214Y-143010390D01*
X72979556Y-142974026D01*
X72949027Y-142911179D01*
X72947310Y-142890616D01*
X72947310Y-142834118D01*
X72947310Y-142834116D01*
X72913202Y-142706822D01*
X72847310Y-142592694D01*
X72754124Y-142499508D01*
X72697060Y-142466562D01*
X72639997Y-142433616D01*
X72576349Y-142416562D01*
X72512702Y-142399508D01*
X72380918Y-142399508D01*
X72253622Y-142433616D01*
X72139496Y-142499508D01*
X72139493Y-142499510D01*
X72046312Y-142592691D01*
X72046310Y-142592694D01*
X71980418Y-142706820D01*
X71950744Y-142817569D01*
X71946310Y-142834116D01*
X65324931Y-142834116D01*
X65307315Y-142816500D01*
X65250251Y-142783554D01*
X65193188Y-142750608D01*
X65129540Y-142733554D01*
X65065893Y-142716500D01*
X64934109Y-142716500D01*
X64806813Y-142750608D01*
X64692687Y-142816500D01*
X64692684Y-142816502D01*
X64599503Y-142909683D01*
X64599501Y-142909686D01*
X64533609Y-143023812D01*
X64513226Y-143099884D01*
X64499501Y-143151108D01*
X61509500Y-143151108D01*
X61509500Y-143058991D01*
X61475392Y-142931697D01*
X61409500Y-142817569D01*
X61316314Y-142724383D01*
X61259250Y-142691437D01*
X61202187Y-142658491D01*
X61138539Y-142641437D01*
X61074892Y-142624383D01*
X60943108Y-142624383D01*
X60815812Y-142658491D01*
X60701686Y-142724383D01*
X60701683Y-142724385D01*
X60608502Y-142817566D01*
X60608500Y-142817569D01*
X60542608Y-142931695D01*
X60512209Y-143045150D01*
X60508500Y-143058991D01*
X58409500Y-143058991D01*
X58409500Y-143054108D01*
X58375392Y-142926814D01*
X58309500Y-142812686D01*
X58216314Y-142719500D01*
X58110644Y-142658491D01*
X58102187Y-142653608D01*
X58038539Y-142636554D01*
X57974892Y-142619500D01*
X57843108Y-142619500D01*
X57715812Y-142653608D01*
X57601686Y-142719500D01*
X57601683Y-142719502D01*
X57508502Y-142812683D01*
X57508500Y-142812686D01*
X57442608Y-142926812D01*
X57420214Y-143010391D01*
X57408500Y-143054108D01*
X37418131Y-143054108D01*
X37427270Y-141691109D01*
X71231043Y-141691109D01*
X71231043Y-141822893D01*
X71248097Y-141886540D01*
X71265151Y-141950188D01*
X71298097Y-142007251D01*
X71331043Y-142064315D01*
X71424229Y-142157501D01*
X71538357Y-142223393D01*
X71665651Y-142257501D01*
X71665653Y-142257501D01*
X71797433Y-142257501D01*
X71797435Y-142257501D01*
X71924729Y-142223393D01*
X72038857Y-142157501D01*
X72132043Y-142064315D01*
X72197935Y-141950187D01*
X72232043Y-141822893D01*
X72232043Y-141691109D01*
X72197935Y-141563815D01*
X72132043Y-141449687D01*
X72038857Y-141356501D01*
X71924730Y-141290609D01*
X71861082Y-141273555D01*
X71840798Y-141268120D01*
X81124957Y-141268120D01*
X81124957Y-141399903D01*
X81159065Y-141527199D01*
X81167135Y-141541176D01*
X81224957Y-141641326D01*
X81318143Y-141734512D01*
X81318145Y-141734513D01*
X81324594Y-141739462D01*
X81323450Y-141740952D01*
X81364506Y-141784006D01*
X81377732Y-141852613D01*
X81361681Y-141902829D01*
X81353610Y-141916808D01*
X81353609Y-141916811D01*
X81353609Y-141916812D01*
X81353608Y-141916814D01*
X81319500Y-142044108D01*
X81319500Y-142175892D01*
X81332228Y-142223393D01*
X81353608Y-142303187D01*
X81386554Y-142360250D01*
X81419500Y-142417314D01*
X81419502Y-142417316D01*
X81464895Y-142462709D01*
X81498380Y-142524032D01*
X81493396Y-142593724D01*
X81484602Y-142612389D01*
X81426220Y-142713510D01*
X81392112Y-142840806D01*
X81392112Y-142972589D01*
X81426220Y-143099885D01*
X81455794Y-143151108D01*
X81492112Y-143214012D01*
X81585298Y-143307198D01*
X81699426Y-143373090D01*
X81736239Y-143382954D01*
X81795899Y-143419317D01*
X81826429Y-143482163D01*
X81818135Y-143551539D01*
X81811533Y-143564728D01*
X81767676Y-143640690D01*
X81767676Y-143640691D01*
X81767676Y-143640692D01*
X81767675Y-143640694D01*
X81750930Y-143703187D01*
X81733567Y-143767988D01*
X81733567Y-143899771D01*
X81767675Y-144027067D01*
X81800621Y-144084130D01*
X81833567Y-144141194D01*
X81926753Y-144234380D01*
X82040881Y-144300272D01*
X82168175Y-144334380D01*
X82168177Y-144334380D01*
X82299957Y-144334380D01*
X82299959Y-144334380D01*
X82427253Y-144300272D01*
X82541381Y-144234380D01*
X82634567Y-144141194D01*
X82700459Y-144027066D01*
X82734567Y-143899772D01*
X82734567Y-143767988D01*
X82700459Y-143640694D01*
X82634567Y-143526566D01*
X82541381Y-143433380D01*
X82427253Y-143367488D01*
X82390436Y-143357623D01*
X82370971Y-143345758D01*
X82349517Y-143338072D01*
X82341712Y-143327924D01*
X82330778Y-143321259D01*
X82320817Y-143300753D01*
X82306923Y-143282687D01*
X82305843Y-143269929D01*
X82300249Y-143258412D01*
X82302955Y-143235778D01*
X82301034Y-143213066D01*
X82307806Y-143195204D01*
X82308544Y-143189036D01*
X82312938Y-143179840D01*
X82314003Y-143177827D01*
X82336242Y-143139308D01*
X87078700Y-143139308D01*
X87078700Y-143271092D01*
X87089979Y-143313186D01*
X87112808Y-143398387D01*
X87129511Y-143427316D01*
X87178700Y-143512514D01*
X87271886Y-143605700D01*
X87386014Y-143671592D01*
X87513308Y-143705700D01*
X87513310Y-143705700D01*
X87645090Y-143705700D01*
X87645092Y-143705700D01*
X87772386Y-143671592D01*
X87886514Y-143605700D01*
X87979700Y-143512514D01*
X88045592Y-143398386D01*
X88079700Y-143271092D01*
X88079700Y-143139308D01*
X88045592Y-143012014D01*
X87979700Y-142897886D01*
X87886514Y-142804700D01*
X87829450Y-142771754D01*
X87772387Y-142738808D01*
X87700327Y-142719500D01*
X87645092Y-142704700D01*
X87513308Y-142704700D01*
X87386012Y-142738808D01*
X87271886Y-142804700D01*
X87271883Y-142804702D01*
X87178702Y-142897883D01*
X87178700Y-142897886D01*
X87112808Y-143012012D01*
X87089263Y-143099885D01*
X87078700Y-143139308D01*
X82336242Y-143139308D01*
X82359004Y-143099884D01*
X82393112Y-142972590D01*
X82393112Y-142840806D01*
X82359004Y-142713512D01*
X82293112Y-142599384D01*
X82247715Y-142553987D01*
X82214230Y-142492664D01*
X82219214Y-142422972D01*
X82228006Y-142404312D01*
X82286392Y-142303186D01*
X82320500Y-142175892D01*
X82320500Y-142044108D01*
X82286392Y-141916814D01*
X82220500Y-141802686D01*
X82127314Y-141709500D01*
X82127311Y-141709498D01*
X82120865Y-141704552D01*
X82122006Y-141703064D01*
X82080943Y-141659991D01*
X82067725Y-141591383D01*
X82083777Y-141541179D01*
X82091849Y-141527198D01*
X82125957Y-141399904D01*
X82125957Y-141268120D01*
X82091849Y-141140826D01*
X82025957Y-141026698D01*
X81932771Y-140933512D01*
X81875707Y-140900566D01*
X81818644Y-140867620D01*
X81754996Y-140850566D01*
X81691349Y-140833512D01*
X81559565Y-140833512D01*
X81432269Y-140867620D01*
X81318143Y-140933512D01*
X81318140Y-140933514D01*
X81224959Y-141026695D01*
X81224957Y-141026698D01*
X81159065Y-141140824D01*
X81124957Y-141268120D01*
X71840798Y-141268120D01*
X71797435Y-141256501D01*
X71665651Y-141256501D01*
X71538355Y-141290609D01*
X71424229Y-141356501D01*
X71424226Y-141356503D01*
X71331045Y-141449684D01*
X71331043Y-141449687D01*
X71265151Y-141563813D01*
X71242742Y-141647447D01*
X71231043Y-141691109D01*
X37427270Y-141691109D01*
X37436906Y-140254108D01*
X47389500Y-140254108D01*
X47389500Y-140385891D01*
X47423608Y-140513187D01*
X47456554Y-140570250D01*
X47489500Y-140627314D01*
X47582686Y-140720500D01*
X47696814Y-140786392D01*
X47824108Y-140820500D01*
X47824110Y-140820500D01*
X47955890Y-140820500D01*
X47955892Y-140820500D01*
X48083186Y-140786392D01*
X48197314Y-140720500D01*
X48290500Y-140627314D01*
X48356392Y-140513186D01*
X48390500Y-140385892D01*
X48390500Y-140254108D01*
X48356392Y-140126814D01*
X48290500Y-140012686D01*
X48197314Y-139919500D01*
X48140250Y-139886554D01*
X48083187Y-139853608D01*
X48019539Y-139836554D01*
X47955892Y-139819500D01*
X47824108Y-139819500D01*
X47696812Y-139853608D01*
X47582686Y-139919500D01*
X47582683Y-139919502D01*
X47489502Y-140012683D01*
X47489500Y-140012686D01*
X47423608Y-140126812D01*
X47389500Y-140254108D01*
X37436906Y-140254108D01*
X37444047Y-139189108D01*
X57124500Y-139189108D01*
X57124500Y-139320891D01*
X57158608Y-139448187D01*
X57169119Y-139466392D01*
X57224500Y-139562314D01*
X57317686Y-139655500D01*
X57431814Y-139721392D01*
X57559108Y-139755500D01*
X57559110Y-139755500D01*
X57690890Y-139755500D01*
X57690892Y-139755500D01*
X57818186Y-139721392D01*
X57932314Y-139655500D01*
X58025500Y-139562314D01*
X58091392Y-139448186D01*
X58125500Y-139320892D01*
X58125500Y-139189108D01*
X58110763Y-139134108D01*
X61049500Y-139134108D01*
X61049500Y-139265892D01*
X61064237Y-139320890D01*
X61083608Y-139393187D01*
X61115362Y-139448186D01*
X61149500Y-139507314D01*
X61242686Y-139600500D01*
X61356814Y-139666392D01*
X61484108Y-139700500D01*
X61484110Y-139700500D01*
X61615890Y-139700500D01*
X61615892Y-139700500D01*
X61743186Y-139666392D01*
X61857314Y-139600500D01*
X61950500Y-139507314D01*
X62016392Y-139393186D01*
X62050500Y-139265892D01*
X62050500Y-139134108D01*
X62016392Y-139006814D01*
X62016389Y-139006808D01*
X62005520Y-138987982D01*
X62005519Y-138987981D01*
X61982254Y-138947686D01*
X61974415Y-138934108D01*
X71299503Y-138934108D01*
X71299503Y-139065891D01*
X71333611Y-139193187D01*
X71347008Y-139216391D01*
X71399503Y-139307314D01*
X71492689Y-139400500D01*
X71606817Y-139466392D01*
X71734111Y-139500500D01*
X71734113Y-139500500D01*
X71865893Y-139500500D01*
X71865895Y-139500500D01*
X71993189Y-139466392D01*
X72107317Y-139400500D01*
X72200503Y-139307314D01*
X72266395Y-139193186D01*
X72300503Y-139065892D01*
X72300503Y-138934108D01*
X72266395Y-138806814D01*
X72200503Y-138692686D01*
X72191925Y-138684108D01*
X84499500Y-138684108D01*
X84499500Y-138815892D01*
X84516554Y-138879539D01*
X84533608Y-138943187D01*
X84536204Y-138947683D01*
X84599500Y-139057314D01*
X84692686Y-139150500D01*
X84806814Y-139216392D01*
X84934108Y-139250500D01*
X84934110Y-139250500D01*
X85065890Y-139250500D01*
X85065892Y-139250500D01*
X85193186Y-139216392D01*
X85307314Y-139150500D01*
X85400500Y-139057314D01*
X85466392Y-138943186D01*
X85500500Y-138815892D01*
X85500500Y-138684108D01*
X85466392Y-138556814D01*
X85400500Y-138442686D01*
X85307314Y-138349500D01*
X85220828Y-138299567D01*
X85193187Y-138283608D01*
X85129539Y-138266554D01*
X85065892Y-138249500D01*
X84934108Y-138249500D01*
X84806812Y-138283608D01*
X84692686Y-138349500D01*
X84692683Y-138349502D01*
X84599502Y-138442683D01*
X84599500Y-138442686D01*
X84533608Y-138556812D01*
X84522170Y-138599500D01*
X84499500Y-138684108D01*
X72191925Y-138684108D01*
X72107317Y-138599500D01*
X72033383Y-138556814D01*
X71993190Y-138533608D01*
X71929542Y-138516554D01*
X71865895Y-138499500D01*
X71734111Y-138499500D01*
X71606815Y-138533608D01*
X71492689Y-138599500D01*
X71492686Y-138599502D01*
X71399505Y-138692683D01*
X71399503Y-138692686D01*
X71333611Y-138806812D01*
X71299503Y-138934108D01*
X61974415Y-138934108D01*
X61950500Y-138892686D01*
X61857314Y-138799500D01*
X61779372Y-138754500D01*
X61743187Y-138733608D01*
X61679539Y-138716554D01*
X61615892Y-138699500D01*
X61484108Y-138699500D01*
X61356812Y-138733608D01*
X61242686Y-138799500D01*
X61242683Y-138799502D01*
X61149502Y-138892683D01*
X61149500Y-138892686D01*
X61083608Y-139006812D01*
X61067778Y-139065892D01*
X61049500Y-139134108D01*
X58110763Y-139134108D01*
X58091392Y-139061814D01*
X58025500Y-138947686D01*
X57932314Y-138854500D01*
X57865443Y-138815892D01*
X57818187Y-138788608D01*
X57754539Y-138771554D01*
X57690892Y-138754500D01*
X57559108Y-138754500D01*
X57431812Y-138788608D01*
X57317686Y-138854500D01*
X57317683Y-138854502D01*
X57224502Y-138947683D01*
X57224500Y-138947686D01*
X57158608Y-139061812D01*
X57124500Y-139189108D01*
X37444047Y-139189108D01*
X37453581Y-137767283D01*
X54812856Y-137767283D01*
X54812856Y-137899067D01*
X54822915Y-137936608D01*
X54846964Y-138026362D01*
X54879910Y-138083425D01*
X54912856Y-138140489D01*
X55006042Y-138233675D01*
X55120170Y-138299567D01*
X55247464Y-138333675D01*
X55247466Y-138333675D01*
X55379246Y-138333675D01*
X55379248Y-138333675D01*
X55506542Y-138299567D01*
X55620670Y-138233675D01*
X55713856Y-138140489D01*
X55779748Y-138026361D01*
X55803798Y-137936606D01*
X56099500Y-137936606D01*
X56099500Y-138068389D01*
X56133608Y-138195685D01*
X56155542Y-138233675D01*
X56199500Y-138309812D01*
X56292686Y-138402998D01*
X56406814Y-138468890D01*
X56534108Y-138502998D01*
X56534110Y-138502998D01*
X56665890Y-138502998D01*
X56665892Y-138502998D01*
X56793186Y-138468890D01*
X56907314Y-138402998D01*
X57000500Y-138309812D01*
X57066392Y-138195684D01*
X57100500Y-138068390D01*
X57100500Y-137936606D01*
X57066392Y-137809312D01*
X57000500Y-137695184D01*
X56907314Y-137601998D01*
X56844571Y-137565773D01*
X56844570Y-137565772D01*
X56793188Y-137536107D01*
X56793187Y-137536106D01*
X56793186Y-137536106D01*
X56665892Y-137501998D01*
X56534108Y-137501998D01*
X56406812Y-137536106D01*
X56292686Y-137601998D01*
X56292683Y-137602000D01*
X56199502Y-137695181D01*
X56199500Y-137695184D01*
X56133608Y-137809310D01*
X56099500Y-137936606D01*
X55803798Y-137936606D01*
X55813856Y-137899067D01*
X55813856Y-137767283D01*
X55779748Y-137639989D01*
X55725548Y-137546112D01*
X55709076Y-137478215D01*
X55713126Y-137466514D01*
X59965308Y-137466514D01*
X59965308Y-137598298D01*
X59976479Y-137639989D01*
X59999416Y-137725593D01*
X60032362Y-137782656D01*
X60065308Y-137839720D01*
X60158494Y-137932906D01*
X60272622Y-137998798D01*
X60399916Y-138032906D01*
X60399918Y-138032906D01*
X60531698Y-138032906D01*
X60531700Y-138032906D01*
X60658994Y-137998798D01*
X60773122Y-137932906D01*
X60866308Y-137839720D01*
X60932200Y-137725592D01*
X60966308Y-137598298D01*
X60966308Y-137466514D01*
X60932200Y-137339220D01*
X60866308Y-137225092D01*
X60773122Y-137131906D01*
X60711208Y-137096160D01*
X60658995Y-137066014D01*
X60595347Y-137048960D01*
X60531700Y-137031906D01*
X60399916Y-137031906D01*
X60272620Y-137066014D01*
X60158494Y-137131906D01*
X60158491Y-137131908D01*
X60065310Y-137225089D01*
X60065308Y-137225092D01*
X59999416Y-137339218D01*
X59972279Y-137440497D01*
X59965308Y-137466514D01*
X55713126Y-137466514D01*
X55731928Y-137412188D01*
X55785811Y-137369812D01*
X55785682Y-137369500D01*
X55786796Y-137369038D01*
X55786849Y-137368997D01*
X55787083Y-137368919D01*
X55793183Y-137366392D01*
X55793186Y-137366392D01*
X55907314Y-137300500D01*
X56000500Y-137207314D01*
X56066392Y-137093186D01*
X56100500Y-136965892D01*
X56100500Y-136834108D01*
X56066392Y-136706814D01*
X56059056Y-136694108D01*
X70679500Y-136694108D01*
X70679500Y-136825892D01*
X70685106Y-136846814D01*
X70713608Y-136953187D01*
X70730265Y-136982037D01*
X70779500Y-137067314D01*
X70872686Y-137160500D01*
X70986814Y-137226392D01*
X71114108Y-137260500D01*
X71114110Y-137260500D01*
X71245890Y-137260500D01*
X71245892Y-137260500D01*
X71373186Y-137226392D01*
X71487314Y-137160500D01*
X71580500Y-137067314D01*
X71646392Y-136953186D01*
X71680500Y-136825892D01*
X71680500Y-136694108D01*
X71646392Y-136566814D01*
X71646152Y-136566399D01*
X71630622Y-136539500D01*
X71580500Y-136452686D01*
X71487314Y-136359500D01*
X71401732Y-136310089D01*
X71373187Y-136293608D01*
X71309539Y-136276554D01*
X71245892Y-136259500D01*
X71114108Y-136259500D01*
X70986812Y-136293608D01*
X70872686Y-136359500D01*
X70872683Y-136359502D01*
X70779502Y-136452683D01*
X70779500Y-136452686D01*
X70713608Y-136566812D01*
X70694310Y-136638834D01*
X70679500Y-136694108D01*
X56059056Y-136694108D01*
X56000500Y-136592686D01*
X55907314Y-136499500D01*
X55838978Y-136460046D01*
X55793187Y-136433608D01*
X55729539Y-136416554D01*
X55665892Y-136399500D01*
X55534108Y-136399500D01*
X55406812Y-136433608D01*
X55292686Y-136499500D01*
X55292683Y-136499502D01*
X55199502Y-136592683D01*
X55199500Y-136592686D01*
X55133608Y-136706812D01*
X55116628Y-136770185D01*
X55099500Y-136834108D01*
X55099500Y-136965892D01*
X55126676Y-137067316D01*
X55133609Y-137093188D01*
X55133609Y-137093189D01*
X55187806Y-137187060D01*
X55204279Y-137254960D01*
X55181427Y-137320987D01*
X55127543Y-137363360D01*
X55127674Y-137363675D01*
X55126555Y-137364138D01*
X55126506Y-137364177D01*
X55126279Y-137364252D01*
X55120170Y-137366782D01*
X55006042Y-137432675D01*
X55006039Y-137432677D01*
X54912858Y-137525858D01*
X54912856Y-137525861D01*
X54846964Y-137639987D01*
X54826492Y-137716391D01*
X54812856Y-137767283D01*
X37453581Y-137767283D01*
X37465970Y-135919648D01*
X73124500Y-135919648D01*
X73124500Y-136051431D01*
X73158608Y-136178727D01*
X73184421Y-136223435D01*
X73224500Y-136292854D01*
X73317686Y-136386040D01*
X73390004Y-136427793D01*
X73417670Y-136443766D01*
X73465886Y-136494333D01*
X73479108Y-136562940D01*
X73453140Y-136627805D01*
X73443352Y-136638834D01*
X73349500Y-136732686D01*
X73283608Y-136846812D01*
X73260377Y-136933515D01*
X73249500Y-136974108D01*
X73249500Y-137105892D01*
X73256804Y-137133150D01*
X73283608Y-137233187D01*
X73316034Y-137289349D01*
X73349500Y-137347314D01*
X73442686Y-137440500D01*
X73556814Y-137506392D01*
X73684108Y-137540500D01*
X73684110Y-137540500D01*
X73815890Y-137540500D01*
X73815892Y-137540500D01*
X73943186Y-137506392D01*
X74057314Y-137440500D01*
X74150500Y-137347314D01*
X74216392Y-137233186D01*
X74250500Y-137105892D01*
X74250500Y-136974108D01*
X74216392Y-136846814D01*
X74150500Y-136732686D01*
X74057314Y-136639500D01*
X73955041Y-136580453D01*
X73952790Y-136579021D01*
X73942061Y-136566758D01*
X77263706Y-136566758D01*
X77263706Y-136698542D01*
X77277360Y-136749500D01*
X77297814Y-136825837D01*
X77314502Y-136854741D01*
X77363706Y-136939964D01*
X77456892Y-137033150D01*
X77555727Y-137090213D01*
X77566038Y-137096166D01*
X77571020Y-137099042D01*
X77698314Y-137133150D01*
X77698316Y-137133150D01*
X77830096Y-137133150D01*
X77830098Y-137133150D01*
X77957392Y-137099042D01*
X78071520Y-137033150D01*
X78164706Y-136939964D01*
X78164710Y-136939956D01*
X78169654Y-136933515D01*
X78172154Y-136935433D01*
X78211918Y-136897471D01*
X78280517Y-136884204D01*
X78330809Y-136900263D01*
X78402043Y-136941390D01*
X78402044Y-136941390D01*
X78402047Y-136941392D01*
X78529341Y-136975500D01*
X78529343Y-136975500D01*
X78661122Y-136975500D01*
X78661125Y-136975500D01*
X78742260Y-136953760D01*
X78812107Y-136955423D01*
X78869970Y-136994585D01*
X78881738Y-137011535D01*
X78894216Y-137033147D01*
X78930599Y-137096164D01*
X79023785Y-137189350D01*
X79099711Y-137233186D01*
X79137424Y-137254960D01*
X79137913Y-137255242D01*
X79265207Y-137289350D01*
X79265209Y-137289350D01*
X79396989Y-137289350D01*
X79396991Y-137289350D01*
X79524285Y-137255242D01*
X79638413Y-137189350D01*
X79643655Y-137184108D01*
X82499500Y-137184108D01*
X82499500Y-137315892D01*
X82507920Y-137347316D01*
X82533608Y-137443187D01*
X82553832Y-137478215D01*
X82599500Y-137557314D01*
X82692686Y-137650500D01*
X82806814Y-137716392D01*
X82934108Y-137750500D01*
X82934110Y-137750500D01*
X83065890Y-137750500D01*
X83065892Y-137750500D01*
X83193186Y-137716392D01*
X83307314Y-137650500D01*
X83400500Y-137557314D01*
X83466392Y-137443186D01*
X83500500Y-137315892D01*
X83500500Y-137184108D01*
X83466392Y-137056814D01*
X83400500Y-136942686D01*
X83307314Y-136849500D01*
X83250250Y-136816554D01*
X83193187Y-136783608D01*
X83129539Y-136766554D01*
X83065892Y-136749500D01*
X82934108Y-136749500D01*
X82806812Y-136783608D01*
X82692686Y-136849500D01*
X82692683Y-136849502D01*
X82599502Y-136942683D01*
X82599500Y-136942686D01*
X82533608Y-137056812D01*
X82513487Y-137131906D01*
X82499500Y-137184108D01*
X79643655Y-137184108D01*
X79731599Y-137096164D01*
X79797491Y-136982036D01*
X79831599Y-136854742D01*
X79831599Y-136722958D01*
X79797491Y-136595664D01*
X79731599Y-136481536D01*
X79638413Y-136388350D01*
X79580919Y-136355156D01*
X79524286Y-136322458D01*
X79416614Y-136293608D01*
X79396991Y-136288350D01*
X79265207Y-136288350D01*
X79265205Y-136288350D01*
X79184072Y-136310089D01*
X79114222Y-136308426D01*
X79056360Y-136269262D01*
X79044593Y-136252314D01*
X78995733Y-136167686D01*
X78902547Y-136074500D01*
X78845483Y-136041554D01*
X78788420Y-136008608D01*
X78724772Y-135991554D01*
X78661125Y-135974500D01*
X78529341Y-135974500D01*
X78402045Y-136008608D01*
X78287919Y-136074500D01*
X78287916Y-136074502D01*
X78194735Y-136167683D01*
X78189785Y-136174135D01*
X78187297Y-136172226D01*
X78147423Y-136210228D01*
X78078813Y-136223435D01*
X78028629Y-136207386D01*
X77957395Y-136166259D01*
X77957392Y-136166258D01*
X77830098Y-136132150D01*
X77698314Y-136132150D01*
X77571018Y-136166258D01*
X77456892Y-136232150D01*
X77456889Y-136232152D01*
X77363708Y-136325333D01*
X77363706Y-136325336D01*
X77297814Y-136439462D01*
X77281727Y-136499502D01*
X77263706Y-136566758D01*
X73942061Y-136566758D01*
X73931474Y-136554658D01*
X73909113Y-136531206D01*
X73908592Y-136528505D01*
X73906783Y-136526437D01*
X73902020Y-136494401D01*
X73895891Y-136462598D01*
X73896912Y-136460046D01*
X73896508Y-136457327D01*
X73909824Y-136427793D01*
X73921859Y-136397734D01*
X73924948Y-136394252D01*
X73925228Y-136393633D01*
X73925866Y-136393218D01*
X73931648Y-136386704D01*
X73932309Y-136386042D01*
X73932314Y-136386040D01*
X74025500Y-136292854D01*
X74091392Y-136178726D01*
X74125500Y-136051432D01*
X74125500Y-135919648D01*
X74091392Y-135792354D01*
X74025500Y-135678226D01*
X73932314Y-135585040D01*
X73875250Y-135552094D01*
X73818187Y-135519148D01*
X73754539Y-135502094D01*
X73690892Y-135485040D01*
X73559108Y-135485040D01*
X73431812Y-135519148D01*
X73317686Y-135585040D01*
X73317683Y-135585042D01*
X73224502Y-135678223D01*
X73224500Y-135678226D01*
X73158608Y-135792352D01*
X73124500Y-135919648D01*
X37465970Y-135919648D01*
X37469896Y-135334108D01*
X55099500Y-135334108D01*
X55099500Y-135465891D01*
X55133608Y-135593187D01*
X55166554Y-135650250D01*
X55199500Y-135707314D01*
X55292686Y-135800500D01*
X55391521Y-135857563D01*
X55406810Y-135866390D01*
X55406814Y-135866392D01*
X55534108Y-135900500D01*
X55534110Y-135900500D01*
X55665890Y-135900500D01*
X55665892Y-135900500D01*
X55793186Y-135866392D01*
X55907314Y-135800500D01*
X56000500Y-135707314D01*
X56066392Y-135593186D01*
X56100500Y-135465892D01*
X56100500Y-135334108D01*
X56066392Y-135206814D01*
X56000500Y-135092686D01*
X55907314Y-134999500D01*
X55850250Y-134966554D01*
X55793187Y-134933608D01*
X55729539Y-134916554D01*
X55665892Y-134899500D01*
X55534108Y-134899500D01*
X55406812Y-134933608D01*
X55292686Y-134999500D01*
X55292683Y-134999502D01*
X55199502Y-135092683D01*
X55199500Y-135092686D01*
X55133608Y-135206812D01*
X55099500Y-135334108D01*
X37469896Y-135334108D01*
X37475929Y-134434374D01*
X73124500Y-134434374D01*
X73124500Y-134566157D01*
X73158608Y-134693453D01*
X73191554Y-134750516D01*
X73224500Y-134807580D01*
X73317686Y-134900766D01*
X73431814Y-134966658D01*
X73559108Y-135000766D01*
X73559110Y-135000766D01*
X73690890Y-135000766D01*
X73690892Y-135000766D01*
X73818186Y-134966658D01*
X73932314Y-134900766D01*
X74025500Y-134807580D01*
X74091392Y-134693452D01*
X74125500Y-134566158D01*
X74125500Y-134434374D01*
X74091392Y-134307080D01*
X74025500Y-134192952D01*
X73932314Y-134099766D01*
X73875250Y-134066820D01*
X73818187Y-134033874D01*
X73754539Y-134016820D01*
X73690892Y-133999766D01*
X73559108Y-133999766D01*
X73431812Y-134033874D01*
X73317686Y-134099766D01*
X73317683Y-134099768D01*
X73224502Y-134192949D01*
X73224500Y-134192952D01*
X73158608Y-134307078D01*
X73124500Y-134434374D01*
X37475929Y-134434374D01*
X37481563Y-133594108D01*
X42819500Y-133594108D01*
X42819500Y-133725891D01*
X42853608Y-133853187D01*
X42886554Y-133910250D01*
X42919500Y-133967314D01*
X43012686Y-134060500D01*
X43126814Y-134126392D01*
X43254108Y-134160500D01*
X43254110Y-134160500D01*
X43385890Y-134160500D01*
X43385892Y-134160500D01*
X43513186Y-134126392D01*
X43627314Y-134060500D01*
X43720500Y-133967314D01*
X43786392Y-133853186D01*
X43820500Y-133725892D01*
X43820500Y-133594108D01*
X43786392Y-133466814D01*
X43720500Y-133352686D01*
X43627314Y-133259500D01*
X43570250Y-133226554D01*
X43513187Y-133193608D01*
X43449539Y-133176554D01*
X43385892Y-133159500D01*
X43254108Y-133159500D01*
X43126812Y-133193608D01*
X43012686Y-133259500D01*
X43012683Y-133259502D01*
X42919502Y-133352683D01*
X42919500Y-133352686D01*
X42853608Y-133466812D01*
X42819500Y-133594108D01*
X37481563Y-133594108D01*
X37485650Y-132984627D01*
X73149500Y-132984627D01*
X73149500Y-133116410D01*
X73183608Y-133243706D01*
X73196706Y-133266392D01*
X73249500Y-133357833D01*
X73342686Y-133451019D01*
X73456814Y-133516911D01*
X73584108Y-133551019D01*
X73584110Y-133551019D01*
X73715890Y-133551019D01*
X73715892Y-133551019D01*
X73843186Y-133516911D01*
X73957314Y-133451019D01*
X74050500Y-133357833D01*
X74116392Y-133243705D01*
X74150500Y-133116411D01*
X74150500Y-132984627D01*
X74116392Y-132857333D01*
X74050500Y-132743205D01*
X74041403Y-132734108D01*
X83399500Y-132734108D01*
X83399500Y-132865891D01*
X83433608Y-132993187D01*
X83466554Y-133050250D01*
X83499500Y-133107314D01*
X83592686Y-133200500D01*
X83706814Y-133266392D01*
X83834108Y-133300500D01*
X83834110Y-133300500D01*
X83965890Y-133300500D01*
X83965892Y-133300500D01*
X84093186Y-133266392D01*
X84207314Y-133200500D01*
X84300500Y-133107314D01*
X84366392Y-132993186D01*
X84400500Y-132865892D01*
X84400500Y-132734108D01*
X84366392Y-132606814D01*
X84300500Y-132492686D01*
X84207314Y-132399500D01*
X84150250Y-132366554D01*
X84093187Y-132333608D01*
X84029539Y-132316554D01*
X83965892Y-132299500D01*
X83834108Y-132299500D01*
X83706812Y-132333608D01*
X83592686Y-132399500D01*
X83592683Y-132399502D01*
X83499502Y-132492683D01*
X83499500Y-132492686D01*
X83433608Y-132606812D01*
X83399500Y-132734108D01*
X74041403Y-132734108D01*
X73957314Y-132650019D01*
X73882481Y-132606814D01*
X73843187Y-132584127D01*
X73779539Y-132567073D01*
X73715892Y-132550019D01*
X73584108Y-132550019D01*
X73456812Y-132584127D01*
X73342686Y-132650019D01*
X73342683Y-132650021D01*
X73249502Y-132743202D01*
X73249500Y-132743205D01*
X73183608Y-132857331D01*
X73149500Y-132984627D01*
X37485650Y-132984627D01*
X37505188Y-130070730D01*
X43949500Y-130070730D01*
X43949500Y-131429269D01*
X43952353Y-131459699D01*
X43952353Y-131459701D01*
X43989512Y-131565891D01*
X43997207Y-131587882D01*
X44077850Y-131697150D01*
X44187118Y-131777793D01*
X44229845Y-131792744D01*
X44315299Y-131822646D01*
X44345730Y-131825500D01*
X44345734Y-131825500D01*
X45154270Y-131825500D01*
X45184699Y-131822646D01*
X45184701Y-131822646D01*
X45248790Y-131800219D01*
X45312882Y-131777793D01*
X45422150Y-131697150D01*
X45502793Y-131587882D01*
X45525219Y-131523790D01*
X45547646Y-131459701D01*
X45547646Y-131459699D01*
X45550500Y-131429269D01*
X45550500Y-130396153D01*
X45949500Y-130396153D01*
X45949500Y-131103846D01*
X45980261Y-131258489D01*
X45980264Y-131258501D01*
X46040602Y-131404172D01*
X46040609Y-131404185D01*
X46128210Y-131535288D01*
X46128213Y-131535292D01*
X46239707Y-131646786D01*
X46239711Y-131646789D01*
X46370814Y-131734390D01*
X46370827Y-131734397D01*
X46475596Y-131777793D01*
X46516503Y-131794737D01*
X46656810Y-131822646D01*
X46671153Y-131825499D01*
X46671156Y-131825500D01*
X46671158Y-131825500D01*
X46828844Y-131825500D01*
X46828845Y-131825499D01*
X46983497Y-131794737D01*
X47096166Y-131748067D01*
X47129172Y-131734397D01*
X47129172Y-131734396D01*
X47129179Y-131734394D01*
X47260289Y-131646789D01*
X47371789Y-131535289D01*
X47459394Y-131404179D01*
X47459395Y-131404176D01*
X47459397Y-131404173D01*
X47474904Y-131366735D01*
X47518744Y-131312331D01*
X47585038Y-131290266D01*
X47652738Y-131307545D01*
X47700348Y-131358682D01*
X47707396Y-131375869D01*
X47730591Y-131447255D01*
X47809195Y-131601524D01*
X47910967Y-131741602D01*
X48033397Y-131864032D01*
X48173475Y-131965804D01*
X48327744Y-132044408D01*
X48492415Y-132097914D01*
X48492414Y-132097914D01*
X48499999Y-132099115D01*
X48500000Y-132099114D01*
X48500000Y-131030330D01*
X48519745Y-131050075D01*
X48605255Y-131099444D01*
X48700630Y-131125000D01*
X48799370Y-131125000D01*
X48894745Y-131099444D01*
X48980255Y-131050075D01*
X49000000Y-131030330D01*
X49000000Y-132099115D01*
X49007582Y-132097914D01*
X49104098Y-132066554D01*
X49173939Y-132064559D01*
X49233772Y-132100639D01*
X49238739Y-132106553D01*
X49239499Y-132107313D01*
X49239500Y-132107314D01*
X49332686Y-132200500D01*
X49446814Y-132266392D01*
X49574108Y-132300500D01*
X49574110Y-132300500D01*
X49705890Y-132300500D01*
X49705892Y-132300500D01*
X49833186Y-132266392D01*
X49947314Y-132200500D01*
X50040500Y-132107314D01*
X50106392Y-131993186D01*
X50140500Y-131865892D01*
X50140500Y-131812486D01*
X50160185Y-131745447D01*
X50212989Y-131699692D01*
X50282147Y-131689748D01*
X50333392Y-131709385D01*
X50370812Y-131734389D01*
X50370827Y-131734397D01*
X50475596Y-131777793D01*
X50516503Y-131794737D01*
X50656810Y-131822646D01*
X50671153Y-131825499D01*
X50671156Y-131825500D01*
X50671158Y-131825500D01*
X50828844Y-131825500D01*
X50828845Y-131825499D01*
X50983497Y-131794737D01*
X51096166Y-131748067D01*
X51129172Y-131734397D01*
X51129172Y-131734396D01*
X51129179Y-131734394D01*
X51260289Y-131646789D01*
X51371789Y-131535289D01*
X51439396Y-131434108D01*
X80899500Y-131434108D01*
X80899500Y-131565892D01*
X80910465Y-131606814D01*
X80933608Y-131693187D01*
X80957401Y-131734397D01*
X80999500Y-131807314D01*
X81092686Y-131900500D01*
X81191521Y-131957563D01*
X81205795Y-131965804D01*
X81206814Y-131966392D01*
X81334108Y-132000500D01*
X81334110Y-132000500D01*
X81465890Y-132000500D01*
X81465892Y-132000500D01*
X81593186Y-131966392D01*
X81707314Y-131900500D01*
X81800500Y-131807314D01*
X81866392Y-131693186D01*
X81900500Y-131565892D01*
X81900500Y-131565056D01*
X86339499Y-131565056D01*
X86364881Y-131692654D01*
X86364883Y-131692662D01*
X86414672Y-131812864D01*
X86414673Y-131812866D01*
X86486955Y-131921043D01*
X86486958Y-131921047D01*
X86578952Y-132013041D01*
X86578956Y-132013044D01*
X86687136Y-132085328D01*
X86807339Y-132135117D01*
X86838587Y-132141332D01*
X86934943Y-132160500D01*
X86934946Y-132160500D01*
X87065056Y-132160500D01*
X87129292Y-132147721D01*
X87192661Y-132135117D01*
X87312864Y-132085328D01*
X87421044Y-132013044D01*
X87513044Y-131921044D01*
X87585328Y-131812864D01*
X87635117Y-131692661D01*
X87655960Y-131587880D01*
X87660500Y-131565056D01*
X87660500Y-131434943D01*
X87635118Y-131307345D01*
X87635117Y-131307339D01*
X87585328Y-131187136D01*
X87513044Y-131078956D01*
X87513041Y-131078952D01*
X87421047Y-130986958D01*
X87421043Y-130986955D01*
X87312866Y-130914673D01*
X87312864Y-130914672D01*
X87192662Y-130864883D01*
X87192654Y-130864881D01*
X87065056Y-130839500D01*
X87065054Y-130839500D01*
X86934946Y-130839500D01*
X86934944Y-130839500D01*
X86807345Y-130864881D01*
X86807337Y-130864883D01*
X86687135Y-130914672D01*
X86687133Y-130914673D01*
X86578956Y-130986955D01*
X86578952Y-130986958D01*
X86486958Y-131078952D01*
X86486955Y-131078956D01*
X86414673Y-131187133D01*
X86414672Y-131187135D01*
X86364883Y-131307337D01*
X86364881Y-131307345D01*
X86339500Y-131434943D01*
X86339500Y-131434946D01*
X86339500Y-131565054D01*
X86339500Y-131565056D01*
X86339499Y-131565056D01*
X81900500Y-131565056D01*
X81900500Y-131434108D01*
X81866392Y-131306814D01*
X81800500Y-131192686D01*
X81707314Y-131099500D01*
X81621708Y-131050075D01*
X81593187Y-131033608D01*
X81528931Y-131016391D01*
X81465892Y-130999500D01*
X81334108Y-130999500D01*
X81206812Y-131033608D01*
X81092686Y-131099500D01*
X81092683Y-131099502D01*
X80999502Y-131192683D01*
X80999500Y-131192686D01*
X80933608Y-131306812D01*
X80919710Y-131358682D01*
X80899500Y-131434108D01*
X51439396Y-131434108D01*
X51459394Y-131404179D01*
X51461332Y-131399500D01*
X51470019Y-131378529D01*
X51519735Y-131258501D01*
X51519737Y-131258497D01*
X51550500Y-131103842D01*
X51550500Y-130396158D01*
X51550500Y-130396155D01*
X51550499Y-130396153D01*
X51542674Y-130356814D01*
X51519737Y-130241503D01*
X51495010Y-130181806D01*
X51459397Y-130095827D01*
X51459390Y-130095814D01*
X51371789Y-129964711D01*
X51371786Y-129964707D01*
X51260292Y-129853213D01*
X51260288Y-129853210D01*
X51134384Y-129769083D01*
X51134383Y-129769082D01*
X51129188Y-129765611D01*
X51129172Y-129765602D01*
X50983501Y-129705264D01*
X50983489Y-129705261D01*
X50828845Y-129674500D01*
X50828842Y-129674500D01*
X50671158Y-129674500D01*
X50671155Y-129674500D01*
X50516510Y-129705261D01*
X50516498Y-129705264D01*
X50370827Y-129765602D01*
X50370814Y-129765609D01*
X50239711Y-129853210D01*
X50239707Y-129853213D01*
X50128213Y-129964707D01*
X50128210Y-129964711D01*
X50040609Y-130095814D01*
X50040603Y-130095826D01*
X50025094Y-130133267D01*
X49981252Y-130187670D01*
X49914957Y-130209733D01*
X49847258Y-130192453D01*
X49799649Y-130141314D01*
X49792603Y-130124130D01*
X49769408Y-130052744D01*
X49690804Y-129898475D01*
X49589032Y-129758397D01*
X49504743Y-129674108D01*
X58319500Y-129674108D01*
X58319500Y-129805892D01*
X58324859Y-129825891D01*
X58353608Y-129933187D01*
X58371809Y-129964711D01*
X58419500Y-130047314D01*
X58419502Y-130047316D01*
X58419505Y-130047319D01*
X58419506Y-130047321D01*
X58424447Y-130053760D01*
X58423442Y-130054530D01*
X58452990Y-130108642D01*
X58448006Y-130178334D01*
X58423909Y-130215827D01*
X58424447Y-130216240D01*
X58419507Y-130222676D01*
X58419505Y-130222681D01*
X58419502Y-130222683D01*
X58419500Y-130222686D01*
X58353608Y-130336812D01*
X58323300Y-130449925D01*
X58319500Y-130464108D01*
X58319500Y-130595892D01*
X58324859Y-130615891D01*
X58353608Y-130723187D01*
X58385000Y-130777558D01*
X58419500Y-130837314D01*
X58512686Y-130930500D01*
X58626814Y-130996392D01*
X58754108Y-131030500D01*
X58754110Y-131030500D01*
X58885890Y-131030500D01*
X58885892Y-131030500D01*
X59013186Y-130996392D01*
X59127314Y-130930500D01*
X59167319Y-130890495D01*
X59228642Y-130857010D01*
X59298334Y-130861994D01*
X59342681Y-130890495D01*
X59382686Y-130930500D01*
X59496814Y-130996392D01*
X59624108Y-131030500D01*
X59624110Y-131030500D01*
X59755890Y-131030500D01*
X59755892Y-131030500D01*
X59883186Y-130996392D01*
X59997314Y-130930500D01*
X60022319Y-130905495D01*
X60083642Y-130872010D01*
X60153334Y-130876994D01*
X60197681Y-130905495D01*
X60222686Y-130930500D01*
X60336814Y-130996392D01*
X60464108Y-131030500D01*
X60464110Y-131030500D01*
X60595890Y-131030500D01*
X60595892Y-131030500D01*
X60723186Y-130996392D01*
X60837314Y-130930500D01*
X60867319Y-130900495D01*
X60928642Y-130867010D01*
X60998334Y-130871994D01*
X61042681Y-130900495D01*
X61092686Y-130950500D01*
X61206814Y-131016392D01*
X61334108Y-131050500D01*
X61334110Y-131050500D01*
X61465890Y-131050500D01*
X61465892Y-131050500D01*
X61593186Y-131016392D01*
X61707314Y-130950500D01*
X61800500Y-130857314D01*
X61866392Y-130743186D01*
X61900500Y-130615892D01*
X61900500Y-130484108D01*
X61897821Y-130474108D01*
X69539500Y-130474108D01*
X69539500Y-130605892D01*
X69556554Y-130669539D01*
X69573608Y-130733187D01*
X69579382Y-130743187D01*
X69639500Y-130847314D01*
X69732686Y-130940500D01*
X69846814Y-131006392D01*
X69974108Y-131040500D01*
X69974110Y-131040500D01*
X70105890Y-131040500D01*
X70105892Y-131040500D01*
X70233186Y-131006392D01*
X70347314Y-130940500D01*
X70440500Y-130847314D01*
X70506392Y-130733186D01*
X70540500Y-130605892D01*
X70540500Y-130474108D01*
X70506392Y-130346814D01*
X70500618Y-130336814D01*
X70497563Y-130331521D01*
X70440500Y-130232686D01*
X70347314Y-130139500D01*
X70290250Y-130106554D01*
X70233187Y-130073608D01*
X70161985Y-130054530D01*
X70105892Y-130039500D01*
X69974108Y-130039500D01*
X69846812Y-130073608D01*
X69732686Y-130139500D01*
X69732683Y-130139502D01*
X69639502Y-130232683D01*
X69639500Y-130232686D01*
X69573608Y-130346812D01*
X69560387Y-130396155D01*
X69539500Y-130474108D01*
X61897821Y-130474108D01*
X61866392Y-130356814D01*
X61860618Y-130346814D01*
X61829226Y-130292441D01*
X61800500Y-130242686D01*
X61800495Y-130242681D01*
X61800493Y-130242678D01*
X61795553Y-130236240D01*
X61796557Y-130235469D01*
X61767010Y-130181358D01*
X61771994Y-130111666D01*
X61796090Y-130074172D01*
X61795553Y-130073760D01*
X61800492Y-130067323D01*
X61800495Y-130067319D01*
X61800500Y-130067314D01*
X61866392Y-129953186D01*
X61900500Y-129825892D01*
X61900500Y-129694108D01*
X61866392Y-129566814D01*
X61800500Y-129452686D01*
X61707314Y-129359500D01*
X61650250Y-129326554D01*
X61593187Y-129293608D01*
X61518544Y-129273608D01*
X61465892Y-129259500D01*
X61334108Y-129259500D01*
X61206812Y-129293608D01*
X61092686Y-129359500D01*
X61062678Y-129389507D01*
X61001354Y-129422990D01*
X60931662Y-129418004D01*
X60887318Y-129389504D01*
X60837316Y-129339502D01*
X60837314Y-129339500D01*
X60757827Y-129293608D01*
X60723187Y-129273608D01*
X60659539Y-129256554D01*
X60595892Y-129239500D01*
X60464108Y-129239500D01*
X60336812Y-129273608D01*
X60222686Y-129339500D01*
X60197680Y-129364506D01*
X60136356Y-129397990D01*
X60066665Y-129393004D01*
X60022320Y-129364506D01*
X60017314Y-129359500D01*
X59997314Y-129339500D01*
X59917827Y-129293608D01*
X59883187Y-129273608D01*
X59819539Y-129256554D01*
X59755892Y-129239500D01*
X59624108Y-129239500D01*
X59496812Y-129273608D01*
X59382686Y-129339500D01*
X59382683Y-129339502D01*
X59342681Y-129379505D01*
X59281358Y-129412990D01*
X59211666Y-129408006D01*
X59167319Y-129379505D01*
X59127316Y-129339502D01*
X59127314Y-129339500D01*
X59047827Y-129293608D01*
X59013187Y-129273608D01*
X58949539Y-129256554D01*
X58885892Y-129239500D01*
X58754108Y-129239500D01*
X58626812Y-129273608D01*
X58512686Y-129339500D01*
X58512683Y-129339502D01*
X58419502Y-129432683D01*
X58419500Y-129432686D01*
X58353608Y-129546812D01*
X58339357Y-129600000D01*
X58319500Y-129674108D01*
X49504743Y-129674108D01*
X49466602Y-129635967D01*
X49326524Y-129534195D01*
X49172257Y-129455591D01*
X49007589Y-129402087D01*
X49007581Y-129402085D01*
X49000000Y-129400884D01*
X49000000Y-130469670D01*
X48980255Y-130449925D01*
X48894745Y-130400556D01*
X48799370Y-130375000D01*
X48700630Y-130375000D01*
X48605255Y-130400556D01*
X48519745Y-130449925D01*
X48500000Y-130469670D01*
X48500000Y-129400884D01*
X48499999Y-129400884D01*
X48492418Y-129402085D01*
X48492410Y-129402087D01*
X48327742Y-129455591D01*
X48173475Y-129534195D01*
X48033397Y-129635967D01*
X47910967Y-129758397D01*
X47809195Y-129898475D01*
X47730591Y-130052742D01*
X47707396Y-130124131D01*
X47667958Y-130181806D01*
X47603599Y-130209004D01*
X47534753Y-130197089D01*
X47483277Y-130149845D01*
X47474904Y-130133265D01*
X47459395Y-130095823D01*
X47459390Y-130095814D01*
X47371789Y-129964711D01*
X47371786Y-129964707D01*
X47260292Y-129853213D01*
X47260288Y-129853210D01*
X47129185Y-129765609D01*
X47129172Y-129765602D01*
X46983501Y-129705264D01*
X46983489Y-129705261D01*
X46828845Y-129674500D01*
X46828842Y-129674500D01*
X46671158Y-129674500D01*
X46671155Y-129674500D01*
X46516510Y-129705261D01*
X46516498Y-129705264D01*
X46370827Y-129765602D01*
X46370814Y-129765609D01*
X46239711Y-129853210D01*
X46239707Y-129853213D01*
X46128213Y-129964707D01*
X46128210Y-129964711D01*
X46040609Y-130095814D01*
X46040602Y-130095827D01*
X45980264Y-130241498D01*
X45980261Y-130241510D01*
X45949500Y-130396153D01*
X45550500Y-130396153D01*
X45550500Y-130070730D01*
X45547646Y-130040300D01*
X45547646Y-130040298D01*
X45502793Y-129912119D01*
X45502792Y-129912117D01*
X45459319Y-129853213D01*
X45422150Y-129802850D01*
X45312882Y-129722207D01*
X45312880Y-129722206D01*
X45184700Y-129677353D01*
X45154270Y-129674500D01*
X45154266Y-129674500D01*
X44345734Y-129674500D01*
X44345730Y-129674500D01*
X44315300Y-129677353D01*
X44315298Y-129677353D01*
X44187119Y-129722206D01*
X44187117Y-129722207D01*
X44077850Y-129802850D01*
X43997207Y-129912117D01*
X43997206Y-129912119D01*
X43952353Y-130040298D01*
X43952353Y-130040300D01*
X43949500Y-130070730D01*
X37505188Y-130070730D01*
X37508103Y-129635978D01*
X37528236Y-129569074D01*
X37581346Y-129523674D01*
X37650570Y-129514194D01*
X37656291Y-129515194D01*
X37903500Y-129564367D01*
X37903499Y-129564367D01*
X38265290Y-129600000D01*
X38628822Y-129600000D01*
X38990612Y-129564367D01*
X39347146Y-129493449D01*
X39347157Y-129493446D01*
X39695053Y-129387913D01*
X40030920Y-129248792D01*
X40030925Y-129248790D01*
X40351518Y-129077429D01*
X40351536Y-129077418D01*
X40653792Y-128875457D01*
X40653806Y-128875447D01*
X40881821Y-128688320D01*
X40881822Y-128688319D01*
X39387754Y-127194251D01*
X39489386Y-127120412D01*
X39667468Y-126942330D01*
X39741307Y-126840698D01*
X41235375Y-128334766D01*
X41235376Y-128334765D01*
X41422503Y-128106750D01*
X41422513Y-128106736D01*
X41624474Y-127804480D01*
X41624485Y-127804462D01*
X41795846Y-127483869D01*
X41795848Y-127483864D01*
X41934969Y-127147997D01*
X42040502Y-126800101D01*
X42040505Y-126800090D01*
X42111423Y-126443556D01*
X42136976Y-126184108D01*
X42769500Y-126184108D01*
X42769500Y-126315892D01*
X42778080Y-126347914D01*
X42803608Y-126443187D01*
X42836554Y-126500250D01*
X42869500Y-126557314D01*
X42962686Y-126650500D01*
X43076814Y-126716392D01*
X43204108Y-126750500D01*
X43204110Y-126750500D01*
X43335890Y-126750500D01*
X43335892Y-126750500D01*
X43463186Y-126716392D01*
X43577314Y-126650500D01*
X43670500Y-126557314D01*
X43736392Y-126443186D01*
X43770500Y-126315892D01*
X43770500Y-126184108D01*
X43736392Y-126056814D01*
X43670500Y-125942686D01*
X43577314Y-125849500D01*
X43490712Y-125799500D01*
X43463187Y-125783608D01*
X43399539Y-125766554D01*
X43335892Y-125749500D01*
X43204108Y-125749500D01*
X43076812Y-125783608D01*
X42962686Y-125849500D01*
X42962683Y-125849502D01*
X42869502Y-125942683D01*
X42869500Y-125942686D01*
X42803608Y-126056812D01*
X42779286Y-126147585D01*
X42769500Y-126184108D01*
X42136976Y-126184108D01*
X42138974Y-126163827D01*
X42147056Y-126081765D01*
X42147056Y-125718234D01*
X42111423Y-125356443D01*
X42040505Y-124999909D01*
X42040502Y-124999898D01*
X41934969Y-124652002D01*
X41816208Y-124365288D01*
X41816207Y-124365286D01*
X41797751Y-124320730D01*
X43949500Y-124320730D01*
X43949500Y-125679269D01*
X43952353Y-125709699D01*
X43952353Y-125709701D01*
X43997206Y-125837880D01*
X43997207Y-125837882D01*
X44077850Y-125947150D01*
X44187118Y-126027793D01*
X44229845Y-126042744D01*
X44315299Y-126072646D01*
X44345730Y-126075500D01*
X44345734Y-126075500D01*
X45154270Y-126075500D01*
X45184699Y-126072646D01*
X45184701Y-126072646D01*
X45248790Y-126050219D01*
X45312882Y-126027793D01*
X45422150Y-125947150D01*
X45502793Y-125837882D01*
X45539280Y-125733608D01*
X45547646Y-125709701D01*
X45547646Y-125709699D01*
X45550500Y-125679269D01*
X45550500Y-124646153D01*
X45949500Y-124646153D01*
X45949500Y-125353846D01*
X45980261Y-125508489D01*
X45980264Y-125508501D01*
X46040602Y-125654172D01*
X46040609Y-125654185D01*
X46128210Y-125785288D01*
X46128213Y-125785292D01*
X46239707Y-125896786D01*
X46239711Y-125896789D01*
X46370814Y-125984390D01*
X46370827Y-125984397D01*
X46475596Y-126027793D01*
X46516503Y-126044737D01*
X46656810Y-126072646D01*
X46671153Y-126075499D01*
X46671156Y-126075500D01*
X46671158Y-126075500D01*
X46828844Y-126075500D01*
X46828845Y-126075499D01*
X46983497Y-126044737D01*
X47129179Y-125984394D01*
X47260289Y-125896789D01*
X47371789Y-125785289D01*
X47459394Y-125654179D01*
X47459395Y-125654176D01*
X47459397Y-125654173D01*
X47474904Y-125616735D01*
X47518744Y-125562331D01*
X47585038Y-125540266D01*
X47652738Y-125557545D01*
X47700348Y-125608682D01*
X47707396Y-125625869D01*
X47730591Y-125697255D01*
X47809195Y-125851524D01*
X47910967Y-125991602D01*
X48033397Y-126114032D01*
X48173475Y-126215804D01*
X48327744Y-126294408D01*
X48492415Y-126347914D01*
X48492414Y-126347914D01*
X48499999Y-126349115D01*
X48500000Y-126349114D01*
X48500000Y-125280330D01*
X48519745Y-125300075D01*
X48605255Y-125349444D01*
X48700630Y-125375000D01*
X48799370Y-125375000D01*
X48894745Y-125349444D01*
X48980255Y-125300075D01*
X49000000Y-125280330D01*
X49000000Y-125945196D01*
X48985624Y-125998850D01*
X48986719Y-125999304D01*
X48983609Y-126006812D01*
X48983608Y-126006814D01*
X48949500Y-126134108D01*
X48949500Y-126265892D01*
X48962897Y-126315890D01*
X48983608Y-126393187D01*
X49002041Y-126425113D01*
X49049500Y-126507314D01*
X49142686Y-126600500D01*
X49256814Y-126666392D01*
X49384108Y-126700500D01*
X49384110Y-126700500D01*
X49515890Y-126700500D01*
X49515892Y-126700500D01*
X49643186Y-126666392D01*
X49757314Y-126600500D01*
X49850500Y-126507314D01*
X49916392Y-126393186D01*
X49950500Y-126265892D01*
X49950500Y-126134108D01*
X49916392Y-126006814D01*
X49850500Y-125892686D01*
X49794506Y-125836692D01*
X49786967Y-125822887D01*
X49775468Y-125812154D01*
X49770565Y-125792848D01*
X49761021Y-125775369D01*
X49761919Y-125758799D01*
X49758271Y-125744434D01*
X49764160Y-125717442D01*
X49764580Y-125709709D01*
X49792927Y-125624885D01*
X49812605Y-125596616D01*
X49832040Y-125568194D01*
X49832537Y-125567983D01*
X49832846Y-125567541D01*
X49864661Y-125554407D01*
X49896398Y-125540995D01*
X49896929Y-125541087D01*
X49897429Y-125540881D01*
X49931300Y-125547035D01*
X49965244Y-125552909D01*
X49965642Y-125553274D01*
X49966174Y-125553371D01*
X49991352Y-125576870D01*
X50016721Y-125600153D01*
X50017097Y-125600899D01*
X50017253Y-125601044D01*
X50017335Y-125601370D01*
X50025095Y-125616733D01*
X50032886Y-125635542D01*
X50040603Y-125654172D01*
X50040606Y-125654178D01*
X50040609Y-125654185D01*
X50128210Y-125785288D01*
X50128213Y-125785292D01*
X50239707Y-125896786D01*
X50239711Y-125896789D01*
X50370814Y-125984390D01*
X50370827Y-125984397D01*
X50475596Y-126027793D01*
X50516503Y-126044737D01*
X50656810Y-126072646D01*
X50671153Y-126075499D01*
X50671156Y-126075500D01*
X50671158Y-126075500D01*
X50828844Y-126075500D01*
X50828845Y-126075499D01*
X50983497Y-126044737D01*
X51129179Y-125984394D01*
X51260289Y-125896789D01*
X51371789Y-125785289D01*
X51459394Y-125654179D01*
X51519737Y-125508497D01*
X51550500Y-125353842D01*
X51550500Y-124855247D01*
X58424500Y-124855247D01*
X58424500Y-127644752D01*
X58436131Y-127703229D01*
X58436132Y-127703230D01*
X58480447Y-127769552D01*
X58546769Y-127813867D01*
X58546770Y-127813868D01*
X58605247Y-127825499D01*
X58605250Y-127825500D01*
X58605252Y-127825500D01*
X61394750Y-127825500D01*
X61394751Y-127825499D01*
X61409568Y-127822552D01*
X61453229Y-127813868D01*
X61453229Y-127813867D01*
X61453231Y-127813867D01*
X61519552Y-127769552D01*
X61563867Y-127703231D01*
X61563867Y-127703229D01*
X61563868Y-127703229D01*
X61575499Y-127644752D01*
X61575500Y-127644750D01*
X61575500Y-126125999D01*
X63124500Y-126125999D01*
X63124500Y-126374000D01*
X63163293Y-126618927D01*
X63163294Y-126618931D01*
X63239927Y-126854782D01*
X63352511Y-127075742D01*
X63498276Y-127276370D01*
X63673630Y-127451724D01*
X63874258Y-127597489D01*
X64095218Y-127710073D01*
X64331069Y-127786706D01*
X64422920Y-127801253D01*
X64576000Y-127825500D01*
X64576005Y-127825500D01*
X64824000Y-127825500D01*
X64960070Y-127803947D01*
X65068931Y-127786706D01*
X65304782Y-127710073D01*
X65525742Y-127597489D01*
X65726370Y-127451724D01*
X65901724Y-127276370D01*
X66047489Y-127075742D01*
X66160073Y-126854782D01*
X66236706Y-126618931D01*
X66264541Y-126443187D01*
X66275500Y-126374000D01*
X66275500Y-126125999D01*
X67824500Y-126125999D01*
X67824500Y-126374000D01*
X67863293Y-126618927D01*
X67863294Y-126618931D01*
X67939927Y-126854782D01*
X68052511Y-127075742D01*
X68198276Y-127276370D01*
X68373630Y-127451724D01*
X68574258Y-127597489D01*
X68795218Y-127710073D01*
X69031069Y-127786706D01*
X69122920Y-127801253D01*
X69276000Y-127825500D01*
X69276005Y-127825500D01*
X69524000Y-127825500D01*
X69660070Y-127803947D01*
X69768931Y-127786706D01*
X70004782Y-127710073D01*
X70225742Y-127597489D01*
X70426370Y-127451724D01*
X70601724Y-127276370D01*
X70747489Y-127075742D01*
X70860073Y-126854782D01*
X70936706Y-126618931D01*
X70964541Y-126443187D01*
X70975500Y-126374000D01*
X70975500Y-126125999D01*
X70940287Y-125903679D01*
X70936706Y-125881069D01*
X70860073Y-125645218D01*
X70747489Y-125424258D01*
X70601724Y-125223630D01*
X70426370Y-125048276D01*
X70225742Y-124902511D01*
X70132990Y-124855252D01*
X70004786Y-124789929D01*
X70004785Y-124789928D01*
X70004782Y-124789927D01*
X69768931Y-124713294D01*
X69768929Y-124713293D01*
X69768927Y-124713293D01*
X69524000Y-124674500D01*
X69523995Y-124674500D01*
X69276005Y-124674500D01*
X69276000Y-124674500D01*
X69031072Y-124713293D01*
X69031069Y-124713294D01*
X68804944Y-124786767D01*
X68795215Y-124789928D01*
X68574257Y-124902511D01*
X68459792Y-124985675D01*
X68373630Y-125048276D01*
X68373628Y-125048278D01*
X68373627Y-125048278D01*
X68198278Y-125223627D01*
X68198278Y-125223628D01*
X68198276Y-125223630D01*
X68193463Y-125230255D01*
X68052511Y-125424257D01*
X67939928Y-125645215D01*
X67863293Y-125881072D01*
X67824500Y-126125999D01*
X66275500Y-126125999D01*
X66240287Y-125903679D01*
X66236706Y-125881069D01*
X66160073Y-125645218D01*
X66047489Y-125424258D01*
X65901724Y-125223630D01*
X65726370Y-125048276D01*
X65525742Y-124902511D01*
X65432990Y-124855252D01*
X65304784Y-124789928D01*
X65304783Y-124789927D01*
X65304782Y-124789927D01*
X65068931Y-124713294D01*
X65068929Y-124713293D01*
X65068927Y-124713293D01*
X64824000Y-124674500D01*
X64823995Y-124674500D01*
X64576005Y-124674500D01*
X64576000Y-124674500D01*
X64331072Y-124713293D01*
X64331069Y-124713294D01*
X64104944Y-124786767D01*
X64095215Y-124789928D01*
X63874257Y-124902511D01*
X63759792Y-124985675D01*
X63673630Y-125048276D01*
X63673628Y-125048278D01*
X63673627Y-125048278D01*
X63498278Y-125223627D01*
X63498278Y-125223628D01*
X63498276Y-125223630D01*
X63493463Y-125230255D01*
X63352511Y-125424257D01*
X63239928Y-125645215D01*
X63163293Y-125881072D01*
X63124500Y-126125999D01*
X61575500Y-126125999D01*
X61575500Y-124855249D01*
X61575499Y-124855247D01*
X61563868Y-124796770D01*
X61563867Y-124796769D01*
X61519552Y-124730447D01*
X61453230Y-124686132D01*
X61453229Y-124686131D01*
X61394752Y-124674500D01*
X61394748Y-124674500D01*
X58605252Y-124674500D01*
X58605247Y-124674500D01*
X58546770Y-124686131D01*
X58546769Y-124686132D01*
X58480447Y-124730447D01*
X58436132Y-124796769D01*
X58436131Y-124796770D01*
X58424500Y-124855247D01*
X51550500Y-124855247D01*
X51550500Y-124670730D01*
X74449500Y-124670730D01*
X74449500Y-126279269D01*
X74452353Y-126309699D01*
X74452353Y-126309701D01*
X74492739Y-126425113D01*
X74497207Y-126437882D01*
X74577850Y-126547150D01*
X74687118Y-126627793D01*
X74729845Y-126642744D01*
X74815299Y-126672646D01*
X74845730Y-126675500D01*
X74845734Y-126675500D01*
X76154270Y-126675500D01*
X76184699Y-126672646D01*
X76184701Y-126672646D01*
X76248790Y-126650219D01*
X76312882Y-126627793D01*
X76422150Y-126547150D01*
X76502793Y-126437882D01*
X76539648Y-126332557D01*
X76547646Y-126309701D01*
X76547646Y-126309699D01*
X76550500Y-126279269D01*
X76550500Y-126270323D01*
X76570185Y-126203284D01*
X76622989Y-126157529D01*
X76692147Y-126147585D01*
X76755703Y-126176610D01*
X76784985Y-126214028D01*
X76845379Y-126332557D01*
X76970272Y-126504459D01*
X76970276Y-126504464D01*
X77120535Y-126654723D01*
X77120540Y-126654727D01*
X77292442Y-126779620D01*
X77481782Y-126876095D01*
X77683871Y-126941757D01*
X77750000Y-126952231D01*
X77750000Y-125908012D01*
X77807007Y-125940925D01*
X77934174Y-125975000D01*
X78065826Y-125975000D01*
X78192993Y-125940925D01*
X78250000Y-125908012D01*
X78250000Y-126952230D01*
X78316126Y-126941757D01*
X78316129Y-126941757D01*
X78518217Y-126876095D01*
X78707557Y-126779620D01*
X78879459Y-126654727D01*
X78879464Y-126654723D01*
X79029723Y-126504464D01*
X79029727Y-126504459D01*
X79154620Y-126332557D01*
X79251095Y-126143217D01*
X79316757Y-125941130D01*
X79316757Y-125941127D01*
X79350000Y-125731246D01*
X79350000Y-125725000D01*
X78433012Y-125725000D01*
X78465925Y-125667993D01*
X78500000Y-125540826D01*
X78500000Y-125409174D01*
X78465925Y-125282007D01*
X78433012Y-125225000D01*
X79350000Y-125225000D01*
X79350000Y-125218753D01*
X79316757Y-125008872D01*
X79316757Y-125008869D01*
X79251095Y-124806782D01*
X79154620Y-124617442D01*
X79029727Y-124445540D01*
X79029723Y-124445535D01*
X78879464Y-124295276D01*
X78879459Y-124295272D01*
X78707557Y-124170379D01*
X78518215Y-124073903D01*
X78316124Y-124008241D01*
X78250000Y-123997768D01*
X78250000Y-125041988D01*
X78192993Y-125009075D01*
X78065826Y-124975000D01*
X77934174Y-124975000D01*
X77807007Y-125009075D01*
X77750000Y-125041988D01*
X77750000Y-123997768D01*
X77749999Y-123997768D01*
X77683875Y-124008241D01*
X77481784Y-124073903D01*
X77292442Y-124170379D01*
X77120540Y-124295272D01*
X77120535Y-124295276D01*
X76970276Y-124445535D01*
X76970272Y-124445540D01*
X76845379Y-124617442D01*
X76784985Y-124735971D01*
X76737010Y-124786767D01*
X76669189Y-124803562D01*
X76603054Y-124781024D01*
X76559603Y-124726309D01*
X76550500Y-124679676D01*
X76550500Y-124670730D01*
X76547646Y-124640300D01*
X76547646Y-124640298D01*
X76502793Y-124512119D01*
X76502792Y-124512117D01*
X76422150Y-124402850D01*
X76312882Y-124322207D01*
X76312880Y-124322206D01*
X76184700Y-124277353D01*
X76154270Y-124274500D01*
X76154266Y-124274500D01*
X74845734Y-124274500D01*
X74845730Y-124274500D01*
X74815300Y-124277353D01*
X74815298Y-124277353D01*
X74687119Y-124322206D01*
X74687117Y-124322207D01*
X74577850Y-124402850D01*
X74497207Y-124512117D01*
X74497206Y-124512119D01*
X74452353Y-124640298D01*
X74452353Y-124640300D01*
X74449500Y-124670730D01*
X51550500Y-124670730D01*
X51550500Y-124646158D01*
X51550500Y-124646155D01*
X51550499Y-124646153D01*
X51527704Y-124531557D01*
X51519737Y-124491503D01*
X51483016Y-124402850D01*
X51459397Y-124345827D01*
X51459390Y-124345814D01*
X51371789Y-124214711D01*
X51371786Y-124214707D01*
X51260292Y-124103213D01*
X51260288Y-124103210D01*
X51129185Y-124015609D01*
X51129172Y-124015602D01*
X50983501Y-123955264D01*
X50983489Y-123955261D01*
X50828845Y-123924500D01*
X50828842Y-123924500D01*
X50671158Y-123924500D01*
X50671155Y-123924500D01*
X50516510Y-123955261D01*
X50516498Y-123955264D01*
X50370827Y-124015602D01*
X50370814Y-124015609D01*
X50239711Y-124103210D01*
X50239707Y-124103213D01*
X50128213Y-124214707D01*
X50128210Y-124214711D01*
X50040609Y-124345814D01*
X50040603Y-124345826D01*
X50025094Y-124383267D01*
X49981252Y-124437670D01*
X49914957Y-124459733D01*
X49847258Y-124442453D01*
X49799649Y-124391314D01*
X49792603Y-124374130D01*
X49769408Y-124302744D01*
X49690804Y-124148475D01*
X49589032Y-124008397D01*
X49466602Y-123885967D01*
X49326524Y-123784195D01*
X49172257Y-123705591D01*
X49007589Y-123652087D01*
X49007581Y-123652085D01*
X49000000Y-123650884D01*
X49000000Y-124719670D01*
X48980255Y-124699925D01*
X48894745Y-124650556D01*
X48799370Y-124625000D01*
X48700630Y-124625000D01*
X48605255Y-124650556D01*
X48519745Y-124699925D01*
X48500000Y-124719670D01*
X48500000Y-123650884D01*
X48499999Y-123650884D01*
X48492418Y-123652085D01*
X48492410Y-123652087D01*
X48327742Y-123705591D01*
X48173475Y-123784195D01*
X48033397Y-123885967D01*
X47910967Y-124008397D01*
X47809195Y-124148475D01*
X47730591Y-124302742D01*
X47707396Y-124374131D01*
X47667958Y-124431806D01*
X47603599Y-124459004D01*
X47534753Y-124447089D01*
X47483277Y-124399845D01*
X47474904Y-124383265D01*
X47459395Y-124345823D01*
X47459390Y-124345814D01*
X47371789Y-124214711D01*
X47371786Y-124214707D01*
X47260292Y-124103213D01*
X47260288Y-124103210D01*
X47129185Y-124015609D01*
X47129172Y-124015602D01*
X46983501Y-123955264D01*
X46983489Y-123955261D01*
X46828845Y-123924500D01*
X46828842Y-123924500D01*
X46671158Y-123924500D01*
X46671155Y-123924500D01*
X46516510Y-123955261D01*
X46516498Y-123955264D01*
X46370827Y-124015602D01*
X46370814Y-124015609D01*
X46239711Y-124103210D01*
X46239707Y-124103213D01*
X46128213Y-124214707D01*
X46128210Y-124214711D01*
X46040609Y-124345814D01*
X46040602Y-124345827D01*
X45980264Y-124491498D01*
X45980261Y-124491510D01*
X45949500Y-124646153D01*
X45550500Y-124646153D01*
X45550500Y-124320730D01*
X45547646Y-124290300D01*
X45547646Y-124290298D01*
X45514006Y-124194163D01*
X45502793Y-124162118D01*
X45422150Y-124052850D01*
X45312882Y-123972207D01*
X45312880Y-123972206D01*
X45184700Y-123927353D01*
X45154270Y-123924500D01*
X45154266Y-123924500D01*
X44345734Y-123924500D01*
X44345730Y-123924500D01*
X44315300Y-123927353D01*
X44315298Y-123927353D01*
X44187119Y-123972206D01*
X44187117Y-123972207D01*
X44077850Y-124052850D01*
X43997207Y-124162117D01*
X43997206Y-124162119D01*
X43952353Y-124290298D01*
X43952353Y-124290300D01*
X43949500Y-124320730D01*
X41797751Y-124320730D01*
X41795851Y-124316142D01*
X41795846Y-124316130D01*
X41624485Y-123995537D01*
X41624474Y-123995519D01*
X41422504Y-123693249D01*
X41235376Y-123465233D01*
X41235375Y-123465232D01*
X39741307Y-124959300D01*
X39667468Y-124857670D01*
X39489386Y-124679588D01*
X39387753Y-124605747D01*
X40881822Y-123111679D01*
X40881821Y-123111678D01*
X40653806Y-122924551D01*
X40582714Y-122877049D01*
X40537909Y-122823437D01*
X40529202Y-122754112D01*
X40559356Y-122691085D01*
X40618799Y-122654365D01*
X40651629Y-122649948D01*
X84776448Y-122662669D01*
G37*
%TD.AperFunction*%
%TD*%
M02*
