%TF.GenerationSoftware,KiCad,Pcbnew,9.0.1*%
%TF.CreationDate,2025-09-24T11:37:55+02:00*%
%TF.ProjectId,Main_Board,4d61696e-5f42-46f6-9172-642e6b696361,rev?*%
%TF.SameCoordinates,Original*%
%TF.FileFunction,Drillmap*%
%TF.FilePolarity,Positive*%
%FSLAX45Y45*%
G04 Gerber Fmt 4.5, Leading zero omitted, Abs format (unit mm)*
G04 Created by KiCad (PCBNEW 9.0.1) date 2025-09-24 11:37:55*
%MOMM*%
%LPD*%
G01*
G04 APERTURE LIST*
%ADD10C,0.050000*%
%ADD11C,0.200000*%
%ADD12C,0.100000*%
%ADD13C,0.185000*%
%ADD14C,0.320000*%
G04 APERTURE END LIST*
D10*
X8699600Y-12236281D02*
G75*
G02*
X9053719Y-12590400I0J-354119D01*
G01*
X9057000Y-13645000D02*
X9880000Y-13645000D01*
X9053719Y-12590400D02*
X9057000Y-13645000D01*
X3484999Y-16063000D02*
G75*
G02*
X3702167Y-15736433I354121J0D01*
G01*
X9880000Y-13645000D02*
X9880000Y-14840000D01*
X3721050Y-12920298D02*
G75*
G02*
X3492000Y-12589000I125070J331298D01*
G01*
X9054000Y-14840000D02*
X9056000Y-16076000D01*
X3721050Y-12920298D02*
X3702167Y-15736433D01*
X3839119Y-16417119D02*
G75*
G02*
X3485001Y-16063000I1J354119D01*
G01*
X3492000Y-12589000D02*
G75*
G02*
X3846119Y-12234880I354120J0D01*
G01*
X9056000Y-16076000D02*
G75*
G02*
X8725881Y-16410144I-330120J-4000D01*
G01*
X3839119Y-16417118D02*
X8725880Y-16410144D01*
X8699600Y-12236281D02*
X3845124Y-12234881D01*
X9880000Y-14840000D02*
X9054000Y-14840000D01*
D11*
D12*
X3885000Y-13185000D02*
X3915000Y-13215000D01*
X3915000Y-13185000D02*
X3885000Y-13215000D01*
X3885000Y-13785000D02*
X3915000Y-13815000D01*
X3915000Y-13785000D02*
X3885000Y-13815000D01*
X3885000Y-14085000D02*
X3915000Y-14115000D01*
X3915000Y-14085000D02*
X3885000Y-14115000D01*
X3885000Y-14385000D02*
X3915000Y-14415000D01*
X3915000Y-14385000D02*
X3885000Y-14415000D01*
X3885000Y-14685000D02*
X3915000Y-14715000D01*
X3915000Y-14685000D02*
X3885000Y-14715000D01*
X3885000Y-15285000D02*
X3915000Y-15315000D01*
X3915000Y-15285000D02*
X3885000Y-15315000D01*
X3885000Y-15585000D02*
X3915000Y-15615000D01*
X3915000Y-15585000D02*
X3885000Y-15615000D01*
X4278000Y-16216000D02*
X4308000Y-16246000D01*
X4308000Y-16216000D02*
X4278000Y-16246000D01*
X4312000Y-12610000D02*
X4342000Y-12640000D01*
X4342000Y-12610000D02*
X4312000Y-12640000D01*
X4317000Y-13351000D02*
X4347000Y-13381000D01*
X4347000Y-13351000D02*
X4317000Y-13381000D01*
X4353000Y-15828000D02*
X4383000Y-15858000D01*
X4383000Y-15828000D02*
X4353000Y-15858000D01*
X4455000Y-15892000D02*
X4485000Y-15922000D01*
X4485000Y-15892000D02*
X4455000Y-15922000D01*
X4535000Y-14120000D02*
X4565000Y-14150000D01*
X4565000Y-14120000D02*
X4535000Y-14150000D01*
X4607000Y-15650000D02*
X4637000Y-15680000D01*
X4637000Y-15650000D02*
X4607000Y-15680000D01*
X4774000Y-14017000D02*
X4804000Y-14047000D01*
X4804000Y-14017000D02*
X4774000Y-14047000D01*
X4785000Y-14620000D02*
X4815000Y-14650000D01*
X4815000Y-14620000D02*
X4785000Y-14650000D01*
X4930000Y-12605000D02*
X4960000Y-12635000D01*
X4960000Y-12605000D02*
X4930000Y-12635000D01*
X4945000Y-15652000D02*
X4975000Y-15682000D01*
X4975000Y-15652000D02*
X4945000Y-15682000D01*
X4949000Y-13165000D02*
X4979000Y-13195000D01*
X4979000Y-13165000D02*
X4949000Y-13195000D01*
X4968000Y-16283000D02*
X4998000Y-16313000D01*
X4998000Y-16283000D02*
X4968000Y-16313000D01*
X5219549Y-15920695D02*
X5249549Y-15950695D01*
X5249549Y-15920695D02*
X5219549Y-15950695D01*
X5223000Y-15840000D02*
X5253000Y-15870000D01*
X5253000Y-15840000D02*
X5223000Y-15870000D01*
X5235000Y-14115000D02*
X5265000Y-14145000D01*
X5265000Y-14115000D02*
X5235000Y-14145000D01*
X5334410Y-14704963D02*
X5364410Y-14734963D01*
X5364410Y-14704963D02*
X5334410Y-14734963D01*
X5358000Y-16226000D02*
X5388000Y-16256000D01*
X5388000Y-16226000D02*
X5358000Y-16256000D01*
X5359000Y-14082000D02*
X5389000Y-14112000D01*
X5389000Y-14082000D02*
X5359000Y-14112000D01*
X5380905Y-15290095D02*
X5410905Y-15320095D01*
X5410905Y-15290095D02*
X5380905Y-15320095D01*
X5385000Y-12285000D02*
X5415000Y-12315000D01*
X5415000Y-12285000D02*
X5385000Y-12315000D01*
X5385000Y-12585000D02*
X5415000Y-12615000D01*
X5415000Y-12585000D02*
X5385000Y-12615000D01*
X5385000Y-12885000D02*
X5415000Y-12915000D01*
X5415000Y-12885000D02*
X5385000Y-12915000D01*
X5414255Y-14709952D02*
X5444255Y-14739952D01*
X5444255Y-14709952D02*
X5414255Y-14739952D01*
X5461000Y-15265000D02*
X5491000Y-15295000D01*
X5491000Y-15265000D02*
X5461000Y-15295000D01*
X5492904Y-14724590D02*
X5522904Y-14754590D01*
X5522904Y-14724590D02*
X5492904Y-14754590D01*
X5509300Y-13032000D02*
X5539300Y-13062000D01*
X5539300Y-13032000D02*
X5509300Y-13062000D01*
X5510000Y-14081000D02*
X5540000Y-14111000D01*
X5540000Y-14081000D02*
X5510000Y-14111000D01*
X5515000Y-14545000D02*
X5545000Y-14575000D01*
X5545000Y-14545000D02*
X5515000Y-14575000D01*
X5516336Y-13768317D02*
X5546336Y-13798317D01*
X5546336Y-13768317D02*
X5516336Y-13798317D01*
X5535000Y-14645000D02*
X5565000Y-14675000D01*
X5565000Y-14645000D02*
X5535000Y-14675000D01*
X5545000Y-13525000D02*
X5575000Y-13555000D01*
X5575000Y-13525000D02*
X5545000Y-13555000D01*
X5545000Y-13675000D02*
X5575000Y-13705000D01*
X5575000Y-13675000D02*
X5545000Y-13705000D01*
X5550000Y-13267000D02*
X5580000Y-13297000D01*
X5580000Y-13267000D02*
X5550000Y-13297000D01*
X5573000Y-15178000D02*
X5603000Y-15208000D01*
X5603000Y-15178000D02*
X5573000Y-15208000D01*
X5607144Y-14758161D02*
X5637144Y-14788161D01*
X5637144Y-14758161D02*
X5607144Y-14788161D01*
X5620340Y-15094277D02*
X5650340Y-15124277D01*
X5650340Y-15094277D02*
X5620340Y-15124277D01*
X5622000Y-14836769D02*
X5652000Y-14866769D01*
X5652000Y-14836769D02*
X5622000Y-14866769D01*
X5638711Y-14959830D02*
X5668711Y-14989830D01*
X5668711Y-14959830D02*
X5638711Y-14989830D01*
X5645000Y-13785250D02*
X5675000Y-13815250D01*
X5675000Y-13785250D02*
X5645000Y-13815250D01*
X5652373Y-12981500D02*
X5682373Y-13011500D01*
X5682373Y-12981500D02*
X5652373Y-13011500D01*
X5663000Y-14239000D02*
X5693000Y-14269000D01*
X5693000Y-14239000D02*
X5663000Y-14269000D01*
X5665000Y-14095000D02*
X5695000Y-14125000D01*
X5695000Y-14095000D02*
X5665000Y-14125000D01*
X5671522Y-15032792D02*
X5701522Y-15062792D01*
X5701522Y-15032792D02*
X5671522Y-15062792D01*
X5685000Y-12285000D02*
X5715000Y-12315000D01*
X5715000Y-12285000D02*
X5685000Y-12315000D01*
X5685000Y-12585000D02*
X5715000Y-12615000D01*
X5715000Y-12585000D02*
X5685000Y-12615000D01*
X5689840Y-16301960D02*
X5719840Y-16331960D01*
X5719840Y-16301960D02*
X5689840Y-16331960D01*
X5694000Y-13599000D02*
X5724000Y-13629000D01*
X5724000Y-13599000D02*
X5694000Y-13629000D01*
X5735200Y-14631700D02*
X5765200Y-14661700D01*
X5765200Y-14631700D02*
X5735200Y-14661700D01*
X5745000Y-14051000D02*
X5775000Y-14081000D01*
X5775000Y-14051000D02*
X5745000Y-14081000D01*
X5745720Y-14828760D02*
X5775720Y-14858760D01*
X5775720Y-14828760D02*
X5745720Y-14858760D01*
X5755000Y-14435000D02*
X5785000Y-14465000D01*
X5785000Y-14435000D02*
X5755000Y-14465000D01*
X5768000Y-15252000D02*
X5798000Y-15282000D01*
X5798000Y-15252000D02*
X5768000Y-15282000D01*
X5973856Y-14434545D02*
X6003856Y-14464545D01*
X6003856Y-14434545D02*
X5973856Y-14464545D01*
X5977345Y-14715000D02*
X6007345Y-14745000D01*
X6007345Y-14715000D02*
X5977345Y-14745000D01*
X5981000Y-13064000D02*
X6011000Y-13094000D01*
X6011000Y-13064000D02*
X5981000Y-13094000D01*
X5985000Y-12285000D02*
X6015000Y-12315000D01*
X6015000Y-12285000D02*
X5985000Y-12315000D01*
X5985854Y-14047500D02*
X6015854Y-14077500D01*
X6015854Y-14047500D02*
X5985854Y-14077500D01*
X6016200Y-15075200D02*
X6046200Y-15105200D01*
X6046200Y-15075200D02*
X6016200Y-15105200D01*
X6023700Y-15176900D02*
X6053700Y-15206900D01*
X6053700Y-15176900D02*
X6023700Y-15206900D01*
X6031581Y-13738241D02*
X6061581Y-13768241D01*
X6061581Y-13738241D02*
X6031581Y-13768241D01*
X6085900Y-14297488D02*
X6115900Y-14327488D01*
X6115900Y-14297488D02*
X6085900Y-14327488D01*
X6088517Y-14727897D02*
X6118517Y-14757897D01*
X6118517Y-14727897D02*
X6088517Y-14757897D01*
X6104700Y-13770700D02*
X6134700Y-13800700D01*
X6134700Y-13770700D02*
X6104700Y-13800700D01*
X6140000Y-13905000D02*
X6170000Y-13935000D01*
X6170000Y-13905000D02*
X6140000Y-13935000D01*
X6149000Y-15054000D02*
X6179000Y-15084000D01*
X6179000Y-15054000D02*
X6149000Y-15084000D01*
X6157200Y-14780500D02*
X6187200Y-14810500D01*
X6187200Y-14780500D02*
X6157200Y-14810500D01*
X6176000Y-15146000D02*
X6206000Y-15176000D01*
X6206000Y-15146000D02*
X6176000Y-15176000D01*
X6215000Y-15305000D02*
X6245000Y-15335000D01*
X6245000Y-15305000D02*
X6215000Y-15335000D01*
X6285000Y-12285000D02*
X6315000Y-12315000D01*
X6315000Y-12285000D02*
X6285000Y-12315000D01*
X6290000Y-15150000D02*
X6320000Y-15180000D01*
X6320000Y-15150000D02*
X6290000Y-15180000D01*
X6298256Y-14401428D02*
X6328256Y-14431428D01*
X6328256Y-14401428D02*
X6298256Y-14431428D01*
X6300500Y-14892260D02*
X6330500Y-14922260D01*
X6330500Y-14892260D02*
X6300500Y-14922260D01*
X6367000Y-15726000D02*
X6397000Y-15756000D01*
X6397000Y-15726000D02*
X6367000Y-15756000D01*
X6431000Y-13031000D02*
X6461000Y-13061000D01*
X6461000Y-13031000D02*
X6431000Y-13061000D01*
X6471000Y-15960000D02*
X6501000Y-15990000D01*
X6501000Y-15960000D02*
X6471000Y-15990000D01*
X6476000Y-14225000D02*
X6506000Y-14255000D01*
X6506000Y-14225000D02*
X6476000Y-14255000D01*
X6485000Y-14732500D02*
X6515000Y-14762500D01*
X6515000Y-14732500D02*
X6485000Y-14762500D01*
X6585000Y-12285000D02*
X6615000Y-12315000D01*
X6615000Y-12285000D02*
X6585000Y-12315000D01*
X6644800Y-15338100D02*
X6674800Y-15368100D01*
X6674800Y-15338100D02*
X6644800Y-15368100D01*
X6720000Y-15059000D02*
X6750000Y-15089000D01*
X6750000Y-15059000D02*
X6720000Y-15089000D01*
X6742000Y-14870000D02*
X6772000Y-14900000D01*
X6772000Y-14870000D02*
X6742000Y-14900000D01*
X6744212Y-14752712D02*
X6774212Y-14782712D01*
X6774212Y-14752712D02*
X6744212Y-14782712D01*
X6755000Y-13285000D02*
X6785000Y-13315000D01*
X6785000Y-13285000D02*
X6755000Y-13315000D01*
X6816000Y-15498500D02*
X6846000Y-15528500D01*
X6846000Y-15498500D02*
X6816000Y-15528500D01*
X6838269Y-15904769D02*
X6868269Y-15934769D01*
X6868269Y-15904769D02*
X6838269Y-15934769D01*
X6885000Y-12285000D02*
X6915000Y-12315000D01*
X6915000Y-12285000D02*
X6885000Y-12315000D01*
X6925000Y-15031000D02*
X6955000Y-15061000D01*
X6955000Y-15031000D02*
X6925000Y-15061000D01*
X6989000Y-13039000D02*
X7019000Y-13069000D01*
X7019000Y-13039000D02*
X6989000Y-13069000D01*
X7015000Y-14684000D02*
X7045000Y-14714000D01*
X7045000Y-14684000D02*
X7015000Y-14714000D01*
X7040000Y-14162000D02*
X7070000Y-14192000D01*
X7070000Y-14162000D02*
X7040000Y-14192000D01*
X7040000Y-15775000D02*
X7070000Y-15805000D01*
X7070000Y-15775000D02*
X7040000Y-15805000D01*
X7079228Y-14462642D02*
X7109228Y-14492642D01*
X7109228Y-14462642D02*
X7079228Y-14492642D01*
X7085000Y-13885000D02*
X7115000Y-13915000D01*
X7115000Y-13885000D02*
X7085000Y-13915000D01*
X7115000Y-15700000D02*
X7145000Y-15730000D01*
X7145000Y-15700000D02*
X7115000Y-15730000D01*
X7118073Y-14378073D02*
X7148073Y-14408073D01*
X7148073Y-14378073D02*
X7118073Y-14408073D01*
X7139500Y-13284000D02*
X7169500Y-13314000D01*
X7169500Y-13284000D02*
X7139500Y-13314000D01*
X7139500Y-13394000D02*
X7169500Y-13424000D01*
X7169500Y-13394000D02*
X7139500Y-13424000D01*
X7140500Y-13464000D02*
X7170500Y-13494000D01*
X7170500Y-13464000D02*
X7140500Y-13494000D01*
X7142500Y-13588000D02*
X7172500Y-13618000D01*
X7172500Y-13588000D02*
X7142500Y-13618000D01*
X7152880Y-13177760D02*
X7182880Y-13207760D01*
X7182880Y-13177760D02*
X7152880Y-13207760D01*
X7165000Y-13885000D02*
X7195000Y-13915000D01*
X7195000Y-13885000D02*
X7165000Y-13915000D01*
X7185000Y-12285000D02*
X7215000Y-12315000D01*
X7215000Y-12285000D02*
X7185000Y-12315000D01*
X7185000Y-16185000D02*
X7215000Y-16215000D01*
X7215000Y-16185000D02*
X7185000Y-16215000D01*
X7191646Y-14632500D02*
X7221646Y-14662500D01*
X7221646Y-14632500D02*
X7191646Y-14662500D01*
X7210000Y-15000000D02*
X7240000Y-15030000D01*
X7240000Y-15000000D02*
X7210000Y-15030000D01*
X7218378Y-13681607D02*
X7248378Y-13711607D01*
X7248378Y-13681607D02*
X7218378Y-13711607D01*
X7231000Y-15798000D02*
X7261000Y-15828000D01*
X7261000Y-15798000D02*
X7231000Y-15828000D01*
X7235000Y-14164500D02*
X7265000Y-14194500D01*
X7265000Y-14164500D02*
X7235000Y-14194500D01*
X7265000Y-14537500D02*
X7295000Y-14567500D01*
X7295000Y-14537500D02*
X7265000Y-14567500D01*
X7278692Y-14335600D02*
X7308692Y-14365600D01*
X7308692Y-14335600D02*
X7278692Y-14365600D01*
X7307820Y-15440900D02*
X7337820Y-15470900D01*
X7337820Y-15440900D02*
X7307820Y-15470900D01*
X7315000Y-14485000D02*
X7345000Y-14515000D01*
X7345000Y-14485000D02*
X7315000Y-14515000D01*
X7347500Y-13435027D02*
X7377500Y-13465027D01*
X7377500Y-13435027D02*
X7347500Y-13465027D01*
X7347500Y-13583554D02*
X7377500Y-13613554D01*
X7377500Y-13583554D02*
X7347500Y-13613554D01*
X7350000Y-13290052D02*
X7380000Y-13320052D01*
X7380000Y-13290052D02*
X7350000Y-13320052D01*
X7385000Y-15390000D02*
X7415000Y-15420000D01*
X7415000Y-15390000D02*
X7385000Y-15420000D01*
X7485000Y-12285000D02*
X7515000Y-12315000D01*
X7515000Y-12285000D02*
X7485000Y-12315000D01*
X7485000Y-13185000D02*
X7515000Y-13215000D01*
X7515000Y-13185000D02*
X7485000Y-13215000D01*
X7485000Y-13910000D02*
X7515000Y-13940000D01*
X7515000Y-13910000D02*
X7485000Y-13940000D01*
X7485000Y-16185000D02*
X7515000Y-16215000D01*
X7515000Y-16185000D02*
X7485000Y-16215000D01*
X7535984Y-15400000D02*
X7565984Y-15430000D01*
X7565984Y-15400000D02*
X7535984Y-15430000D01*
X7595000Y-14550000D02*
X7625000Y-14580000D01*
X7625000Y-14550000D02*
X7595000Y-14580000D01*
X7628906Y-14874240D02*
X7658906Y-14904240D01*
X7658906Y-14874240D02*
X7628906Y-14904240D01*
X7638000Y-13185000D02*
X7668000Y-13215000D01*
X7668000Y-13185000D02*
X7638000Y-13215000D01*
X7655000Y-14605000D02*
X7685000Y-14635000D01*
X7685000Y-14605000D02*
X7655000Y-14635000D01*
X7761421Y-13648265D02*
X7791421Y-13678265D01*
X7791421Y-13648265D02*
X7761421Y-13678265D01*
X7785000Y-12285000D02*
X7815000Y-12315000D01*
X7815000Y-12285000D02*
X7785000Y-12315000D01*
X7785000Y-12885000D02*
X7815000Y-12915000D01*
X7815000Y-12885000D02*
X7785000Y-12915000D01*
X7785000Y-16185000D02*
X7815000Y-16215000D01*
X7815000Y-16185000D02*
X7785000Y-16215000D01*
X7810000Y-14210000D02*
X7840000Y-14240000D01*
X7840000Y-14210000D02*
X7810000Y-14240000D01*
X7811000Y-15217000D02*
X7841000Y-15247000D01*
X7841000Y-15217000D02*
X7811000Y-15247000D01*
X7834000Y-15439000D02*
X7864000Y-15469000D01*
X7864000Y-15439000D02*
X7834000Y-15469000D01*
X7835390Y-14854000D02*
X7865390Y-14884000D01*
X7865390Y-14854000D02*
X7835390Y-14884000D01*
X7836500Y-14554358D02*
X7866500Y-14584358D01*
X7866500Y-14554358D02*
X7836500Y-14584358D01*
X7844523Y-13632500D02*
X7874523Y-13662500D01*
X7874523Y-13632500D02*
X7844523Y-13662500D01*
X7885000Y-13910000D02*
X7915000Y-13940000D01*
X7915000Y-13910000D02*
X7885000Y-13940000D01*
X7891450Y-14612500D02*
X7921450Y-14642500D01*
X7921450Y-14612500D02*
X7891450Y-14642500D01*
X7918110Y-13663885D02*
X7948110Y-13693885D01*
X7948110Y-13663885D02*
X7918110Y-13693885D01*
X7995000Y-13485000D02*
X8025000Y-13515000D01*
X8025000Y-13485000D02*
X7995000Y-13515000D01*
X8005000Y-13645000D02*
X8035000Y-13675000D01*
X8035000Y-13645000D02*
X8005000Y-13675000D01*
X8037033Y-15185000D02*
X8067033Y-15215000D01*
X8067033Y-15185000D02*
X8037033Y-15215000D01*
X8059000Y-14470000D02*
X8089000Y-14500000D01*
X8089000Y-14470000D02*
X8059000Y-14500000D01*
X8085000Y-12285000D02*
X8115000Y-12315000D01*
X8115000Y-12285000D02*
X8085000Y-12315000D01*
X8085000Y-12585000D02*
X8115000Y-12615000D01*
X8115000Y-12585000D02*
X8085000Y-12615000D01*
X8085000Y-12885000D02*
X8115000Y-12915000D01*
X8115000Y-12885000D02*
X8085000Y-12915000D01*
X8085000Y-16185000D02*
X8115000Y-16215000D01*
X8115000Y-16185000D02*
X8085000Y-16215000D01*
X8103000Y-14857000D02*
X8133000Y-14887000D01*
X8133000Y-14857000D02*
X8103000Y-14887000D01*
X8118000Y-15107000D02*
X8148000Y-15137000D01*
X8148000Y-15107000D02*
X8118000Y-15137000D01*
X8125000Y-13135000D02*
X8155000Y-13165000D01*
X8155000Y-13135000D02*
X8125000Y-13165000D01*
X8149427Y-14133573D02*
X8179427Y-14163573D01*
X8179427Y-14133573D02*
X8149427Y-14163573D01*
X8167700Y-14211700D02*
X8197700Y-14241700D01*
X8197700Y-14211700D02*
X8167700Y-14241700D01*
X8189296Y-14290704D02*
X8219296Y-14320704D01*
X8219296Y-14290704D02*
X8189296Y-14320704D01*
X8214990Y-14374972D02*
X8244990Y-14404972D01*
X8244990Y-14374972D02*
X8214990Y-14404972D01*
X8285000Y-13710000D02*
X8315000Y-13740000D01*
X8315000Y-13710000D02*
X8285000Y-13740000D01*
X8287500Y-13861595D02*
X8317500Y-13891595D01*
X8317500Y-13861595D02*
X8287500Y-13891595D01*
X8375000Y-13265000D02*
X8405000Y-13295000D01*
X8405000Y-13265000D02*
X8375000Y-13295000D01*
X8385000Y-12885000D02*
X8415000Y-12915000D01*
X8415000Y-12885000D02*
X8385000Y-12915000D01*
X8385000Y-14710000D02*
X8415000Y-14740000D01*
X8415000Y-14710000D02*
X8385000Y-14740000D01*
X8410000Y-14157000D02*
X8440000Y-14187000D01*
X8440000Y-14157000D02*
X8410000Y-14187000D01*
X8469000Y-14089000D02*
X8499000Y-14119000D01*
X8499000Y-14089000D02*
X8469000Y-14119000D01*
X8482500Y-13709000D02*
X8512500Y-13739000D01*
X8512500Y-13709000D02*
X8482500Y-13739000D01*
X8485000Y-13860000D02*
X8515000Y-13890000D01*
X8515000Y-13860000D02*
X8485000Y-13890000D01*
X8539720Y-15666960D02*
X8569720Y-15696960D01*
X8569720Y-15666960D02*
X8539720Y-15696960D01*
X8548000Y-14088000D02*
X8578000Y-14118000D01*
X8578000Y-14088000D02*
X8548000Y-14118000D01*
X8617000Y-13754000D02*
X8647000Y-13784000D01*
X8647000Y-13754000D02*
X8617000Y-13784000D01*
X8621000Y-13878000D02*
X8651000Y-13908000D01*
X8651000Y-13878000D02*
X8621000Y-13908000D01*
X8656000Y-14143000D02*
X8686000Y-14173000D01*
X8686000Y-14143000D02*
X8656000Y-14173000D01*
X8656560Y-15026880D02*
X8686560Y-15056880D01*
X8686560Y-15026880D02*
X8656560Y-15056880D01*
X8685000Y-15585000D02*
X8715000Y-15615000D01*
X8715000Y-15585000D02*
X8685000Y-15615000D01*
X8696000Y-13753000D02*
X8726000Y-13783000D01*
X8726000Y-13753000D02*
X8696000Y-13783000D01*
X8698000Y-13877000D02*
X8728000Y-13907000D01*
X8728000Y-13877000D02*
X8698000Y-13907000D01*
X8727680Y-14501100D02*
X8757680Y-14531100D01*
X8757680Y-14501100D02*
X8727680Y-14531100D01*
X8742920Y-14305520D02*
X8772920Y-14335520D01*
X8772920Y-14305520D02*
X8742920Y-14335520D01*
X8766000Y-14186000D02*
X8796000Y-14216000D01*
X8796000Y-14186000D02*
X8766000Y-14216000D01*
X8767000Y-14092000D02*
X8797000Y-14122000D01*
X8797000Y-14092000D02*
X8767000Y-14122000D01*
X8772000Y-13753000D02*
X8802000Y-13783000D01*
X8802000Y-13753000D02*
X8772000Y-13783000D01*
X8774000Y-13877000D02*
X8804000Y-13907000D01*
X8804000Y-13877000D02*
X8774000Y-13907000D01*
X8845000Y-14186000D02*
X8875000Y-14216000D01*
X8875000Y-14186000D02*
X8845000Y-14216000D01*
X8846000Y-14092000D02*
X8876000Y-14122000D01*
X8876000Y-14092000D02*
X8846000Y-14122000D01*
X8851000Y-13876000D02*
X8881000Y-13906000D01*
X8881000Y-13876000D02*
X8851000Y-13906000D01*
X8853000Y-13756000D02*
X8883000Y-13786000D01*
X8883000Y-13756000D02*
X8853000Y-13786000D01*
X8895000Y-15632000D02*
X8925000Y-15662000D01*
X8925000Y-15632000D02*
X8895000Y-15662000D01*
X8924000Y-14185000D02*
X8954000Y-14215000D01*
X8954000Y-14185000D02*
X8924000Y-14215000D01*
X8925000Y-14091000D02*
X8955000Y-14121000D01*
X8955000Y-14091000D02*
X8925000Y-14121000D01*
X8930000Y-13875000D02*
X8960000Y-13905000D01*
X8960000Y-13875000D02*
X8930000Y-13905000D01*
X8932000Y-13755000D02*
X8962000Y-13785000D01*
X8962000Y-13755000D02*
X8932000Y-13785000D01*
X8936000Y-15362000D02*
X8966000Y-15392000D01*
X8966000Y-15362000D02*
X8936000Y-15392000D01*
X8951200Y-13487640D02*
X8981200Y-13517640D01*
X8981200Y-13487640D02*
X8951200Y-13517640D01*
X8954000Y-15076000D02*
X8984000Y-15106000D01*
X8984000Y-15076000D02*
X8954000Y-15106000D01*
X8985000Y-14385000D02*
X9015000Y-14415000D01*
X9015000Y-14385000D02*
X8985000Y-14415000D01*
X8985000Y-14685000D02*
X9015000Y-14715000D01*
X9015000Y-14685000D02*
X8985000Y-14715000D01*
X9000000Y-14185000D02*
X9030000Y-14215000D01*
X9030000Y-14185000D02*
X9000000Y-14215000D01*
X9001000Y-14091000D02*
X9031000Y-14121000D01*
X9031000Y-14091000D02*
X9001000Y-14121000D01*
X9006000Y-13875000D02*
X9036000Y-13905000D01*
X9036000Y-13875000D02*
X9006000Y-13905000D01*
X9008000Y-13755000D02*
X9038000Y-13785000D01*
X9038000Y-13755000D02*
X9008000Y-13785000D01*
X3625000Y-16065000D02*
G75*
G02*
X3575000Y-16065000I-25000J0D01*
G01*
X3575000Y-16065000D02*
G75*
G02*
X3625000Y-16065000I25000J0D01*
G01*
X3629706Y-12590000D02*
G75*
G02*
X3579706Y-12590000I-25000J0D01*
G01*
X3579706Y-12590000D02*
G75*
G02*
X3629706Y-12590000I25000J0D01*
G01*
X3695294Y-15895294D02*
G75*
G02*
X3645294Y-15895294I-25000J0D01*
G01*
X3645294Y-15895294D02*
G75*
G02*
X3695294Y-15895294I25000J0D01*
G01*
X3695294Y-16234706D02*
G75*
G02*
X3645294Y-16234706I-25000J0D01*
G01*
X3645294Y-16234706D02*
G75*
G02*
X3695294Y-16234706I25000J0D01*
G01*
X3700000Y-12420294D02*
G75*
G02*
X3650000Y-12420294I-25000J0D01*
G01*
X3650000Y-12420294D02*
G75*
G02*
X3700000Y-12420294I25000J0D01*
G01*
X3700000Y-12759706D02*
G75*
G02*
X3650000Y-12759706I-25000J0D01*
G01*
X3650000Y-12759706D02*
G75*
G02*
X3700000Y-12759706I25000J0D01*
G01*
X3865000Y-15825000D02*
G75*
G02*
X3815000Y-15825000I-25000J0D01*
G01*
X3815000Y-15825000D02*
G75*
G02*
X3865000Y-15825000I25000J0D01*
G01*
X3865000Y-16305000D02*
G75*
G02*
X3815000Y-16305000I-25000J0D01*
G01*
X3815000Y-16305000D02*
G75*
G02*
X3865000Y-16305000I25000J0D01*
G01*
X3869706Y-12350000D02*
G75*
G02*
X3819706Y-12350000I-25000J0D01*
G01*
X3819706Y-12350000D02*
G75*
G02*
X3869706Y-12350000I25000J0D01*
G01*
X3869706Y-12830000D02*
G75*
G02*
X3819706Y-12830000I-25000J0D01*
G01*
X3819706Y-12830000D02*
G75*
G02*
X3869706Y-12830000I25000J0D01*
G01*
X4034706Y-15895294D02*
G75*
G02*
X3984706Y-15895294I-25000J0D01*
G01*
X3984706Y-15895294D02*
G75*
G02*
X4034706Y-15895294I25000J0D01*
G01*
X4034706Y-16234706D02*
G75*
G02*
X3984706Y-16234706I-25000J0D01*
G01*
X3984706Y-16234706D02*
G75*
G02*
X4034706Y-16234706I25000J0D01*
G01*
X4039411Y-12420294D02*
G75*
G02*
X3989411Y-12420294I-25000J0D01*
G01*
X3989411Y-12420294D02*
G75*
G02*
X4039411Y-12420294I25000J0D01*
G01*
X4039411Y-12759706D02*
G75*
G02*
X3989411Y-12759706I-25000J0D01*
G01*
X3989411Y-12759706D02*
G75*
G02*
X4039411Y-12759706I25000J0D01*
G01*
X4105000Y-16065000D02*
G75*
G02*
X4055000Y-16065000I-25000J0D01*
G01*
X4055000Y-16065000D02*
G75*
G02*
X4105000Y-16065000I25000J0D01*
G01*
X4109706Y-12590000D02*
G75*
G02*
X4059706Y-12590000I-25000J0D01*
G01*
X4059706Y-12590000D02*
G75*
G02*
X4109706Y-12590000I25000J0D01*
G01*
X8475000Y-16060000D02*
G75*
G02*
X8425000Y-16060000I-25000J0D01*
G01*
X8425000Y-16060000D02*
G75*
G02*
X8475000Y-16060000I25000J0D01*
G01*
X8485000Y-12590000D02*
G75*
G02*
X8435000Y-12590000I-25000J0D01*
G01*
X8435000Y-12590000D02*
G75*
G02*
X8485000Y-12590000I25000J0D01*
G01*
X8545294Y-15890294D02*
G75*
G02*
X8495294Y-15890294I-25000J0D01*
G01*
X8495294Y-15890294D02*
G75*
G02*
X8545294Y-15890294I25000J0D01*
G01*
X8545294Y-16229706D02*
G75*
G02*
X8495294Y-16229706I-25000J0D01*
G01*
X8495294Y-16229706D02*
G75*
G02*
X8545294Y-16229706I25000J0D01*
G01*
X8555294Y-12420294D02*
G75*
G02*
X8505294Y-12420294I-25000J0D01*
G01*
X8505294Y-12420294D02*
G75*
G02*
X8555294Y-12420294I25000J0D01*
G01*
X8555294Y-12759706D02*
G75*
G02*
X8505294Y-12759706I-25000J0D01*
G01*
X8505294Y-12759706D02*
G75*
G02*
X8555294Y-12759706I25000J0D01*
G01*
X8715000Y-15820000D02*
G75*
G02*
X8665000Y-15820000I-25000J0D01*
G01*
X8665000Y-15820000D02*
G75*
G02*
X8715000Y-15820000I25000J0D01*
G01*
X8715000Y-16300000D02*
G75*
G02*
X8665000Y-16300000I-25000J0D01*
G01*
X8665000Y-16300000D02*
G75*
G02*
X8715000Y-16300000I25000J0D01*
G01*
X8725000Y-12350000D02*
G75*
G02*
X8675000Y-12350000I-25000J0D01*
G01*
X8675000Y-12350000D02*
G75*
G02*
X8725000Y-12350000I25000J0D01*
G01*
X8725000Y-12830000D02*
G75*
G02*
X8675000Y-12830000I-25000J0D01*
G01*
X8675000Y-12830000D02*
G75*
G02*
X8725000Y-12830000I25000J0D01*
G01*
X8884706Y-15890294D02*
G75*
G02*
X8834706Y-15890294I-25000J0D01*
G01*
X8834706Y-15890294D02*
G75*
G02*
X8884706Y-15890294I25000J0D01*
G01*
X8884706Y-16229706D02*
G75*
G02*
X8834706Y-16229706I-25000J0D01*
G01*
X8834706Y-16229706D02*
G75*
G02*
X8884706Y-16229706I25000J0D01*
G01*
X8894706Y-12420294D02*
G75*
G02*
X8844706Y-12420294I-25000J0D01*
G01*
X8844706Y-12420294D02*
G75*
G02*
X8894706Y-12420294I25000J0D01*
G01*
X8894706Y-12759706D02*
G75*
G02*
X8844706Y-12759706I-25000J0D01*
G01*
X8844706Y-12759706D02*
G75*
G02*
X8894706Y-12759706I25000J0D01*
G01*
X8955000Y-16060000D02*
G75*
G02*
X8905000Y-16060000I-25000J0D01*
G01*
X8905000Y-16060000D02*
G75*
G02*
X8955000Y-16060000I25000J0D01*
G01*
X8965000Y-12590000D02*
G75*
G02*
X8915000Y-12590000I-25000J0D01*
G01*
X8915000Y-12590000D02*
G75*
G02*
X8965000Y-12590000I25000J0D01*
G01*
X4475000Y-12462500D02*
X4475000Y-12537500D01*
X4437500Y-12500000D02*
X4512500Y-12500000D01*
X4475000Y-13037500D02*
X4475000Y-13112500D01*
X4437500Y-13075000D02*
X4512500Y-13075000D01*
X4475000Y-15487500D02*
X4475000Y-15562500D01*
X4437500Y-15525000D02*
X4512500Y-15525000D01*
X4475000Y-16037500D02*
X4475000Y-16112500D01*
X4437500Y-16075000D02*
X4512500Y-16075000D01*
X4675000Y-12462500D02*
X4675000Y-12537500D01*
X4637500Y-12500000D02*
X4712500Y-12500000D01*
X4675000Y-13037500D02*
X4675000Y-13112500D01*
X4637500Y-13075000D02*
X4712500Y-13075000D01*
X4675000Y-15487500D02*
X4675000Y-15562500D01*
X4637500Y-15525000D02*
X4712500Y-15525000D01*
X4675000Y-16037500D02*
X4675000Y-16112500D01*
X4637500Y-16075000D02*
X4712500Y-16075000D01*
X4875000Y-12462500D02*
X4875000Y-12537500D01*
X4837500Y-12500000D02*
X4912500Y-12500000D01*
X4875000Y-13037500D02*
X4875000Y-13112500D01*
X4837500Y-13075000D02*
X4912500Y-13075000D01*
X4875000Y-15487500D02*
X4875000Y-15562500D01*
X4837500Y-15525000D02*
X4912500Y-15525000D01*
X4875000Y-16037500D02*
X4875000Y-16112500D01*
X4837500Y-16075000D02*
X4912500Y-16075000D01*
X5075000Y-12462500D02*
X5075000Y-12537500D01*
X5037500Y-12500000D02*
X5112500Y-12500000D01*
X5075000Y-13037500D02*
X5075000Y-13112500D01*
X5037500Y-13075000D02*
X5112500Y-13075000D01*
X5075000Y-15487500D02*
X5075000Y-15562500D01*
X5037500Y-15525000D02*
X5112500Y-15525000D01*
X5075000Y-16037500D02*
X5075000Y-16112500D01*
X5037500Y-16075000D02*
X5112500Y-16075000D01*
X5675000Y-15482500D02*
X5675000Y-15557500D01*
X5637500Y-15520000D02*
X5712500Y-15520000D01*
X5675000Y-16037500D02*
X5675000Y-16112500D01*
X5637500Y-16075000D02*
X5712500Y-16075000D01*
X5875000Y-15482500D02*
X5875000Y-15557500D01*
X5837500Y-15520000D02*
X5912500Y-15520000D01*
X5875000Y-16037500D02*
X5875000Y-16112500D01*
X5837500Y-16075000D02*
X5912500Y-16075000D01*
X6075000Y-15482500D02*
X6075000Y-15557500D01*
X6037500Y-15520000D02*
X6112500Y-15520000D01*
X6075000Y-16037500D02*
X6075000Y-16112500D01*
X6037500Y-16075000D02*
X6112500Y-16075000D01*
X6275000Y-15482500D02*
X6275000Y-15557500D01*
X6237500Y-15520000D02*
X6312500Y-15520000D01*
X6275000Y-16037500D02*
X6275000Y-16112500D01*
X6237500Y-16075000D02*
X6312500Y-16075000D01*
X7375000Y-15662500D02*
X7375000Y-15737500D01*
X7337500Y-15700000D02*
X7412500Y-15700000D01*
X7575000Y-15662500D02*
X7575000Y-15737500D01*
X7537500Y-15700000D02*
X7612500Y-15700000D01*
X7775000Y-15662500D02*
X7775000Y-15737500D01*
X7737500Y-15700000D02*
X7812500Y-15700000D01*
X7975000Y-15662500D02*
X7975000Y-15737500D01*
X7937500Y-15700000D02*
X8012500Y-15700000D01*
X7585356Y-12582856D02*
X7585356Y-12512144D01*
X7514644Y-12512144D01*
X7514644Y-12582856D01*
X7585356Y-12582856D01*
X7835356Y-12582856D02*
X7835356Y-12512144D01*
X7764644Y-12512144D01*
X7764644Y-12582856D01*
X7835356Y-12582856D01*
D13*
X6000000Y-12717500D02*
X6092500Y-12625000D01*
X6000000Y-12532500D01*
X5907500Y-12625000D01*
X6000000Y-12717500D01*
X6470000Y-12717500D02*
X6562500Y-12625000D01*
X6470000Y-12532500D01*
X6377500Y-12625000D01*
X6470000Y-12717500D01*
X6940000Y-12717500D02*
X7032500Y-12625000D01*
X6940000Y-12532500D01*
X6847500Y-12625000D01*
X6940000Y-12717500D01*
D14*
X3680000Y-15905000D02*
X4000000Y-16225000D01*
X4000000Y-15905000D02*
X3680000Y-16225000D01*
X4000000Y-16065000D02*
G75*
G02*
X3680000Y-16065000I-160000J0D01*
G01*
X3680000Y-16065000D02*
G75*
G02*
X4000000Y-16065000I160000J0D01*
G01*
X3684706Y-12430000D02*
X4004706Y-12750000D01*
X4004706Y-12430000D02*
X3684706Y-12750000D01*
X4004706Y-12590000D02*
G75*
G02*
X3684706Y-12590000I-160000J0D01*
G01*
X3684706Y-12590000D02*
G75*
G02*
X4004706Y-12590000I160000J0D01*
G01*
X8530000Y-15900000D02*
X8850000Y-16220000D01*
X8850000Y-15900000D02*
X8530000Y-16220000D01*
X8850000Y-16060000D02*
G75*
G02*
X8530000Y-16060000I-160000J0D01*
G01*
X8530000Y-16060000D02*
G75*
G02*
X8850000Y-16060000I160000J0D01*
G01*
X8540000Y-12430000D02*
X8860000Y-12750000D01*
X8860000Y-12430000D02*
X8540000Y-12750000D01*
X8860000Y-12590000D02*
G75*
G02*
X8540000Y-12590000I-160000J0D01*
G01*
X8540000Y-12590000D02*
G75*
G02*
X8860000Y-12590000I160000J0D01*
G01*
D11*
X3743275Y-16731102D02*
X3743275Y-16531102D01*
X3743275Y-16531102D02*
X3790894Y-16531102D01*
X3790894Y-16531102D02*
X3819466Y-16540626D01*
X3819466Y-16540626D02*
X3838514Y-16559674D01*
X3838514Y-16559674D02*
X3848037Y-16578721D01*
X3848037Y-16578721D02*
X3857561Y-16616817D01*
X3857561Y-16616817D02*
X3857561Y-16645388D01*
X3857561Y-16645388D02*
X3848037Y-16683483D01*
X3848037Y-16683483D02*
X3838514Y-16702531D01*
X3838514Y-16702531D02*
X3819466Y-16721579D01*
X3819466Y-16721579D02*
X3790894Y-16731102D01*
X3790894Y-16731102D02*
X3743275Y-16731102D01*
X3943275Y-16731102D02*
X3943275Y-16597769D01*
X3943275Y-16635864D02*
X3952799Y-16616817D01*
X3952799Y-16616817D02*
X3962323Y-16607293D01*
X3962323Y-16607293D02*
X3981371Y-16597769D01*
X3981371Y-16597769D02*
X4000418Y-16597769D01*
X4067085Y-16731102D02*
X4067085Y-16597769D01*
X4067085Y-16531102D02*
X4057561Y-16540626D01*
X4057561Y-16540626D02*
X4067085Y-16550150D01*
X4067085Y-16550150D02*
X4076609Y-16540626D01*
X4076609Y-16540626D02*
X4067085Y-16531102D01*
X4067085Y-16531102D02*
X4067085Y-16550150D01*
X4190894Y-16731102D02*
X4171847Y-16721579D01*
X4171847Y-16721579D02*
X4162323Y-16702531D01*
X4162323Y-16702531D02*
X4162323Y-16531102D01*
X4295656Y-16731102D02*
X4276609Y-16721579D01*
X4276609Y-16721579D02*
X4267085Y-16702531D01*
X4267085Y-16702531D02*
X4267085Y-16531102D01*
X4524228Y-16731102D02*
X4524228Y-16531102D01*
X4524228Y-16531102D02*
X4590895Y-16673959D01*
X4590895Y-16673959D02*
X4657561Y-16531102D01*
X4657561Y-16531102D02*
X4657561Y-16731102D01*
X4838514Y-16731102D02*
X4838514Y-16626340D01*
X4838514Y-16626340D02*
X4828990Y-16607293D01*
X4828990Y-16607293D02*
X4809942Y-16597769D01*
X4809942Y-16597769D02*
X4771847Y-16597769D01*
X4771847Y-16597769D02*
X4752799Y-16607293D01*
X4838514Y-16721579D02*
X4819466Y-16731102D01*
X4819466Y-16731102D02*
X4771847Y-16731102D01*
X4771847Y-16731102D02*
X4752799Y-16721579D01*
X4752799Y-16721579D02*
X4743276Y-16702531D01*
X4743276Y-16702531D02*
X4743276Y-16683483D01*
X4743276Y-16683483D02*
X4752799Y-16664436D01*
X4752799Y-16664436D02*
X4771847Y-16654912D01*
X4771847Y-16654912D02*
X4819466Y-16654912D01*
X4819466Y-16654912D02*
X4838514Y-16645388D01*
X4933752Y-16597769D02*
X4933752Y-16797769D01*
X4933752Y-16607293D02*
X4952799Y-16597769D01*
X4952799Y-16597769D02*
X4990895Y-16597769D01*
X4990895Y-16597769D02*
X5009942Y-16607293D01*
X5009942Y-16607293D02*
X5019466Y-16616817D01*
X5019466Y-16616817D02*
X5028990Y-16635864D01*
X5028990Y-16635864D02*
X5028990Y-16693007D01*
X5028990Y-16693007D02*
X5019466Y-16712055D01*
X5019466Y-16712055D02*
X5009942Y-16721579D01*
X5009942Y-16721579D02*
X4990895Y-16731102D01*
X4990895Y-16731102D02*
X4952799Y-16731102D01*
X4952799Y-16731102D02*
X4933752Y-16721579D01*
X5114704Y-16712055D02*
X5124228Y-16721579D01*
X5124228Y-16721579D02*
X5114704Y-16731102D01*
X5114704Y-16731102D02*
X5105180Y-16721579D01*
X5105180Y-16721579D02*
X5114704Y-16712055D01*
X5114704Y-16712055D02*
X5114704Y-16731102D01*
X5114704Y-16607293D02*
X5124228Y-16616817D01*
X5124228Y-16616817D02*
X5114704Y-16626340D01*
X5114704Y-16626340D02*
X5105180Y-16616817D01*
X5105180Y-16616817D02*
X5114704Y-16607293D01*
X5114704Y-16607293D02*
X5114704Y-16626340D01*
D12*
X3452499Y-17044619D02*
X3482499Y-17074619D01*
X3482499Y-17044619D02*
X3452499Y-17074619D01*
D11*
X3781371Y-16951102D02*
X3800418Y-16951102D01*
X3800418Y-16951102D02*
X3819466Y-16960626D01*
X3819466Y-16960626D02*
X3828990Y-16970150D01*
X3828990Y-16970150D02*
X3838514Y-16989198D01*
X3838514Y-16989198D02*
X3848037Y-17027293D01*
X3848037Y-17027293D02*
X3848037Y-17074912D01*
X3848037Y-17074912D02*
X3838514Y-17113007D01*
X3838514Y-17113007D02*
X3828990Y-17132055D01*
X3828990Y-17132055D02*
X3819466Y-17141579D01*
X3819466Y-17141579D02*
X3800418Y-17151102D01*
X3800418Y-17151102D02*
X3781371Y-17151102D01*
X3781371Y-17151102D02*
X3762323Y-17141579D01*
X3762323Y-17141579D02*
X3752799Y-17132055D01*
X3752799Y-17132055D02*
X3743275Y-17113007D01*
X3743275Y-17113007D02*
X3733752Y-17074912D01*
X3733752Y-17074912D02*
X3733752Y-17027293D01*
X3733752Y-17027293D02*
X3743275Y-16989198D01*
X3743275Y-16989198D02*
X3752799Y-16970150D01*
X3752799Y-16970150D02*
X3762323Y-16960626D01*
X3762323Y-16960626D02*
X3781371Y-16951102D01*
X3933752Y-17132055D02*
X3943275Y-17141579D01*
X3943275Y-17141579D02*
X3933752Y-17151102D01*
X3933752Y-17151102D02*
X3924228Y-17141579D01*
X3924228Y-17141579D02*
X3933752Y-17132055D01*
X3933752Y-17132055D02*
X3933752Y-17151102D01*
X4009942Y-16951102D02*
X4133752Y-16951102D01*
X4133752Y-16951102D02*
X4067085Y-17027293D01*
X4067085Y-17027293D02*
X4095656Y-17027293D01*
X4095656Y-17027293D02*
X4114704Y-17036817D01*
X4114704Y-17036817D02*
X4124228Y-17046341D01*
X4124228Y-17046341D02*
X4133752Y-17065388D01*
X4133752Y-17065388D02*
X4133752Y-17113007D01*
X4133752Y-17113007D02*
X4124228Y-17132055D01*
X4124228Y-17132055D02*
X4114704Y-17141579D01*
X4114704Y-17141579D02*
X4095656Y-17151102D01*
X4095656Y-17151102D02*
X4038514Y-17151102D01*
X4038514Y-17151102D02*
X4019466Y-17141579D01*
X4019466Y-17141579D02*
X4009942Y-17132055D01*
X4257561Y-16951102D02*
X4276609Y-16951102D01*
X4276609Y-16951102D02*
X4295657Y-16960626D01*
X4295657Y-16960626D02*
X4305180Y-16970150D01*
X4305180Y-16970150D02*
X4314704Y-16989198D01*
X4314704Y-16989198D02*
X4324228Y-17027293D01*
X4324228Y-17027293D02*
X4324228Y-17074912D01*
X4324228Y-17074912D02*
X4314704Y-17113007D01*
X4314704Y-17113007D02*
X4305180Y-17132055D01*
X4305180Y-17132055D02*
X4295657Y-17141579D01*
X4295657Y-17141579D02*
X4276609Y-17151102D01*
X4276609Y-17151102D02*
X4257561Y-17151102D01*
X4257561Y-17151102D02*
X4238514Y-17141579D01*
X4238514Y-17141579D02*
X4228990Y-17132055D01*
X4228990Y-17132055D02*
X4219466Y-17113007D01*
X4219466Y-17113007D02*
X4209942Y-17074912D01*
X4209942Y-17074912D02*
X4209942Y-17027293D01*
X4209942Y-17027293D02*
X4219466Y-16989198D01*
X4219466Y-16989198D02*
X4228990Y-16970150D01*
X4228990Y-16970150D02*
X4238514Y-16960626D01*
X4238514Y-16960626D02*
X4257561Y-16951102D01*
X4448037Y-16951102D02*
X4467085Y-16951102D01*
X4467085Y-16951102D02*
X4486133Y-16960626D01*
X4486133Y-16960626D02*
X4495657Y-16970150D01*
X4495657Y-16970150D02*
X4505180Y-16989198D01*
X4505180Y-16989198D02*
X4514704Y-17027293D01*
X4514704Y-17027293D02*
X4514704Y-17074912D01*
X4514704Y-17074912D02*
X4505180Y-17113007D01*
X4505180Y-17113007D02*
X4495657Y-17132055D01*
X4495657Y-17132055D02*
X4486133Y-17141579D01*
X4486133Y-17141579D02*
X4467085Y-17151102D01*
X4467085Y-17151102D02*
X4448037Y-17151102D01*
X4448037Y-17151102D02*
X4428990Y-17141579D01*
X4428990Y-17141579D02*
X4419466Y-17132055D01*
X4419466Y-17132055D02*
X4409942Y-17113007D01*
X4409942Y-17113007D02*
X4400418Y-17074912D01*
X4400418Y-17074912D02*
X4400418Y-17027293D01*
X4400418Y-17027293D02*
X4409942Y-16989198D01*
X4409942Y-16989198D02*
X4419466Y-16970150D01*
X4419466Y-16970150D02*
X4428990Y-16960626D01*
X4428990Y-16960626D02*
X4448037Y-16951102D01*
X4600418Y-17151102D02*
X4600418Y-17017769D01*
X4600418Y-17036817D02*
X4609942Y-17027293D01*
X4609942Y-17027293D02*
X4628990Y-17017769D01*
X4628990Y-17017769D02*
X4657561Y-17017769D01*
X4657561Y-17017769D02*
X4676609Y-17027293D01*
X4676609Y-17027293D02*
X4686133Y-17046341D01*
X4686133Y-17046341D02*
X4686133Y-17151102D01*
X4686133Y-17046341D02*
X4695657Y-17027293D01*
X4695657Y-17027293D02*
X4714704Y-17017769D01*
X4714704Y-17017769D02*
X4743276Y-17017769D01*
X4743276Y-17017769D02*
X4762323Y-17027293D01*
X4762323Y-17027293D02*
X4771847Y-17046341D01*
X4771847Y-17046341D02*
X4771847Y-17151102D01*
X4867085Y-17151102D02*
X4867085Y-17017769D01*
X4867085Y-17036817D02*
X4876609Y-17027293D01*
X4876609Y-17027293D02*
X4895657Y-17017769D01*
X4895657Y-17017769D02*
X4924228Y-17017769D01*
X4924228Y-17017769D02*
X4943276Y-17027293D01*
X4943276Y-17027293D02*
X4952799Y-17046341D01*
X4952799Y-17046341D02*
X4952799Y-17151102D01*
X4952799Y-17046341D02*
X4962323Y-17027293D01*
X4962323Y-17027293D02*
X4981371Y-17017769D01*
X4981371Y-17017769D02*
X5009942Y-17017769D01*
X5009942Y-17017769D02*
X5028990Y-17027293D01*
X5028990Y-17027293D02*
X5038514Y-17046341D01*
X5038514Y-17046341D02*
X5038514Y-17151102D01*
X5428990Y-16941579D02*
X5257561Y-17198721D01*
X5686133Y-16951102D02*
X5705180Y-16951102D01*
X5705180Y-16951102D02*
X5724228Y-16960626D01*
X5724228Y-16960626D02*
X5733752Y-16970150D01*
X5733752Y-16970150D02*
X5743276Y-16989198D01*
X5743276Y-16989198D02*
X5752799Y-17027293D01*
X5752799Y-17027293D02*
X5752799Y-17074912D01*
X5752799Y-17074912D02*
X5743276Y-17113007D01*
X5743276Y-17113007D02*
X5733752Y-17132055D01*
X5733752Y-17132055D02*
X5724228Y-17141579D01*
X5724228Y-17141579D02*
X5705180Y-17151102D01*
X5705180Y-17151102D02*
X5686133Y-17151102D01*
X5686133Y-17151102D02*
X5667085Y-17141579D01*
X5667085Y-17141579D02*
X5657561Y-17132055D01*
X5657561Y-17132055D02*
X5648038Y-17113007D01*
X5648038Y-17113007D02*
X5638514Y-17074912D01*
X5638514Y-17074912D02*
X5638514Y-17027293D01*
X5638514Y-17027293D02*
X5648038Y-16989198D01*
X5648038Y-16989198D02*
X5657561Y-16970150D01*
X5657561Y-16970150D02*
X5667085Y-16960626D01*
X5667085Y-16960626D02*
X5686133Y-16951102D01*
X5838514Y-17132055D02*
X5848038Y-17141579D01*
X5848038Y-17141579D02*
X5838514Y-17151102D01*
X5838514Y-17151102D02*
X5828990Y-17141579D01*
X5828990Y-17141579D02*
X5838514Y-17132055D01*
X5838514Y-17132055D02*
X5838514Y-17151102D01*
X5971847Y-16951102D02*
X5990895Y-16951102D01*
X5990895Y-16951102D02*
X6009942Y-16960626D01*
X6009942Y-16960626D02*
X6019466Y-16970150D01*
X6019466Y-16970150D02*
X6028990Y-16989198D01*
X6028990Y-16989198D02*
X6038514Y-17027293D01*
X6038514Y-17027293D02*
X6038514Y-17074912D01*
X6038514Y-17074912D02*
X6028990Y-17113007D01*
X6028990Y-17113007D02*
X6019466Y-17132055D01*
X6019466Y-17132055D02*
X6009942Y-17141579D01*
X6009942Y-17141579D02*
X5990895Y-17151102D01*
X5990895Y-17151102D02*
X5971847Y-17151102D01*
X5971847Y-17151102D02*
X5952799Y-17141579D01*
X5952799Y-17141579D02*
X5943276Y-17132055D01*
X5943276Y-17132055D02*
X5933752Y-17113007D01*
X5933752Y-17113007D02*
X5924228Y-17074912D01*
X5924228Y-17074912D02*
X5924228Y-17027293D01*
X5924228Y-17027293D02*
X5933752Y-16989198D01*
X5933752Y-16989198D02*
X5943276Y-16970150D01*
X5943276Y-16970150D02*
X5952799Y-16960626D01*
X5952799Y-16960626D02*
X5971847Y-16951102D01*
X6228990Y-17151102D02*
X6114704Y-17151102D01*
X6171847Y-17151102D02*
X6171847Y-16951102D01*
X6171847Y-16951102D02*
X6152799Y-16979674D01*
X6152799Y-16979674D02*
X6133752Y-16998721D01*
X6133752Y-16998721D02*
X6114704Y-17008245D01*
X6419466Y-17151102D02*
X6305180Y-17151102D01*
X6362323Y-17151102D02*
X6362323Y-16951102D01*
X6362323Y-16951102D02*
X6343276Y-16979674D01*
X6343276Y-16979674D02*
X6324228Y-16998721D01*
X6324228Y-16998721D02*
X6305180Y-17008245D01*
X6533752Y-17036817D02*
X6514704Y-17027293D01*
X6514704Y-17027293D02*
X6505180Y-17017769D01*
X6505180Y-17017769D02*
X6495657Y-16998721D01*
X6495657Y-16998721D02*
X6495657Y-16989198D01*
X6495657Y-16989198D02*
X6505180Y-16970150D01*
X6505180Y-16970150D02*
X6514704Y-16960626D01*
X6514704Y-16960626D02*
X6533752Y-16951102D01*
X6533752Y-16951102D02*
X6571847Y-16951102D01*
X6571847Y-16951102D02*
X6590895Y-16960626D01*
X6590895Y-16960626D02*
X6600419Y-16970150D01*
X6600419Y-16970150D02*
X6609942Y-16989198D01*
X6609942Y-16989198D02*
X6609942Y-16998721D01*
X6609942Y-16998721D02*
X6600419Y-17017769D01*
X6600419Y-17017769D02*
X6590895Y-17027293D01*
X6590895Y-17027293D02*
X6571847Y-17036817D01*
X6571847Y-17036817D02*
X6533752Y-17036817D01*
X6533752Y-17036817D02*
X6514704Y-17046341D01*
X6514704Y-17046341D02*
X6505180Y-17055864D01*
X6505180Y-17055864D02*
X6495657Y-17074912D01*
X6495657Y-17074912D02*
X6495657Y-17113007D01*
X6495657Y-17113007D02*
X6505180Y-17132055D01*
X6505180Y-17132055D02*
X6514704Y-17141579D01*
X6514704Y-17141579D02*
X6533752Y-17151102D01*
X6533752Y-17151102D02*
X6571847Y-17151102D01*
X6571847Y-17151102D02*
X6590895Y-17141579D01*
X6590895Y-17141579D02*
X6600419Y-17132055D01*
X6600419Y-17132055D02*
X6609942Y-17113007D01*
X6609942Y-17113007D02*
X6609942Y-17074912D01*
X6609942Y-17074912D02*
X6600419Y-17055864D01*
X6600419Y-17055864D02*
X6590895Y-17046341D01*
X6590895Y-17046341D02*
X6571847Y-17036817D01*
X6686133Y-16951102D02*
X6686133Y-16989198D01*
X6762323Y-16951102D02*
X6762323Y-16989198D01*
X7057562Y-17227293D02*
X7048038Y-17217769D01*
X7048038Y-17217769D02*
X7028990Y-17189198D01*
X7028990Y-17189198D02*
X7019466Y-17170150D01*
X7019466Y-17170150D02*
X7009942Y-17141579D01*
X7009942Y-17141579D02*
X7000419Y-17093960D01*
X7000419Y-17093960D02*
X7000419Y-17055864D01*
X7000419Y-17055864D02*
X7009942Y-17008245D01*
X7009942Y-17008245D02*
X7019466Y-16979674D01*
X7019466Y-16979674D02*
X7028990Y-16960626D01*
X7028990Y-16960626D02*
X7048038Y-16932055D01*
X7048038Y-16932055D02*
X7057562Y-16922531D01*
X7124228Y-16970150D02*
X7133752Y-16960626D01*
X7133752Y-16960626D02*
X7152800Y-16951102D01*
X7152800Y-16951102D02*
X7200419Y-16951102D01*
X7200419Y-16951102D02*
X7219466Y-16960626D01*
X7219466Y-16960626D02*
X7228990Y-16970150D01*
X7228990Y-16970150D02*
X7238514Y-16989198D01*
X7238514Y-16989198D02*
X7238514Y-17008245D01*
X7238514Y-17008245D02*
X7228990Y-17036817D01*
X7228990Y-17036817D02*
X7114704Y-17151102D01*
X7114704Y-17151102D02*
X7238514Y-17151102D01*
X7362323Y-16951102D02*
X7381371Y-16951102D01*
X7381371Y-16951102D02*
X7400419Y-16960626D01*
X7400419Y-16960626D02*
X7409942Y-16970150D01*
X7409942Y-16970150D02*
X7419466Y-16989198D01*
X7419466Y-16989198D02*
X7428990Y-17027293D01*
X7428990Y-17027293D02*
X7428990Y-17074912D01*
X7428990Y-17074912D02*
X7419466Y-17113007D01*
X7419466Y-17113007D02*
X7409942Y-17132055D01*
X7409942Y-17132055D02*
X7400419Y-17141579D01*
X7400419Y-17141579D02*
X7381371Y-17151102D01*
X7381371Y-17151102D02*
X7362323Y-17151102D01*
X7362323Y-17151102D02*
X7343276Y-17141579D01*
X7343276Y-17141579D02*
X7333752Y-17132055D01*
X7333752Y-17132055D02*
X7324228Y-17113007D01*
X7324228Y-17113007D02*
X7314704Y-17074912D01*
X7314704Y-17074912D02*
X7314704Y-17027293D01*
X7314704Y-17027293D02*
X7324228Y-16989198D01*
X7324228Y-16989198D02*
X7333752Y-16970150D01*
X7333752Y-16970150D02*
X7343276Y-16960626D01*
X7343276Y-16960626D02*
X7362323Y-16951102D01*
X7495657Y-16951102D02*
X7619466Y-16951102D01*
X7619466Y-16951102D02*
X7552800Y-17027293D01*
X7552800Y-17027293D02*
X7581371Y-17027293D01*
X7581371Y-17027293D02*
X7600419Y-17036817D01*
X7600419Y-17036817D02*
X7609942Y-17046341D01*
X7609942Y-17046341D02*
X7619466Y-17065388D01*
X7619466Y-17065388D02*
X7619466Y-17113007D01*
X7619466Y-17113007D02*
X7609942Y-17132055D01*
X7609942Y-17132055D02*
X7600419Y-17141579D01*
X7600419Y-17141579D02*
X7581371Y-17151102D01*
X7581371Y-17151102D02*
X7524228Y-17151102D01*
X7524228Y-17151102D02*
X7505181Y-17141579D01*
X7505181Y-17141579D02*
X7495657Y-17132055D01*
X7857562Y-17151102D02*
X7857562Y-16951102D01*
X7943276Y-17151102D02*
X7943276Y-17046341D01*
X7943276Y-17046341D02*
X7933752Y-17027293D01*
X7933752Y-17027293D02*
X7914704Y-17017769D01*
X7914704Y-17017769D02*
X7886133Y-17017769D01*
X7886133Y-17017769D02*
X7867085Y-17027293D01*
X7867085Y-17027293D02*
X7857562Y-17036817D01*
X8067085Y-17151102D02*
X8048038Y-17141579D01*
X8048038Y-17141579D02*
X8038514Y-17132055D01*
X8038514Y-17132055D02*
X8028990Y-17113007D01*
X8028990Y-17113007D02*
X8028990Y-17055864D01*
X8028990Y-17055864D02*
X8038514Y-17036817D01*
X8038514Y-17036817D02*
X8048038Y-17027293D01*
X8048038Y-17027293D02*
X8067085Y-17017769D01*
X8067085Y-17017769D02*
X8095657Y-17017769D01*
X8095657Y-17017769D02*
X8114704Y-17027293D01*
X8114704Y-17027293D02*
X8124228Y-17036817D01*
X8124228Y-17036817D02*
X8133752Y-17055864D01*
X8133752Y-17055864D02*
X8133752Y-17113007D01*
X8133752Y-17113007D02*
X8124228Y-17132055D01*
X8124228Y-17132055D02*
X8114704Y-17141579D01*
X8114704Y-17141579D02*
X8095657Y-17151102D01*
X8095657Y-17151102D02*
X8067085Y-17151102D01*
X8248038Y-17151102D02*
X8228990Y-17141579D01*
X8228990Y-17141579D02*
X8219466Y-17122531D01*
X8219466Y-17122531D02*
X8219466Y-16951102D01*
X8400419Y-17141579D02*
X8381371Y-17151102D01*
X8381371Y-17151102D02*
X8343276Y-17151102D01*
X8343276Y-17151102D02*
X8324228Y-17141579D01*
X8324228Y-17141579D02*
X8314704Y-17122531D01*
X8314704Y-17122531D02*
X8314704Y-17046341D01*
X8314704Y-17046341D02*
X8324228Y-17027293D01*
X8324228Y-17027293D02*
X8343276Y-17017769D01*
X8343276Y-17017769D02*
X8381371Y-17017769D01*
X8381371Y-17017769D02*
X8400419Y-17027293D01*
X8400419Y-17027293D02*
X8409943Y-17046341D01*
X8409943Y-17046341D02*
X8409943Y-17065388D01*
X8409943Y-17065388D02*
X8314704Y-17084436D01*
X8486133Y-17141579D02*
X8505181Y-17151102D01*
X8505181Y-17151102D02*
X8543276Y-17151102D01*
X8543276Y-17151102D02*
X8562324Y-17141579D01*
X8562324Y-17141579D02*
X8571847Y-17122531D01*
X8571847Y-17122531D02*
X8571847Y-17113007D01*
X8571847Y-17113007D02*
X8562324Y-17093960D01*
X8562324Y-17093960D02*
X8543276Y-17084436D01*
X8543276Y-17084436D02*
X8514705Y-17084436D01*
X8514705Y-17084436D02*
X8495657Y-17074912D01*
X8495657Y-17074912D02*
X8486133Y-17055864D01*
X8486133Y-17055864D02*
X8486133Y-17046341D01*
X8486133Y-17046341D02*
X8495657Y-17027293D01*
X8495657Y-17027293D02*
X8514705Y-17017769D01*
X8514705Y-17017769D02*
X8543276Y-17017769D01*
X8543276Y-17017769D02*
X8562324Y-17027293D01*
X8638514Y-17227293D02*
X8648038Y-17217769D01*
X8648038Y-17217769D02*
X8667086Y-17189198D01*
X8667086Y-17189198D02*
X8676609Y-17170150D01*
X8676609Y-17170150D02*
X8686133Y-17141579D01*
X8686133Y-17141579D02*
X8695657Y-17093960D01*
X8695657Y-17093960D02*
X8695657Y-17055864D01*
X8695657Y-17055864D02*
X8686133Y-17008245D01*
X8686133Y-17008245D02*
X8676609Y-16979674D01*
X8676609Y-16979674D02*
X8667086Y-16960626D01*
X8667086Y-16960626D02*
X8648038Y-16932055D01*
X8648038Y-16932055D02*
X8638514Y-16922531D01*
D12*
X3482499Y-17323619D02*
G75*
G02*
X3432499Y-17323619I-25000J0D01*
G01*
X3432499Y-17323619D02*
G75*
G02*
X3482499Y-17323619I25000J0D01*
G01*
D11*
X3781371Y-17215102D02*
X3800418Y-17215102D01*
X3800418Y-17215102D02*
X3819466Y-17224626D01*
X3819466Y-17224626D02*
X3828990Y-17234150D01*
X3828990Y-17234150D02*
X3838514Y-17253198D01*
X3838514Y-17253198D02*
X3848037Y-17291293D01*
X3848037Y-17291293D02*
X3848037Y-17338912D01*
X3848037Y-17338912D02*
X3838514Y-17377007D01*
X3838514Y-17377007D02*
X3828990Y-17396055D01*
X3828990Y-17396055D02*
X3819466Y-17405579D01*
X3819466Y-17405579D02*
X3800418Y-17415102D01*
X3800418Y-17415102D02*
X3781371Y-17415102D01*
X3781371Y-17415102D02*
X3762323Y-17405579D01*
X3762323Y-17405579D02*
X3752799Y-17396055D01*
X3752799Y-17396055D02*
X3743275Y-17377007D01*
X3743275Y-17377007D02*
X3733752Y-17338912D01*
X3733752Y-17338912D02*
X3733752Y-17291293D01*
X3733752Y-17291293D02*
X3743275Y-17253198D01*
X3743275Y-17253198D02*
X3752799Y-17234150D01*
X3752799Y-17234150D02*
X3762323Y-17224626D01*
X3762323Y-17224626D02*
X3781371Y-17215102D01*
X3933752Y-17396055D02*
X3943275Y-17405579D01*
X3943275Y-17405579D02*
X3933752Y-17415102D01*
X3933752Y-17415102D02*
X3924228Y-17405579D01*
X3924228Y-17405579D02*
X3933752Y-17396055D01*
X3933752Y-17396055D02*
X3933752Y-17415102D01*
X4124228Y-17215102D02*
X4028990Y-17215102D01*
X4028990Y-17215102D02*
X4019466Y-17310341D01*
X4019466Y-17310341D02*
X4028990Y-17300817D01*
X4028990Y-17300817D02*
X4048037Y-17291293D01*
X4048037Y-17291293D02*
X4095656Y-17291293D01*
X4095656Y-17291293D02*
X4114704Y-17300817D01*
X4114704Y-17300817D02*
X4124228Y-17310341D01*
X4124228Y-17310341D02*
X4133752Y-17329388D01*
X4133752Y-17329388D02*
X4133752Y-17377007D01*
X4133752Y-17377007D02*
X4124228Y-17396055D01*
X4124228Y-17396055D02*
X4114704Y-17405579D01*
X4114704Y-17405579D02*
X4095656Y-17415102D01*
X4095656Y-17415102D02*
X4048037Y-17415102D01*
X4048037Y-17415102D02*
X4028990Y-17405579D01*
X4028990Y-17405579D02*
X4019466Y-17396055D01*
X4257561Y-17215102D02*
X4276609Y-17215102D01*
X4276609Y-17215102D02*
X4295657Y-17224626D01*
X4295657Y-17224626D02*
X4305180Y-17234150D01*
X4305180Y-17234150D02*
X4314704Y-17253198D01*
X4314704Y-17253198D02*
X4324228Y-17291293D01*
X4324228Y-17291293D02*
X4324228Y-17338912D01*
X4324228Y-17338912D02*
X4314704Y-17377007D01*
X4314704Y-17377007D02*
X4305180Y-17396055D01*
X4305180Y-17396055D02*
X4295657Y-17405579D01*
X4295657Y-17405579D02*
X4276609Y-17415102D01*
X4276609Y-17415102D02*
X4257561Y-17415102D01*
X4257561Y-17415102D02*
X4238514Y-17405579D01*
X4238514Y-17405579D02*
X4228990Y-17396055D01*
X4228990Y-17396055D02*
X4219466Y-17377007D01*
X4219466Y-17377007D02*
X4209942Y-17338912D01*
X4209942Y-17338912D02*
X4209942Y-17291293D01*
X4209942Y-17291293D02*
X4219466Y-17253198D01*
X4219466Y-17253198D02*
X4228990Y-17234150D01*
X4228990Y-17234150D02*
X4238514Y-17224626D01*
X4238514Y-17224626D02*
X4257561Y-17215102D01*
X4448037Y-17215102D02*
X4467085Y-17215102D01*
X4467085Y-17215102D02*
X4486133Y-17224626D01*
X4486133Y-17224626D02*
X4495657Y-17234150D01*
X4495657Y-17234150D02*
X4505180Y-17253198D01*
X4505180Y-17253198D02*
X4514704Y-17291293D01*
X4514704Y-17291293D02*
X4514704Y-17338912D01*
X4514704Y-17338912D02*
X4505180Y-17377007D01*
X4505180Y-17377007D02*
X4495657Y-17396055D01*
X4495657Y-17396055D02*
X4486133Y-17405579D01*
X4486133Y-17405579D02*
X4467085Y-17415102D01*
X4467085Y-17415102D02*
X4448037Y-17415102D01*
X4448037Y-17415102D02*
X4428990Y-17405579D01*
X4428990Y-17405579D02*
X4419466Y-17396055D01*
X4419466Y-17396055D02*
X4409942Y-17377007D01*
X4409942Y-17377007D02*
X4400418Y-17338912D01*
X4400418Y-17338912D02*
X4400418Y-17291293D01*
X4400418Y-17291293D02*
X4409942Y-17253198D01*
X4409942Y-17253198D02*
X4419466Y-17234150D01*
X4419466Y-17234150D02*
X4428990Y-17224626D01*
X4428990Y-17224626D02*
X4448037Y-17215102D01*
X4600418Y-17415102D02*
X4600418Y-17281769D01*
X4600418Y-17300817D02*
X4609942Y-17291293D01*
X4609942Y-17291293D02*
X4628990Y-17281769D01*
X4628990Y-17281769D02*
X4657561Y-17281769D01*
X4657561Y-17281769D02*
X4676609Y-17291293D01*
X4676609Y-17291293D02*
X4686133Y-17310341D01*
X4686133Y-17310341D02*
X4686133Y-17415102D01*
X4686133Y-17310341D02*
X4695657Y-17291293D01*
X4695657Y-17291293D02*
X4714704Y-17281769D01*
X4714704Y-17281769D02*
X4743276Y-17281769D01*
X4743276Y-17281769D02*
X4762323Y-17291293D01*
X4762323Y-17291293D02*
X4771847Y-17310341D01*
X4771847Y-17310341D02*
X4771847Y-17415102D01*
X4867085Y-17415102D02*
X4867085Y-17281769D01*
X4867085Y-17300817D02*
X4876609Y-17291293D01*
X4876609Y-17291293D02*
X4895657Y-17281769D01*
X4895657Y-17281769D02*
X4924228Y-17281769D01*
X4924228Y-17281769D02*
X4943276Y-17291293D01*
X4943276Y-17291293D02*
X4952799Y-17310341D01*
X4952799Y-17310341D02*
X4952799Y-17415102D01*
X4952799Y-17310341D02*
X4962323Y-17291293D01*
X4962323Y-17291293D02*
X4981371Y-17281769D01*
X4981371Y-17281769D02*
X5009942Y-17281769D01*
X5009942Y-17281769D02*
X5028990Y-17291293D01*
X5028990Y-17291293D02*
X5038514Y-17310341D01*
X5038514Y-17310341D02*
X5038514Y-17415102D01*
X5428990Y-17205579D02*
X5257561Y-17462721D01*
X5686133Y-17215102D02*
X5705180Y-17215102D01*
X5705180Y-17215102D02*
X5724228Y-17224626D01*
X5724228Y-17224626D02*
X5733752Y-17234150D01*
X5733752Y-17234150D02*
X5743276Y-17253198D01*
X5743276Y-17253198D02*
X5752799Y-17291293D01*
X5752799Y-17291293D02*
X5752799Y-17338912D01*
X5752799Y-17338912D02*
X5743276Y-17377007D01*
X5743276Y-17377007D02*
X5733752Y-17396055D01*
X5733752Y-17396055D02*
X5724228Y-17405579D01*
X5724228Y-17405579D02*
X5705180Y-17415102D01*
X5705180Y-17415102D02*
X5686133Y-17415102D01*
X5686133Y-17415102D02*
X5667085Y-17405579D01*
X5667085Y-17405579D02*
X5657561Y-17396055D01*
X5657561Y-17396055D02*
X5648038Y-17377007D01*
X5648038Y-17377007D02*
X5638514Y-17338912D01*
X5638514Y-17338912D02*
X5638514Y-17291293D01*
X5638514Y-17291293D02*
X5648038Y-17253198D01*
X5648038Y-17253198D02*
X5657561Y-17234150D01*
X5657561Y-17234150D02*
X5667085Y-17224626D01*
X5667085Y-17224626D02*
X5686133Y-17215102D01*
X5838514Y-17396055D02*
X5848038Y-17405579D01*
X5848038Y-17405579D02*
X5838514Y-17415102D01*
X5838514Y-17415102D02*
X5828990Y-17405579D01*
X5828990Y-17405579D02*
X5838514Y-17396055D01*
X5838514Y-17396055D02*
X5838514Y-17415102D01*
X5971847Y-17215102D02*
X5990895Y-17215102D01*
X5990895Y-17215102D02*
X6009942Y-17224626D01*
X6009942Y-17224626D02*
X6019466Y-17234150D01*
X6019466Y-17234150D02*
X6028990Y-17253198D01*
X6028990Y-17253198D02*
X6038514Y-17291293D01*
X6038514Y-17291293D02*
X6038514Y-17338912D01*
X6038514Y-17338912D02*
X6028990Y-17377007D01*
X6028990Y-17377007D02*
X6019466Y-17396055D01*
X6019466Y-17396055D02*
X6009942Y-17405579D01*
X6009942Y-17405579D02*
X5990895Y-17415102D01*
X5990895Y-17415102D02*
X5971847Y-17415102D01*
X5971847Y-17415102D02*
X5952799Y-17405579D01*
X5952799Y-17405579D02*
X5943276Y-17396055D01*
X5943276Y-17396055D02*
X5933752Y-17377007D01*
X5933752Y-17377007D02*
X5924228Y-17338912D01*
X5924228Y-17338912D02*
X5924228Y-17291293D01*
X5924228Y-17291293D02*
X5933752Y-17253198D01*
X5933752Y-17253198D02*
X5943276Y-17234150D01*
X5943276Y-17234150D02*
X5952799Y-17224626D01*
X5952799Y-17224626D02*
X5971847Y-17215102D01*
X6228990Y-17415102D02*
X6114704Y-17415102D01*
X6171847Y-17415102D02*
X6171847Y-17215102D01*
X6171847Y-17215102D02*
X6152799Y-17243674D01*
X6152799Y-17243674D02*
X6133752Y-17262721D01*
X6133752Y-17262721D02*
X6114704Y-17272245D01*
X6324228Y-17415102D02*
X6362323Y-17415102D01*
X6362323Y-17415102D02*
X6381371Y-17405579D01*
X6381371Y-17405579D02*
X6390895Y-17396055D01*
X6390895Y-17396055D02*
X6409942Y-17367483D01*
X6409942Y-17367483D02*
X6419466Y-17329388D01*
X6419466Y-17329388D02*
X6419466Y-17253198D01*
X6419466Y-17253198D02*
X6409942Y-17234150D01*
X6409942Y-17234150D02*
X6400419Y-17224626D01*
X6400419Y-17224626D02*
X6381371Y-17215102D01*
X6381371Y-17215102D02*
X6343276Y-17215102D01*
X6343276Y-17215102D02*
X6324228Y-17224626D01*
X6324228Y-17224626D02*
X6314704Y-17234150D01*
X6314704Y-17234150D02*
X6305180Y-17253198D01*
X6305180Y-17253198D02*
X6305180Y-17300817D01*
X6305180Y-17300817D02*
X6314704Y-17319864D01*
X6314704Y-17319864D02*
X6324228Y-17329388D01*
X6324228Y-17329388D02*
X6343276Y-17338912D01*
X6343276Y-17338912D02*
X6381371Y-17338912D01*
X6381371Y-17338912D02*
X6400419Y-17329388D01*
X6400419Y-17329388D02*
X6409942Y-17319864D01*
X6409942Y-17319864D02*
X6419466Y-17300817D01*
X6486133Y-17215102D02*
X6619466Y-17215102D01*
X6619466Y-17215102D02*
X6533752Y-17415102D01*
X6686133Y-17215102D02*
X6686133Y-17253198D01*
X6762323Y-17215102D02*
X6762323Y-17253198D01*
X7057562Y-17491293D02*
X7048038Y-17481769D01*
X7048038Y-17481769D02*
X7028990Y-17453198D01*
X7028990Y-17453198D02*
X7019466Y-17434150D01*
X7019466Y-17434150D02*
X7009942Y-17405579D01*
X7009942Y-17405579D02*
X7000419Y-17357960D01*
X7000419Y-17357960D02*
X7000419Y-17319864D01*
X7000419Y-17319864D02*
X7009942Y-17272245D01*
X7009942Y-17272245D02*
X7019466Y-17243674D01*
X7019466Y-17243674D02*
X7028990Y-17224626D01*
X7028990Y-17224626D02*
X7048038Y-17196055D01*
X7048038Y-17196055D02*
X7057562Y-17186531D01*
X7114704Y-17215102D02*
X7238514Y-17215102D01*
X7238514Y-17215102D02*
X7171847Y-17291293D01*
X7171847Y-17291293D02*
X7200419Y-17291293D01*
X7200419Y-17291293D02*
X7219466Y-17300817D01*
X7219466Y-17300817D02*
X7228990Y-17310341D01*
X7228990Y-17310341D02*
X7238514Y-17329388D01*
X7238514Y-17329388D02*
X7238514Y-17377007D01*
X7238514Y-17377007D02*
X7228990Y-17396055D01*
X7228990Y-17396055D02*
X7219466Y-17405579D01*
X7219466Y-17405579D02*
X7200419Y-17415102D01*
X7200419Y-17415102D02*
X7143276Y-17415102D01*
X7143276Y-17415102D02*
X7124228Y-17405579D01*
X7124228Y-17405579D02*
X7114704Y-17396055D01*
X7314704Y-17234150D02*
X7324228Y-17224626D01*
X7324228Y-17224626D02*
X7343276Y-17215102D01*
X7343276Y-17215102D02*
X7390895Y-17215102D01*
X7390895Y-17215102D02*
X7409942Y-17224626D01*
X7409942Y-17224626D02*
X7419466Y-17234150D01*
X7419466Y-17234150D02*
X7428990Y-17253198D01*
X7428990Y-17253198D02*
X7428990Y-17272245D01*
X7428990Y-17272245D02*
X7419466Y-17300817D01*
X7419466Y-17300817D02*
X7305181Y-17415102D01*
X7305181Y-17415102D02*
X7428990Y-17415102D01*
X7667085Y-17415102D02*
X7667085Y-17215102D01*
X7752800Y-17415102D02*
X7752800Y-17310341D01*
X7752800Y-17310341D02*
X7743276Y-17291293D01*
X7743276Y-17291293D02*
X7724228Y-17281769D01*
X7724228Y-17281769D02*
X7695657Y-17281769D01*
X7695657Y-17281769D02*
X7676609Y-17291293D01*
X7676609Y-17291293D02*
X7667085Y-17300817D01*
X7876609Y-17415102D02*
X7857562Y-17405579D01*
X7857562Y-17405579D02*
X7848038Y-17396055D01*
X7848038Y-17396055D02*
X7838514Y-17377007D01*
X7838514Y-17377007D02*
X7838514Y-17319864D01*
X7838514Y-17319864D02*
X7848038Y-17300817D01*
X7848038Y-17300817D02*
X7857562Y-17291293D01*
X7857562Y-17291293D02*
X7876609Y-17281769D01*
X7876609Y-17281769D02*
X7905181Y-17281769D01*
X7905181Y-17281769D02*
X7924228Y-17291293D01*
X7924228Y-17291293D02*
X7933752Y-17300817D01*
X7933752Y-17300817D02*
X7943276Y-17319864D01*
X7943276Y-17319864D02*
X7943276Y-17377007D01*
X7943276Y-17377007D02*
X7933752Y-17396055D01*
X7933752Y-17396055D02*
X7924228Y-17405579D01*
X7924228Y-17405579D02*
X7905181Y-17415102D01*
X7905181Y-17415102D02*
X7876609Y-17415102D01*
X8057562Y-17415102D02*
X8038514Y-17405579D01*
X8038514Y-17405579D02*
X8028990Y-17386531D01*
X8028990Y-17386531D02*
X8028990Y-17215102D01*
X8209943Y-17405579D02*
X8190895Y-17415102D01*
X8190895Y-17415102D02*
X8152800Y-17415102D01*
X8152800Y-17415102D02*
X8133752Y-17405579D01*
X8133752Y-17405579D02*
X8124228Y-17386531D01*
X8124228Y-17386531D02*
X8124228Y-17310341D01*
X8124228Y-17310341D02*
X8133752Y-17291293D01*
X8133752Y-17291293D02*
X8152800Y-17281769D01*
X8152800Y-17281769D02*
X8190895Y-17281769D01*
X8190895Y-17281769D02*
X8209943Y-17291293D01*
X8209943Y-17291293D02*
X8219466Y-17310341D01*
X8219466Y-17310341D02*
X8219466Y-17329388D01*
X8219466Y-17329388D02*
X8124228Y-17348436D01*
X8295657Y-17405579D02*
X8314704Y-17415102D01*
X8314704Y-17415102D02*
X8352800Y-17415102D01*
X8352800Y-17415102D02*
X8371847Y-17405579D01*
X8371847Y-17405579D02*
X8381371Y-17386531D01*
X8381371Y-17386531D02*
X8381371Y-17377007D01*
X8381371Y-17377007D02*
X8371847Y-17357960D01*
X8371847Y-17357960D02*
X8352800Y-17348436D01*
X8352800Y-17348436D02*
X8324228Y-17348436D01*
X8324228Y-17348436D02*
X8305181Y-17338912D01*
X8305181Y-17338912D02*
X8295657Y-17319864D01*
X8295657Y-17319864D02*
X8295657Y-17310341D01*
X8295657Y-17310341D02*
X8305181Y-17291293D01*
X8305181Y-17291293D02*
X8324228Y-17281769D01*
X8324228Y-17281769D02*
X8352800Y-17281769D01*
X8352800Y-17281769D02*
X8371847Y-17291293D01*
X8448038Y-17491293D02*
X8457562Y-17481769D01*
X8457562Y-17481769D02*
X8476609Y-17453198D01*
X8476609Y-17453198D02*
X8486133Y-17434150D01*
X8486133Y-17434150D02*
X8495657Y-17405579D01*
X8495657Y-17405579D02*
X8505181Y-17357960D01*
X8505181Y-17357960D02*
X8505181Y-17319864D01*
X8505181Y-17319864D02*
X8495657Y-17272245D01*
X8495657Y-17272245D02*
X8486133Y-17243674D01*
X8486133Y-17243674D02*
X8476609Y-17224626D01*
X8476609Y-17224626D02*
X8457562Y-17196055D01*
X8457562Y-17196055D02*
X8448038Y-17186531D01*
D12*
X3444999Y-17550119D02*
X3444999Y-17625119D01*
X3407499Y-17587619D02*
X3482499Y-17587619D01*
D11*
X3781371Y-17479102D02*
X3800418Y-17479102D01*
X3800418Y-17479102D02*
X3819466Y-17488626D01*
X3819466Y-17488626D02*
X3828990Y-17498150D01*
X3828990Y-17498150D02*
X3838514Y-17517198D01*
X3838514Y-17517198D02*
X3848037Y-17555293D01*
X3848037Y-17555293D02*
X3848037Y-17602912D01*
X3848037Y-17602912D02*
X3838514Y-17641007D01*
X3838514Y-17641007D02*
X3828990Y-17660055D01*
X3828990Y-17660055D02*
X3819466Y-17669579D01*
X3819466Y-17669579D02*
X3800418Y-17679102D01*
X3800418Y-17679102D02*
X3781371Y-17679102D01*
X3781371Y-17679102D02*
X3762323Y-17669579D01*
X3762323Y-17669579D02*
X3752799Y-17660055D01*
X3752799Y-17660055D02*
X3743275Y-17641007D01*
X3743275Y-17641007D02*
X3733752Y-17602912D01*
X3733752Y-17602912D02*
X3733752Y-17555293D01*
X3733752Y-17555293D02*
X3743275Y-17517198D01*
X3743275Y-17517198D02*
X3752799Y-17498150D01*
X3752799Y-17498150D02*
X3762323Y-17488626D01*
X3762323Y-17488626D02*
X3781371Y-17479102D01*
X3933752Y-17660055D02*
X3943275Y-17669579D01*
X3943275Y-17669579D02*
X3933752Y-17679102D01*
X3933752Y-17679102D02*
X3924228Y-17669579D01*
X3924228Y-17669579D02*
X3933752Y-17660055D01*
X3933752Y-17660055D02*
X3933752Y-17679102D01*
X4009942Y-17479102D02*
X4143275Y-17479102D01*
X4143275Y-17479102D02*
X4057561Y-17679102D01*
X4314704Y-17479102D02*
X4219466Y-17479102D01*
X4219466Y-17479102D02*
X4209942Y-17574341D01*
X4209942Y-17574341D02*
X4219466Y-17564817D01*
X4219466Y-17564817D02*
X4238514Y-17555293D01*
X4238514Y-17555293D02*
X4286133Y-17555293D01*
X4286133Y-17555293D02*
X4305180Y-17564817D01*
X4305180Y-17564817D02*
X4314704Y-17574341D01*
X4314704Y-17574341D02*
X4324228Y-17593388D01*
X4324228Y-17593388D02*
X4324228Y-17641007D01*
X4324228Y-17641007D02*
X4314704Y-17660055D01*
X4314704Y-17660055D02*
X4305180Y-17669579D01*
X4305180Y-17669579D02*
X4286133Y-17679102D01*
X4286133Y-17679102D02*
X4238514Y-17679102D01*
X4238514Y-17679102D02*
X4219466Y-17669579D01*
X4219466Y-17669579D02*
X4209942Y-17660055D01*
X4448037Y-17479102D02*
X4467085Y-17479102D01*
X4467085Y-17479102D02*
X4486133Y-17488626D01*
X4486133Y-17488626D02*
X4495657Y-17498150D01*
X4495657Y-17498150D02*
X4505180Y-17517198D01*
X4505180Y-17517198D02*
X4514704Y-17555293D01*
X4514704Y-17555293D02*
X4514704Y-17602912D01*
X4514704Y-17602912D02*
X4505180Y-17641007D01*
X4505180Y-17641007D02*
X4495657Y-17660055D01*
X4495657Y-17660055D02*
X4486133Y-17669579D01*
X4486133Y-17669579D02*
X4467085Y-17679102D01*
X4467085Y-17679102D02*
X4448037Y-17679102D01*
X4448037Y-17679102D02*
X4428990Y-17669579D01*
X4428990Y-17669579D02*
X4419466Y-17660055D01*
X4419466Y-17660055D02*
X4409942Y-17641007D01*
X4409942Y-17641007D02*
X4400418Y-17602912D01*
X4400418Y-17602912D02*
X4400418Y-17555293D01*
X4400418Y-17555293D02*
X4409942Y-17517198D01*
X4409942Y-17517198D02*
X4419466Y-17498150D01*
X4419466Y-17498150D02*
X4428990Y-17488626D01*
X4428990Y-17488626D02*
X4448037Y-17479102D01*
X4600418Y-17679102D02*
X4600418Y-17545769D01*
X4600418Y-17564817D02*
X4609942Y-17555293D01*
X4609942Y-17555293D02*
X4628990Y-17545769D01*
X4628990Y-17545769D02*
X4657561Y-17545769D01*
X4657561Y-17545769D02*
X4676609Y-17555293D01*
X4676609Y-17555293D02*
X4686133Y-17574341D01*
X4686133Y-17574341D02*
X4686133Y-17679102D01*
X4686133Y-17574341D02*
X4695657Y-17555293D01*
X4695657Y-17555293D02*
X4714704Y-17545769D01*
X4714704Y-17545769D02*
X4743276Y-17545769D01*
X4743276Y-17545769D02*
X4762323Y-17555293D01*
X4762323Y-17555293D02*
X4771847Y-17574341D01*
X4771847Y-17574341D02*
X4771847Y-17679102D01*
X4867085Y-17679102D02*
X4867085Y-17545769D01*
X4867085Y-17564817D02*
X4876609Y-17555293D01*
X4876609Y-17555293D02*
X4895657Y-17545769D01*
X4895657Y-17545769D02*
X4924228Y-17545769D01*
X4924228Y-17545769D02*
X4943276Y-17555293D01*
X4943276Y-17555293D02*
X4952799Y-17574341D01*
X4952799Y-17574341D02*
X4952799Y-17679102D01*
X4952799Y-17574341D02*
X4962323Y-17555293D01*
X4962323Y-17555293D02*
X4981371Y-17545769D01*
X4981371Y-17545769D02*
X5009942Y-17545769D01*
X5009942Y-17545769D02*
X5028990Y-17555293D01*
X5028990Y-17555293D02*
X5038514Y-17574341D01*
X5038514Y-17574341D02*
X5038514Y-17679102D01*
X5428990Y-17469579D02*
X5257561Y-17726721D01*
X5686133Y-17479102D02*
X5705180Y-17479102D01*
X5705180Y-17479102D02*
X5724228Y-17488626D01*
X5724228Y-17488626D02*
X5733752Y-17498150D01*
X5733752Y-17498150D02*
X5743276Y-17517198D01*
X5743276Y-17517198D02*
X5752799Y-17555293D01*
X5752799Y-17555293D02*
X5752799Y-17602912D01*
X5752799Y-17602912D02*
X5743276Y-17641007D01*
X5743276Y-17641007D02*
X5733752Y-17660055D01*
X5733752Y-17660055D02*
X5724228Y-17669579D01*
X5724228Y-17669579D02*
X5705180Y-17679102D01*
X5705180Y-17679102D02*
X5686133Y-17679102D01*
X5686133Y-17679102D02*
X5667085Y-17669579D01*
X5667085Y-17669579D02*
X5657561Y-17660055D01*
X5657561Y-17660055D02*
X5648038Y-17641007D01*
X5648038Y-17641007D02*
X5638514Y-17602912D01*
X5638514Y-17602912D02*
X5638514Y-17555293D01*
X5638514Y-17555293D02*
X5648038Y-17517198D01*
X5648038Y-17517198D02*
X5657561Y-17498150D01*
X5657561Y-17498150D02*
X5667085Y-17488626D01*
X5667085Y-17488626D02*
X5686133Y-17479102D01*
X5838514Y-17660055D02*
X5848038Y-17669579D01*
X5848038Y-17669579D02*
X5838514Y-17679102D01*
X5838514Y-17679102D02*
X5828990Y-17669579D01*
X5828990Y-17669579D02*
X5838514Y-17660055D01*
X5838514Y-17660055D02*
X5838514Y-17679102D01*
X5971847Y-17479102D02*
X5990895Y-17479102D01*
X5990895Y-17479102D02*
X6009942Y-17488626D01*
X6009942Y-17488626D02*
X6019466Y-17498150D01*
X6019466Y-17498150D02*
X6028990Y-17517198D01*
X6028990Y-17517198D02*
X6038514Y-17555293D01*
X6038514Y-17555293D02*
X6038514Y-17602912D01*
X6038514Y-17602912D02*
X6028990Y-17641007D01*
X6028990Y-17641007D02*
X6019466Y-17660055D01*
X6019466Y-17660055D02*
X6009942Y-17669579D01*
X6009942Y-17669579D02*
X5990895Y-17679102D01*
X5990895Y-17679102D02*
X5971847Y-17679102D01*
X5971847Y-17679102D02*
X5952799Y-17669579D01*
X5952799Y-17669579D02*
X5943276Y-17660055D01*
X5943276Y-17660055D02*
X5933752Y-17641007D01*
X5933752Y-17641007D02*
X5924228Y-17602912D01*
X5924228Y-17602912D02*
X5924228Y-17555293D01*
X5924228Y-17555293D02*
X5933752Y-17517198D01*
X5933752Y-17517198D02*
X5943276Y-17498150D01*
X5943276Y-17498150D02*
X5952799Y-17488626D01*
X5952799Y-17488626D02*
X5971847Y-17479102D01*
X6114704Y-17498150D02*
X6124228Y-17488626D01*
X6124228Y-17488626D02*
X6143276Y-17479102D01*
X6143276Y-17479102D02*
X6190895Y-17479102D01*
X6190895Y-17479102D02*
X6209942Y-17488626D01*
X6209942Y-17488626D02*
X6219466Y-17498150D01*
X6219466Y-17498150D02*
X6228990Y-17517198D01*
X6228990Y-17517198D02*
X6228990Y-17536245D01*
X6228990Y-17536245D02*
X6219466Y-17564817D01*
X6219466Y-17564817D02*
X6105180Y-17679102D01*
X6105180Y-17679102D02*
X6228990Y-17679102D01*
X6324228Y-17679102D02*
X6362323Y-17679102D01*
X6362323Y-17679102D02*
X6381371Y-17669579D01*
X6381371Y-17669579D02*
X6390895Y-17660055D01*
X6390895Y-17660055D02*
X6409942Y-17631483D01*
X6409942Y-17631483D02*
X6419466Y-17593388D01*
X6419466Y-17593388D02*
X6419466Y-17517198D01*
X6419466Y-17517198D02*
X6409942Y-17498150D01*
X6409942Y-17498150D02*
X6400419Y-17488626D01*
X6400419Y-17488626D02*
X6381371Y-17479102D01*
X6381371Y-17479102D02*
X6343276Y-17479102D01*
X6343276Y-17479102D02*
X6324228Y-17488626D01*
X6324228Y-17488626D02*
X6314704Y-17498150D01*
X6314704Y-17498150D02*
X6305180Y-17517198D01*
X6305180Y-17517198D02*
X6305180Y-17564817D01*
X6305180Y-17564817D02*
X6314704Y-17583864D01*
X6314704Y-17583864D02*
X6324228Y-17593388D01*
X6324228Y-17593388D02*
X6343276Y-17602912D01*
X6343276Y-17602912D02*
X6381371Y-17602912D01*
X6381371Y-17602912D02*
X6400419Y-17593388D01*
X6400419Y-17593388D02*
X6409942Y-17583864D01*
X6409942Y-17583864D02*
X6419466Y-17564817D01*
X6600419Y-17479102D02*
X6505180Y-17479102D01*
X6505180Y-17479102D02*
X6495657Y-17574341D01*
X6495657Y-17574341D02*
X6505180Y-17564817D01*
X6505180Y-17564817D02*
X6524228Y-17555293D01*
X6524228Y-17555293D02*
X6571847Y-17555293D01*
X6571847Y-17555293D02*
X6590895Y-17564817D01*
X6590895Y-17564817D02*
X6600419Y-17574341D01*
X6600419Y-17574341D02*
X6609942Y-17593388D01*
X6609942Y-17593388D02*
X6609942Y-17641007D01*
X6609942Y-17641007D02*
X6600419Y-17660055D01*
X6600419Y-17660055D02*
X6590895Y-17669579D01*
X6590895Y-17669579D02*
X6571847Y-17679102D01*
X6571847Y-17679102D02*
X6524228Y-17679102D01*
X6524228Y-17679102D02*
X6505180Y-17669579D01*
X6505180Y-17669579D02*
X6495657Y-17660055D01*
X6686133Y-17479102D02*
X6686133Y-17517198D01*
X6762323Y-17479102D02*
X6762323Y-17517198D01*
X7057562Y-17755293D02*
X7048038Y-17745769D01*
X7048038Y-17745769D02*
X7028990Y-17717198D01*
X7028990Y-17717198D02*
X7019466Y-17698150D01*
X7019466Y-17698150D02*
X7009942Y-17669579D01*
X7009942Y-17669579D02*
X7000419Y-17621960D01*
X7000419Y-17621960D02*
X7000419Y-17583864D01*
X7000419Y-17583864D02*
X7009942Y-17536245D01*
X7009942Y-17536245D02*
X7019466Y-17507674D01*
X7019466Y-17507674D02*
X7028990Y-17488626D01*
X7028990Y-17488626D02*
X7048038Y-17460055D01*
X7048038Y-17460055D02*
X7057562Y-17450531D01*
X7124228Y-17498150D02*
X7133752Y-17488626D01*
X7133752Y-17488626D02*
X7152800Y-17479102D01*
X7152800Y-17479102D02*
X7200419Y-17479102D01*
X7200419Y-17479102D02*
X7219466Y-17488626D01*
X7219466Y-17488626D02*
X7228990Y-17498150D01*
X7228990Y-17498150D02*
X7238514Y-17517198D01*
X7238514Y-17517198D02*
X7238514Y-17536245D01*
X7238514Y-17536245D02*
X7228990Y-17564817D01*
X7228990Y-17564817D02*
X7114704Y-17679102D01*
X7114704Y-17679102D02*
X7238514Y-17679102D01*
X7352800Y-17564817D02*
X7333752Y-17555293D01*
X7333752Y-17555293D02*
X7324228Y-17545769D01*
X7324228Y-17545769D02*
X7314704Y-17526721D01*
X7314704Y-17526721D02*
X7314704Y-17517198D01*
X7314704Y-17517198D02*
X7324228Y-17498150D01*
X7324228Y-17498150D02*
X7333752Y-17488626D01*
X7333752Y-17488626D02*
X7352800Y-17479102D01*
X7352800Y-17479102D02*
X7390895Y-17479102D01*
X7390895Y-17479102D02*
X7409942Y-17488626D01*
X7409942Y-17488626D02*
X7419466Y-17498150D01*
X7419466Y-17498150D02*
X7428990Y-17517198D01*
X7428990Y-17517198D02*
X7428990Y-17526721D01*
X7428990Y-17526721D02*
X7419466Y-17545769D01*
X7419466Y-17545769D02*
X7409942Y-17555293D01*
X7409942Y-17555293D02*
X7390895Y-17564817D01*
X7390895Y-17564817D02*
X7352800Y-17564817D01*
X7352800Y-17564817D02*
X7333752Y-17574341D01*
X7333752Y-17574341D02*
X7324228Y-17583864D01*
X7324228Y-17583864D02*
X7314704Y-17602912D01*
X7314704Y-17602912D02*
X7314704Y-17641007D01*
X7314704Y-17641007D02*
X7324228Y-17660055D01*
X7324228Y-17660055D02*
X7333752Y-17669579D01*
X7333752Y-17669579D02*
X7352800Y-17679102D01*
X7352800Y-17679102D02*
X7390895Y-17679102D01*
X7390895Y-17679102D02*
X7409942Y-17669579D01*
X7409942Y-17669579D02*
X7419466Y-17660055D01*
X7419466Y-17660055D02*
X7428990Y-17641007D01*
X7428990Y-17641007D02*
X7428990Y-17602912D01*
X7428990Y-17602912D02*
X7419466Y-17583864D01*
X7419466Y-17583864D02*
X7409942Y-17574341D01*
X7409942Y-17574341D02*
X7390895Y-17564817D01*
X7667085Y-17679102D02*
X7667085Y-17479102D01*
X7752800Y-17679102D02*
X7752800Y-17574341D01*
X7752800Y-17574341D02*
X7743276Y-17555293D01*
X7743276Y-17555293D02*
X7724228Y-17545769D01*
X7724228Y-17545769D02*
X7695657Y-17545769D01*
X7695657Y-17545769D02*
X7676609Y-17555293D01*
X7676609Y-17555293D02*
X7667085Y-17564817D01*
X7876609Y-17679102D02*
X7857562Y-17669579D01*
X7857562Y-17669579D02*
X7848038Y-17660055D01*
X7848038Y-17660055D02*
X7838514Y-17641007D01*
X7838514Y-17641007D02*
X7838514Y-17583864D01*
X7838514Y-17583864D02*
X7848038Y-17564817D01*
X7848038Y-17564817D02*
X7857562Y-17555293D01*
X7857562Y-17555293D02*
X7876609Y-17545769D01*
X7876609Y-17545769D02*
X7905181Y-17545769D01*
X7905181Y-17545769D02*
X7924228Y-17555293D01*
X7924228Y-17555293D02*
X7933752Y-17564817D01*
X7933752Y-17564817D02*
X7943276Y-17583864D01*
X7943276Y-17583864D02*
X7943276Y-17641007D01*
X7943276Y-17641007D02*
X7933752Y-17660055D01*
X7933752Y-17660055D02*
X7924228Y-17669579D01*
X7924228Y-17669579D02*
X7905181Y-17679102D01*
X7905181Y-17679102D02*
X7876609Y-17679102D01*
X8057562Y-17679102D02*
X8038514Y-17669579D01*
X8038514Y-17669579D02*
X8028990Y-17650531D01*
X8028990Y-17650531D02*
X8028990Y-17479102D01*
X8209943Y-17669579D02*
X8190895Y-17679102D01*
X8190895Y-17679102D02*
X8152800Y-17679102D01*
X8152800Y-17679102D02*
X8133752Y-17669579D01*
X8133752Y-17669579D02*
X8124228Y-17650531D01*
X8124228Y-17650531D02*
X8124228Y-17574341D01*
X8124228Y-17574341D02*
X8133752Y-17555293D01*
X8133752Y-17555293D02*
X8152800Y-17545769D01*
X8152800Y-17545769D02*
X8190895Y-17545769D01*
X8190895Y-17545769D02*
X8209943Y-17555293D01*
X8209943Y-17555293D02*
X8219466Y-17574341D01*
X8219466Y-17574341D02*
X8219466Y-17593388D01*
X8219466Y-17593388D02*
X8124228Y-17612436D01*
X8295657Y-17669579D02*
X8314704Y-17679102D01*
X8314704Y-17679102D02*
X8352800Y-17679102D01*
X8352800Y-17679102D02*
X8371847Y-17669579D01*
X8371847Y-17669579D02*
X8381371Y-17650531D01*
X8381371Y-17650531D02*
X8381371Y-17641007D01*
X8381371Y-17641007D02*
X8371847Y-17621960D01*
X8371847Y-17621960D02*
X8352800Y-17612436D01*
X8352800Y-17612436D02*
X8324228Y-17612436D01*
X8324228Y-17612436D02*
X8305181Y-17602912D01*
X8305181Y-17602912D02*
X8295657Y-17583864D01*
X8295657Y-17583864D02*
X8295657Y-17574341D01*
X8295657Y-17574341D02*
X8305181Y-17555293D01*
X8305181Y-17555293D02*
X8324228Y-17545769D01*
X8324228Y-17545769D02*
X8352800Y-17545769D01*
X8352800Y-17545769D02*
X8371847Y-17555293D01*
X8448038Y-17755293D02*
X8457562Y-17745769D01*
X8457562Y-17745769D02*
X8476609Y-17717198D01*
X8476609Y-17717198D02*
X8486133Y-17698150D01*
X8486133Y-17698150D02*
X8495657Y-17669579D01*
X8495657Y-17669579D02*
X8505181Y-17621960D01*
X8505181Y-17621960D02*
X8505181Y-17583864D01*
X8505181Y-17583864D02*
X8495657Y-17536245D01*
X8495657Y-17536245D02*
X8486133Y-17507674D01*
X8486133Y-17507674D02*
X8476609Y-17488626D01*
X8476609Y-17488626D02*
X8457562Y-17460055D01*
X8457562Y-17460055D02*
X8448038Y-17450531D01*
D12*
X3467854Y-17886974D02*
X3467854Y-17816263D01*
X3397143Y-17816263D01*
X3397143Y-17886974D01*
X3467854Y-17886974D01*
D11*
X3848037Y-17943102D02*
X3733752Y-17943102D01*
X3790894Y-17943102D02*
X3790894Y-17743102D01*
X3790894Y-17743102D02*
X3771847Y-17771674D01*
X3771847Y-17771674D02*
X3752799Y-17790721D01*
X3752799Y-17790721D02*
X3733752Y-17800245D01*
X3933752Y-17924055D02*
X3943275Y-17933579D01*
X3943275Y-17933579D02*
X3933752Y-17943102D01*
X3933752Y-17943102D02*
X3924228Y-17933579D01*
X3924228Y-17933579D02*
X3933752Y-17924055D01*
X3933752Y-17924055D02*
X3933752Y-17943102D01*
X4067085Y-17743102D02*
X4086133Y-17743102D01*
X4086133Y-17743102D02*
X4105180Y-17752626D01*
X4105180Y-17752626D02*
X4114704Y-17762150D01*
X4114704Y-17762150D02*
X4124228Y-17781198D01*
X4124228Y-17781198D02*
X4133752Y-17819293D01*
X4133752Y-17819293D02*
X4133752Y-17866912D01*
X4133752Y-17866912D02*
X4124228Y-17905007D01*
X4124228Y-17905007D02*
X4114704Y-17924055D01*
X4114704Y-17924055D02*
X4105180Y-17933579D01*
X4105180Y-17933579D02*
X4086133Y-17943102D01*
X4086133Y-17943102D02*
X4067085Y-17943102D01*
X4067085Y-17943102D02*
X4048037Y-17933579D01*
X4048037Y-17933579D02*
X4038514Y-17924055D01*
X4038514Y-17924055D02*
X4028990Y-17905007D01*
X4028990Y-17905007D02*
X4019466Y-17866912D01*
X4019466Y-17866912D02*
X4019466Y-17819293D01*
X4019466Y-17819293D02*
X4028990Y-17781198D01*
X4028990Y-17781198D02*
X4038514Y-17762150D01*
X4038514Y-17762150D02*
X4048037Y-17752626D01*
X4048037Y-17752626D02*
X4067085Y-17743102D01*
X4257561Y-17743102D02*
X4276609Y-17743102D01*
X4276609Y-17743102D02*
X4295657Y-17752626D01*
X4295657Y-17752626D02*
X4305180Y-17762150D01*
X4305180Y-17762150D02*
X4314704Y-17781198D01*
X4314704Y-17781198D02*
X4324228Y-17819293D01*
X4324228Y-17819293D02*
X4324228Y-17866912D01*
X4324228Y-17866912D02*
X4314704Y-17905007D01*
X4314704Y-17905007D02*
X4305180Y-17924055D01*
X4305180Y-17924055D02*
X4295657Y-17933579D01*
X4295657Y-17933579D02*
X4276609Y-17943102D01*
X4276609Y-17943102D02*
X4257561Y-17943102D01*
X4257561Y-17943102D02*
X4238514Y-17933579D01*
X4238514Y-17933579D02*
X4228990Y-17924055D01*
X4228990Y-17924055D02*
X4219466Y-17905007D01*
X4219466Y-17905007D02*
X4209942Y-17866912D01*
X4209942Y-17866912D02*
X4209942Y-17819293D01*
X4209942Y-17819293D02*
X4219466Y-17781198D01*
X4219466Y-17781198D02*
X4228990Y-17762150D01*
X4228990Y-17762150D02*
X4238514Y-17752626D01*
X4238514Y-17752626D02*
X4257561Y-17743102D01*
X4448037Y-17743102D02*
X4467085Y-17743102D01*
X4467085Y-17743102D02*
X4486133Y-17752626D01*
X4486133Y-17752626D02*
X4495657Y-17762150D01*
X4495657Y-17762150D02*
X4505180Y-17781198D01*
X4505180Y-17781198D02*
X4514704Y-17819293D01*
X4514704Y-17819293D02*
X4514704Y-17866912D01*
X4514704Y-17866912D02*
X4505180Y-17905007D01*
X4505180Y-17905007D02*
X4495657Y-17924055D01*
X4495657Y-17924055D02*
X4486133Y-17933579D01*
X4486133Y-17933579D02*
X4467085Y-17943102D01*
X4467085Y-17943102D02*
X4448037Y-17943102D01*
X4448037Y-17943102D02*
X4428990Y-17933579D01*
X4428990Y-17933579D02*
X4419466Y-17924055D01*
X4419466Y-17924055D02*
X4409942Y-17905007D01*
X4409942Y-17905007D02*
X4400418Y-17866912D01*
X4400418Y-17866912D02*
X4400418Y-17819293D01*
X4400418Y-17819293D02*
X4409942Y-17781198D01*
X4409942Y-17781198D02*
X4419466Y-17762150D01*
X4419466Y-17762150D02*
X4428990Y-17752626D01*
X4428990Y-17752626D02*
X4448037Y-17743102D01*
X4600418Y-17943102D02*
X4600418Y-17809769D01*
X4600418Y-17828817D02*
X4609942Y-17819293D01*
X4609942Y-17819293D02*
X4628990Y-17809769D01*
X4628990Y-17809769D02*
X4657561Y-17809769D01*
X4657561Y-17809769D02*
X4676609Y-17819293D01*
X4676609Y-17819293D02*
X4686133Y-17838341D01*
X4686133Y-17838341D02*
X4686133Y-17943102D01*
X4686133Y-17838341D02*
X4695657Y-17819293D01*
X4695657Y-17819293D02*
X4714704Y-17809769D01*
X4714704Y-17809769D02*
X4743276Y-17809769D01*
X4743276Y-17809769D02*
X4762323Y-17819293D01*
X4762323Y-17819293D02*
X4771847Y-17838341D01*
X4771847Y-17838341D02*
X4771847Y-17943102D01*
X4867085Y-17943102D02*
X4867085Y-17809769D01*
X4867085Y-17828817D02*
X4876609Y-17819293D01*
X4876609Y-17819293D02*
X4895657Y-17809769D01*
X4895657Y-17809769D02*
X4924228Y-17809769D01*
X4924228Y-17809769D02*
X4943276Y-17819293D01*
X4943276Y-17819293D02*
X4952799Y-17838341D01*
X4952799Y-17838341D02*
X4952799Y-17943102D01*
X4952799Y-17838341D02*
X4962323Y-17819293D01*
X4962323Y-17819293D02*
X4981371Y-17809769D01*
X4981371Y-17809769D02*
X5009942Y-17809769D01*
X5009942Y-17809769D02*
X5028990Y-17819293D01*
X5028990Y-17819293D02*
X5038514Y-17838341D01*
X5038514Y-17838341D02*
X5038514Y-17943102D01*
X5428990Y-17733579D02*
X5257561Y-17990721D01*
X5686133Y-17743102D02*
X5705180Y-17743102D01*
X5705180Y-17743102D02*
X5724228Y-17752626D01*
X5724228Y-17752626D02*
X5733752Y-17762150D01*
X5733752Y-17762150D02*
X5743276Y-17781198D01*
X5743276Y-17781198D02*
X5752799Y-17819293D01*
X5752799Y-17819293D02*
X5752799Y-17866912D01*
X5752799Y-17866912D02*
X5743276Y-17905007D01*
X5743276Y-17905007D02*
X5733752Y-17924055D01*
X5733752Y-17924055D02*
X5724228Y-17933579D01*
X5724228Y-17933579D02*
X5705180Y-17943102D01*
X5705180Y-17943102D02*
X5686133Y-17943102D01*
X5686133Y-17943102D02*
X5667085Y-17933579D01*
X5667085Y-17933579D02*
X5657561Y-17924055D01*
X5657561Y-17924055D02*
X5648038Y-17905007D01*
X5648038Y-17905007D02*
X5638514Y-17866912D01*
X5638514Y-17866912D02*
X5638514Y-17819293D01*
X5638514Y-17819293D02*
X5648038Y-17781198D01*
X5648038Y-17781198D02*
X5657561Y-17762150D01*
X5657561Y-17762150D02*
X5667085Y-17752626D01*
X5667085Y-17752626D02*
X5686133Y-17743102D01*
X5838514Y-17924055D02*
X5848038Y-17933579D01*
X5848038Y-17933579D02*
X5838514Y-17943102D01*
X5838514Y-17943102D02*
X5828990Y-17933579D01*
X5828990Y-17933579D02*
X5838514Y-17924055D01*
X5838514Y-17924055D02*
X5838514Y-17943102D01*
X5971847Y-17743102D02*
X5990895Y-17743102D01*
X5990895Y-17743102D02*
X6009942Y-17752626D01*
X6009942Y-17752626D02*
X6019466Y-17762150D01*
X6019466Y-17762150D02*
X6028990Y-17781198D01*
X6028990Y-17781198D02*
X6038514Y-17819293D01*
X6038514Y-17819293D02*
X6038514Y-17866912D01*
X6038514Y-17866912D02*
X6028990Y-17905007D01*
X6028990Y-17905007D02*
X6019466Y-17924055D01*
X6019466Y-17924055D02*
X6009942Y-17933579D01*
X6009942Y-17933579D02*
X5990895Y-17943102D01*
X5990895Y-17943102D02*
X5971847Y-17943102D01*
X5971847Y-17943102D02*
X5952799Y-17933579D01*
X5952799Y-17933579D02*
X5943276Y-17924055D01*
X5943276Y-17924055D02*
X5933752Y-17905007D01*
X5933752Y-17905007D02*
X5924228Y-17866912D01*
X5924228Y-17866912D02*
X5924228Y-17819293D01*
X5924228Y-17819293D02*
X5933752Y-17781198D01*
X5933752Y-17781198D02*
X5943276Y-17762150D01*
X5943276Y-17762150D02*
X5952799Y-17752626D01*
X5952799Y-17752626D02*
X5971847Y-17743102D01*
X6105180Y-17743102D02*
X6228990Y-17743102D01*
X6228990Y-17743102D02*
X6162323Y-17819293D01*
X6162323Y-17819293D02*
X6190895Y-17819293D01*
X6190895Y-17819293D02*
X6209942Y-17828817D01*
X6209942Y-17828817D02*
X6219466Y-17838341D01*
X6219466Y-17838341D02*
X6228990Y-17857388D01*
X6228990Y-17857388D02*
X6228990Y-17905007D01*
X6228990Y-17905007D02*
X6219466Y-17924055D01*
X6219466Y-17924055D02*
X6209942Y-17933579D01*
X6209942Y-17933579D02*
X6190895Y-17943102D01*
X6190895Y-17943102D02*
X6133752Y-17943102D01*
X6133752Y-17943102D02*
X6114704Y-17933579D01*
X6114704Y-17933579D02*
X6105180Y-17924055D01*
X6324228Y-17943102D02*
X6362323Y-17943102D01*
X6362323Y-17943102D02*
X6381371Y-17933579D01*
X6381371Y-17933579D02*
X6390895Y-17924055D01*
X6390895Y-17924055D02*
X6409942Y-17895483D01*
X6409942Y-17895483D02*
X6419466Y-17857388D01*
X6419466Y-17857388D02*
X6419466Y-17781198D01*
X6419466Y-17781198D02*
X6409942Y-17762150D01*
X6409942Y-17762150D02*
X6400419Y-17752626D01*
X6400419Y-17752626D02*
X6381371Y-17743102D01*
X6381371Y-17743102D02*
X6343276Y-17743102D01*
X6343276Y-17743102D02*
X6324228Y-17752626D01*
X6324228Y-17752626D02*
X6314704Y-17762150D01*
X6314704Y-17762150D02*
X6305180Y-17781198D01*
X6305180Y-17781198D02*
X6305180Y-17828817D01*
X6305180Y-17828817D02*
X6314704Y-17847864D01*
X6314704Y-17847864D02*
X6324228Y-17857388D01*
X6324228Y-17857388D02*
X6343276Y-17866912D01*
X6343276Y-17866912D02*
X6381371Y-17866912D01*
X6381371Y-17866912D02*
X6400419Y-17857388D01*
X6400419Y-17857388D02*
X6409942Y-17847864D01*
X6409942Y-17847864D02*
X6419466Y-17828817D01*
X6590895Y-17809769D02*
X6590895Y-17943102D01*
X6543276Y-17733579D02*
X6495657Y-17876436D01*
X6495657Y-17876436D02*
X6619466Y-17876436D01*
X6686133Y-17743102D02*
X6686133Y-17781198D01*
X6762323Y-17743102D02*
X6762323Y-17781198D01*
X7057562Y-18019293D02*
X7048038Y-18009769D01*
X7048038Y-18009769D02*
X7028990Y-17981198D01*
X7028990Y-17981198D02*
X7019466Y-17962150D01*
X7019466Y-17962150D02*
X7009942Y-17933579D01*
X7009942Y-17933579D02*
X7000419Y-17885960D01*
X7000419Y-17885960D02*
X7000419Y-17847864D01*
X7000419Y-17847864D02*
X7009942Y-17800245D01*
X7009942Y-17800245D02*
X7019466Y-17771674D01*
X7019466Y-17771674D02*
X7028990Y-17752626D01*
X7028990Y-17752626D02*
X7048038Y-17724055D01*
X7048038Y-17724055D02*
X7057562Y-17714531D01*
X7124228Y-17762150D02*
X7133752Y-17752626D01*
X7133752Y-17752626D02*
X7152800Y-17743102D01*
X7152800Y-17743102D02*
X7200419Y-17743102D01*
X7200419Y-17743102D02*
X7219466Y-17752626D01*
X7219466Y-17752626D02*
X7228990Y-17762150D01*
X7228990Y-17762150D02*
X7238514Y-17781198D01*
X7238514Y-17781198D02*
X7238514Y-17800245D01*
X7238514Y-17800245D02*
X7228990Y-17828817D01*
X7228990Y-17828817D02*
X7114704Y-17943102D01*
X7114704Y-17943102D02*
X7238514Y-17943102D01*
X7476609Y-17943102D02*
X7476609Y-17743102D01*
X7562323Y-17943102D02*
X7562323Y-17838341D01*
X7562323Y-17838341D02*
X7552800Y-17819293D01*
X7552800Y-17819293D02*
X7533752Y-17809769D01*
X7533752Y-17809769D02*
X7505181Y-17809769D01*
X7505181Y-17809769D02*
X7486133Y-17819293D01*
X7486133Y-17819293D02*
X7476609Y-17828817D01*
X7686133Y-17943102D02*
X7667085Y-17933579D01*
X7667085Y-17933579D02*
X7657562Y-17924055D01*
X7657562Y-17924055D02*
X7648038Y-17905007D01*
X7648038Y-17905007D02*
X7648038Y-17847864D01*
X7648038Y-17847864D02*
X7657562Y-17828817D01*
X7657562Y-17828817D02*
X7667085Y-17819293D01*
X7667085Y-17819293D02*
X7686133Y-17809769D01*
X7686133Y-17809769D02*
X7714704Y-17809769D01*
X7714704Y-17809769D02*
X7733752Y-17819293D01*
X7733752Y-17819293D02*
X7743276Y-17828817D01*
X7743276Y-17828817D02*
X7752800Y-17847864D01*
X7752800Y-17847864D02*
X7752800Y-17905007D01*
X7752800Y-17905007D02*
X7743276Y-17924055D01*
X7743276Y-17924055D02*
X7733752Y-17933579D01*
X7733752Y-17933579D02*
X7714704Y-17943102D01*
X7714704Y-17943102D02*
X7686133Y-17943102D01*
X7867085Y-17943102D02*
X7848038Y-17933579D01*
X7848038Y-17933579D02*
X7838514Y-17914531D01*
X7838514Y-17914531D02*
X7838514Y-17743102D01*
X8019466Y-17933579D02*
X8000419Y-17943102D01*
X8000419Y-17943102D02*
X7962323Y-17943102D01*
X7962323Y-17943102D02*
X7943276Y-17933579D01*
X7943276Y-17933579D02*
X7933752Y-17914531D01*
X7933752Y-17914531D02*
X7933752Y-17838341D01*
X7933752Y-17838341D02*
X7943276Y-17819293D01*
X7943276Y-17819293D02*
X7962323Y-17809769D01*
X7962323Y-17809769D02*
X8000419Y-17809769D01*
X8000419Y-17809769D02*
X8019466Y-17819293D01*
X8019466Y-17819293D02*
X8028990Y-17838341D01*
X8028990Y-17838341D02*
X8028990Y-17857388D01*
X8028990Y-17857388D02*
X7933752Y-17876436D01*
X8105181Y-17933579D02*
X8124228Y-17943102D01*
X8124228Y-17943102D02*
X8162323Y-17943102D01*
X8162323Y-17943102D02*
X8181371Y-17933579D01*
X8181371Y-17933579D02*
X8190895Y-17914531D01*
X8190895Y-17914531D02*
X8190895Y-17905007D01*
X8190895Y-17905007D02*
X8181371Y-17885960D01*
X8181371Y-17885960D02*
X8162323Y-17876436D01*
X8162323Y-17876436D02*
X8133752Y-17876436D01*
X8133752Y-17876436D02*
X8114704Y-17866912D01*
X8114704Y-17866912D02*
X8105181Y-17847864D01*
X8105181Y-17847864D02*
X8105181Y-17838341D01*
X8105181Y-17838341D02*
X8114704Y-17819293D01*
X8114704Y-17819293D02*
X8133752Y-17809769D01*
X8133752Y-17809769D02*
X8162323Y-17809769D01*
X8162323Y-17809769D02*
X8181371Y-17819293D01*
X8257562Y-18019293D02*
X8267085Y-18009769D01*
X8267085Y-18009769D02*
X8286133Y-17981198D01*
X8286133Y-17981198D02*
X8295657Y-17962150D01*
X8295657Y-17962150D02*
X8305181Y-17933579D01*
X8305181Y-17933579D02*
X8314704Y-17885960D01*
X8314704Y-17885960D02*
X8314704Y-17847864D01*
X8314704Y-17847864D02*
X8305181Y-17800245D01*
X8305181Y-17800245D02*
X8295657Y-17771674D01*
X8295657Y-17771674D02*
X8286133Y-17752626D01*
X8286133Y-17752626D02*
X8267085Y-17724055D01*
X8267085Y-17724055D02*
X8257562Y-17714531D01*
D13*
X3389999Y-18208119D02*
X3482499Y-18115619D01*
X3389999Y-18023119D01*
X3297499Y-18115619D01*
X3389999Y-18208119D01*
D11*
X3848037Y-18207102D02*
X3733752Y-18207102D01*
X3790894Y-18207102D02*
X3790894Y-18007102D01*
X3790894Y-18007102D02*
X3771847Y-18035674D01*
X3771847Y-18035674D02*
X3752799Y-18054721D01*
X3752799Y-18054721D02*
X3733752Y-18064245D01*
X3933752Y-18188055D02*
X3943275Y-18197579D01*
X3943275Y-18197579D02*
X3933752Y-18207102D01*
X3933752Y-18207102D02*
X3924228Y-18197579D01*
X3924228Y-18197579D02*
X3933752Y-18188055D01*
X3933752Y-18188055D02*
X3933752Y-18207102D01*
X4057561Y-18092817D02*
X4038514Y-18083293D01*
X4038514Y-18083293D02*
X4028990Y-18073769D01*
X4028990Y-18073769D02*
X4019466Y-18054721D01*
X4019466Y-18054721D02*
X4019466Y-18045198D01*
X4019466Y-18045198D02*
X4028990Y-18026150D01*
X4028990Y-18026150D02*
X4038514Y-18016626D01*
X4038514Y-18016626D02*
X4057561Y-18007102D01*
X4057561Y-18007102D02*
X4095656Y-18007102D01*
X4095656Y-18007102D02*
X4114704Y-18016626D01*
X4114704Y-18016626D02*
X4124228Y-18026150D01*
X4124228Y-18026150D02*
X4133752Y-18045198D01*
X4133752Y-18045198D02*
X4133752Y-18054721D01*
X4133752Y-18054721D02*
X4124228Y-18073769D01*
X4124228Y-18073769D02*
X4114704Y-18083293D01*
X4114704Y-18083293D02*
X4095656Y-18092817D01*
X4095656Y-18092817D02*
X4057561Y-18092817D01*
X4057561Y-18092817D02*
X4038514Y-18102341D01*
X4038514Y-18102341D02*
X4028990Y-18111864D01*
X4028990Y-18111864D02*
X4019466Y-18130912D01*
X4019466Y-18130912D02*
X4019466Y-18169007D01*
X4019466Y-18169007D02*
X4028990Y-18188055D01*
X4028990Y-18188055D02*
X4038514Y-18197579D01*
X4038514Y-18197579D02*
X4057561Y-18207102D01*
X4057561Y-18207102D02*
X4095656Y-18207102D01*
X4095656Y-18207102D02*
X4114704Y-18197579D01*
X4114704Y-18197579D02*
X4124228Y-18188055D01*
X4124228Y-18188055D02*
X4133752Y-18169007D01*
X4133752Y-18169007D02*
X4133752Y-18130912D01*
X4133752Y-18130912D02*
X4124228Y-18111864D01*
X4124228Y-18111864D02*
X4114704Y-18102341D01*
X4114704Y-18102341D02*
X4095656Y-18092817D01*
X4314704Y-18007102D02*
X4219466Y-18007102D01*
X4219466Y-18007102D02*
X4209942Y-18102341D01*
X4209942Y-18102341D02*
X4219466Y-18092817D01*
X4219466Y-18092817D02*
X4238514Y-18083293D01*
X4238514Y-18083293D02*
X4286133Y-18083293D01*
X4286133Y-18083293D02*
X4305180Y-18092817D01*
X4305180Y-18092817D02*
X4314704Y-18102341D01*
X4314704Y-18102341D02*
X4324228Y-18121388D01*
X4324228Y-18121388D02*
X4324228Y-18169007D01*
X4324228Y-18169007D02*
X4314704Y-18188055D01*
X4314704Y-18188055D02*
X4305180Y-18197579D01*
X4305180Y-18197579D02*
X4286133Y-18207102D01*
X4286133Y-18207102D02*
X4238514Y-18207102D01*
X4238514Y-18207102D02*
X4219466Y-18197579D01*
X4219466Y-18197579D02*
X4209942Y-18188055D01*
X4448037Y-18007102D02*
X4467085Y-18007102D01*
X4467085Y-18007102D02*
X4486133Y-18016626D01*
X4486133Y-18016626D02*
X4495657Y-18026150D01*
X4495657Y-18026150D02*
X4505180Y-18045198D01*
X4505180Y-18045198D02*
X4514704Y-18083293D01*
X4514704Y-18083293D02*
X4514704Y-18130912D01*
X4514704Y-18130912D02*
X4505180Y-18169007D01*
X4505180Y-18169007D02*
X4495657Y-18188055D01*
X4495657Y-18188055D02*
X4486133Y-18197579D01*
X4486133Y-18197579D02*
X4467085Y-18207102D01*
X4467085Y-18207102D02*
X4448037Y-18207102D01*
X4448037Y-18207102D02*
X4428990Y-18197579D01*
X4428990Y-18197579D02*
X4419466Y-18188055D01*
X4419466Y-18188055D02*
X4409942Y-18169007D01*
X4409942Y-18169007D02*
X4400418Y-18130912D01*
X4400418Y-18130912D02*
X4400418Y-18083293D01*
X4400418Y-18083293D02*
X4409942Y-18045198D01*
X4409942Y-18045198D02*
X4419466Y-18026150D01*
X4419466Y-18026150D02*
X4428990Y-18016626D01*
X4428990Y-18016626D02*
X4448037Y-18007102D01*
X4600418Y-18207102D02*
X4600418Y-18073769D01*
X4600418Y-18092817D02*
X4609942Y-18083293D01*
X4609942Y-18083293D02*
X4628990Y-18073769D01*
X4628990Y-18073769D02*
X4657561Y-18073769D01*
X4657561Y-18073769D02*
X4676609Y-18083293D01*
X4676609Y-18083293D02*
X4686133Y-18102341D01*
X4686133Y-18102341D02*
X4686133Y-18207102D01*
X4686133Y-18102341D02*
X4695657Y-18083293D01*
X4695657Y-18083293D02*
X4714704Y-18073769D01*
X4714704Y-18073769D02*
X4743276Y-18073769D01*
X4743276Y-18073769D02*
X4762323Y-18083293D01*
X4762323Y-18083293D02*
X4771847Y-18102341D01*
X4771847Y-18102341D02*
X4771847Y-18207102D01*
X4867085Y-18207102D02*
X4867085Y-18073769D01*
X4867085Y-18092817D02*
X4876609Y-18083293D01*
X4876609Y-18083293D02*
X4895657Y-18073769D01*
X4895657Y-18073769D02*
X4924228Y-18073769D01*
X4924228Y-18073769D02*
X4943276Y-18083293D01*
X4943276Y-18083293D02*
X4952799Y-18102341D01*
X4952799Y-18102341D02*
X4952799Y-18207102D01*
X4952799Y-18102341D02*
X4962323Y-18083293D01*
X4962323Y-18083293D02*
X4981371Y-18073769D01*
X4981371Y-18073769D02*
X5009942Y-18073769D01*
X5009942Y-18073769D02*
X5028990Y-18083293D01*
X5028990Y-18083293D02*
X5038514Y-18102341D01*
X5038514Y-18102341D02*
X5038514Y-18207102D01*
X5428990Y-17997579D02*
X5257561Y-18254721D01*
X5686133Y-18007102D02*
X5705180Y-18007102D01*
X5705180Y-18007102D02*
X5724228Y-18016626D01*
X5724228Y-18016626D02*
X5733752Y-18026150D01*
X5733752Y-18026150D02*
X5743276Y-18045198D01*
X5743276Y-18045198D02*
X5752799Y-18083293D01*
X5752799Y-18083293D02*
X5752799Y-18130912D01*
X5752799Y-18130912D02*
X5743276Y-18169007D01*
X5743276Y-18169007D02*
X5733752Y-18188055D01*
X5733752Y-18188055D02*
X5724228Y-18197579D01*
X5724228Y-18197579D02*
X5705180Y-18207102D01*
X5705180Y-18207102D02*
X5686133Y-18207102D01*
X5686133Y-18207102D02*
X5667085Y-18197579D01*
X5667085Y-18197579D02*
X5657561Y-18188055D01*
X5657561Y-18188055D02*
X5648038Y-18169007D01*
X5648038Y-18169007D02*
X5638514Y-18130912D01*
X5638514Y-18130912D02*
X5638514Y-18083293D01*
X5638514Y-18083293D02*
X5648038Y-18045198D01*
X5648038Y-18045198D02*
X5657561Y-18026150D01*
X5657561Y-18026150D02*
X5667085Y-18016626D01*
X5667085Y-18016626D02*
X5686133Y-18007102D01*
X5838514Y-18188055D02*
X5848038Y-18197579D01*
X5848038Y-18197579D02*
X5838514Y-18207102D01*
X5838514Y-18207102D02*
X5828990Y-18197579D01*
X5828990Y-18197579D02*
X5838514Y-18188055D01*
X5838514Y-18188055D02*
X5838514Y-18207102D01*
X5971847Y-18007102D02*
X5990895Y-18007102D01*
X5990895Y-18007102D02*
X6009942Y-18016626D01*
X6009942Y-18016626D02*
X6019466Y-18026150D01*
X6019466Y-18026150D02*
X6028990Y-18045198D01*
X6028990Y-18045198D02*
X6038514Y-18083293D01*
X6038514Y-18083293D02*
X6038514Y-18130912D01*
X6038514Y-18130912D02*
X6028990Y-18169007D01*
X6028990Y-18169007D02*
X6019466Y-18188055D01*
X6019466Y-18188055D02*
X6009942Y-18197579D01*
X6009942Y-18197579D02*
X5990895Y-18207102D01*
X5990895Y-18207102D02*
X5971847Y-18207102D01*
X5971847Y-18207102D02*
X5952799Y-18197579D01*
X5952799Y-18197579D02*
X5943276Y-18188055D01*
X5943276Y-18188055D02*
X5933752Y-18169007D01*
X5933752Y-18169007D02*
X5924228Y-18130912D01*
X5924228Y-18130912D02*
X5924228Y-18083293D01*
X5924228Y-18083293D02*
X5933752Y-18045198D01*
X5933752Y-18045198D02*
X5943276Y-18026150D01*
X5943276Y-18026150D02*
X5952799Y-18016626D01*
X5952799Y-18016626D02*
X5971847Y-18007102D01*
X6105180Y-18007102D02*
X6238514Y-18007102D01*
X6238514Y-18007102D02*
X6152799Y-18207102D01*
X6305180Y-18026150D02*
X6314704Y-18016626D01*
X6314704Y-18016626D02*
X6333752Y-18007102D01*
X6333752Y-18007102D02*
X6381371Y-18007102D01*
X6381371Y-18007102D02*
X6400419Y-18016626D01*
X6400419Y-18016626D02*
X6409942Y-18026150D01*
X6409942Y-18026150D02*
X6419466Y-18045198D01*
X6419466Y-18045198D02*
X6419466Y-18064245D01*
X6419466Y-18064245D02*
X6409942Y-18092817D01*
X6409942Y-18092817D02*
X6295657Y-18207102D01*
X6295657Y-18207102D02*
X6419466Y-18207102D01*
X6533752Y-18092817D02*
X6514704Y-18083293D01*
X6514704Y-18083293D02*
X6505180Y-18073769D01*
X6505180Y-18073769D02*
X6495657Y-18054721D01*
X6495657Y-18054721D02*
X6495657Y-18045198D01*
X6495657Y-18045198D02*
X6505180Y-18026150D01*
X6505180Y-18026150D02*
X6514704Y-18016626D01*
X6514704Y-18016626D02*
X6533752Y-18007102D01*
X6533752Y-18007102D02*
X6571847Y-18007102D01*
X6571847Y-18007102D02*
X6590895Y-18016626D01*
X6590895Y-18016626D02*
X6600419Y-18026150D01*
X6600419Y-18026150D02*
X6609942Y-18045198D01*
X6609942Y-18045198D02*
X6609942Y-18054721D01*
X6609942Y-18054721D02*
X6600419Y-18073769D01*
X6600419Y-18073769D02*
X6590895Y-18083293D01*
X6590895Y-18083293D02*
X6571847Y-18092817D01*
X6571847Y-18092817D02*
X6533752Y-18092817D01*
X6533752Y-18092817D02*
X6514704Y-18102341D01*
X6514704Y-18102341D02*
X6505180Y-18111864D01*
X6505180Y-18111864D02*
X6495657Y-18130912D01*
X6495657Y-18130912D02*
X6495657Y-18169007D01*
X6495657Y-18169007D02*
X6505180Y-18188055D01*
X6505180Y-18188055D02*
X6514704Y-18197579D01*
X6514704Y-18197579D02*
X6533752Y-18207102D01*
X6533752Y-18207102D02*
X6571847Y-18207102D01*
X6571847Y-18207102D02*
X6590895Y-18197579D01*
X6590895Y-18197579D02*
X6600419Y-18188055D01*
X6600419Y-18188055D02*
X6609942Y-18169007D01*
X6609942Y-18169007D02*
X6609942Y-18130912D01*
X6609942Y-18130912D02*
X6600419Y-18111864D01*
X6600419Y-18111864D02*
X6590895Y-18102341D01*
X6590895Y-18102341D02*
X6571847Y-18092817D01*
X6686133Y-18007102D02*
X6686133Y-18045198D01*
X6762323Y-18007102D02*
X6762323Y-18045198D01*
X7057562Y-18283293D02*
X7048038Y-18273769D01*
X7048038Y-18273769D02*
X7028990Y-18245198D01*
X7028990Y-18245198D02*
X7019466Y-18226150D01*
X7019466Y-18226150D02*
X7009942Y-18197579D01*
X7009942Y-18197579D02*
X7000419Y-18149960D01*
X7000419Y-18149960D02*
X7000419Y-18111864D01*
X7000419Y-18111864D02*
X7009942Y-18064245D01*
X7009942Y-18064245D02*
X7019466Y-18035674D01*
X7019466Y-18035674D02*
X7028990Y-18016626D01*
X7028990Y-18016626D02*
X7048038Y-17988055D01*
X7048038Y-17988055D02*
X7057562Y-17978531D01*
X7114704Y-18007102D02*
X7238514Y-18007102D01*
X7238514Y-18007102D02*
X7171847Y-18083293D01*
X7171847Y-18083293D02*
X7200419Y-18083293D01*
X7200419Y-18083293D02*
X7219466Y-18092817D01*
X7219466Y-18092817D02*
X7228990Y-18102341D01*
X7228990Y-18102341D02*
X7238514Y-18121388D01*
X7238514Y-18121388D02*
X7238514Y-18169007D01*
X7238514Y-18169007D02*
X7228990Y-18188055D01*
X7228990Y-18188055D02*
X7219466Y-18197579D01*
X7219466Y-18197579D02*
X7200419Y-18207102D01*
X7200419Y-18207102D02*
X7143276Y-18207102D01*
X7143276Y-18207102D02*
X7124228Y-18197579D01*
X7124228Y-18197579D02*
X7114704Y-18188055D01*
X7476609Y-18207102D02*
X7476609Y-18007102D01*
X7562323Y-18207102D02*
X7562323Y-18102341D01*
X7562323Y-18102341D02*
X7552800Y-18083293D01*
X7552800Y-18083293D02*
X7533752Y-18073769D01*
X7533752Y-18073769D02*
X7505181Y-18073769D01*
X7505181Y-18073769D02*
X7486133Y-18083293D01*
X7486133Y-18083293D02*
X7476609Y-18092817D01*
X7686133Y-18207102D02*
X7667085Y-18197579D01*
X7667085Y-18197579D02*
X7657562Y-18188055D01*
X7657562Y-18188055D02*
X7648038Y-18169007D01*
X7648038Y-18169007D02*
X7648038Y-18111864D01*
X7648038Y-18111864D02*
X7657562Y-18092817D01*
X7657562Y-18092817D02*
X7667085Y-18083293D01*
X7667085Y-18083293D02*
X7686133Y-18073769D01*
X7686133Y-18073769D02*
X7714704Y-18073769D01*
X7714704Y-18073769D02*
X7733752Y-18083293D01*
X7733752Y-18083293D02*
X7743276Y-18092817D01*
X7743276Y-18092817D02*
X7752800Y-18111864D01*
X7752800Y-18111864D02*
X7752800Y-18169007D01*
X7752800Y-18169007D02*
X7743276Y-18188055D01*
X7743276Y-18188055D02*
X7733752Y-18197579D01*
X7733752Y-18197579D02*
X7714704Y-18207102D01*
X7714704Y-18207102D02*
X7686133Y-18207102D01*
X7867085Y-18207102D02*
X7848038Y-18197579D01*
X7848038Y-18197579D02*
X7838514Y-18178531D01*
X7838514Y-18178531D02*
X7838514Y-18007102D01*
X8019466Y-18197579D02*
X8000419Y-18207102D01*
X8000419Y-18207102D02*
X7962323Y-18207102D01*
X7962323Y-18207102D02*
X7943276Y-18197579D01*
X7943276Y-18197579D02*
X7933752Y-18178531D01*
X7933752Y-18178531D02*
X7933752Y-18102341D01*
X7933752Y-18102341D02*
X7943276Y-18083293D01*
X7943276Y-18083293D02*
X7962323Y-18073769D01*
X7962323Y-18073769D02*
X8000419Y-18073769D01*
X8000419Y-18073769D02*
X8019466Y-18083293D01*
X8019466Y-18083293D02*
X8028990Y-18102341D01*
X8028990Y-18102341D02*
X8028990Y-18121388D01*
X8028990Y-18121388D02*
X7933752Y-18140436D01*
X8105181Y-18197579D02*
X8124228Y-18207102D01*
X8124228Y-18207102D02*
X8162323Y-18207102D01*
X8162323Y-18207102D02*
X8181371Y-18197579D01*
X8181371Y-18197579D02*
X8190895Y-18178531D01*
X8190895Y-18178531D02*
X8190895Y-18169007D01*
X8190895Y-18169007D02*
X8181371Y-18149960D01*
X8181371Y-18149960D02*
X8162323Y-18140436D01*
X8162323Y-18140436D02*
X8133752Y-18140436D01*
X8133752Y-18140436D02*
X8114704Y-18130912D01*
X8114704Y-18130912D02*
X8105181Y-18111864D01*
X8105181Y-18111864D02*
X8105181Y-18102341D01*
X8105181Y-18102341D02*
X8114704Y-18083293D01*
X8114704Y-18083293D02*
X8133752Y-18073769D01*
X8133752Y-18073769D02*
X8162323Y-18073769D01*
X8162323Y-18073769D02*
X8181371Y-18083293D01*
X8257562Y-18283293D02*
X8267085Y-18273769D01*
X8267085Y-18273769D02*
X8286133Y-18245198D01*
X8286133Y-18245198D02*
X8295657Y-18226150D01*
X8295657Y-18226150D02*
X8305181Y-18197579D01*
X8305181Y-18197579D02*
X8314704Y-18149960D01*
X8314704Y-18149960D02*
X8314704Y-18111864D01*
X8314704Y-18111864D02*
X8305181Y-18064245D01*
X8305181Y-18064245D02*
X8295657Y-18035674D01*
X8295657Y-18035674D02*
X8286133Y-18016626D01*
X8286133Y-18016626D02*
X8267085Y-17988055D01*
X8267085Y-17988055D02*
X8257562Y-17978531D01*
X3282499Y-18320619D02*
X3482499Y-18520619D01*
X3482499Y-18320619D02*
X3282499Y-18520619D01*
X3482499Y-18420619D02*
G75*
G02*
X3282499Y-18420619I-100000J0D01*
G01*
X3282499Y-18420619D02*
G75*
G02*
X3482499Y-18420619I100000J0D01*
G01*
X3724228Y-18312102D02*
X3848037Y-18312102D01*
X3848037Y-18312102D02*
X3781371Y-18388293D01*
X3781371Y-18388293D02*
X3809942Y-18388293D01*
X3809942Y-18388293D02*
X3828990Y-18397817D01*
X3828990Y-18397817D02*
X3838514Y-18407341D01*
X3838514Y-18407341D02*
X3848037Y-18426388D01*
X3848037Y-18426388D02*
X3848037Y-18474007D01*
X3848037Y-18474007D02*
X3838514Y-18493055D01*
X3838514Y-18493055D02*
X3828990Y-18502579D01*
X3828990Y-18502579D02*
X3809942Y-18512102D01*
X3809942Y-18512102D02*
X3752799Y-18512102D01*
X3752799Y-18512102D02*
X3733752Y-18502579D01*
X3733752Y-18502579D02*
X3724228Y-18493055D01*
X3933752Y-18493055D02*
X3943275Y-18502579D01*
X3943275Y-18502579D02*
X3933752Y-18512102D01*
X3933752Y-18512102D02*
X3924228Y-18502579D01*
X3924228Y-18502579D02*
X3933752Y-18493055D01*
X3933752Y-18493055D02*
X3933752Y-18512102D01*
X4019466Y-18331150D02*
X4028990Y-18321626D01*
X4028990Y-18321626D02*
X4048037Y-18312102D01*
X4048037Y-18312102D02*
X4095656Y-18312102D01*
X4095656Y-18312102D02*
X4114704Y-18321626D01*
X4114704Y-18321626D02*
X4124228Y-18331150D01*
X4124228Y-18331150D02*
X4133752Y-18350198D01*
X4133752Y-18350198D02*
X4133752Y-18369245D01*
X4133752Y-18369245D02*
X4124228Y-18397817D01*
X4124228Y-18397817D02*
X4009942Y-18512102D01*
X4009942Y-18512102D02*
X4133752Y-18512102D01*
X4257561Y-18312102D02*
X4276609Y-18312102D01*
X4276609Y-18312102D02*
X4295657Y-18321626D01*
X4295657Y-18321626D02*
X4305180Y-18331150D01*
X4305180Y-18331150D02*
X4314704Y-18350198D01*
X4314704Y-18350198D02*
X4324228Y-18388293D01*
X4324228Y-18388293D02*
X4324228Y-18435912D01*
X4324228Y-18435912D02*
X4314704Y-18474007D01*
X4314704Y-18474007D02*
X4305180Y-18493055D01*
X4305180Y-18493055D02*
X4295657Y-18502579D01*
X4295657Y-18502579D02*
X4276609Y-18512102D01*
X4276609Y-18512102D02*
X4257561Y-18512102D01*
X4257561Y-18512102D02*
X4238514Y-18502579D01*
X4238514Y-18502579D02*
X4228990Y-18493055D01*
X4228990Y-18493055D02*
X4219466Y-18474007D01*
X4219466Y-18474007D02*
X4209942Y-18435912D01*
X4209942Y-18435912D02*
X4209942Y-18388293D01*
X4209942Y-18388293D02*
X4219466Y-18350198D01*
X4219466Y-18350198D02*
X4228990Y-18331150D01*
X4228990Y-18331150D02*
X4238514Y-18321626D01*
X4238514Y-18321626D02*
X4257561Y-18312102D01*
X4448037Y-18312102D02*
X4467085Y-18312102D01*
X4467085Y-18312102D02*
X4486133Y-18321626D01*
X4486133Y-18321626D02*
X4495657Y-18331150D01*
X4495657Y-18331150D02*
X4505180Y-18350198D01*
X4505180Y-18350198D02*
X4514704Y-18388293D01*
X4514704Y-18388293D02*
X4514704Y-18435912D01*
X4514704Y-18435912D02*
X4505180Y-18474007D01*
X4505180Y-18474007D02*
X4495657Y-18493055D01*
X4495657Y-18493055D02*
X4486133Y-18502579D01*
X4486133Y-18502579D02*
X4467085Y-18512102D01*
X4467085Y-18512102D02*
X4448037Y-18512102D01*
X4448037Y-18512102D02*
X4428990Y-18502579D01*
X4428990Y-18502579D02*
X4419466Y-18493055D01*
X4419466Y-18493055D02*
X4409942Y-18474007D01*
X4409942Y-18474007D02*
X4400418Y-18435912D01*
X4400418Y-18435912D02*
X4400418Y-18388293D01*
X4400418Y-18388293D02*
X4409942Y-18350198D01*
X4409942Y-18350198D02*
X4419466Y-18331150D01*
X4419466Y-18331150D02*
X4428990Y-18321626D01*
X4428990Y-18321626D02*
X4448037Y-18312102D01*
X4600418Y-18512102D02*
X4600418Y-18378769D01*
X4600418Y-18397817D02*
X4609942Y-18388293D01*
X4609942Y-18388293D02*
X4628990Y-18378769D01*
X4628990Y-18378769D02*
X4657561Y-18378769D01*
X4657561Y-18378769D02*
X4676609Y-18388293D01*
X4676609Y-18388293D02*
X4686133Y-18407341D01*
X4686133Y-18407341D02*
X4686133Y-18512102D01*
X4686133Y-18407341D02*
X4695657Y-18388293D01*
X4695657Y-18388293D02*
X4714704Y-18378769D01*
X4714704Y-18378769D02*
X4743276Y-18378769D01*
X4743276Y-18378769D02*
X4762323Y-18388293D01*
X4762323Y-18388293D02*
X4771847Y-18407341D01*
X4771847Y-18407341D02*
X4771847Y-18512102D01*
X4867085Y-18512102D02*
X4867085Y-18378769D01*
X4867085Y-18397817D02*
X4876609Y-18388293D01*
X4876609Y-18388293D02*
X4895657Y-18378769D01*
X4895657Y-18378769D02*
X4924228Y-18378769D01*
X4924228Y-18378769D02*
X4943276Y-18388293D01*
X4943276Y-18388293D02*
X4952799Y-18407341D01*
X4952799Y-18407341D02*
X4952799Y-18512102D01*
X4952799Y-18407341D02*
X4962323Y-18388293D01*
X4962323Y-18388293D02*
X4981371Y-18378769D01*
X4981371Y-18378769D02*
X5009942Y-18378769D01*
X5009942Y-18378769D02*
X5028990Y-18388293D01*
X5028990Y-18388293D02*
X5038514Y-18407341D01*
X5038514Y-18407341D02*
X5038514Y-18512102D01*
X5428990Y-18302579D02*
X5257561Y-18559721D01*
X5686133Y-18312102D02*
X5705180Y-18312102D01*
X5705180Y-18312102D02*
X5724228Y-18321626D01*
X5724228Y-18321626D02*
X5733752Y-18331150D01*
X5733752Y-18331150D02*
X5743276Y-18350198D01*
X5743276Y-18350198D02*
X5752799Y-18388293D01*
X5752799Y-18388293D02*
X5752799Y-18435912D01*
X5752799Y-18435912D02*
X5743276Y-18474007D01*
X5743276Y-18474007D02*
X5733752Y-18493055D01*
X5733752Y-18493055D02*
X5724228Y-18502579D01*
X5724228Y-18502579D02*
X5705180Y-18512102D01*
X5705180Y-18512102D02*
X5686133Y-18512102D01*
X5686133Y-18512102D02*
X5667085Y-18502579D01*
X5667085Y-18502579D02*
X5657561Y-18493055D01*
X5657561Y-18493055D02*
X5648038Y-18474007D01*
X5648038Y-18474007D02*
X5638514Y-18435912D01*
X5638514Y-18435912D02*
X5638514Y-18388293D01*
X5638514Y-18388293D02*
X5648038Y-18350198D01*
X5648038Y-18350198D02*
X5657561Y-18331150D01*
X5657561Y-18331150D02*
X5667085Y-18321626D01*
X5667085Y-18321626D02*
X5686133Y-18312102D01*
X5838514Y-18493055D02*
X5848038Y-18502579D01*
X5848038Y-18502579D02*
X5838514Y-18512102D01*
X5838514Y-18512102D02*
X5828990Y-18502579D01*
X5828990Y-18502579D02*
X5838514Y-18493055D01*
X5838514Y-18493055D02*
X5838514Y-18512102D01*
X6038514Y-18512102D02*
X5924228Y-18512102D01*
X5981371Y-18512102D02*
X5981371Y-18312102D01*
X5981371Y-18312102D02*
X5962323Y-18340674D01*
X5962323Y-18340674D02*
X5943276Y-18359721D01*
X5943276Y-18359721D02*
X5924228Y-18369245D01*
X6114704Y-18331150D02*
X6124228Y-18321626D01*
X6124228Y-18321626D02*
X6143276Y-18312102D01*
X6143276Y-18312102D02*
X6190895Y-18312102D01*
X6190895Y-18312102D02*
X6209942Y-18321626D01*
X6209942Y-18321626D02*
X6219466Y-18331150D01*
X6219466Y-18331150D02*
X6228990Y-18350198D01*
X6228990Y-18350198D02*
X6228990Y-18369245D01*
X6228990Y-18369245D02*
X6219466Y-18397817D01*
X6219466Y-18397817D02*
X6105180Y-18512102D01*
X6105180Y-18512102D02*
X6228990Y-18512102D01*
X6400419Y-18312102D02*
X6362323Y-18312102D01*
X6362323Y-18312102D02*
X6343276Y-18321626D01*
X6343276Y-18321626D02*
X6333752Y-18331150D01*
X6333752Y-18331150D02*
X6314704Y-18359721D01*
X6314704Y-18359721D02*
X6305180Y-18397817D01*
X6305180Y-18397817D02*
X6305180Y-18474007D01*
X6305180Y-18474007D02*
X6314704Y-18493055D01*
X6314704Y-18493055D02*
X6324228Y-18502579D01*
X6324228Y-18502579D02*
X6343276Y-18512102D01*
X6343276Y-18512102D02*
X6381371Y-18512102D01*
X6381371Y-18512102D02*
X6400419Y-18502579D01*
X6400419Y-18502579D02*
X6409942Y-18493055D01*
X6409942Y-18493055D02*
X6419466Y-18474007D01*
X6419466Y-18474007D02*
X6419466Y-18426388D01*
X6419466Y-18426388D02*
X6409942Y-18407341D01*
X6409942Y-18407341D02*
X6400419Y-18397817D01*
X6400419Y-18397817D02*
X6381371Y-18388293D01*
X6381371Y-18388293D02*
X6343276Y-18388293D01*
X6343276Y-18388293D02*
X6324228Y-18397817D01*
X6324228Y-18397817D02*
X6314704Y-18407341D01*
X6314704Y-18407341D02*
X6305180Y-18426388D01*
X6543276Y-18312102D02*
X6562323Y-18312102D01*
X6562323Y-18312102D02*
X6581371Y-18321626D01*
X6581371Y-18321626D02*
X6590895Y-18331150D01*
X6590895Y-18331150D02*
X6600419Y-18350198D01*
X6600419Y-18350198D02*
X6609942Y-18388293D01*
X6609942Y-18388293D02*
X6609942Y-18435912D01*
X6609942Y-18435912D02*
X6600419Y-18474007D01*
X6600419Y-18474007D02*
X6590895Y-18493055D01*
X6590895Y-18493055D02*
X6581371Y-18502579D01*
X6581371Y-18502579D02*
X6562323Y-18512102D01*
X6562323Y-18512102D02*
X6543276Y-18512102D01*
X6543276Y-18512102D02*
X6524228Y-18502579D01*
X6524228Y-18502579D02*
X6514704Y-18493055D01*
X6514704Y-18493055D02*
X6505180Y-18474007D01*
X6505180Y-18474007D02*
X6495657Y-18435912D01*
X6495657Y-18435912D02*
X6495657Y-18388293D01*
X6495657Y-18388293D02*
X6505180Y-18350198D01*
X6505180Y-18350198D02*
X6514704Y-18331150D01*
X6514704Y-18331150D02*
X6524228Y-18321626D01*
X6524228Y-18321626D02*
X6543276Y-18312102D01*
X6686133Y-18312102D02*
X6686133Y-18350198D01*
X6762323Y-18312102D02*
X6762323Y-18350198D01*
X7057562Y-18588293D02*
X7048038Y-18578769D01*
X7048038Y-18578769D02*
X7028990Y-18550198D01*
X7028990Y-18550198D02*
X7019466Y-18531150D01*
X7019466Y-18531150D02*
X7009942Y-18502579D01*
X7009942Y-18502579D02*
X7000419Y-18454960D01*
X7000419Y-18454960D02*
X7000419Y-18416864D01*
X7000419Y-18416864D02*
X7009942Y-18369245D01*
X7009942Y-18369245D02*
X7019466Y-18340674D01*
X7019466Y-18340674D02*
X7028990Y-18321626D01*
X7028990Y-18321626D02*
X7048038Y-18293055D01*
X7048038Y-18293055D02*
X7057562Y-18283531D01*
X7219466Y-18378769D02*
X7219466Y-18512102D01*
X7171847Y-18302579D02*
X7124228Y-18445436D01*
X7124228Y-18445436D02*
X7248038Y-18445436D01*
X7476609Y-18512102D02*
X7476609Y-18312102D01*
X7562323Y-18512102D02*
X7562323Y-18407341D01*
X7562323Y-18407341D02*
X7552800Y-18388293D01*
X7552800Y-18388293D02*
X7533752Y-18378769D01*
X7533752Y-18378769D02*
X7505181Y-18378769D01*
X7505181Y-18378769D02*
X7486133Y-18388293D01*
X7486133Y-18388293D02*
X7476609Y-18397817D01*
X7686133Y-18512102D02*
X7667085Y-18502579D01*
X7667085Y-18502579D02*
X7657562Y-18493055D01*
X7657562Y-18493055D02*
X7648038Y-18474007D01*
X7648038Y-18474007D02*
X7648038Y-18416864D01*
X7648038Y-18416864D02*
X7657562Y-18397817D01*
X7657562Y-18397817D02*
X7667085Y-18388293D01*
X7667085Y-18388293D02*
X7686133Y-18378769D01*
X7686133Y-18378769D02*
X7714704Y-18378769D01*
X7714704Y-18378769D02*
X7733752Y-18388293D01*
X7733752Y-18388293D02*
X7743276Y-18397817D01*
X7743276Y-18397817D02*
X7752800Y-18416864D01*
X7752800Y-18416864D02*
X7752800Y-18474007D01*
X7752800Y-18474007D02*
X7743276Y-18493055D01*
X7743276Y-18493055D02*
X7733752Y-18502579D01*
X7733752Y-18502579D02*
X7714704Y-18512102D01*
X7714704Y-18512102D02*
X7686133Y-18512102D01*
X7867085Y-18512102D02*
X7848038Y-18502579D01*
X7848038Y-18502579D02*
X7838514Y-18483531D01*
X7838514Y-18483531D02*
X7838514Y-18312102D01*
X8019466Y-18502579D02*
X8000419Y-18512102D01*
X8000419Y-18512102D02*
X7962323Y-18512102D01*
X7962323Y-18512102D02*
X7943276Y-18502579D01*
X7943276Y-18502579D02*
X7933752Y-18483531D01*
X7933752Y-18483531D02*
X7933752Y-18407341D01*
X7933752Y-18407341D02*
X7943276Y-18388293D01*
X7943276Y-18388293D02*
X7962323Y-18378769D01*
X7962323Y-18378769D02*
X8000419Y-18378769D01*
X8000419Y-18378769D02*
X8019466Y-18388293D01*
X8019466Y-18388293D02*
X8028990Y-18407341D01*
X8028990Y-18407341D02*
X8028990Y-18426388D01*
X8028990Y-18426388D02*
X7933752Y-18445436D01*
X8105181Y-18502579D02*
X8124228Y-18512102D01*
X8124228Y-18512102D02*
X8162323Y-18512102D01*
X8162323Y-18512102D02*
X8181371Y-18502579D01*
X8181371Y-18502579D02*
X8190895Y-18483531D01*
X8190895Y-18483531D02*
X8190895Y-18474007D01*
X8190895Y-18474007D02*
X8181371Y-18454960D01*
X8181371Y-18454960D02*
X8162323Y-18445436D01*
X8162323Y-18445436D02*
X8133752Y-18445436D01*
X8133752Y-18445436D02*
X8114704Y-18435912D01*
X8114704Y-18435912D02*
X8105181Y-18416864D01*
X8105181Y-18416864D02*
X8105181Y-18407341D01*
X8105181Y-18407341D02*
X8114704Y-18388293D01*
X8114704Y-18388293D02*
X8133752Y-18378769D01*
X8133752Y-18378769D02*
X8162323Y-18378769D01*
X8162323Y-18378769D02*
X8181371Y-18388293D01*
X8257562Y-18588293D02*
X8267085Y-18578769D01*
X8267085Y-18578769D02*
X8286133Y-18550198D01*
X8286133Y-18550198D02*
X8295657Y-18531150D01*
X8295657Y-18531150D02*
X8305181Y-18502579D01*
X8305181Y-18502579D02*
X8314704Y-18454960D01*
X8314704Y-18454960D02*
X8314704Y-18416864D01*
X8314704Y-18416864D02*
X8305181Y-18369245D01*
X8305181Y-18369245D02*
X8295657Y-18340674D01*
X8295657Y-18340674D02*
X8286133Y-18321626D01*
X8286133Y-18321626D02*
X8267085Y-18293055D01*
X8267085Y-18293055D02*
X8257562Y-18283531D01*
M02*
