%TF.GenerationSoftware,KiCad,Pcbnew,9.0.1*%
%TF.CreationDate,2025-09-24T11:37:58+02:00*%
%TF.ProjectId,Main_Board,4d61696e-5f42-46f6-9172-642e6b696361,rev?*%
%TF.SameCoordinates,Original*%
%TF.FileFunction,Soldermask,Top*%
%TF.FilePolarity,Negative*%
%FSLAX46Y46*%
G04 Gerber Fmt 4.6, Leading zero omitted, Abs format (unit mm)*
G04 Created by KiCad (PCBNEW 9.0.1) date 2025-09-24 11:37:58*
%MOMM*%
%LPD*%
G01*
G04 APERTURE LIST*
G04 Aperture macros list*
%AMRoundRect*
0 Rectangle with rounded corners*
0 $1 Rounding radius*
0 $2 $3 $4 $5 $6 $7 $8 $9 X,Y pos of 4 corners*
0 Add a 4 corners polygon primitive as box body*
4,1,4,$2,$3,$4,$5,$6,$7,$8,$9,$2,$3,0*
0 Add four circle primitives for the rounded corners*
1,1,$1+$1,$2,$3*
1,1,$1+$1,$4,$5*
1,1,$1+$1,$6,$7*
1,1,$1+$1,$8,$9*
0 Add four rect primitives between the rounded corners*
20,1,$1+$1,$2,$3,$4,$5,0*
20,1,$1+$1,$4,$5,$6,$7,0*
20,1,$1+$1,$6,$7,$8,$9,0*
20,1,$1+$1,$8,$9,$2,$3,0*%
%AMFreePoly0*
4,1,24,6.400000,4.050000,-2.500000,4.050000,-2.500000,3.250000,6.400000,3.250000,6.400000,1.650000,-2.500000,1.650000,-2.500000,0.850000,-0.200000,0.850000,0.200000,0.850000,0.200000,-0.850000,-0.200000,-0.850000,-0.200000,0.450000,-2.900000,0.450000,-2.900000,2.050000,6.000000,2.050000,6.000000,2.850000,-2.900000,2.850000,-2.900000,4.450000,6.000000,4.450000,6.000000,5.250000,
0.000000,5.250000,0.000000,5.650000,6.400000,5.650000,6.400000,4.050000,6.400000,4.050000,$1*%
G04 Aperture macros list end*
%ADD10RoundRect,0.140000X-0.140000X-0.170000X0.140000X-0.170000X0.140000X0.170000X-0.140000X0.170000X0*%
%ADD11RoundRect,0.140000X-0.170000X0.140000X-0.170000X-0.140000X0.170000X-0.140000X0.170000X0.140000X0*%
%ADD12C,1.500000*%
%ADD13RoundRect,0.225000X0.250000X-0.225000X0.250000X0.225000X-0.250000X0.225000X-0.250000X-0.225000X0*%
%ADD14RoundRect,0.250000X-0.350000X-0.625000X0.350000X-0.625000X0.350000X0.625000X-0.350000X0.625000X0*%
%ADD15O,1.200000X1.750000*%
%ADD16FreePoly0,270.000000*%
%ADD17RoundRect,0.250000X-1.500000X0.250000X-1.500000X-0.250000X1.500000X-0.250000X1.500000X0.250000X0*%
%ADD18RoundRect,0.250001X-1.449999X0.499999X-1.449999X-0.499999X1.449999X-0.499999X1.449999X0.499999X0*%
%ADD19C,0.800000*%
%ADD20R,0.900000X1.700000*%
%ADD21RoundRect,0.200000X0.275000X-0.200000X0.275000X0.200000X-0.275000X0.200000X-0.275000X-0.200000X0*%
%ADD22C,6.400000*%
%ADD23RoundRect,0.140000X0.170000X-0.140000X0.170000X0.140000X-0.170000X0.140000X-0.170000X-0.140000X0*%
%ADD24RoundRect,0.062500X0.375000X0.062500X-0.375000X0.062500X-0.375000X-0.062500X0.375000X-0.062500X0*%
%ADD25RoundRect,0.062500X0.062500X0.375000X-0.062500X0.375000X-0.062500X-0.375000X0.062500X-0.375000X0*%
%ADD26R,2.100000X2.100000*%
%ADD27RoundRect,0.250000X-0.600000X-0.750000X0.600000X-0.750000X0.600000X0.750000X-0.600000X0.750000X0*%
%ADD28O,1.700000X2.000000*%
%ADD29RoundRect,0.200000X-0.275000X0.200000X-0.275000X-0.200000X0.275000X-0.200000X0.275000X0.200000X0*%
%ADD30RoundRect,0.225000X-0.250000X0.225000X-0.250000X-0.225000X0.250000X-0.225000X0.250000X0.225000X0*%
%ADD31RoundRect,0.218750X0.256250X-0.218750X0.256250X0.218750X-0.256250X0.218750X-0.256250X-0.218750X0*%
%ADD32RoundRect,0.147500X-0.172500X0.147500X-0.172500X-0.147500X0.172500X-0.147500X0.172500X0.147500X0*%
%ADD33RoundRect,0.225000X-0.225000X-0.250000X0.225000X-0.250000X0.225000X0.250000X-0.225000X0.250000X0*%
%ADD34R,2.400000X0.740000*%
%ADD35R,0.802000X1.505000*%
%ADD36R,3.502000X2.613000*%
%ADD37R,0.900000X0.600000*%
%ADD38R,0.275000X0.700000*%
%ADD39R,0.450000X0.245000*%
%ADD40RoundRect,0.200000X-0.200000X-0.275000X0.200000X-0.275000X0.200000X0.275000X-0.200000X0.275000X0*%
%ADD41RoundRect,0.062500X0.062500X-0.375000X0.062500X0.375000X-0.062500X0.375000X-0.062500X-0.375000X0*%
%ADD42RoundRect,0.062500X0.375000X-0.062500X0.375000X0.062500X-0.375000X0.062500X-0.375000X-0.062500X0*%
%ADD43R,5.600000X5.600000*%
%ADD44RoundRect,0.225000X0.225000X0.250000X-0.225000X0.250000X-0.225000X-0.250000X0.225000X-0.250000X0*%
%ADD45R,0.700000X0.750000*%
%ADD46RoundRect,0.200000X0.200000X0.275000X-0.200000X0.275000X-0.200000X-0.275000X0.200000X-0.275000X0*%
%ADD47RoundRect,0.147500X0.147500X0.172500X-0.147500X0.172500X-0.147500X-0.172500X0.147500X-0.172500X0*%
%ADD48RoundRect,0.218750X-0.256250X0.218750X-0.256250X-0.218750X0.256250X-0.218750X0.256250X0.218750X0*%
%ADD49RoundRect,0.150000X-0.325000X-0.150000X0.325000X-0.150000X0.325000X0.150000X-0.325000X0.150000X0*%
%ADD50RoundRect,0.150000X-0.150000X-0.325000X0.150000X-0.325000X0.150000X0.325000X-0.150000X0.325000X0*%
%ADD51R,0.600000X1.100000*%
%ADD52R,2.750000X2.750000*%
%ADD53C,2.750000*%
%ADD54RoundRect,0.218750X0.218750X0.381250X-0.218750X0.381250X-0.218750X-0.381250X0.218750X-0.381250X0*%
G04 APERTURE END LIST*
D10*
%TO.C,C42*%
X78520000Y-149500000D03*
X79480000Y-149500000D03*
%TD*%
D11*
%TO.C,C14*%
X76580000Y-147040000D03*
X76580000Y-148000000D03*
%TD*%
D10*
%TO.C,C2*%
X78520000Y-147250000D03*
X79480000Y-147250000D03*
%TD*%
D12*
%TO.C,TP6*%
X56500000Y-134000000D03*
%TD*%
%TO.C,TP5*%
X88250000Y-147250000D03*
%TD*%
D13*
%TO.C,C43*%
X86500000Y-144750000D03*
X86500000Y-143200000D03*
%TD*%
D14*
%TO.C,J2*%
X73750000Y-157000000D03*
D15*
X75750000Y-157000000D03*
X77750000Y-157000000D03*
X79750000Y-157000000D03*
%TD*%
D16*
%TO.C,AE1*%
X91350000Y-140000000D03*
%TD*%
D17*
%TO.C,J14*%
X45500000Y-138350000D03*
X45500000Y-140350000D03*
X45500000Y-142350000D03*
X45500000Y-144350000D03*
X45500000Y-146350000D03*
X45500000Y-148350000D03*
D18*
X39750000Y-136000000D03*
X39750000Y-150700000D03*
%TD*%
D19*
%TO.C,SW2*%
X87000000Y-131500000D03*
D20*
X88700000Y-131500000D03*
X85300000Y-131500000D03*
%TD*%
D21*
%TO.C,R19*%
X77500000Y-153250000D03*
X77500000Y-151600000D03*
%TD*%
D19*
%TO.C,H1*%
X36047056Y-125900000D03*
X36750000Y-124202944D03*
X36750000Y-127597056D03*
X38447056Y-123500000D03*
D22*
X38447056Y-125900000D03*
D19*
X38447056Y-128300000D03*
X40144112Y-124202944D03*
X40144112Y-127597056D03*
X40847056Y-125900000D03*
%TD*%
D23*
%TO.C,C40*%
X86725000Y-140960000D03*
X86725000Y-140000000D03*
%TD*%
D24*
%TO.C,U4*%
X55437500Y-151312500D03*
X55437500Y-150812500D03*
X55437500Y-150312500D03*
X55437500Y-149812500D03*
X55437500Y-149312500D03*
X55437500Y-148812500D03*
D25*
X54750000Y-148125000D03*
X54250000Y-148125000D03*
X53750000Y-148125000D03*
X53250000Y-148125000D03*
X52750000Y-148125000D03*
X52250000Y-148125000D03*
D24*
X51562500Y-148812500D03*
X51562500Y-149312500D03*
X51562500Y-149812500D03*
X51562500Y-150312500D03*
X51562500Y-150812500D03*
X51562500Y-151312500D03*
D25*
X52250000Y-152000000D03*
X52750000Y-152000000D03*
X53250000Y-152000000D03*
X53750000Y-152000000D03*
X54250000Y-152000000D03*
X54750000Y-152000000D03*
D26*
X53500000Y-150062500D03*
%TD*%
D13*
%TO.C,C15*%
X65000000Y-149025000D03*
X65000000Y-147475000D03*
%TD*%
D12*
%TO.C,TP7*%
X84000000Y-152250000D03*
%TD*%
D23*
%TO.C,C41*%
X83725000Y-140960000D03*
X83725000Y-140000000D03*
%TD*%
D27*
%TO.C,J9*%
X75500000Y-125475000D03*
D28*
X78000000Y-125475000D03*
%TD*%
D14*
%TO.C,J4*%
X44750000Y-160750000D03*
D15*
X46750000Y-160750000D03*
X48750000Y-160750000D03*
X50750000Y-160750000D03*
%TD*%
D29*
%TO.C,R22*%
X62750000Y-132425000D03*
X62750000Y-134075000D03*
%TD*%
D30*
%TO.C,C16*%
X58750000Y-148450000D03*
X58750000Y-150000000D03*
%TD*%
D21*
%TO.C,R23*%
X66250000Y-134075000D03*
X66250000Y-132425000D03*
%TD*%
%TO.C,R18*%
X72250000Y-153287500D03*
X72250000Y-151637500D03*
%TD*%
D31*
%TO.C,D2*%
X75750000Y-153250000D03*
X75750000Y-151675000D03*
%TD*%
D12*
%TO.C,TP2*%
X84000000Y-147250000D03*
%TD*%
D14*
%TO.C,J3*%
X44750000Y-155250000D03*
D15*
X46750000Y-155250000D03*
X48750000Y-155250000D03*
X50750000Y-155250000D03*
%TD*%
D19*
%TO.C,H2*%
X84500000Y-160600000D03*
X85202944Y-158902944D03*
X85202944Y-162297056D03*
X86900000Y-158200000D03*
D22*
X86900000Y-160600000D03*
D19*
X86900000Y-163000000D03*
X88597056Y-158902944D03*
X88597056Y-162297056D03*
X89300000Y-160600000D03*
%TD*%
D12*
%TO.C,TP4*%
X88250000Y-152250000D03*
%TD*%
D32*
%TO.C,L3*%
X76000000Y-135130000D03*
X76000000Y-136100000D03*
%TD*%
D12*
%TO.C,TP1*%
X84000000Y-149750000D03*
%TD*%
D21*
%TO.C,R26*%
X68500000Y-162150000D03*
X68500000Y-160500000D03*
%TD*%
D33*
%TO.C,C8*%
X72700000Y-133000000D03*
X74250000Y-133000000D03*
%TD*%
D34*
%TO.C,J1*%
X63100000Y-137940000D03*
X67000000Y-137940000D03*
X63100000Y-139210000D03*
X67000000Y-139210000D03*
X63100000Y-140480000D03*
X67000000Y-140480000D03*
X63100000Y-141750000D03*
X67000000Y-141750000D03*
X63100000Y-143020000D03*
X67000000Y-143020000D03*
X63100000Y-144290000D03*
X67000000Y-144290000D03*
X63100000Y-145560000D03*
X67000000Y-145560000D03*
%TD*%
D35*
%TO.C,IC4*%
X52750000Y-144245000D03*
X54020000Y-144245000D03*
X55290000Y-144245000D03*
X56560000Y-144245000D03*
X56560000Y-139250000D03*
X55290000Y-139250000D03*
X54020000Y-139250000D03*
X52750000Y-139250000D03*
D36*
X54655000Y-141747500D03*
%TD*%
D37*
%TO.C,U5*%
X63050000Y-150000000D03*
X63050000Y-149050000D03*
X63050000Y-148100000D03*
X60250000Y-148100000D03*
X60250000Y-150000000D03*
%TD*%
D14*
%TO.C,J8*%
X56750000Y-160750000D03*
D15*
X58750000Y-160750000D03*
X60750000Y-160750000D03*
X62750000Y-160750000D03*
%TD*%
D38*
%TO.C,FL1*%
X88000000Y-140000000D03*
D39*
X88612000Y-140227000D03*
D38*
X89225000Y-140000000D03*
D39*
X88612000Y-139773000D03*
%TD*%
D40*
%TO.C,R31*%
X67692500Y-153542500D03*
X69342500Y-153542500D03*
%TD*%
D19*
%TO.C,H3*%
X36000000Y-160650000D03*
X36702944Y-158952944D03*
X36702944Y-162347056D03*
X38400000Y-158250000D03*
D22*
X38400000Y-160650000D03*
D19*
X38400000Y-163050000D03*
X40097056Y-158952944D03*
X40097056Y-162347056D03*
X40800000Y-160650000D03*
%TD*%
D41*
%TO.C,U1*%
X74425000Y-144687500D03*
X74925000Y-144687500D03*
X75425000Y-144687500D03*
X75925000Y-144687500D03*
X76425000Y-144687500D03*
X76925000Y-144687500D03*
X77425000Y-144687500D03*
X77925000Y-144687500D03*
X78425000Y-144687500D03*
X78925000Y-144687500D03*
X79425000Y-144687500D03*
X79925000Y-144687500D03*
D42*
X80612500Y-144000000D03*
X80612500Y-143500000D03*
X80612500Y-143000000D03*
X80612500Y-142500000D03*
X80612500Y-142000000D03*
X80612500Y-141500000D03*
X80612500Y-141000000D03*
X80612500Y-140500000D03*
X80612500Y-140000000D03*
X80612500Y-139500000D03*
X80612500Y-139000000D03*
X80612500Y-138500000D03*
D41*
X79925000Y-137812500D03*
X79425000Y-137812500D03*
X78925000Y-137812500D03*
X78425000Y-137812500D03*
X77925000Y-137812500D03*
X77425000Y-137812500D03*
X76925000Y-137812500D03*
X76425000Y-137812500D03*
X75925000Y-137812500D03*
X75425000Y-137812500D03*
X74925000Y-137812500D03*
X74425000Y-137812500D03*
D42*
X73737500Y-138500000D03*
X73737500Y-139000000D03*
X73737500Y-139500000D03*
X73737500Y-140000000D03*
X73737500Y-140500000D03*
X73737500Y-141000000D03*
X73737500Y-141500000D03*
X73737500Y-142000000D03*
X73737500Y-142500000D03*
X73737500Y-143000000D03*
X73737500Y-143500000D03*
X73737500Y-144000000D03*
D43*
X77175000Y-141250000D03*
%TD*%
D14*
%TO.C,J5*%
X44750000Y-125000000D03*
D15*
X46750000Y-125000000D03*
X48750000Y-125000000D03*
X50750000Y-125000000D03*
%TD*%
D44*
%TO.C,C38*%
X74225000Y-136000000D03*
X72675000Y-136000000D03*
%TD*%
D30*
%TO.C,C33*%
X60000000Y-144475000D03*
X60000000Y-146025000D03*
%TD*%
D13*
%TO.C,C32*%
X58250000Y-146025000D03*
X58250000Y-144475000D03*
%TD*%
D14*
%TO.C,J7*%
X56750000Y-155200000D03*
D15*
X58750000Y-155200000D03*
X60750000Y-155200000D03*
X62750000Y-155200000D03*
%TD*%
D29*
%TO.C,R25*%
X79250000Y-151600000D03*
X79250000Y-153250000D03*
%TD*%
D30*
%TO.C,C6*%
X72000000Y-143975000D03*
X72000000Y-145525000D03*
%TD*%
D45*
%TO.C,Y2*%
X82750000Y-136350000D03*
X82750000Y-135000000D03*
X81750000Y-135000000D03*
X81750000Y-136350000D03*
%TD*%
D44*
%TO.C,C39*%
X78775000Y-135500000D03*
X77225000Y-135500000D03*
%TD*%
D14*
%TO.C,J6*%
X44750000Y-130750000D03*
D15*
X46750000Y-130750000D03*
X48750000Y-130750000D03*
X50750000Y-130750000D03*
%TD*%
D46*
%TO.C,R30*%
X59500000Y-151750000D03*
X57850000Y-151750000D03*
%TD*%
D30*
%TO.C,C34*%
X49750000Y-141750000D03*
X49750000Y-143300000D03*
%TD*%
D47*
%TO.C,L5*%
X85695000Y-140000000D03*
X84725000Y-140000000D03*
%TD*%
D13*
%TO.C,C7*%
X85000000Y-144750000D03*
X85000000Y-143200000D03*
%TD*%
D31*
%TO.C,D1*%
X74000000Y-153250000D03*
X74000000Y-151675000D03*
%TD*%
D44*
%TO.C,C11*%
X72025000Y-140000000D03*
X70475000Y-140000000D03*
%TD*%
%TO.C,C12*%
X74225000Y-134500000D03*
X72675000Y-134500000D03*
%TD*%
D29*
%TO.C,R27*%
X70250000Y-160500000D03*
X70250000Y-162150000D03*
%TD*%
D48*
%TO.C,D4*%
X64500000Y-132462500D03*
X64500000Y-134037500D03*
%TD*%
D49*
%TO.C,U3*%
X68517500Y-147792500D03*
X68517500Y-148592500D03*
X68517500Y-149392500D03*
X68517500Y-150192500D03*
X68517500Y-150992500D03*
X68517500Y-151792500D03*
D50*
X69517500Y-151792500D03*
D49*
X70517500Y-151792500D03*
X70517500Y-150992500D03*
X70517500Y-150192500D03*
X70517500Y-149392500D03*
X70517500Y-148592500D03*
X70517500Y-147792500D03*
D50*
X69517500Y-147792500D03*
%TD*%
D44*
%TO.C,C37*%
X66275000Y-150750000D03*
X64725000Y-150750000D03*
%TD*%
D51*
%TO.C,X1*%
X75250000Y-147500000D03*
X73850000Y-147500000D03*
%TD*%
D30*
%TO.C,C5*%
X70250000Y-143975000D03*
X70250000Y-145525000D03*
%TD*%
D52*
%TO.C,SW1*%
X60000000Y-126250000D03*
D53*
X64700000Y-126250000D03*
X69400000Y-126250000D03*
%TD*%
D40*
%TO.C,R24*%
X82250000Y-131500000D03*
X83900000Y-131500000D03*
%TD*%
D19*
%TO.C,H4*%
X84600000Y-125900000D03*
X85302944Y-124202944D03*
X85302944Y-127597056D03*
X87000000Y-123500000D03*
D22*
X87000000Y-125900000D03*
D19*
X87000000Y-128300000D03*
X88697056Y-124202944D03*
X88697056Y-127597056D03*
X89400000Y-125900000D03*
%TD*%
D54*
%TO.C,L4*%
X78062500Y-133750000D03*
X75937500Y-133750000D03*
%TD*%
D30*
%TO.C,C36*%
X66750000Y-147500000D03*
X66750000Y-149050000D03*
%TD*%
D31*
%TO.C,D3*%
X61000000Y-134037500D03*
X61000000Y-132462500D03*
%TD*%
D12*
%TO.C,TP9*%
X59250000Y-142250000D03*
%TD*%
D10*
%TO.C,C1*%
X78500000Y-148250000D03*
X79460000Y-148250000D03*
%TD*%
D23*
%TO.C,C13*%
X72750000Y-147960000D03*
X72750000Y-147000000D03*
%TD*%
M02*
