%TF.GenerationSoftware,KiCad,Pcbnew,9.0.1*%
%TF.CreationDate,2025-09-29T11:29:20+02:00*%
%TF.ProjectId,Main_Board,4d61696e-5f42-46f6-9172-642e6b696361,rev?*%
%TF.SameCoordinates,Original*%
%TF.FileFunction,Legend,Top*%
%TF.FilePolarity,Positive*%
%FSLAX46Y46*%
G04 Gerber Fmt 4.6, Leading zero omitted, Abs format (unit mm)*
G04 Created by KiCad (PCBNEW 9.0.1) date 2025-09-29 11:29:20*
%MOMM*%
%LPD*%
G01*
G04 APERTURE LIST*
%ADD10C,0.100000*%
%ADD11C,0.250000*%
%ADD12C,0.075000*%
%ADD13C,0.300000*%
%ADD14C,0.062500*%
%ADD15C,0.150000*%
%ADD16C,0.125000*%
%ADD17C,0.120000*%
%ADD18C,0.200000*%
G04 APERTURE END LIST*
D10*
X85422500Y-149040000D02*
X85057500Y-149380000D01*
X86135000Y-147770000D02*
X85325000Y-147770000D01*
X85810000Y-150790000D02*
X86340000Y-150800000D01*
X58080000Y-133300000D02*
X59720000Y-133290000D01*
X86260000Y-149030000D02*
X85465000Y-149020000D01*
X69870000Y-132120000D02*
X69070000Y-133280000D01*
X85330000Y-147770000D02*
X84930000Y-147640000D01*
X69070000Y-133280000D02*
X67530000Y-133280000D01*
X85810000Y-150790000D02*
X85230000Y-151400000D01*
X57210000Y-132240000D02*
X58080000Y-133300000D01*
D11*
X55947330Y-130864619D02*
X56566377Y-130864619D01*
X56566377Y-130864619D02*
X56233044Y-131245571D01*
X56233044Y-131245571D02*
X56375901Y-131245571D01*
X56375901Y-131245571D02*
X56471139Y-131293190D01*
X56471139Y-131293190D02*
X56518758Y-131340809D01*
X56518758Y-131340809D02*
X56566377Y-131436047D01*
X56566377Y-131436047D02*
X56566377Y-131674142D01*
X56566377Y-131674142D02*
X56518758Y-131769380D01*
X56518758Y-131769380D02*
X56471139Y-131817000D01*
X56471139Y-131817000D02*
X56375901Y-131864619D01*
X56375901Y-131864619D02*
X56090187Y-131864619D01*
X56090187Y-131864619D02*
X55994949Y-131817000D01*
X55994949Y-131817000D02*
X55947330Y-131769380D01*
X56994949Y-131769380D02*
X57042568Y-131817000D01*
X57042568Y-131817000D02*
X56994949Y-131864619D01*
X56994949Y-131864619D02*
X56947330Y-131817000D01*
X56947330Y-131817000D02*
X56994949Y-131769380D01*
X56994949Y-131769380D02*
X56994949Y-131864619D01*
X57375901Y-130864619D02*
X57994948Y-130864619D01*
X57994948Y-130864619D02*
X57661615Y-131245571D01*
X57661615Y-131245571D02*
X57804472Y-131245571D01*
X57804472Y-131245571D02*
X57899710Y-131293190D01*
X57899710Y-131293190D02*
X57947329Y-131340809D01*
X57947329Y-131340809D02*
X57994948Y-131436047D01*
X57994948Y-131436047D02*
X57994948Y-131674142D01*
X57994948Y-131674142D02*
X57947329Y-131769380D01*
X57947329Y-131769380D02*
X57899710Y-131817000D01*
X57899710Y-131817000D02*
X57804472Y-131864619D01*
X57804472Y-131864619D02*
X57518758Y-131864619D01*
X57518758Y-131864619D02*
X57423520Y-131817000D01*
X57423520Y-131817000D02*
X57375901Y-131769380D01*
X58280663Y-130864619D02*
X58613996Y-131864619D01*
X58613996Y-131864619D02*
X58947329Y-130864619D01*
D10*
X73602931Y-150573609D02*
X73364836Y-150573609D01*
X73364836Y-150573609D02*
X73364836Y-150073609D01*
X73769598Y-150311704D02*
X73936265Y-150311704D01*
X74007693Y-150573609D02*
X73769598Y-150573609D01*
X73769598Y-150573609D02*
X73769598Y-150073609D01*
X73769598Y-150073609D02*
X74007693Y-150073609D01*
X74221979Y-150573609D02*
X74221979Y-150073609D01*
X74221979Y-150073609D02*
X74341027Y-150073609D01*
X74341027Y-150073609D02*
X74412455Y-150097419D01*
X74412455Y-150097419D02*
X74460074Y-150145038D01*
X74460074Y-150145038D02*
X74483884Y-150192657D01*
X74483884Y-150192657D02*
X74507693Y-150287895D01*
X74507693Y-150287895D02*
X74507693Y-150359323D01*
X74507693Y-150359323D02*
X74483884Y-150454561D01*
X74483884Y-150454561D02*
X74460074Y-150502180D01*
X74460074Y-150502180D02*
X74412455Y-150549800D01*
X74412455Y-150549800D02*
X74341027Y-150573609D01*
X74341027Y-150573609D02*
X74221979Y-150573609D01*
X75102931Y-150573609D02*
X75102931Y-150073609D01*
X75102931Y-150073609D02*
X75221979Y-150073609D01*
X75221979Y-150073609D02*
X75293407Y-150097419D01*
X75293407Y-150097419D02*
X75341026Y-150145038D01*
X75341026Y-150145038D02*
X75364836Y-150192657D01*
X75364836Y-150192657D02*
X75388645Y-150287895D01*
X75388645Y-150287895D02*
X75388645Y-150359323D01*
X75388645Y-150359323D02*
X75364836Y-150454561D01*
X75364836Y-150454561D02*
X75341026Y-150502180D01*
X75341026Y-150502180D02*
X75293407Y-150549800D01*
X75293407Y-150549800D02*
X75221979Y-150573609D01*
X75221979Y-150573609D02*
X75102931Y-150573609D01*
X75626741Y-150073609D02*
X75579122Y-150168847D01*
X75841026Y-150311704D02*
X76007693Y-150311704D01*
X76079121Y-150573609D02*
X75841026Y-150573609D01*
X75841026Y-150573609D02*
X75841026Y-150073609D01*
X75841026Y-150073609D02*
X76079121Y-150073609D01*
X76007693Y-149883133D02*
X75936264Y-149954561D01*
X76221979Y-150073609D02*
X76507693Y-150073609D01*
X76364836Y-150573609D02*
X76364836Y-150073609D01*
X76650550Y-150430752D02*
X76888645Y-150430752D01*
X76602931Y-150573609D02*
X76769597Y-150073609D01*
X76769597Y-150073609D02*
X76936264Y-150573609D01*
X77031502Y-150073609D02*
X77317216Y-150073609D01*
X77174359Y-150573609D02*
X77174359Y-150073609D01*
D12*
X86635238Y-134451096D02*
X86616190Y-134470144D01*
X86616190Y-134470144D02*
X86559048Y-134489191D01*
X86559048Y-134489191D02*
X86520952Y-134489191D01*
X86520952Y-134489191D02*
X86463809Y-134470144D01*
X86463809Y-134470144D02*
X86425714Y-134432048D01*
X86425714Y-134432048D02*
X86406667Y-134393953D01*
X86406667Y-134393953D02*
X86387619Y-134317763D01*
X86387619Y-134317763D02*
X86387619Y-134260620D01*
X86387619Y-134260620D02*
X86406667Y-134184429D01*
X86406667Y-134184429D02*
X86425714Y-134146334D01*
X86425714Y-134146334D02*
X86463809Y-134108239D01*
X86463809Y-134108239D02*
X86520952Y-134089191D01*
X86520952Y-134089191D02*
X86559048Y-134089191D01*
X86559048Y-134089191D02*
X86616190Y-134108239D01*
X86616190Y-134108239D02*
X86635238Y-134127286D01*
X86806667Y-134489191D02*
X86806667Y-134089191D01*
X86978095Y-134489191D02*
X86978095Y-134279667D01*
X86978095Y-134279667D02*
X86959048Y-134241572D01*
X86959048Y-134241572D02*
X86920952Y-134222524D01*
X86920952Y-134222524D02*
X86863809Y-134222524D01*
X86863809Y-134222524D02*
X86825714Y-134241572D01*
X86825714Y-134241572D02*
X86806667Y-134260620D01*
X87340000Y-134489191D02*
X87340000Y-134279667D01*
X87340000Y-134279667D02*
X87320953Y-134241572D01*
X87320953Y-134241572D02*
X87282857Y-134222524D01*
X87282857Y-134222524D02*
X87206667Y-134222524D01*
X87206667Y-134222524D02*
X87168572Y-134241572D01*
X87340000Y-134470144D02*
X87301905Y-134489191D01*
X87301905Y-134489191D02*
X87206667Y-134489191D01*
X87206667Y-134489191D02*
X87168572Y-134470144D01*
X87168572Y-134470144D02*
X87149524Y-134432048D01*
X87149524Y-134432048D02*
X87149524Y-134393953D01*
X87149524Y-134393953D02*
X87168572Y-134355858D01*
X87168572Y-134355858D02*
X87206667Y-134336810D01*
X87206667Y-134336810D02*
X87301905Y-134336810D01*
X87301905Y-134336810D02*
X87340000Y-134317763D01*
X87473334Y-134222524D02*
X87625715Y-134222524D01*
X87530477Y-134089191D02*
X87530477Y-134432048D01*
X87530477Y-134432048D02*
X87549524Y-134470144D01*
X87549524Y-134470144D02*
X87587619Y-134489191D01*
X87587619Y-134489191D02*
X87625715Y-134489191D01*
X86778094Y-135133169D02*
X86739999Y-135114122D01*
X86739999Y-135114122D02*
X86720952Y-135095074D01*
X86720952Y-135095074D02*
X86701904Y-135056979D01*
X86701904Y-135056979D02*
X86701904Y-134942693D01*
X86701904Y-134942693D02*
X86720952Y-134904598D01*
X86720952Y-134904598D02*
X86739999Y-134885550D01*
X86739999Y-134885550D02*
X86778094Y-134866502D01*
X86778094Y-134866502D02*
X86835237Y-134866502D01*
X86835237Y-134866502D02*
X86873333Y-134885550D01*
X86873333Y-134885550D02*
X86892380Y-134904598D01*
X86892380Y-134904598D02*
X86911428Y-134942693D01*
X86911428Y-134942693D02*
X86911428Y-135056979D01*
X86911428Y-135056979D02*
X86892380Y-135095074D01*
X86892380Y-135095074D02*
X86873333Y-135114122D01*
X86873333Y-135114122D02*
X86835237Y-135133169D01*
X86835237Y-135133169D02*
X86778094Y-135133169D01*
X87254285Y-134866502D02*
X87254285Y-135133169D01*
X87082857Y-134866502D02*
X87082857Y-135076026D01*
X87082857Y-135076026D02*
X87101904Y-135114122D01*
X87101904Y-135114122D02*
X87139999Y-135133169D01*
X87139999Y-135133169D02*
X87197142Y-135133169D01*
X87197142Y-135133169D02*
X87235238Y-135114122D01*
X87235238Y-135114122D02*
X87254285Y-135095074D01*
X86282857Y-135758100D02*
X86340000Y-135777147D01*
X86340000Y-135777147D02*
X86435238Y-135777147D01*
X86435238Y-135777147D02*
X86473333Y-135758100D01*
X86473333Y-135758100D02*
X86492381Y-135739052D01*
X86492381Y-135739052D02*
X86511428Y-135700957D01*
X86511428Y-135700957D02*
X86511428Y-135662861D01*
X86511428Y-135662861D02*
X86492381Y-135624766D01*
X86492381Y-135624766D02*
X86473333Y-135605719D01*
X86473333Y-135605719D02*
X86435238Y-135586671D01*
X86435238Y-135586671D02*
X86359047Y-135567623D01*
X86359047Y-135567623D02*
X86320952Y-135548576D01*
X86320952Y-135548576D02*
X86301905Y-135529528D01*
X86301905Y-135529528D02*
X86282857Y-135491433D01*
X86282857Y-135491433D02*
X86282857Y-135453338D01*
X86282857Y-135453338D02*
X86301905Y-135415242D01*
X86301905Y-135415242D02*
X86320952Y-135396195D01*
X86320952Y-135396195D02*
X86359047Y-135377147D01*
X86359047Y-135377147D02*
X86454286Y-135377147D01*
X86454286Y-135377147D02*
X86511428Y-135396195D01*
X86739999Y-135777147D02*
X86701904Y-135758100D01*
X86701904Y-135758100D02*
X86682857Y-135739052D01*
X86682857Y-135739052D02*
X86663809Y-135700957D01*
X86663809Y-135700957D02*
X86663809Y-135586671D01*
X86663809Y-135586671D02*
X86682857Y-135548576D01*
X86682857Y-135548576D02*
X86701904Y-135529528D01*
X86701904Y-135529528D02*
X86739999Y-135510480D01*
X86739999Y-135510480D02*
X86797142Y-135510480D01*
X86797142Y-135510480D02*
X86835238Y-135529528D01*
X86835238Y-135529528D02*
X86854285Y-135548576D01*
X86854285Y-135548576D02*
X86873333Y-135586671D01*
X86873333Y-135586671D02*
X86873333Y-135700957D01*
X86873333Y-135700957D02*
X86854285Y-135739052D01*
X86854285Y-135739052D02*
X86835238Y-135758100D01*
X86835238Y-135758100D02*
X86797142Y-135777147D01*
X86797142Y-135777147D02*
X86739999Y-135777147D01*
X87216190Y-135510480D02*
X87216190Y-135777147D01*
X87044762Y-135510480D02*
X87044762Y-135720004D01*
X87044762Y-135720004D02*
X87063809Y-135758100D01*
X87063809Y-135758100D02*
X87101904Y-135777147D01*
X87101904Y-135777147D02*
X87159047Y-135777147D01*
X87159047Y-135777147D02*
X87197143Y-135758100D01*
X87197143Y-135758100D02*
X87216190Y-135739052D01*
X87406667Y-135777147D02*
X87406667Y-135510480D01*
X87406667Y-135586671D02*
X87425714Y-135548576D01*
X87425714Y-135548576D02*
X87444762Y-135529528D01*
X87444762Y-135529528D02*
X87482857Y-135510480D01*
X87482857Y-135510480D02*
X87520952Y-135510480D01*
X87654286Y-135777147D02*
X87654286Y-135510480D01*
X87654286Y-135377147D02*
X87635238Y-135396195D01*
X87635238Y-135396195D02*
X87654286Y-135415242D01*
X87654286Y-135415242D02*
X87673333Y-135396195D01*
X87673333Y-135396195D02*
X87654286Y-135377147D01*
X87654286Y-135377147D02*
X87654286Y-135415242D01*
X87825714Y-135758100D02*
X87863809Y-135777147D01*
X87863809Y-135777147D02*
X87940000Y-135777147D01*
X87940000Y-135777147D02*
X87978095Y-135758100D01*
X87978095Y-135758100D02*
X87997143Y-135720004D01*
X87997143Y-135720004D02*
X87997143Y-135700957D01*
X87997143Y-135700957D02*
X87978095Y-135662861D01*
X87978095Y-135662861D02*
X87940000Y-135643814D01*
X87940000Y-135643814D02*
X87882857Y-135643814D01*
X87882857Y-135643814D02*
X87844762Y-135624766D01*
X87844762Y-135624766D02*
X87825714Y-135586671D01*
X87825714Y-135586671D02*
X87825714Y-135567623D01*
X87825714Y-135567623D02*
X87844762Y-135529528D01*
X87844762Y-135529528D02*
X87882857Y-135510480D01*
X87882857Y-135510480D02*
X87940000Y-135510480D01*
X87940000Y-135510480D02*
X87978095Y-135529528D01*
D13*
X153579171Y-50220225D02*
X153579171Y-51077368D01*
X152079171Y-50648796D02*
X153579171Y-50648796D01*
X153579171Y-51863082D02*
X153579171Y-52148796D01*
X153579171Y-52148796D02*
X153507742Y-52291653D01*
X153507742Y-52291653D02*
X153364885Y-52434510D01*
X153364885Y-52434510D02*
X153079171Y-52505939D01*
X153079171Y-52505939D02*
X152579171Y-52505939D01*
X152579171Y-52505939D02*
X152293457Y-52434510D01*
X152293457Y-52434510D02*
X152150600Y-52291653D01*
X152150600Y-52291653D02*
X152079171Y-52148796D01*
X152079171Y-52148796D02*
X152079171Y-51863082D01*
X152079171Y-51863082D02*
X152150600Y-51720225D01*
X152150600Y-51720225D02*
X152293457Y-51577367D01*
X152293457Y-51577367D02*
X152579171Y-51505939D01*
X152579171Y-51505939D02*
X153079171Y-51505939D01*
X153079171Y-51505939D02*
X153364885Y-51577367D01*
X153364885Y-51577367D02*
X153507742Y-51720225D01*
X153507742Y-51720225D02*
X153579171Y-51863082D01*
X152864885Y-53648796D02*
X152864885Y-53148796D01*
X152079171Y-53148796D02*
X153579171Y-53148796D01*
X153579171Y-53148796D02*
X153579171Y-53863082D01*
X153579171Y-54291653D02*
X153579171Y-55220225D01*
X153579171Y-55220225D02*
X153007742Y-54720225D01*
X153007742Y-54720225D02*
X153007742Y-54934510D01*
X153007742Y-54934510D02*
X152936314Y-55077368D01*
X152936314Y-55077368D02*
X152864885Y-55148796D01*
X152864885Y-55148796D02*
X152722028Y-55220225D01*
X152722028Y-55220225D02*
X152364885Y-55220225D01*
X152364885Y-55220225D02*
X152222028Y-55148796D01*
X152222028Y-55148796D02*
X152150600Y-55077368D01*
X152150600Y-55077368D02*
X152079171Y-54934510D01*
X152079171Y-54934510D02*
X152079171Y-54505939D01*
X152079171Y-54505939D02*
X152150600Y-54363082D01*
X152150600Y-54363082D02*
X152222028Y-54291653D01*
D10*
X75808782Y-131174385D02*
X75558782Y-130424385D01*
X75558782Y-130424385D02*
X75308782Y-131174385D01*
X75237354Y-130352957D02*
X74665925Y-130352957D01*
X74237353Y-130817242D02*
X74130210Y-130781528D01*
X74130210Y-130781528D02*
X74094496Y-130745814D01*
X74094496Y-130745814D02*
X74058782Y-130674385D01*
X74058782Y-130674385D02*
X74058782Y-130567242D01*
X74058782Y-130567242D02*
X74094496Y-130495814D01*
X74094496Y-130495814D02*
X74130210Y-130460100D01*
X74130210Y-130460100D02*
X74201639Y-130424385D01*
X74201639Y-130424385D02*
X74487353Y-130424385D01*
X74487353Y-130424385D02*
X74487353Y-131174385D01*
X74487353Y-131174385D02*
X74237353Y-131174385D01*
X74237353Y-131174385D02*
X74165925Y-131138671D01*
X74165925Y-131138671D02*
X74130210Y-131102957D01*
X74130210Y-131102957D02*
X74094496Y-131031528D01*
X74094496Y-131031528D02*
X74094496Y-130960100D01*
X74094496Y-130960100D02*
X74130210Y-130888671D01*
X74130210Y-130888671D02*
X74165925Y-130852957D01*
X74165925Y-130852957D02*
X74237353Y-130817242D01*
X74237353Y-130817242D02*
X74487353Y-130817242D01*
X73773067Y-130638671D02*
X73415925Y-130638671D01*
X73844496Y-130424385D02*
X73594496Y-131174385D01*
X73594496Y-131174385D02*
X73344496Y-130424385D01*
X73201639Y-131174385D02*
X72773068Y-131174385D01*
X72987353Y-130424385D02*
X72987353Y-131174385D01*
D14*
X53881739Y-134812202D02*
X53634120Y-134812202D01*
X53634120Y-134812202D02*
X53767453Y-134659821D01*
X53767453Y-134659821D02*
X53710310Y-134659821D01*
X53710310Y-134659821D02*
X53672215Y-134640773D01*
X53672215Y-134640773D02*
X53653167Y-134621726D01*
X53653167Y-134621726D02*
X53634120Y-134583630D01*
X53634120Y-134583630D02*
X53634120Y-134488392D01*
X53634120Y-134488392D02*
X53653167Y-134450297D01*
X53653167Y-134450297D02*
X53672215Y-134431250D01*
X53672215Y-134431250D02*
X53710310Y-134412202D01*
X53710310Y-134412202D02*
X53824596Y-134412202D01*
X53824596Y-134412202D02*
X53862691Y-134431250D01*
X53862691Y-134431250D02*
X53881739Y-134450297D01*
X53462691Y-134450297D02*
X53443644Y-134431250D01*
X53443644Y-134431250D02*
X53462691Y-134412202D01*
X53462691Y-134412202D02*
X53481739Y-134431250D01*
X53481739Y-134431250D02*
X53462691Y-134450297D01*
X53462691Y-134450297D02*
X53462691Y-134412202D01*
X53310311Y-134812202D02*
X53062692Y-134812202D01*
X53062692Y-134812202D02*
X53196025Y-134659821D01*
X53196025Y-134659821D02*
X53138882Y-134659821D01*
X53138882Y-134659821D02*
X53100787Y-134640773D01*
X53100787Y-134640773D02*
X53081739Y-134621726D01*
X53081739Y-134621726D02*
X53062692Y-134583630D01*
X53062692Y-134583630D02*
X53062692Y-134488392D01*
X53062692Y-134488392D02*
X53081739Y-134450297D01*
X53081739Y-134450297D02*
X53100787Y-134431250D01*
X53100787Y-134431250D02*
X53138882Y-134412202D01*
X53138882Y-134412202D02*
X53253168Y-134412202D01*
X53253168Y-134412202D02*
X53291263Y-134431250D01*
X53291263Y-134431250D02*
X53310311Y-134450297D01*
X52891263Y-134564583D02*
X52586502Y-134564583D01*
X52186502Y-134793154D02*
X52224597Y-134812202D01*
X52224597Y-134812202D02*
X52281740Y-134812202D01*
X52281740Y-134812202D02*
X52338883Y-134793154D01*
X52338883Y-134793154D02*
X52376978Y-134755059D01*
X52376978Y-134755059D02*
X52396025Y-134716964D01*
X52396025Y-134716964D02*
X52415073Y-134640773D01*
X52415073Y-134640773D02*
X52415073Y-134583630D01*
X52415073Y-134583630D02*
X52396025Y-134507440D01*
X52396025Y-134507440D02*
X52376978Y-134469345D01*
X52376978Y-134469345D02*
X52338883Y-134431250D01*
X52338883Y-134431250D02*
X52281740Y-134412202D01*
X52281740Y-134412202D02*
X52243644Y-134412202D01*
X52243644Y-134412202D02*
X52186502Y-134431250D01*
X52186502Y-134431250D02*
X52167454Y-134450297D01*
X52167454Y-134450297D02*
X52167454Y-134583630D01*
X52167454Y-134583630D02*
X52243644Y-134583630D01*
X51996025Y-134412202D02*
X51996025Y-134812202D01*
X51996025Y-134812202D02*
X51767454Y-134412202D01*
X51767454Y-134412202D02*
X51767454Y-134812202D01*
X51576977Y-134412202D02*
X51576977Y-134812202D01*
X51576977Y-134812202D02*
X51481739Y-134812202D01*
X51481739Y-134812202D02*
X51424596Y-134793154D01*
X51424596Y-134793154D02*
X51386501Y-134755059D01*
X51386501Y-134755059D02*
X51367454Y-134716964D01*
X51367454Y-134716964D02*
X51348406Y-134640773D01*
X51348406Y-134640773D02*
X51348406Y-134583630D01*
X51348406Y-134583630D02*
X51367454Y-134507440D01*
X51367454Y-134507440D02*
X51386501Y-134469345D01*
X51386501Y-134469345D02*
X51424596Y-134431250D01*
X51424596Y-134431250D02*
X51481739Y-134412202D01*
X51481739Y-134412202D02*
X51576977Y-134412202D01*
X51176977Y-134564583D02*
X50872216Y-134564583D01*
X50700787Y-134431250D02*
X50643644Y-134412202D01*
X50643644Y-134412202D02*
X50548406Y-134412202D01*
X50548406Y-134412202D02*
X50510311Y-134431250D01*
X50510311Y-134431250D02*
X50491263Y-134450297D01*
X50491263Y-134450297D02*
X50472216Y-134488392D01*
X50472216Y-134488392D02*
X50472216Y-134526488D01*
X50472216Y-134526488D02*
X50491263Y-134564583D01*
X50491263Y-134564583D02*
X50510311Y-134583630D01*
X50510311Y-134583630D02*
X50548406Y-134602678D01*
X50548406Y-134602678D02*
X50624597Y-134621726D01*
X50624597Y-134621726D02*
X50662692Y-134640773D01*
X50662692Y-134640773D02*
X50681739Y-134659821D01*
X50681739Y-134659821D02*
X50700787Y-134697916D01*
X50700787Y-134697916D02*
X50700787Y-134736011D01*
X50700787Y-134736011D02*
X50681739Y-134774107D01*
X50681739Y-134774107D02*
X50662692Y-134793154D01*
X50662692Y-134793154D02*
X50624597Y-134812202D01*
X50624597Y-134812202D02*
X50529358Y-134812202D01*
X50529358Y-134812202D02*
X50472216Y-134793154D01*
X50072216Y-134450297D02*
X50091264Y-134431250D01*
X50091264Y-134431250D02*
X50148406Y-134412202D01*
X50148406Y-134412202D02*
X50186502Y-134412202D01*
X50186502Y-134412202D02*
X50243645Y-134431250D01*
X50243645Y-134431250D02*
X50281740Y-134469345D01*
X50281740Y-134469345D02*
X50300787Y-134507440D01*
X50300787Y-134507440D02*
X50319835Y-134583630D01*
X50319835Y-134583630D02*
X50319835Y-134640773D01*
X50319835Y-134640773D02*
X50300787Y-134716964D01*
X50300787Y-134716964D02*
X50281740Y-134755059D01*
X50281740Y-134755059D02*
X50243645Y-134793154D01*
X50243645Y-134793154D02*
X50186502Y-134812202D01*
X50186502Y-134812202D02*
X50148406Y-134812202D01*
X50148406Y-134812202D02*
X50091264Y-134793154D01*
X50091264Y-134793154D02*
X50072216Y-134774107D01*
X49710311Y-134412202D02*
X49900787Y-134412202D01*
X49900787Y-134412202D02*
X49900787Y-134812202D01*
X49576977Y-134564583D02*
X49272216Y-134564583D01*
X49100787Y-134431250D02*
X49043644Y-134412202D01*
X49043644Y-134412202D02*
X48948406Y-134412202D01*
X48948406Y-134412202D02*
X48910311Y-134431250D01*
X48910311Y-134431250D02*
X48891263Y-134450297D01*
X48891263Y-134450297D02*
X48872216Y-134488392D01*
X48872216Y-134488392D02*
X48872216Y-134526488D01*
X48872216Y-134526488D02*
X48891263Y-134564583D01*
X48891263Y-134564583D02*
X48910311Y-134583630D01*
X48910311Y-134583630D02*
X48948406Y-134602678D01*
X48948406Y-134602678D02*
X49024597Y-134621726D01*
X49024597Y-134621726D02*
X49062692Y-134640773D01*
X49062692Y-134640773D02*
X49081739Y-134659821D01*
X49081739Y-134659821D02*
X49100787Y-134697916D01*
X49100787Y-134697916D02*
X49100787Y-134736011D01*
X49100787Y-134736011D02*
X49081739Y-134774107D01*
X49081739Y-134774107D02*
X49062692Y-134793154D01*
X49062692Y-134793154D02*
X49024597Y-134812202D01*
X49024597Y-134812202D02*
X48929358Y-134812202D01*
X48929358Y-134812202D02*
X48872216Y-134793154D01*
X48700787Y-134412202D02*
X48700787Y-134812202D01*
X48700787Y-134812202D02*
X48605549Y-134812202D01*
X48605549Y-134812202D02*
X48548406Y-134793154D01*
X48548406Y-134793154D02*
X48510311Y-134755059D01*
X48510311Y-134755059D02*
X48491264Y-134716964D01*
X48491264Y-134716964D02*
X48472216Y-134640773D01*
X48472216Y-134640773D02*
X48472216Y-134583630D01*
X48472216Y-134583630D02*
X48491264Y-134507440D01*
X48491264Y-134507440D02*
X48510311Y-134469345D01*
X48510311Y-134469345D02*
X48548406Y-134431250D01*
X48548406Y-134431250D02*
X48605549Y-134412202D01*
X48605549Y-134412202D02*
X48700787Y-134412202D01*
X48319835Y-134526488D02*
X48129359Y-134526488D01*
X48357930Y-134412202D02*
X48224597Y-134812202D01*
X48224597Y-134812202D02*
X48091264Y-134412202D01*
D13*
X153479171Y-56210225D02*
X153479171Y-57067368D01*
X151979171Y-56638796D02*
X153479171Y-56638796D01*
X153479171Y-57853082D02*
X153479171Y-58138796D01*
X153479171Y-58138796D02*
X153407742Y-58281653D01*
X153407742Y-58281653D02*
X153264885Y-58424510D01*
X153264885Y-58424510D02*
X152979171Y-58495939D01*
X152979171Y-58495939D02*
X152479171Y-58495939D01*
X152479171Y-58495939D02*
X152193457Y-58424510D01*
X152193457Y-58424510D02*
X152050600Y-58281653D01*
X152050600Y-58281653D02*
X151979171Y-58138796D01*
X151979171Y-58138796D02*
X151979171Y-57853082D01*
X151979171Y-57853082D02*
X152050600Y-57710225D01*
X152050600Y-57710225D02*
X152193457Y-57567367D01*
X152193457Y-57567367D02*
X152479171Y-57495939D01*
X152479171Y-57495939D02*
X152979171Y-57495939D01*
X152979171Y-57495939D02*
X153264885Y-57567367D01*
X153264885Y-57567367D02*
X153407742Y-57710225D01*
X153407742Y-57710225D02*
X153479171Y-57853082D01*
X152764885Y-59638796D02*
X152764885Y-59138796D01*
X151979171Y-59138796D02*
X153479171Y-59138796D01*
X153479171Y-59138796D02*
X153479171Y-59853082D01*
X152979171Y-61067368D02*
X151979171Y-61067368D01*
X153550600Y-60710225D02*
X152479171Y-60353082D01*
X152479171Y-60353082D02*
X152479171Y-61281653D01*
D10*
X81247217Y-133063609D02*
X81556741Y-133063609D01*
X81556741Y-133063609D02*
X81390074Y-133254085D01*
X81390074Y-133254085D02*
X81461503Y-133254085D01*
X81461503Y-133254085D02*
X81509122Y-133277895D01*
X81509122Y-133277895D02*
X81532931Y-133301704D01*
X81532931Y-133301704D02*
X81556741Y-133349323D01*
X81556741Y-133349323D02*
X81556741Y-133468371D01*
X81556741Y-133468371D02*
X81532931Y-133515990D01*
X81532931Y-133515990D02*
X81509122Y-133539800D01*
X81509122Y-133539800D02*
X81461503Y-133563609D01*
X81461503Y-133563609D02*
X81318646Y-133563609D01*
X81318646Y-133563609D02*
X81271027Y-133539800D01*
X81271027Y-133539800D02*
X81247217Y-133515990D01*
X81747217Y-133111228D02*
X81771026Y-133087419D01*
X81771026Y-133087419D02*
X81818645Y-133063609D01*
X81818645Y-133063609D02*
X81937693Y-133063609D01*
X81937693Y-133063609D02*
X81985312Y-133087419D01*
X81985312Y-133087419D02*
X82009121Y-133111228D01*
X82009121Y-133111228D02*
X82032931Y-133158847D01*
X82032931Y-133158847D02*
X82032931Y-133206466D01*
X82032931Y-133206466D02*
X82009121Y-133277895D01*
X82009121Y-133277895D02*
X81723407Y-133563609D01*
X81723407Y-133563609D02*
X82032931Y-133563609D01*
X82247216Y-133563609D02*
X82247216Y-133063609D01*
X82247216Y-133063609D02*
X82413883Y-133420752D01*
X82413883Y-133420752D02*
X82580549Y-133063609D01*
X82580549Y-133063609D02*
X82580549Y-133563609D01*
X82818645Y-133563609D02*
X82818645Y-133063609D01*
X82818645Y-133301704D02*
X83104359Y-133301704D01*
X83104359Y-133563609D02*
X83104359Y-133063609D01*
X83294836Y-133230276D02*
X83556741Y-133230276D01*
X83556741Y-133230276D02*
X83294836Y-133563609D01*
X83294836Y-133563609D02*
X83556741Y-133563609D01*
X83514836Y-156443609D02*
X83514836Y-155943609D01*
X83514836Y-155943609D02*
X83681503Y-156300752D01*
X83681503Y-156300752D02*
X83848169Y-155943609D01*
X83848169Y-155943609D02*
X83848169Y-156443609D01*
X84086265Y-156253133D02*
X84467218Y-156253133D01*
X84967218Y-155967419D02*
X84919599Y-155943609D01*
X84919599Y-155943609D02*
X84848170Y-155943609D01*
X84848170Y-155943609D02*
X84776742Y-155967419D01*
X84776742Y-155967419D02*
X84729123Y-156015038D01*
X84729123Y-156015038D02*
X84705313Y-156062657D01*
X84705313Y-156062657D02*
X84681504Y-156157895D01*
X84681504Y-156157895D02*
X84681504Y-156229323D01*
X84681504Y-156229323D02*
X84705313Y-156324561D01*
X84705313Y-156324561D02*
X84729123Y-156372180D01*
X84729123Y-156372180D02*
X84776742Y-156419800D01*
X84776742Y-156419800D02*
X84848170Y-156443609D01*
X84848170Y-156443609D02*
X84895789Y-156443609D01*
X84895789Y-156443609D02*
X84967218Y-156419800D01*
X84967218Y-156419800D02*
X84991027Y-156395990D01*
X84991027Y-156395990D02*
X84991027Y-156229323D01*
X84991027Y-156229323D02*
X84895789Y-156229323D01*
X85205313Y-156443609D02*
X85205313Y-155943609D01*
X85205313Y-155943609D02*
X85491027Y-156443609D01*
X85491027Y-156443609D02*
X85491027Y-155943609D01*
X85729123Y-156443609D02*
X85729123Y-155943609D01*
X85729123Y-155943609D02*
X85848171Y-155943609D01*
X85848171Y-155943609D02*
X85919599Y-155967419D01*
X85919599Y-155967419D02*
X85967218Y-156015038D01*
X85967218Y-156015038D02*
X85991028Y-156062657D01*
X85991028Y-156062657D02*
X86014837Y-156157895D01*
X86014837Y-156157895D02*
X86014837Y-156229323D01*
X86014837Y-156229323D02*
X85991028Y-156324561D01*
X85991028Y-156324561D02*
X85967218Y-156372180D01*
X85967218Y-156372180D02*
X85919599Y-156419800D01*
X85919599Y-156419800D02*
X85848171Y-156443609D01*
X85848171Y-156443609D02*
X85729123Y-156443609D01*
X86229123Y-156253133D02*
X86610076Y-156253133D01*
X87133885Y-156443609D02*
X86967219Y-156205514D01*
X86848171Y-156443609D02*
X86848171Y-155943609D01*
X86848171Y-155943609D02*
X87038647Y-155943609D01*
X87038647Y-155943609D02*
X87086266Y-155967419D01*
X87086266Y-155967419D02*
X87110076Y-155991228D01*
X87110076Y-155991228D02*
X87133885Y-156038847D01*
X87133885Y-156038847D02*
X87133885Y-156110276D01*
X87133885Y-156110276D02*
X87110076Y-156157895D01*
X87110076Y-156157895D02*
X87086266Y-156181704D01*
X87086266Y-156181704D02*
X87038647Y-156205514D01*
X87038647Y-156205514D02*
X86848171Y-156205514D01*
X87300552Y-155943609D02*
X87633885Y-156443609D01*
X87633885Y-155943609D02*
X87300552Y-156443609D01*
X87824361Y-156253133D02*
X88205314Y-156253133D01*
X88681504Y-155943609D02*
X88443409Y-155943609D01*
X88443409Y-155943609D02*
X88419600Y-156181704D01*
X88419600Y-156181704D02*
X88443409Y-156157895D01*
X88443409Y-156157895D02*
X88491028Y-156134085D01*
X88491028Y-156134085D02*
X88610076Y-156134085D01*
X88610076Y-156134085D02*
X88657695Y-156157895D01*
X88657695Y-156157895D02*
X88681504Y-156181704D01*
X88681504Y-156181704D02*
X88705314Y-156229323D01*
X88705314Y-156229323D02*
X88705314Y-156348371D01*
X88705314Y-156348371D02*
X88681504Y-156395990D01*
X88681504Y-156395990D02*
X88657695Y-156419800D01*
X88657695Y-156419800D02*
X88610076Y-156443609D01*
X88610076Y-156443609D02*
X88491028Y-156443609D01*
X88491028Y-156443609D02*
X88443409Y-156419800D01*
X88443409Y-156419800D02*
X88419600Y-156395990D01*
X88848171Y-155943609D02*
X89014837Y-156443609D01*
X89014837Y-156443609D02*
X89181504Y-155943609D01*
D11*
X69738758Y-130834619D02*
X69262568Y-130834619D01*
X69262568Y-130834619D02*
X69214949Y-131310809D01*
X69214949Y-131310809D02*
X69262568Y-131263190D01*
X69262568Y-131263190D02*
X69357806Y-131215571D01*
X69357806Y-131215571D02*
X69595901Y-131215571D01*
X69595901Y-131215571D02*
X69691139Y-131263190D01*
X69691139Y-131263190D02*
X69738758Y-131310809D01*
X69738758Y-131310809D02*
X69786377Y-131406047D01*
X69786377Y-131406047D02*
X69786377Y-131644142D01*
X69786377Y-131644142D02*
X69738758Y-131739380D01*
X69738758Y-131739380D02*
X69691139Y-131787000D01*
X69691139Y-131787000D02*
X69595901Y-131834619D01*
X69595901Y-131834619D02*
X69357806Y-131834619D01*
X69357806Y-131834619D02*
X69262568Y-131787000D01*
X69262568Y-131787000D02*
X69214949Y-131739380D01*
X70072092Y-130834619D02*
X70405425Y-131834619D01*
X70405425Y-131834619D02*
X70738758Y-130834619D01*
D10*
X87051027Y-152465847D02*
X87051027Y-152065847D01*
X87051027Y-152065847D02*
X87203408Y-152065847D01*
X87203408Y-152065847D02*
X87241503Y-152084895D01*
X87241503Y-152084895D02*
X87260550Y-152103942D01*
X87260550Y-152103942D02*
X87279598Y-152142038D01*
X87279598Y-152142038D02*
X87279598Y-152199180D01*
X87279598Y-152199180D02*
X87260550Y-152237276D01*
X87260550Y-152237276D02*
X87241503Y-152256323D01*
X87241503Y-152256323D02*
X87203408Y-152275371D01*
X87203408Y-152275371D02*
X87051027Y-152275371D01*
X87412931Y-152065847D02*
X87508169Y-152465847D01*
X87508169Y-152465847D02*
X87584360Y-152180133D01*
X87584360Y-152180133D02*
X87660550Y-152465847D01*
X87660550Y-152465847D02*
X87755789Y-152065847D01*
X87908170Y-152465847D02*
X87908170Y-152065847D01*
X87908170Y-152065847D02*
X88041503Y-152351561D01*
X88041503Y-152351561D02*
X88174836Y-152065847D01*
X88174836Y-152065847D02*
X88174836Y-152465847D01*
X88270075Y-152503942D02*
X88574836Y-152503942D01*
X88879598Y-152465847D02*
X88651027Y-152465847D01*
X88765313Y-152465847D02*
X88765313Y-152065847D01*
X88765313Y-152065847D02*
X88727217Y-152122990D01*
X88727217Y-152122990D02*
X88689122Y-152161085D01*
X88689122Y-152161085D02*
X88651027Y-152180133D01*
X88955789Y-152503942D02*
X89260550Y-152503942D01*
X89355789Y-152465847D02*
X89355789Y-152065847D01*
X89355789Y-152065847D02*
X89489122Y-152351561D01*
X89489122Y-152351561D02*
X89622455Y-152065847D01*
X89622455Y-152065847D02*
X89622455Y-152465847D01*
X90022455Y-152465847D02*
X89793884Y-152465847D01*
X89908170Y-152465847D02*
X89908170Y-152065847D01*
X89908170Y-152065847D02*
X89870074Y-152122990D01*
X89870074Y-152122990D02*
X89831979Y-152161085D01*
X89831979Y-152161085D02*
X89793884Y-152180133D01*
X57641027Y-140605847D02*
X57641027Y-140205847D01*
X57641027Y-140205847D02*
X57793408Y-140205847D01*
X57793408Y-140205847D02*
X57831503Y-140224895D01*
X57831503Y-140224895D02*
X57850550Y-140243942D01*
X57850550Y-140243942D02*
X57869598Y-140282038D01*
X57869598Y-140282038D02*
X57869598Y-140339180D01*
X57869598Y-140339180D02*
X57850550Y-140377276D01*
X57850550Y-140377276D02*
X57831503Y-140396323D01*
X57831503Y-140396323D02*
X57793408Y-140415371D01*
X57793408Y-140415371D02*
X57641027Y-140415371D01*
X58002931Y-140205847D02*
X58098169Y-140605847D01*
X58098169Y-140605847D02*
X58174360Y-140320133D01*
X58174360Y-140320133D02*
X58250550Y-140605847D01*
X58250550Y-140605847D02*
X58345789Y-140205847D01*
X58498170Y-140605847D02*
X58498170Y-140205847D01*
X58498170Y-140205847D02*
X58631503Y-140491561D01*
X58631503Y-140491561D02*
X58764836Y-140205847D01*
X58764836Y-140205847D02*
X58764836Y-140605847D01*
X58860075Y-140643942D02*
X59164836Y-140643942D01*
X59241027Y-140243942D02*
X59260075Y-140224895D01*
X59260075Y-140224895D02*
X59298170Y-140205847D01*
X59298170Y-140205847D02*
X59393408Y-140205847D01*
X59393408Y-140205847D02*
X59431503Y-140224895D01*
X59431503Y-140224895D02*
X59450551Y-140243942D01*
X59450551Y-140243942D02*
X59469598Y-140282038D01*
X59469598Y-140282038D02*
X59469598Y-140320133D01*
X59469598Y-140320133D02*
X59450551Y-140377276D01*
X59450551Y-140377276D02*
X59221979Y-140605847D01*
X59221979Y-140605847D02*
X59469598Y-140605847D01*
X59545789Y-140643942D02*
X59850550Y-140643942D01*
X59945789Y-140605847D02*
X59945789Y-140205847D01*
X59945789Y-140205847D02*
X60079122Y-140491561D01*
X60079122Y-140491561D02*
X60212455Y-140205847D01*
X60212455Y-140205847D02*
X60212455Y-140605847D01*
X60612455Y-140605847D02*
X60383884Y-140605847D01*
X60498170Y-140605847D02*
X60498170Y-140205847D01*
X60498170Y-140205847D02*
X60460074Y-140262990D01*
X60460074Y-140262990D02*
X60421979Y-140301085D01*
X60421979Y-140301085D02*
X60383884Y-140320133D01*
X85353884Y-147955847D02*
X85487217Y-148355847D01*
X85487217Y-148355847D02*
X85620550Y-147955847D01*
X85658646Y-148393942D02*
X85963407Y-148393942D01*
X86191979Y-148146323D02*
X86249122Y-148165371D01*
X86249122Y-148165371D02*
X86268169Y-148184419D01*
X86268169Y-148184419D02*
X86287217Y-148222514D01*
X86287217Y-148222514D02*
X86287217Y-148279657D01*
X86287217Y-148279657D02*
X86268169Y-148317752D01*
X86268169Y-148317752D02*
X86249122Y-148336800D01*
X86249122Y-148336800D02*
X86211027Y-148355847D01*
X86211027Y-148355847D02*
X86058646Y-148355847D01*
X86058646Y-148355847D02*
X86058646Y-147955847D01*
X86058646Y-147955847D02*
X86191979Y-147955847D01*
X86191979Y-147955847D02*
X86230074Y-147974895D01*
X86230074Y-147974895D02*
X86249122Y-147993942D01*
X86249122Y-147993942D02*
X86268169Y-148032038D01*
X86268169Y-148032038D02*
X86268169Y-148070133D01*
X86268169Y-148070133D02*
X86249122Y-148108228D01*
X86249122Y-148108228D02*
X86230074Y-148127276D01*
X86230074Y-148127276D02*
X86191979Y-148146323D01*
X86191979Y-148146323D02*
X86058646Y-148146323D01*
X86630074Y-148355847D02*
X86630074Y-148146323D01*
X86630074Y-148146323D02*
X86611027Y-148108228D01*
X86611027Y-148108228D02*
X86572931Y-148089180D01*
X86572931Y-148089180D02*
X86496741Y-148089180D01*
X86496741Y-148089180D02*
X86458646Y-148108228D01*
X86630074Y-148336800D02*
X86591979Y-148355847D01*
X86591979Y-148355847D02*
X86496741Y-148355847D01*
X86496741Y-148355847D02*
X86458646Y-148336800D01*
X86458646Y-148336800D02*
X86439598Y-148298704D01*
X86439598Y-148298704D02*
X86439598Y-148260609D01*
X86439598Y-148260609D02*
X86458646Y-148222514D01*
X86458646Y-148222514D02*
X86496741Y-148203466D01*
X86496741Y-148203466D02*
X86591979Y-148203466D01*
X86591979Y-148203466D02*
X86630074Y-148184419D01*
X86763408Y-148089180D02*
X86915789Y-148089180D01*
X86820551Y-147955847D02*
X86820551Y-148298704D01*
X86820551Y-148298704D02*
X86839598Y-148336800D01*
X86839598Y-148336800D02*
X86877693Y-148355847D01*
X86877693Y-148355847D02*
X86915789Y-148355847D01*
X85601027Y-149615847D02*
X85601027Y-149215847D01*
X85696265Y-149653942D02*
X86001026Y-149653942D01*
X86229598Y-149406323D02*
X86286741Y-149425371D01*
X86286741Y-149425371D02*
X86305788Y-149444419D01*
X86305788Y-149444419D02*
X86324836Y-149482514D01*
X86324836Y-149482514D02*
X86324836Y-149539657D01*
X86324836Y-149539657D02*
X86305788Y-149577752D01*
X86305788Y-149577752D02*
X86286741Y-149596800D01*
X86286741Y-149596800D02*
X86248646Y-149615847D01*
X86248646Y-149615847D02*
X86096265Y-149615847D01*
X86096265Y-149615847D02*
X86096265Y-149215847D01*
X86096265Y-149215847D02*
X86229598Y-149215847D01*
X86229598Y-149215847D02*
X86267693Y-149234895D01*
X86267693Y-149234895D02*
X86286741Y-149253942D01*
X86286741Y-149253942D02*
X86305788Y-149292038D01*
X86305788Y-149292038D02*
X86305788Y-149330133D01*
X86305788Y-149330133D02*
X86286741Y-149368228D01*
X86286741Y-149368228D02*
X86267693Y-149387276D01*
X86267693Y-149387276D02*
X86229598Y-149406323D01*
X86229598Y-149406323D02*
X86096265Y-149406323D01*
X86667693Y-149615847D02*
X86667693Y-149406323D01*
X86667693Y-149406323D02*
X86648646Y-149368228D01*
X86648646Y-149368228D02*
X86610550Y-149349180D01*
X86610550Y-149349180D02*
X86534360Y-149349180D01*
X86534360Y-149349180D02*
X86496265Y-149368228D01*
X86667693Y-149596800D02*
X86629598Y-149615847D01*
X86629598Y-149615847D02*
X86534360Y-149615847D01*
X86534360Y-149615847D02*
X86496265Y-149596800D01*
X86496265Y-149596800D02*
X86477217Y-149558704D01*
X86477217Y-149558704D02*
X86477217Y-149520609D01*
X86477217Y-149520609D02*
X86496265Y-149482514D01*
X86496265Y-149482514D02*
X86534360Y-149463466D01*
X86534360Y-149463466D02*
X86629598Y-149463466D01*
X86629598Y-149463466D02*
X86667693Y-149444419D01*
X86801027Y-149349180D02*
X86953408Y-149349180D01*
X86858170Y-149215847D02*
X86858170Y-149558704D01*
X86858170Y-149558704D02*
X86877217Y-149596800D01*
X86877217Y-149596800D02*
X86915312Y-149615847D01*
X86915312Y-149615847D02*
X86953408Y-149615847D01*
D12*
X67264580Y-158747147D02*
X67264580Y-158347147D01*
X67264580Y-158347147D02*
X67416961Y-158347147D01*
X67416961Y-158347147D02*
X67455056Y-158366195D01*
X67455056Y-158366195D02*
X67474103Y-158385242D01*
X67474103Y-158385242D02*
X67493151Y-158423338D01*
X67493151Y-158423338D02*
X67493151Y-158480480D01*
X67493151Y-158480480D02*
X67474103Y-158518576D01*
X67474103Y-158518576D02*
X67455056Y-158537623D01*
X67455056Y-158537623D02*
X67416961Y-158556671D01*
X67416961Y-158556671D02*
X67264580Y-158556671D01*
X67721722Y-158747147D02*
X67683627Y-158728100D01*
X67683627Y-158728100D02*
X67664580Y-158709052D01*
X67664580Y-158709052D02*
X67645532Y-158670957D01*
X67645532Y-158670957D02*
X67645532Y-158556671D01*
X67645532Y-158556671D02*
X67664580Y-158518576D01*
X67664580Y-158518576D02*
X67683627Y-158499528D01*
X67683627Y-158499528D02*
X67721722Y-158480480D01*
X67721722Y-158480480D02*
X67778865Y-158480480D01*
X67778865Y-158480480D02*
X67816961Y-158499528D01*
X67816961Y-158499528D02*
X67836008Y-158518576D01*
X67836008Y-158518576D02*
X67855056Y-158556671D01*
X67855056Y-158556671D02*
X67855056Y-158670957D01*
X67855056Y-158670957D02*
X67836008Y-158709052D01*
X67836008Y-158709052D02*
X67816961Y-158728100D01*
X67816961Y-158728100D02*
X67778865Y-158747147D01*
X67778865Y-158747147D02*
X67721722Y-158747147D01*
X68026485Y-158480480D02*
X68026485Y-158747147D01*
X68026485Y-158518576D02*
X68045532Y-158499528D01*
X68045532Y-158499528D02*
X68083627Y-158480480D01*
X68083627Y-158480480D02*
X68140770Y-158480480D01*
X68140770Y-158480480D02*
X68178866Y-158499528D01*
X68178866Y-158499528D02*
X68197913Y-158537623D01*
X68197913Y-158537623D02*
X68197913Y-158747147D01*
X68331247Y-158480480D02*
X68483628Y-158480480D01*
X68388390Y-158347147D02*
X68388390Y-158690004D01*
X68388390Y-158690004D02*
X68407437Y-158728100D01*
X68407437Y-158728100D02*
X68445532Y-158747147D01*
X68445532Y-158747147D02*
X68483628Y-158747147D01*
X68921723Y-158747147D02*
X68921723Y-158347147D01*
X68921723Y-158347147D02*
X69016961Y-158347147D01*
X69016961Y-158347147D02*
X69074104Y-158366195D01*
X69074104Y-158366195D02*
X69112199Y-158404290D01*
X69112199Y-158404290D02*
X69131246Y-158442385D01*
X69131246Y-158442385D02*
X69150294Y-158518576D01*
X69150294Y-158518576D02*
X69150294Y-158575719D01*
X69150294Y-158575719D02*
X69131246Y-158651909D01*
X69131246Y-158651909D02*
X69112199Y-158690004D01*
X69112199Y-158690004D02*
X69074104Y-158728100D01*
X69074104Y-158728100D02*
X69016961Y-158747147D01*
X69016961Y-158747147D02*
X68921723Y-158747147D01*
X69321723Y-158747147D02*
X69321723Y-158480480D01*
X69321723Y-158347147D02*
X69302675Y-158366195D01*
X69302675Y-158366195D02*
X69321723Y-158385242D01*
X69321723Y-158385242D02*
X69340770Y-158366195D01*
X69340770Y-158366195D02*
X69321723Y-158347147D01*
X69321723Y-158347147D02*
X69321723Y-158385242D01*
X69474103Y-158480480D02*
X69569341Y-158747147D01*
X69569341Y-158747147D02*
X69664580Y-158480480D01*
X69816961Y-158747147D02*
X69816961Y-158480480D01*
X69816961Y-158347147D02*
X69797913Y-158366195D01*
X69797913Y-158366195D02*
X69816961Y-158385242D01*
X69816961Y-158385242D02*
X69836008Y-158366195D01*
X69836008Y-158366195D02*
X69816961Y-158347147D01*
X69816961Y-158347147D02*
X69816961Y-158385242D01*
X69988389Y-158728100D02*
X70026484Y-158747147D01*
X70026484Y-158747147D02*
X70102675Y-158747147D01*
X70102675Y-158747147D02*
X70140770Y-158728100D01*
X70140770Y-158728100D02*
X70159818Y-158690004D01*
X70159818Y-158690004D02*
X70159818Y-158670957D01*
X70159818Y-158670957D02*
X70140770Y-158632861D01*
X70140770Y-158632861D02*
X70102675Y-158613814D01*
X70102675Y-158613814D02*
X70045532Y-158613814D01*
X70045532Y-158613814D02*
X70007437Y-158594766D01*
X70007437Y-158594766D02*
X69988389Y-158556671D01*
X69988389Y-158556671D02*
X69988389Y-158537623D01*
X69988389Y-158537623D02*
X70007437Y-158499528D01*
X70007437Y-158499528D02*
X70045532Y-158480480D01*
X70045532Y-158480480D02*
X70102675Y-158480480D01*
X70102675Y-158480480D02*
X70140770Y-158499528D01*
X70483628Y-158728100D02*
X70445532Y-158747147D01*
X70445532Y-158747147D02*
X70369342Y-158747147D01*
X70369342Y-158747147D02*
X70331247Y-158728100D01*
X70331247Y-158728100D02*
X70312199Y-158690004D01*
X70312199Y-158690004D02*
X70312199Y-158537623D01*
X70312199Y-158537623D02*
X70331247Y-158499528D01*
X70331247Y-158499528D02*
X70369342Y-158480480D01*
X70369342Y-158480480D02*
X70445532Y-158480480D01*
X70445532Y-158480480D02*
X70483628Y-158499528D01*
X70483628Y-158499528D02*
X70502675Y-158537623D01*
X70502675Y-158537623D02*
X70502675Y-158575719D01*
X70502675Y-158575719D02*
X70312199Y-158613814D01*
X70845532Y-158480480D02*
X70845532Y-158747147D01*
X70674104Y-158480480D02*
X70674104Y-158690004D01*
X70674104Y-158690004D02*
X70693151Y-158728100D01*
X70693151Y-158728100D02*
X70731246Y-158747147D01*
X70731246Y-158747147D02*
X70788389Y-158747147D01*
X70788389Y-158747147D02*
X70826485Y-158728100D01*
X70826485Y-158728100D02*
X70845532Y-158709052D01*
X71036009Y-158747147D02*
X71036009Y-158480480D01*
X71036009Y-158556671D02*
X71055056Y-158518576D01*
X71055056Y-158518576D02*
X71074104Y-158499528D01*
X71074104Y-158499528D02*
X71112199Y-158480480D01*
X71112199Y-158480480D02*
X71150294Y-158480480D01*
X44315532Y-152698100D02*
X44372675Y-152717147D01*
X44372675Y-152717147D02*
X44467913Y-152717147D01*
X44467913Y-152717147D02*
X44506008Y-152698100D01*
X44506008Y-152698100D02*
X44525056Y-152679052D01*
X44525056Y-152679052D02*
X44544103Y-152640957D01*
X44544103Y-152640957D02*
X44544103Y-152602861D01*
X44544103Y-152602861D02*
X44525056Y-152564766D01*
X44525056Y-152564766D02*
X44506008Y-152545719D01*
X44506008Y-152545719D02*
X44467913Y-152526671D01*
X44467913Y-152526671D02*
X44391722Y-152507623D01*
X44391722Y-152507623D02*
X44353627Y-152488576D01*
X44353627Y-152488576D02*
X44334580Y-152469528D01*
X44334580Y-152469528D02*
X44315532Y-152431433D01*
X44315532Y-152431433D02*
X44315532Y-152393338D01*
X44315532Y-152393338D02*
X44334580Y-152355242D01*
X44334580Y-152355242D02*
X44353627Y-152336195D01*
X44353627Y-152336195D02*
X44391722Y-152317147D01*
X44391722Y-152317147D02*
X44486961Y-152317147D01*
X44486961Y-152317147D02*
X44544103Y-152336195D01*
X44715532Y-152717147D02*
X44715532Y-152317147D01*
X44715532Y-152317147D02*
X44810770Y-152317147D01*
X44810770Y-152317147D02*
X44867913Y-152336195D01*
X44867913Y-152336195D02*
X44906008Y-152374290D01*
X44906008Y-152374290D02*
X44925055Y-152412385D01*
X44925055Y-152412385D02*
X44944103Y-152488576D01*
X44944103Y-152488576D02*
X44944103Y-152545719D01*
X44944103Y-152545719D02*
X44925055Y-152621909D01*
X44925055Y-152621909D02*
X44906008Y-152660004D01*
X44906008Y-152660004D02*
X44867913Y-152698100D01*
X44867913Y-152698100D02*
X44810770Y-152717147D01*
X44810770Y-152717147D02*
X44715532Y-152717147D01*
X45096484Y-152602861D02*
X45286960Y-152602861D01*
X45058389Y-152717147D02*
X45191722Y-152317147D01*
X45191722Y-152317147D02*
X45325055Y-152717147D01*
X45744103Y-152298100D02*
X45401246Y-152812385D01*
X45858389Y-152698100D02*
X45915532Y-152717147D01*
X45915532Y-152717147D02*
X46010770Y-152717147D01*
X46010770Y-152717147D02*
X46048865Y-152698100D01*
X46048865Y-152698100D02*
X46067913Y-152679052D01*
X46067913Y-152679052D02*
X46086960Y-152640957D01*
X46086960Y-152640957D02*
X46086960Y-152602861D01*
X46086960Y-152602861D02*
X46067913Y-152564766D01*
X46067913Y-152564766D02*
X46048865Y-152545719D01*
X46048865Y-152545719D02*
X46010770Y-152526671D01*
X46010770Y-152526671D02*
X45934579Y-152507623D01*
X45934579Y-152507623D02*
X45896484Y-152488576D01*
X45896484Y-152488576D02*
X45877437Y-152469528D01*
X45877437Y-152469528D02*
X45858389Y-152431433D01*
X45858389Y-152431433D02*
X45858389Y-152393338D01*
X45858389Y-152393338D02*
X45877437Y-152355242D01*
X45877437Y-152355242D02*
X45896484Y-152336195D01*
X45896484Y-152336195D02*
X45934579Y-152317147D01*
X45934579Y-152317147D02*
X46029818Y-152317147D01*
X46029818Y-152317147D02*
X46086960Y-152336195D01*
X46486960Y-152679052D02*
X46467912Y-152698100D01*
X46467912Y-152698100D02*
X46410770Y-152717147D01*
X46410770Y-152717147D02*
X46372674Y-152717147D01*
X46372674Y-152717147D02*
X46315531Y-152698100D01*
X46315531Y-152698100D02*
X46277436Y-152660004D01*
X46277436Y-152660004D02*
X46258389Y-152621909D01*
X46258389Y-152621909D02*
X46239341Y-152545719D01*
X46239341Y-152545719D02*
X46239341Y-152488576D01*
X46239341Y-152488576D02*
X46258389Y-152412385D01*
X46258389Y-152412385D02*
X46277436Y-152374290D01*
X46277436Y-152374290D02*
X46315531Y-152336195D01*
X46315531Y-152336195D02*
X46372674Y-152317147D01*
X46372674Y-152317147D02*
X46410770Y-152317147D01*
X46410770Y-152317147D02*
X46467912Y-152336195D01*
X46467912Y-152336195D02*
X46486960Y-152355242D01*
X46848865Y-152717147D02*
X46658389Y-152717147D01*
X46658389Y-152717147D02*
X46658389Y-152317147D01*
X47267913Y-152298100D02*
X46925056Y-152812385D01*
X47610770Y-152336195D02*
X47572675Y-152317147D01*
X47572675Y-152317147D02*
X47515532Y-152317147D01*
X47515532Y-152317147D02*
X47458389Y-152336195D01*
X47458389Y-152336195D02*
X47420294Y-152374290D01*
X47420294Y-152374290D02*
X47401247Y-152412385D01*
X47401247Y-152412385D02*
X47382199Y-152488576D01*
X47382199Y-152488576D02*
X47382199Y-152545719D01*
X47382199Y-152545719D02*
X47401247Y-152621909D01*
X47401247Y-152621909D02*
X47420294Y-152660004D01*
X47420294Y-152660004D02*
X47458389Y-152698100D01*
X47458389Y-152698100D02*
X47515532Y-152717147D01*
X47515532Y-152717147D02*
X47553628Y-152717147D01*
X47553628Y-152717147D02*
X47610770Y-152698100D01*
X47610770Y-152698100D02*
X47629818Y-152679052D01*
X47629818Y-152679052D02*
X47629818Y-152545719D01*
X47629818Y-152545719D02*
X47553628Y-152545719D01*
X47801247Y-152717147D02*
X47801247Y-152317147D01*
X47801247Y-152317147D02*
X48029818Y-152717147D01*
X48029818Y-152717147D02*
X48029818Y-152317147D01*
X48220295Y-152717147D02*
X48220295Y-152317147D01*
X48220295Y-152317147D02*
X48315533Y-152317147D01*
X48315533Y-152317147D02*
X48372676Y-152336195D01*
X48372676Y-152336195D02*
X48410771Y-152374290D01*
X48410771Y-152374290D02*
X48429818Y-152412385D01*
X48429818Y-152412385D02*
X48448866Y-152488576D01*
X48448866Y-152488576D02*
X48448866Y-152545719D01*
X48448866Y-152545719D02*
X48429818Y-152621909D01*
X48429818Y-152621909D02*
X48410771Y-152660004D01*
X48410771Y-152660004D02*
X48372676Y-152698100D01*
X48372676Y-152698100D02*
X48315533Y-152717147D01*
X48315533Y-152717147D02*
X48220295Y-152717147D01*
X48906009Y-152298100D02*
X48563152Y-152812385D01*
X49001247Y-152317147D02*
X49248866Y-152317147D01*
X49248866Y-152317147D02*
X49115533Y-152469528D01*
X49115533Y-152469528D02*
X49172676Y-152469528D01*
X49172676Y-152469528D02*
X49210771Y-152488576D01*
X49210771Y-152488576D02*
X49229819Y-152507623D01*
X49229819Y-152507623D02*
X49248866Y-152545719D01*
X49248866Y-152545719D02*
X49248866Y-152640957D01*
X49248866Y-152640957D02*
X49229819Y-152679052D01*
X49229819Y-152679052D02*
X49210771Y-152698100D01*
X49210771Y-152698100D02*
X49172676Y-152717147D01*
X49172676Y-152717147D02*
X49058390Y-152717147D01*
X49058390Y-152717147D02*
X49020295Y-152698100D01*
X49020295Y-152698100D02*
X49001247Y-152679052D01*
X49420295Y-152679052D02*
X49439342Y-152698100D01*
X49439342Y-152698100D02*
X49420295Y-152717147D01*
X49420295Y-152717147D02*
X49401247Y-152698100D01*
X49401247Y-152698100D02*
X49420295Y-152679052D01*
X49420295Y-152679052D02*
X49420295Y-152717147D01*
X49572675Y-152317147D02*
X49820294Y-152317147D01*
X49820294Y-152317147D02*
X49686961Y-152469528D01*
X49686961Y-152469528D02*
X49744104Y-152469528D01*
X49744104Y-152469528D02*
X49782199Y-152488576D01*
X49782199Y-152488576D02*
X49801247Y-152507623D01*
X49801247Y-152507623D02*
X49820294Y-152545719D01*
X49820294Y-152545719D02*
X49820294Y-152640957D01*
X49820294Y-152640957D02*
X49801247Y-152679052D01*
X49801247Y-152679052D02*
X49782199Y-152698100D01*
X49782199Y-152698100D02*
X49744104Y-152717147D01*
X49744104Y-152717147D02*
X49629818Y-152717147D01*
X49629818Y-152717147D02*
X49591723Y-152698100D01*
X49591723Y-152698100D02*
X49572675Y-152679052D01*
D14*
X86094927Y-151497797D02*
X85961594Y-151307321D01*
X85866356Y-151497797D02*
X85866356Y-151097797D01*
X85866356Y-151097797D02*
X86018737Y-151097797D01*
X86018737Y-151097797D02*
X86056832Y-151116845D01*
X86056832Y-151116845D02*
X86075879Y-151135892D01*
X86075879Y-151135892D02*
X86094927Y-151173988D01*
X86094927Y-151173988D02*
X86094927Y-151231130D01*
X86094927Y-151231130D02*
X86075879Y-151269226D01*
X86075879Y-151269226D02*
X86056832Y-151288273D01*
X86056832Y-151288273D02*
X86018737Y-151307321D01*
X86018737Y-151307321D02*
X85866356Y-151307321D01*
X86228260Y-151097797D02*
X86494927Y-151497797D01*
X86494927Y-151097797D02*
X86228260Y-151497797D01*
D15*
X41174649Y-131483466D02*
X40774649Y-131483466D01*
X40974649Y-130783466D02*
X40974649Y-131483466D01*
X40407983Y-131483466D02*
X40274649Y-131483466D01*
X40274649Y-131483466D02*
X40207983Y-131450133D01*
X40207983Y-131450133D02*
X40141316Y-131383466D01*
X40141316Y-131383466D02*
X40107983Y-131250133D01*
X40107983Y-131250133D02*
X40107983Y-131016800D01*
X40107983Y-131016800D02*
X40141316Y-130883466D01*
X40141316Y-130883466D02*
X40207983Y-130816800D01*
X40207983Y-130816800D02*
X40274649Y-130783466D01*
X40274649Y-130783466D02*
X40407983Y-130783466D01*
X40407983Y-130783466D02*
X40474649Y-130816800D01*
X40474649Y-130816800D02*
X40541316Y-130883466D01*
X40541316Y-130883466D02*
X40574649Y-131016800D01*
X40574649Y-131016800D02*
X40574649Y-131250133D01*
X40574649Y-131250133D02*
X40541316Y-131383466D01*
X40541316Y-131383466D02*
X40474649Y-131450133D01*
X40474649Y-131450133D02*
X40407983Y-131483466D01*
X39574650Y-131150133D02*
X39807983Y-131150133D01*
X39807983Y-130783466D02*
X39807983Y-131483466D01*
X39807983Y-131483466D02*
X39474650Y-131483466D01*
D10*
X62346265Y-136324800D02*
X62489122Y-136372419D01*
X62489122Y-136372419D02*
X62727217Y-136372419D01*
X62727217Y-136372419D02*
X62822455Y-136324800D01*
X62822455Y-136324800D02*
X62870074Y-136277180D01*
X62870074Y-136277180D02*
X62917693Y-136181942D01*
X62917693Y-136181942D02*
X62917693Y-136086704D01*
X62917693Y-136086704D02*
X62870074Y-135991466D01*
X62870074Y-135991466D02*
X62822455Y-135943847D01*
X62822455Y-135943847D02*
X62727217Y-135896228D01*
X62727217Y-135896228D02*
X62536741Y-135848609D01*
X62536741Y-135848609D02*
X62441503Y-135800990D01*
X62441503Y-135800990D02*
X62393884Y-135753371D01*
X62393884Y-135753371D02*
X62346265Y-135658133D01*
X62346265Y-135658133D02*
X62346265Y-135562895D01*
X62346265Y-135562895D02*
X62393884Y-135467657D01*
X62393884Y-135467657D02*
X62441503Y-135420038D01*
X62441503Y-135420038D02*
X62536741Y-135372419D01*
X62536741Y-135372419D02*
X62774836Y-135372419D01*
X62774836Y-135372419D02*
X62917693Y-135420038D01*
X63203408Y-135372419D02*
X63774836Y-135372419D01*
X63489122Y-136372419D02*
X63489122Y-135372419D01*
X64108170Y-135991466D02*
X64870075Y-135991466D01*
X65822455Y-136372419D02*
X65346265Y-136372419D01*
X65346265Y-136372419D02*
X65346265Y-135372419D01*
X66155789Y-136372419D02*
X66155789Y-135372419D01*
X66631979Y-136372419D02*
X66631979Y-135372419D01*
X66631979Y-135372419D02*
X67203407Y-136372419D01*
X67203407Y-136372419D02*
X67203407Y-135372419D01*
X67679598Y-136372419D02*
X67679598Y-135372419D01*
X68251026Y-136372419D02*
X67822455Y-135800990D01*
X68251026Y-135372419D02*
X67679598Y-135943847D01*
D14*
X48299040Y-138971165D02*
X48799040Y-138971165D01*
X48799040Y-138971165D02*
X48441897Y-139137832D01*
X48441897Y-139137832D02*
X48799040Y-139304498D01*
X48799040Y-139304498D02*
X48299040Y-139304498D01*
X48489516Y-139542594D02*
X48489516Y-139923547D01*
X48799040Y-140114023D02*
X48799040Y-140423547D01*
X48799040Y-140423547D02*
X48608564Y-140256880D01*
X48608564Y-140256880D02*
X48608564Y-140328309D01*
X48608564Y-140328309D02*
X48584754Y-140375928D01*
X48584754Y-140375928D02*
X48560945Y-140399737D01*
X48560945Y-140399737D02*
X48513326Y-140423547D01*
X48513326Y-140423547D02*
X48394278Y-140423547D01*
X48394278Y-140423547D02*
X48346659Y-140399737D01*
X48346659Y-140399737D02*
X48322850Y-140375928D01*
X48322850Y-140375928D02*
X48299040Y-140328309D01*
X48299040Y-140328309D02*
X48299040Y-140185452D01*
X48299040Y-140185452D02*
X48322850Y-140137833D01*
X48322850Y-140137833D02*
X48346659Y-140114023D01*
X48346659Y-140637832D02*
X48322850Y-140661642D01*
X48322850Y-140661642D02*
X48299040Y-140637832D01*
X48299040Y-140637832D02*
X48322850Y-140614023D01*
X48322850Y-140614023D02*
X48346659Y-140637832D01*
X48346659Y-140637832D02*
X48299040Y-140637832D01*
X48799040Y-140828308D02*
X48799040Y-141137832D01*
X48799040Y-141137832D02*
X48608564Y-140971165D01*
X48608564Y-140971165D02*
X48608564Y-141042594D01*
X48608564Y-141042594D02*
X48584754Y-141090213D01*
X48584754Y-141090213D02*
X48560945Y-141114022D01*
X48560945Y-141114022D02*
X48513326Y-141137832D01*
X48513326Y-141137832D02*
X48394278Y-141137832D01*
X48394278Y-141137832D02*
X48346659Y-141114022D01*
X48346659Y-141114022D02*
X48322850Y-141090213D01*
X48322850Y-141090213D02*
X48299040Y-141042594D01*
X48299040Y-141042594D02*
X48299040Y-140899737D01*
X48299040Y-140899737D02*
X48322850Y-140852118D01*
X48322850Y-140852118D02*
X48346659Y-140828308D01*
X48489516Y-141352117D02*
X48489516Y-141733070D01*
X48560945Y-141971165D02*
X48560945Y-142137832D01*
X48299040Y-142209260D02*
X48299040Y-141971165D01*
X48299040Y-141971165D02*
X48799040Y-141971165D01*
X48799040Y-141971165D02*
X48799040Y-142209260D01*
X48441897Y-142399737D02*
X48441897Y-142637832D01*
X48299040Y-142352118D02*
X48799040Y-142518784D01*
X48799040Y-142518784D02*
X48299040Y-142685451D01*
X48489516Y-142852117D02*
X48489516Y-143233070D01*
X48560945Y-143471165D02*
X48560945Y-143637832D01*
X48299040Y-143709260D02*
X48299040Y-143471165D01*
X48299040Y-143471165D02*
X48799040Y-143471165D01*
X48799040Y-143471165D02*
X48799040Y-143709260D01*
X48560945Y-144090213D02*
X48537135Y-144161641D01*
X48537135Y-144161641D02*
X48513326Y-144185451D01*
X48513326Y-144185451D02*
X48465707Y-144209260D01*
X48465707Y-144209260D02*
X48394278Y-144209260D01*
X48394278Y-144209260D02*
X48346659Y-144185451D01*
X48346659Y-144185451D02*
X48322850Y-144161641D01*
X48322850Y-144161641D02*
X48299040Y-144114022D01*
X48299040Y-144114022D02*
X48299040Y-143923546D01*
X48299040Y-143923546D02*
X48799040Y-143923546D01*
X48799040Y-143923546D02*
X48799040Y-144090213D01*
X48799040Y-144090213D02*
X48775230Y-144137832D01*
X48775230Y-144137832D02*
X48751421Y-144161641D01*
X48751421Y-144161641D02*
X48703802Y-144185451D01*
X48703802Y-144185451D02*
X48656183Y-144185451D01*
X48656183Y-144185451D02*
X48608564Y-144161641D01*
X48608564Y-144161641D02*
X48584754Y-144137832D01*
X48584754Y-144137832D02*
X48560945Y-144090213D01*
X48560945Y-144090213D02*
X48560945Y-143923546D01*
X48489516Y-144423546D02*
X48489516Y-144804499D01*
X48775230Y-145304499D02*
X48799040Y-145256880D01*
X48799040Y-145256880D02*
X48799040Y-145185451D01*
X48799040Y-145185451D02*
X48775230Y-145114023D01*
X48775230Y-145114023D02*
X48727611Y-145066404D01*
X48727611Y-145066404D02*
X48679992Y-145042594D01*
X48679992Y-145042594D02*
X48584754Y-145018785D01*
X48584754Y-145018785D02*
X48513326Y-145018785D01*
X48513326Y-145018785D02*
X48418088Y-145042594D01*
X48418088Y-145042594D02*
X48370469Y-145066404D01*
X48370469Y-145066404D02*
X48322850Y-145114023D01*
X48322850Y-145114023D02*
X48299040Y-145185451D01*
X48299040Y-145185451D02*
X48299040Y-145233070D01*
X48299040Y-145233070D02*
X48322850Y-145304499D01*
X48322850Y-145304499D02*
X48346659Y-145328308D01*
X48346659Y-145328308D02*
X48513326Y-145328308D01*
X48513326Y-145328308D02*
X48513326Y-145233070D01*
X48299040Y-145542594D02*
X48799040Y-145542594D01*
X48799040Y-145542594D02*
X48299040Y-145828308D01*
X48299040Y-145828308D02*
X48799040Y-145828308D01*
X48299040Y-146066404D02*
X48799040Y-146066404D01*
X48799040Y-146066404D02*
X48799040Y-146185452D01*
X48799040Y-146185452D02*
X48775230Y-146256880D01*
X48775230Y-146256880D02*
X48727611Y-146304499D01*
X48727611Y-146304499D02*
X48679992Y-146328309D01*
X48679992Y-146328309D02*
X48584754Y-146352118D01*
X48584754Y-146352118D02*
X48513326Y-146352118D01*
X48513326Y-146352118D02*
X48418088Y-146328309D01*
X48418088Y-146328309D02*
X48370469Y-146304499D01*
X48370469Y-146304499D02*
X48322850Y-146256880D01*
X48322850Y-146256880D02*
X48299040Y-146185452D01*
X48299040Y-146185452D02*
X48299040Y-146066404D01*
X48489516Y-146566404D02*
X48489516Y-146947357D01*
X48299040Y-147185452D02*
X48799040Y-147185452D01*
X48799040Y-147185452D02*
X48441897Y-147352119D01*
X48441897Y-147352119D02*
X48799040Y-147518785D01*
X48799040Y-147518785D02*
X48299040Y-147518785D01*
D15*
X40045350Y-155776533D02*
X40445350Y-155776533D01*
X40245350Y-156476533D02*
X40245350Y-155776533D01*
X40812017Y-155776533D02*
X40945350Y-155776533D01*
X40945350Y-155776533D02*
X41012017Y-155809866D01*
X41012017Y-155809866D02*
X41078683Y-155876533D01*
X41078683Y-155876533D02*
X41112017Y-156009866D01*
X41112017Y-156009866D02*
X41112017Y-156243200D01*
X41112017Y-156243200D02*
X41078683Y-156376533D01*
X41078683Y-156376533D02*
X41012017Y-156443200D01*
X41012017Y-156443200D02*
X40945350Y-156476533D01*
X40945350Y-156476533D02*
X40812017Y-156476533D01*
X40812017Y-156476533D02*
X40745350Y-156443200D01*
X40745350Y-156443200D02*
X40678683Y-156376533D01*
X40678683Y-156376533D02*
X40645350Y-156243200D01*
X40645350Y-156243200D02*
X40645350Y-156009866D01*
X40645350Y-156009866D02*
X40678683Y-155876533D01*
X40678683Y-155876533D02*
X40745350Y-155809866D01*
X40745350Y-155809866D02*
X40812017Y-155776533D01*
X41645350Y-156109866D02*
X41412016Y-156109866D01*
X41412016Y-156476533D02*
X41412016Y-155776533D01*
X41412016Y-155776533D02*
X41745350Y-155776533D01*
X65715350Y-155909866D02*
X65948684Y-155909866D01*
X66048684Y-156276533D02*
X65715350Y-156276533D01*
X65715350Y-156276533D02*
X65715350Y-155576533D01*
X65715350Y-155576533D02*
X66048684Y-155576533D01*
X65948684Y-155309866D02*
X65848684Y-155409866D01*
X66748683Y-156209866D02*
X66715350Y-156243200D01*
X66715350Y-156243200D02*
X66615350Y-156276533D01*
X66615350Y-156276533D02*
X66548683Y-156276533D01*
X66548683Y-156276533D02*
X66448683Y-156243200D01*
X66448683Y-156243200D02*
X66382017Y-156176533D01*
X66382017Y-156176533D02*
X66348683Y-156109866D01*
X66348683Y-156109866D02*
X66315350Y-155976533D01*
X66315350Y-155976533D02*
X66315350Y-155876533D01*
X66315350Y-155876533D02*
X66348683Y-155743200D01*
X66348683Y-155743200D02*
X66382017Y-155676533D01*
X66382017Y-155676533D02*
X66448683Y-155609866D01*
X66448683Y-155609866D02*
X66548683Y-155576533D01*
X66548683Y-155576533D02*
X66615350Y-155576533D01*
X66615350Y-155576533D02*
X66715350Y-155609866D01*
X66715350Y-155609866D02*
X66748683Y-155643200D01*
X67448683Y-156276533D02*
X67215350Y-155943200D01*
X67048683Y-156276533D02*
X67048683Y-155576533D01*
X67048683Y-155576533D02*
X67315350Y-155576533D01*
X67315350Y-155576533D02*
X67382017Y-155609866D01*
X67382017Y-155609866D02*
X67415350Y-155643200D01*
X67415350Y-155643200D02*
X67448683Y-155709866D01*
X67448683Y-155709866D02*
X67448683Y-155809866D01*
X67448683Y-155809866D02*
X67415350Y-155876533D01*
X67415350Y-155876533D02*
X67382017Y-155909866D01*
X67382017Y-155909866D02*
X67315350Y-155943200D01*
X67315350Y-155943200D02*
X67048683Y-155943200D01*
X67715350Y-156076533D02*
X68048683Y-156076533D01*
X67648683Y-156276533D02*
X67882017Y-155576533D01*
X67882017Y-155576533D02*
X68115350Y-156276533D01*
X68348683Y-156276533D02*
X68348683Y-155576533D01*
X68348683Y-155576533D02*
X68748683Y-156276533D01*
X68748683Y-156276533D02*
X68748683Y-155576533D01*
D16*
X85589378Y-155012309D02*
X85351283Y-155012309D01*
X85351283Y-155012309D02*
X85351283Y-154512309D01*
X85756045Y-155012309D02*
X85756045Y-154512309D01*
X85994140Y-155012309D02*
X85994140Y-154512309D01*
X85994140Y-154512309D02*
X86113188Y-154512309D01*
X86113188Y-154512309D02*
X86184616Y-154536119D01*
X86184616Y-154536119D02*
X86232235Y-154583738D01*
X86232235Y-154583738D02*
X86256045Y-154631357D01*
X86256045Y-154631357D02*
X86279854Y-154726595D01*
X86279854Y-154726595D02*
X86279854Y-154798023D01*
X86279854Y-154798023D02*
X86256045Y-154893261D01*
X86256045Y-154893261D02*
X86232235Y-154940880D01*
X86232235Y-154940880D02*
X86184616Y-154988500D01*
X86184616Y-154988500D02*
X86113188Y-155012309D01*
X86113188Y-155012309D02*
X85994140Y-155012309D01*
X86470331Y-154869452D02*
X86708426Y-154869452D01*
X86422712Y-155012309D02*
X86589378Y-154512309D01*
X86589378Y-154512309D02*
X86756045Y-155012309D01*
X87208425Y-155012309D02*
X87041759Y-154774214D01*
X86922711Y-155012309D02*
X86922711Y-154512309D01*
X86922711Y-154512309D02*
X87113187Y-154512309D01*
X87113187Y-154512309D02*
X87160806Y-154536119D01*
X87160806Y-154536119D02*
X87184616Y-154559928D01*
X87184616Y-154559928D02*
X87208425Y-154607547D01*
X87208425Y-154607547D02*
X87208425Y-154678976D01*
X87208425Y-154678976D02*
X87184616Y-154726595D01*
X87184616Y-154726595D02*
X87160806Y-154750404D01*
X87160806Y-154750404D02*
X87113187Y-154774214D01*
X87113187Y-154774214D02*
X86922711Y-154774214D01*
D10*
X79067982Y-131113271D02*
X79139411Y-131148985D01*
X79139411Y-131148985D02*
X79246553Y-131148985D01*
X79246553Y-131148985D02*
X79353696Y-131113271D01*
X79353696Y-131113271D02*
X79425125Y-131041842D01*
X79425125Y-131041842D02*
X79460839Y-130970414D01*
X79460839Y-130970414D02*
X79496553Y-130827557D01*
X79496553Y-130827557D02*
X79496553Y-130720414D01*
X79496553Y-130720414D02*
X79460839Y-130577557D01*
X79460839Y-130577557D02*
X79425125Y-130506128D01*
X79425125Y-130506128D02*
X79353696Y-130434700D01*
X79353696Y-130434700D02*
X79246553Y-130398985D01*
X79246553Y-130398985D02*
X79175125Y-130398985D01*
X79175125Y-130398985D02*
X79067982Y-130434700D01*
X79067982Y-130434700D02*
X79032268Y-130470414D01*
X79032268Y-130470414D02*
X79032268Y-130720414D01*
X79032268Y-130720414D02*
X79175125Y-130720414D01*
X78710839Y-130398985D02*
X78710839Y-131148985D01*
X78710839Y-131148985D02*
X78282268Y-130398985D01*
X78282268Y-130398985D02*
X78282268Y-131148985D01*
X77925125Y-130398985D02*
X77925125Y-131148985D01*
X77925125Y-131148985D02*
X77746554Y-131148985D01*
X77746554Y-131148985D02*
X77639411Y-131113271D01*
X77639411Y-131113271D02*
X77567982Y-131041842D01*
X77567982Y-131041842D02*
X77532268Y-130970414D01*
X77532268Y-130970414D02*
X77496554Y-130827557D01*
X77496554Y-130827557D02*
X77496554Y-130720414D01*
X77496554Y-130720414D02*
X77532268Y-130577557D01*
X77532268Y-130577557D02*
X77567982Y-130506128D01*
X77567982Y-130506128D02*
X77639411Y-130434700D01*
X77639411Y-130434700D02*
X77746554Y-130398985D01*
X77746554Y-130398985D02*
X77925125Y-130398985D01*
D13*
X176300828Y-61159774D02*
X176300828Y-60302632D01*
X177800828Y-60731203D02*
X176300828Y-60731203D01*
X176300828Y-59516917D02*
X176300828Y-59231203D01*
X176300828Y-59231203D02*
X176372257Y-59088346D01*
X176372257Y-59088346D02*
X176515114Y-58945489D01*
X176515114Y-58945489D02*
X176800828Y-58874060D01*
X176800828Y-58874060D02*
X177300828Y-58874060D01*
X177300828Y-58874060D02*
X177586542Y-58945489D01*
X177586542Y-58945489D02*
X177729400Y-59088346D01*
X177729400Y-59088346D02*
X177800828Y-59231203D01*
X177800828Y-59231203D02*
X177800828Y-59516917D01*
X177800828Y-59516917D02*
X177729400Y-59659775D01*
X177729400Y-59659775D02*
X177586542Y-59802632D01*
X177586542Y-59802632D02*
X177300828Y-59874060D01*
X177300828Y-59874060D02*
X176800828Y-59874060D01*
X176800828Y-59874060D02*
X176515114Y-59802632D01*
X176515114Y-59802632D02*
X176372257Y-59659775D01*
X176372257Y-59659775D02*
X176300828Y-59516917D01*
X177015114Y-57731203D02*
X177015114Y-58231203D01*
X177800828Y-58231203D02*
X176300828Y-58231203D01*
X176300828Y-58231203D02*
X176300828Y-57516917D01*
X177800828Y-56159774D02*
X177800828Y-57016917D01*
X177800828Y-56588346D02*
X176300828Y-56588346D01*
X176300828Y-56588346D02*
X176515114Y-56731203D01*
X176515114Y-56731203D02*
X176657971Y-56874060D01*
X176657971Y-56874060D02*
X176729400Y-57016917D01*
D10*
X87121027Y-145825847D02*
X87121027Y-145425847D01*
X87121027Y-145425847D02*
X87273408Y-145425847D01*
X87273408Y-145425847D02*
X87311503Y-145444895D01*
X87311503Y-145444895D02*
X87330550Y-145463942D01*
X87330550Y-145463942D02*
X87349598Y-145502038D01*
X87349598Y-145502038D02*
X87349598Y-145559180D01*
X87349598Y-145559180D02*
X87330550Y-145597276D01*
X87330550Y-145597276D02*
X87311503Y-145616323D01*
X87311503Y-145616323D02*
X87273408Y-145635371D01*
X87273408Y-145635371D02*
X87121027Y-145635371D01*
X87482931Y-145425847D02*
X87578169Y-145825847D01*
X87578169Y-145825847D02*
X87654360Y-145540133D01*
X87654360Y-145540133D02*
X87730550Y-145825847D01*
X87730550Y-145825847D02*
X87825789Y-145425847D01*
X87978170Y-145825847D02*
X87978170Y-145425847D01*
X87978170Y-145425847D02*
X88111503Y-145711561D01*
X88111503Y-145711561D02*
X88244836Y-145425847D01*
X88244836Y-145425847D02*
X88244836Y-145825847D01*
X88340075Y-145863942D02*
X88644836Y-145863942D01*
X88721027Y-145463942D02*
X88740075Y-145444895D01*
X88740075Y-145444895D02*
X88778170Y-145425847D01*
X88778170Y-145425847D02*
X88873408Y-145425847D01*
X88873408Y-145425847D02*
X88911503Y-145444895D01*
X88911503Y-145444895D02*
X88930551Y-145463942D01*
X88930551Y-145463942D02*
X88949598Y-145502038D01*
X88949598Y-145502038D02*
X88949598Y-145540133D01*
X88949598Y-145540133D02*
X88930551Y-145597276D01*
X88930551Y-145597276D02*
X88701979Y-145825847D01*
X88701979Y-145825847D02*
X88949598Y-145825847D01*
X89025789Y-145863942D02*
X89330550Y-145863942D01*
X89425789Y-145825847D02*
X89425789Y-145425847D01*
X89425789Y-145425847D02*
X89559122Y-145711561D01*
X89559122Y-145711561D02*
X89692455Y-145425847D01*
X89692455Y-145425847D02*
X89692455Y-145825847D01*
X89863884Y-145463942D02*
X89882932Y-145444895D01*
X89882932Y-145444895D02*
X89921027Y-145425847D01*
X89921027Y-145425847D02*
X90016265Y-145425847D01*
X90016265Y-145425847D02*
X90054360Y-145444895D01*
X90054360Y-145444895D02*
X90073408Y-145463942D01*
X90073408Y-145463942D02*
X90092455Y-145502038D01*
X90092455Y-145502038D02*
X90092455Y-145540133D01*
X90092455Y-145540133D02*
X90073408Y-145597276D01*
X90073408Y-145597276D02*
X89844836Y-145825847D01*
X89844836Y-145825847D02*
X90092455Y-145825847D01*
D15*
X65808684Y-160979866D02*
X65908684Y-161013200D01*
X65908684Y-161013200D02*
X65942017Y-161046533D01*
X65942017Y-161046533D02*
X65975350Y-161113200D01*
X65975350Y-161113200D02*
X65975350Y-161213200D01*
X65975350Y-161213200D02*
X65942017Y-161279866D01*
X65942017Y-161279866D02*
X65908684Y-161313200D01*
X65908684Y-161313200D02*
X65842017Y-161346533D01*
X65842017Y-161346533D02*
X65575350Y-161346533D01*
X65575350Y-161346533D02*
X65575350Y-160646533D01*
X65575350Y-160646533D02*
X65808684Y-160646533D01*
X65808684Y-160646533D02*
X65875350Y-160679866D01*
X65875350Y-160679866D02*
X65908684Y-160713200D01*
X65908684Y-160713200D02*
X65942017Y-160779866D01*
X65942017Y-160779866D02*
X65942017Y-160846533D01*
X65942017Y-160846533D02*
X65908684Y-160913200D01*
X65908684Y-160913200D02*
X65875350Y-160946533D01*
X65875350Y-160946533D02*
X65808684Y-160979866D01*
X65808684Y-160979866D02*
X65575350Y-160979866D01*
X66608684Y-161346533D02*
X66275350Y-161346533D01*
X66275350Y-161346533D02*
X66275350Y-160646533D01*
X66842017Y-160979866D02*
X67075351Y-160979866D01*
X67175351Y-161346533D02*
X66842017Y-161346533D01*
X66842017Y-161346533D02*
X66842017Y-160646533D01*
X66842017Y-160646533D02*
X67175351Y-160646533D01*
D13*
X176300828Y-55159774D02*
X176300828Y-54302632D01*
X177800828Y-54731203D02*
X176300828Y-54731203D01*
X176300828Y-53516917D02*
X176300828Y-53231203D01*
X176300828Y-53231203D02*
X176372257Y-53088346D01*
X176372257Y-53088346D02*
X176515114Y-52945489D01*
X176515114Y-52945489D02*
X176800828Y-52874060D01*
X176800828Y-52874060D02*
X177300828Y-52874060D01*
X177300828Y-52874060D02*
X177586542Y-52945489D01*
X177586542Y-52945489D02*
X177729400Y-53088346D01*
X177729400Y-53088346D02*
X177800828Y-53231203D01*
X177800828Y-53231203D02*
X177800828Y-53516917D01*
X177800828Y-53516917D02*
X177729400Y-53659775D01*
X177729400Y-53659775D02*
X177586542Y-53802632D01*
X177586542Y-53802632D02*
X177300828Y-53874060D01*
X177300828Y-53874060D02*
X176800828Y-53874060D01*
X176800828Y-53874060D02*
X176515114Y-53802632D01*
X176515114Y-53802632D02*
X176372257Y-53659775D01*
X176372257Y-53659775D02*
X176300828Y-53516917D01*
X177015114Y-51731203D02*
X177015114Y-52231203D01*
X177800828Y-52231203D02*
X176300828Y-52231203D01*
X176300828Y-52231203D02*
X176300828Y-51516917D01*
X176443685Y-51016917D02*
X176372257Y-50945489D01*
X176372257Y-50945489D02*
X176300828Y-50802632D01*
X176300828Y-50802632D02*
X176300828Y-50445489D01*
X176300828Y-50445489D02*
X176372257Y-50302632D01*
X176372257Y-50302632D02*
X176443685Y-50231203D01*
X176443685Y-50231203D02*
X176586542Y-50159774D01*
X176586542Y-50159774D02*
X176729400Y-50159774D01*
X176729400Y-50159774D02*
X176943685Y-50231203D01*
X176943685Y-50231203D02*
X177800828Y-51088346D01*
X177800828Y-51088346D02*
X177800828Y-50159774D01*
D15*
X37685151Y-122154819D02*
X37685151Y-121154819D01*
X37685151Y-121631009D02*
X38256579Y-121631009D01*
X38256579Y-122154819D02*
X38256579Y-121154819D01*
X39256579Y-122154819D02*
X38685151Y-122154819D01*
X38970865Y-122154819D02*
X38970865Y-121154819D01*
X38970865Y-121154819D02*
X38875627Y-121297676D01*
X38875627Y-121297676D02*
X38780389Y-121392914D01*
X38780389Y-121392914D02*
X38685151Y-121440533D01*
X86238095Y-122154819D02*
X86238095Y-121154819D01*
X86238095Y-121631009D02*
X86809523Y-121631009D01*
X86809523Y-122154819D02*
X86809523Y-121154819D01*
X87714285Y-121488152D02*
X87714285Y-122154819D01*
X87476190Y-121107200D02*
X87238095Y-121821485D01*
X87238095Y-121821485D02*
X87857142Y-121821485D01*
D17*
%TO.C,TP9*%
X59950000Y-142250000D02*
G75*
G02*
X58050000Y-142250000I-950000J0D01*
G01*
X58050000Y-142250000D02*
G75*
G02*
X59950000Y-142250000I950000J0D01*
G01*
%TO.C,C43*%
X85990000Y-144115580D02*
X85990000Y-143834420D01*
X87010000Y-144115580D02*
X87010000Y-143834420D01*
%TO.C,J2*%
X71690000Y-155540000D02*
X71690000Y-163360000D01*
X71690000Y-157140000D02*
X72610000Y-157140000D01*
X71690000Y-163360000D02*
X81810000Y-163360000D01*
X72450000Y-159500000D02*
X72450000Y-161100000D01*
X72450000Y-161100000D02*
X73450000Y-161100000D01*
X72610000Y-155540000D02*
X71690000Y-155540000D01*
X72610000Y-157140000D02*
X72610000Y-155540000D01*
X72890000Y-157140000D02*
X72610000Y-157140000D01*
X72890000Y-157140000D02*
X72890000Y-155925000D01*
X72950000Y-161100000D02*
X72950000Y-163360000D01*
X73450000Y-159500000D02*
X72450000Y-159500000D01*
X73450000Y-161100000D02*
X73450000Y-159500000D01*
X73450000Y-161100000D02*
X73450000Y-163360000D01*
X74250000Y-159000000D02*
X79250000Y-159000000D01*
X74250000Y-163360000D02*
X74250000Y-159000000D01*
X79250000Y-159000000D02*
X79250000Y-163360000D01*
X80050000Y-159500000D02*
X81050000Y-159500000D01*
X80050000Y-161100000D02*
X80050000Y-159500000D01*
X80890000Y-155540000D02*
X80890000Y-157140000D01*
X80890000Y-157140000D02*
X80610000Y-157140000D01*
X81050000Y-159500000D02*
X81050000Y-161100000D01*
X81050000Y-161100000D02*
X80050000Y-161100000D01*
X81810000Y-155540000D02*
X80890000Y-155540000D01*
X81810000Y-157140000D02*
X80890000Y-157140000D01*
X81810000Y-163360000D02*
X81810000Y-155540000D01*
%TO.C,J14*%
X38140000Y-137010000D02*
X38140000Y-149690000D01*
X41710000Y-135290000D02*
X45960000Y-135290000D01*
X41710000Y-151410000D02*
X45960000Y-151410000D01*
X44360000Y-136310000D02*
X44360000Y-137590000D01*
X44360000Y-137590000D02*
X47250000Y-137590000D01*
X44360000Y-150390000D02*
X44360000Y-149110000D01*
X45960000Y-135290000D02*
X45960000Y-136310000D01*
X45960000Y-136310000D02*
X44360000Y-136310000D01*
X45960000Y-150390000D02*
X44360000Y-150390000D01*
X45960000Y-151410000D02*
X45960000Y-150390000D01*
%TO.C,SW2*%
X85350000Y-130100000D02*
X85350000Y-130400000D01*
X85350000Y-132900000D02*
X85350000Y-132600000D01*
X88650000Y-130100000D02*
X85350000Y-130100000D01*
X88650000Y-130400000D02*
X88650000Y-130100000D01*
X88650000Y-132600000D02*
X88650000Y-132900000D01*
X88650000Y-132900000D02*
X85350000Y-132900000D01*
%TO.C,C1*%
X78872164Y-147890000D02*
X79087836Y-147890000D01*
X78872164Y-148610000D02*
X79087836Y-148610000D01*
%TO.C,R19*%
X76977500Y-152662258D02*
X76977500Y-152187742D01*
X78022500Y-152662258D02*
X78022500Y-152187742D01*
%TO.C,C40*%
X86365000Y-140587836D02*
X86365000Y-140372164D01*
X87085000Y-140587836D02*
X87085000Y-140372164D01*
%TO.C,C13*%
X72390000Y-147587836D02*
X72390000Y-147372164D01*
X73110000Y-147587836D02*
X73110000Y-147372164D01*
%TO.C,U4*%
X51390000Y-147952500D02*
X51390000Y-148427500D01*
X51390000Y-152172500D02*
X51390000Y-151697500D01*
X51865000Y-147952500D02*
X51390000Y-147952500D01*
X51865000Y-152172500D02*
X51390000Y-152172500D01*
X55135000Y-147952500D02*
X55610000Y-147952500D01*
X55135000Y-152172500D02*
X55310000Y-152172500D01*
X55610000Y-147952500D02*
X55610000Y-148427500D01*
X55610000Y-151697500D02*
X55610000Y-151932500D01*
X55850000Y-152502500D02*
X55370000Y-152502500D01*
X55610000Y-152172500D01*
X55850000Y-152502500D01*
G36*
X55850000Y-152502500D02*
G01*
X55370000Y-152502500D01*
X55610000Y-152172500D01*
X55850000Y-152502500D01*
G37*
%TO.C,C15*%
X64490000Y-148390580D02*
X64490000Y-148109420D01*
X65510000Y-148390580D02*
X65510000Y-148109420D01*
%TO.C,TP7*%
X84950000Y-152250000D02*
G75*
G02*
X83050000Y-152250000I-950000J0D01*
G01*
X83050000Y-152250000D02*
G75*
G02*
X84950000Y-152250000I950000J0D01*
G01*
%TO.C,C14*%
X76220000Y-147412164D02*
X76220000Y-147627836D01*
X76940000Y-147412164D02*
X76940000Y-147627836D01*
%TO.C,C41*%
X83365000Y-140587836D02*
X83365000Y-140372164D01*
X84085000Y-140587836D02*
X84085000Y-140372164D01*
%TO.C,J9*%
X72650000Y-122725000D02*
X72650000Y-123975000D01*
X72940000Y-123015000D02*
X72940000Y-128985000D01*
X72940000Y-128985000D02*
X80560000Y-128985000D01*
X72950000Y-123025000D02*
X72950000Y-123775000D01*
X72950000Y-123775000D02*
X74750000Y-123775000D01*
X72950000Y-125275000D02*
X73700000Y-125275000D01*
X73700000Y-125275000D02*
X73700000Y-128225000D01*
X73700000Y-128225000D02*
X76750000Y-128225000D01*
X73900000Y-122725000D02*
X72650000Y-122725000D01*
X74750000Y-123025000D02*
X72950000Y-123025000D01*
X74750000Y-123775000D02*
X74750000Y-123025000D01*
X76250000Y-123025000D02*
X76250000Y-123775000D01*
X76250000Y-123775000D02*
X77250000Y-123775000D01*
X77250000Y-123025000D02*
X76250000Y-123025000D01*
X77250000Y-123775000D02*
X77250000Y-123025000D01*
X78750000Y-123025000D02*
X78750000Y-123775000D01*
X78750000Y-123775000D02*
X80550000Y-123775000D01*
X79800000Y-125275000D02*
X79800000Y-128225000D01*
X79800000Y-128225000D02*
X76750000Y-128225000D01*
X80550000Y-123025000D02*
X78750000Y-123025000D01*
X80550000Y-123775000D02*
X80550000Y-123025000D01*
X80550000Y-125275000D02*
X79800000Y-125275000D01*
X80560000Y-123015000D02*
X72940000Y-123015000D01*
X80560000Y-128985000D02*
X80560000Y-123015000D01*
%TO.C,J4*%
X42390000Y-158640000D02*
X42390000Y-159890000D01*
X42690000Y-158940000D02*
X42690000Y-163660000D01*
X42690000Y-160250000D02*
X43300000Y-160250000D01*
X42690000Y-161550000D02*
X43300000Y-161550000D01*
X42690000Y-163660000D02*
X52810000Y-163660000D01*
X43300000Y-159550000D02*
X43300000Y-163050000D01*
X43300000Y-163050000D02*
X52200000Y-163050000D01*
X43640000Y-158640000D02*
X42390000Y-158640000D01*
X44150000Y-158740000D02*
X44150000Y-158940000D01*
X44450000Y-158740000D02*
X44150000Y-158740000D01*
X44450000Y-158840000D02*
X44150000Y-158840000D01*
X44450000Y-158940000D02*
X44450000Y-158740000D01*
X45250000Y-158940000D02*
X45250000Y-159550000D01*
X45250000Y-159550000D02*
X43300000Y-159550000D01*
X45650000Y-162550000D02*
X45850000Y-162550000D01*
X45650000Y-163050000D02*
X45650000Y-162550000D01*
X45750000Y-163050000D02*
X45750000Y-162550000D01*
X45850000Y-162550000D02*
X45850000Y-163050000D01*
X47650000Y-162550000D02*
X47850000Y-162550000D01*
X47650000Y-163050000D02*
X47650000Y-162550000D01*
X47750000Y-163050000D02*
X47750000Y-162550000D01*
X47850000Y-162550000D02*
X47850000Y-163050000D01*
X49650000Y-162550000D02*
X49850000Y-162550000D01*
X49650000Y-163050000D02*
X49650000Y-162550000D01*
X49750000Y-163050000D02*
X49750000Y-162550000D01*
X49850000Y-162550000D02*
X49850000Y-163050000D01*
X50250000Y-159550000D02*
X50250000Y-158940000D01*
X52200000Y-159550000D02*
X50250000Y-159550000D01*
X52200000Y-163050000D02*
X52200000Y-159550000D01*
X52810000Y-158940000D02*
X42690000Y-158940000D01*
X52810000Y-160250000D02*
X52200000Y-160250000D01*
X52810000Y-161550000D02*
X52200000Y-161550000D01*
X52810000Y-163660000D02*
X52810000Y-158940000D01*
%TO.C,R22*%
X62227500Y-133012742D02*
X62227500Y-133487258D01*
X63272500Y-133012742D02*
X63272500Y-133487258D01*
%TO.C,C16*%
X58240000Y-149084420D02*
X58240000Y-149365580D01*
X59260000Y-149084420D02*
X59260000Y-149365580D01*
%TO.C,R23*%
X65727500Y-133487258D02*
X65727500Y-133012742D01*
X66772500Y-133487258D02*
X66772500Y-133012742D01*
%TO.C,R18*%
X71727500Y-152699758D02*
X71727500Y-152225242D01*
X72772500Y-152699758D02*
X72772500Y-152225242D01*
%TO.C,D2*%
X75015000Y-151662500D02*
X75015000Y-153947500D01*
X75015000Y-153947500D02*
X76485000Y-153947500D01*
X76485000Y-153947500D02*
X76485000Y-151662500D01*
%TO.C,TP2*%
X84950000Y-147250000D02*
G75*
G02*
X83050000Y-147250000I-950000J0D01*
G01*
X83050000Y-147250000D02*
G75*
G02*
X84950000Y-147250000I950000J0D01*
G01*
%TO.C,J3*%
X42390000Y-153140000D02*
X42390000Y-154390000D01*
X42690000Y-153440000D02*
X42690000Y-158160000D01*
X42690000Y-154750000D02*
X43300000Y-154750000D01*
X42690000Y-156050000D02*
X43300000Y-156050000D01*
X42690000Y-158160000D02*
X52810000Y-158160000D01*
X43300000Y-154050000D02*
X43300000Y-157550000D01*
X43300000Y-157550000D02*
X52200000Y-157550000D01*
X43640000Y-153140000D02*
X42390000Y-153140000D01*
X44150000Y-153240000D02*
X44150000Y-153440000D01*
X44450000Y-153240000D02*
X44150000Y-153240000D01*
X44450000Y-153340000D02*
X44150000Y-153340000D01*
X44450000Y-153440000D02*
X44450000Y-153240000D01*
X45250000Y-153440000D02*
X45250000Y-154050000D01*
X45250000Y-154050000D02*
X43300000Y-154050000D01*
X45650000Y-157050000D02*
X45850000Y-157050000D01*
X45650000Y-157550000D02*
X45650000Y-157050000D01*
X45750000Y-157550000D02*
X45750000Y-157050000D01*
X45850000Y-157050000D02*
X45850000Y-157550000D01*
X47650000Y-157050000D02*
X47850000Y-157050000D01*
X47650000Y-157550000D02*
X47650000Y-157050000D01*
X47750000Y-157550000D02*
X47750000Y-157050000D01*
X47850000Y-157050000D02*
X47850000Y-157550000D01*
X49650000Y-157050000D02*
X49850000Y-157050000D01*
X49650000Y-157550000D02*
X49650000Y-157050000D01*
X49750000Y-157550000D02*
X49750000Y-157050000D01*
X49850000Y-157050000D02*
X49850000Y-157550000D01*
X50250000Y-154050000D02*
X50250000Y-153440000D01*
X52200000Y-154050000D02*
X50250000Y-154050000D01*
X52200000Y-157550000D02*
X52200000Y-154050000D01*
X52810000Y-153440000D02*
X42690000Y-153440000D01*
X52810000Y-154750000D02*
X52200000Y-154750000D01*
X52810000Y-156050000D02*
X52200000Y-156050000D01*
X52810000Y-158160000D02*
X52810000Y-153440000D01*
%TO.C,TP4*%
X89450000Y-149750000D02*
G75*
G02*
X87550000Y-149750000I-950000J0D01*
G01*
X87550000Y-149750000D02*
G75*
G02*
X89450000Y-149750000I950000J0D01*
G01*
%TO.C,TP1*%
X84950000Y-149750000D02*
G75*
G02*
X83050000Y-149750000I-950000J0D01*
G01*
X83050000Y-149750000D02*
G75*
G02*
X84950000Y-149750000I950000J0D01*
G01*
%TO.C,R26*%
X67977500Y-161562258D02*
X67977500Y-161087742D01*
X69022500Y-161562258D02*
X69022500Y-161087742D01*
%TO.C,C8*%
X73334420Y-132490000D02*
X73615580Y-132490000D01*
X73334420Y-133510000D02*
X73615580Y-133510000D01*
%TO.C,C2*%
X78892164Y-146890000D02*
X79107836Y-146890000D01*
X78892164Y-147610000D02*
X79107836Y-147610000D01*
%TO.C,J1*%
X61960000Y-137260000D02*
X63235000Y-137260000D01*
X63235000Y-137195000D02*
X63235000Y-137260000D01*
X63235000Y-137195000D02*
X66865000Y-137195000D01*
X63235000Y-146240000D02*
X63235000Y-146305000D01*
X63235000Y-146305000D02*
X66865000Y-146305000D01*
X66865000Y-137195000D02*
X66865000Y-137260000D01*
X66865000Y-146240000D02*
X66865000Y-146305000D01*
D15*
%TO.C,IC4*%
X52080000Y-143822500D02*
X52080000Y-139672500D01*
X57230000Y-143822500D02*
X57230000Y-139672500D01*
D17*
X52080000Y-144247500D02*
X51750000Y-144487500D01*
X51750000Y-144007500D01*
X52080000Y-144247500D01*
G36*
X52080000Y-144247500D02*
G01*
X51750000Y-144487500D01*
X51750000Y-144007500D01*
X52080000Y-144247500D01*
G37*
D18*
%TO.C,U5*%
X61050000Y-147600000D02*
X62250000Y-147600000D01*
X61050000Y-150500000D02*
X61050000Y-147600000D01*
X62250000Y-147600000D02*
X62250000Y-150500000D01*
X62250000Y-150500000D02*
X61050000Y-150500000D01*
X63500000Y-150550000D02*
X62600000Y-150550000D01*
D17*
%TO.C,J8*%
X54390000Y-158640000D02*
X54390000Y-159890000D01*
X54690000Y-158940000D02*
X54690000Y-163660000D01*
X54690000Y-160250000D02*
X55300000Y-160250000D01*
X54690000Y-161550000D02*
X55300000Y-161550000D01*
X54690000Y-163660000D02*
X64810000Y-163660000D01*
X55300000Y-159550000D02*
X55300000Y-163050000D01*
X55300000Y-163050000D02*
X64200000Y-163050000D01*
X55640000Y-158640000D02*
X54390000Y-158640000D01*
X56150000Y-158740000D02*
X56150000Y-158940000D01*
X56450000Y-158740000D02*
X56150000Y-158740000D01*
X56450000Y-158840000D02*
X56150000Y-158840000D01*
X56450000Y-158940000D02*
X56450000Y-158740000D01*
X57250000Y-158940000D02*
X57250000Y-159550000D01*
X57250000Y-159550000D02*
X55300000Y-159550000D01*
X57650000Y-162550000D02*
X57850000Y-162550000D01*
X57650000Y-163050000D02*
X57650000Y-162550000D01*
X57750000Y-163050000D02*
X57750000Y-162550000D01*
X57850000Y-162550000D02*
X57850000Y-163050000D01*
X59650000Y-162550000D02*
X59850000Y-162550000D01*
X59650000Y-163050000D02*
X59650000Y-162550000D01*
X59750000Y-163050000D02*
X59750000Y-162550000D01*
X59850000Y-162550000D02*
X59850000Y-163050000D01*
X61650000Y-162550000D02*
X61850000Y-162550000D01*
X61650000Y-163050000D02*
X61650000Y-162550000D01*
X61750000Y-163050000D02*
X61750000Y-162550000D01*
X61850000Y-162550000D02*
X61850000Y-163050000D01*
X62250000Y-159550000D02*
X62250000Y-158940000D01*
X64200000Y-159550000D02*
X62250000Y-159550000D01*
X64200000Y-163050000D02*
X64200000Y-159550000D01*
X64810000Y-158940000D02*
X54690000Y-158940000D01*
X64810000Y-160250000D02*
X64200000Y-160250000D01*
X64810000Y-161550000D02*
X64200000Y-161550000D01*
X64810000Y-163660000D02*
X64810000Y-158940000D01*
D10*
%TO.C,FL1*%
X87312000Y-139990000D02*
X87312000Y-139990000D01*
X87412000Y-139990000D02*
X87412000Y-139990000D01*
X87612000Y-139400000D02*
X89512000Y-139400000D01*
X87612000Y-139800000D02*
X87612000Y-139400000D01*
X87612000Y-140600000D02*
X87612000Y-140200000D01*
X89512000Y-139400000D02*
X89512000Y-140600000D01*
X89512000Y-140600000D02*
X87612000Y-140600000D01*
X87312000Y-139990000D02*
G75*
G02*
X87412000Y-139990000I50000J0D01*
G01*
X87412000Y-139990000D02*
G75*
G02*
X87312000Y-139990000I-50000J0D01*
G01*
D17*
%TO.C,R31*%
X68280242Y-153020000D02*
X68754758Y-153020000D01*
X68280242Y-154065000D02*
X68754758Y-154065000D01*
%TO.C,U1*%
X73565000Y-137640000D02*
X74040000Y-137640000D01*
X73565000Y-138115000D02*
X73565000Y-137640000D01*
X73565000Y-144385000D02*
X73565000Y-144560000D01*
X74040000Y-144860000D02*
X73805000Y-144860000D01*
X80785000Y-137640000D02*
X80310000Y-137640000D01*
X80785000Y-138115000D02*
X80785000Y-137640000D01*
X80785000Y-144385000D02*
X80785000Y-144860000D01*
X80785000Y-144860000D02*
X80310000Y-144860000D01*
X73565000Y-144860000D02*
X73235000Y-145100000D01*
X73235000Y-144620000D01*
X73565000Y-144860000D01*
G36*
X73565000Y-144860000D02*
G01*
X73235000Y-145100000D01*
X73235000Y-144620000D01*
X73565000Y-144860000D01*
G37*
%TO.C,J5*%
X42390000Y-122890000D02*
X42390000Y-124140000D01*
X42690000Y-123190000D02*
X42690000Y-127910000D01*
X42690000Y-124500000D02*
X43300000Y-124500000D01*
X42690000Y-125800000D02*
X43300000Y-125800000D01*
X42690000Y-127910000D02*
X52810000Y-127910000D01*
X43300000Y-123800000D02*
X43300000Y-127300000D01*
X43300000Y-127300000D02*
X52200000Y-127300000D01*
X43640000Y-122890000D02*
X42390000Y-122890000D01*
X44150000Y-122990000D02*
X44150000Y-123190000D01*
X44450000Y-122990000D02*
X44150000Y-122990000D01*
X44450000Y-123090000D02*
X44150000Y-123090000D01*
X44450000Y-123190000D02*
X44450000Y-122990000D01*
X45250000Y-123190000D02*
X45250000Y-123800000D01*
X45250000Y-123800000D02*
X43300000Y-123800000D01*
X45650000Y-126800000D02*
X45850000Y-126800000D01*
X45650000Y-127300000D02*
X45650000Y-126800000D01*
X45750000Y-127300000D02*
X45750000Y-126800000D01*
X45850000Y-126800000D02*
X45850000Y-127300000D01*
X47650000Y-126800000D02*
X47850000Y-126800000D01*
X47650000Y-127300000D02*
X47650000Y-126800000D01*
X47750000Y-127300000D02*
X47750000Y-126800000D01*
X47850000Y-126800000D02*
X47850000Y-127300000D01*
X49650000Y-126800000D02*
X49850000Y-126800000D01*
X49650000Y-127300000D02*
X49650000Y-126800000D01*
X49750000Y-127300000D02*
X49750000Y-126800000D01*
X49850000Y-126800000D02*
X49850000Y-127300000D01*
X50250000Y-123800000D02*
X50250000Y-123190000D01*
X52200000Y-123800000D02*
X50250000Y-123800000D01*
X52200000Y-127300000D02*
X52200000Y-123800000D01*
X52810000Y-123190000D02*
X42690000Y-123190000D01*
X52810000Y-124500000D02*
X52200000Y-124500000D01*
X52810000Y-125800000D02*
X52200000Y-125800000D01*
X52810000Y-127910000D02*
X52810000Y-123190000D01*
%TO.C,C38*%
X73590580Y-135490000D02*
X73309420Y-135490000D01*
X73590580Y-136510000D02*
X73309420Y-136510000D01*
%TO.C,C33*%
X59490000Y-145109420D02*
X59490000Y-145390580D01*
X60510000Y-145109420D02*
X60510000Y-145390580D01*
%TO.C,C32*%
X57740000Y-145390580D02*
X57740000Y-145109420D01*
X58760000Y-145390580D02*
X58760000Y-145109420D01*
%TO.C,J7*%
X54390000Y-153090000D02*
X54390000Y-154340000D01*
X54690000Y-153390000D02*
X54690000Y-158110000D01*
X54690000Y-154700000D02*
X55300000Y-154700000D01*
X54690000Y-156000000D02*
X55300000Y-156000000D01*
X54690000Y-158110000D02*
X64810000Y-158110000D01*
X55300000Y-154000000D02*
X55300000Y-157500000D01*
X55300000Y-157500000D02*
X64200000Y-157500000D01*
X55640000Y-153090000D02*
X54390000Y-153090000D01*
X56150000Y-153190000D02*
X56150000Y-153390000D01*
X56450000Y-153190000D02*
X56150000Y-153190000D01*
X56450000Y-153290000D02*
X56150000Y-153290000D01*
X56450000Y-153390000D02*
X56450000Y-153190000D01*
X57250000Y-153390000D02*
X57250000Y-154000000D01*
X57250000Y-154000000D02*
X55300000Y-154000000D01*
X57650000Y-157000000D02*
X57850000Y-157000000D01*
X57650000Y-157500000D02*
X57650000Y-157000000D01*
X57750000Y-157500000D02*
X57750000Y-157000000D01*
X57850000Y-157000000D02*
X57850000Y-157500000D01*
X59650000Y-157000000D02*
X59850000Y-157000000D01*
X59650000Y-157500000D02*
X59650000Y-157000000D01*
X59750000Y-157500000D02*
X59750000Y-157000000D01*
X59850000Y-157000000D02*
X59850000Y-157500000D01*
X61650000Y-157000000D02*
X61850000Y-157000000D01*
X61650000Y-157500000D02*
X61650000Y-157000000D01*
X61750000Y-157500000D02*
X61750000Y-157000000D01*
X61850000Y-157000000D02*
X61850000Y-157500000D01*
X62250000Y-154000000D02*
X62250000Y-153390000D01*
X64200000Y-154000000D02*
X62250000Y-154000000D01*
X64200000Y-157500000D02*
X64200000Y-154000000D01*
X64810000Y-153390000D02*
X54690000Y-153390000D01*
X64810000Y-154700000D02*
X64200000Y-154700000D01*
X64810000Y-156000000D02*
X64200000Y-156000000D01*
X64810000Y-158110000D02*
X64810000Y-153390000D01*
%TO.C,R25*%
X78727500Y-152187742D02*
X78727500Y-152662258D01*
X79772500Y-152187742D02*
X79772500Y-152662258D01*
%TO.C,C6*%
X71490000Y-144609420D02*
X71490000Y-144890580D01*
X72510000Y-144609420D02*
X72510000Y-144890580D01*
D10*
%TO.C,Y2*%
X81250000Y-134475000D02*
X83250000Y-134475000D01*
X81250000Y-134575000D02*
X81250000Y-134475000D01*
X81250000Y-136875000D02*
X81250000Y-134575000D01*
X81250000Y-136875000D02*
X82250000Y-136875000D01*
X82750000Y-137175000D02*
X82750000Y-137175000D01*
X82750000Y-137275000D02*
X82750000Y-137275000D01*
X83250000Y-134475000D02*
X83250000Y-136875000D01*
X82750000Y-137175000D02*
G75*
G02*
X82750000Y-137275000I0J-50000D01*
G01*
X82750000Y-137275000D02*
G75*
G02*
X82750000Y-137175000I0J50000D01*
G01*
D17*
%TO.C,C39*%
X78140580Y-134990000D02*
X77859420Y-134990000D01*
X78140580Y-136010000D02*
X77859420Y-136010000D01*
%TO.C,J6*%
X42390000Y-128640000D02*
X42390000Y-129890000D01*
X42690000Y-128940000D02*
X42690000Y-133660000D01*
X42690000Y-130250000D02*
X43300000Y-130250000D01*
X42690000Y-131550000D02*
X43300000Y-131550000D01*
X42690000Y-133660000D02*
X52810000Y-133660000D01*
X43300000Y-129550000D02*
X43300000Y-133050000D01*
X43300000Y-133050000D02*
X52200000Y-133050000D01*
X43640000Y-128640000D02*
X42390000Y-128640000D01*
X44150000Y-128740000D02*
X44150000Y-128940000D01*
X44450000Y-128740000D02*
X44150000Y-128740000D01*
X44450000Y-128840000D02*
X44150000Y-128840000D01*
X44450000Y-128940000D02*
X44450000Y-128740000D01*
X45250000Y-128940000D02*
X45250000Y-129550000D01*
X45250000Y-129550000D02*
X43300000Y-129550000D01*
X45650000Y-132550000D02*
X45850000Y-132550000D01*
X45650000Y-133050000D02*
X45650000Y-132550000D01*
X45750000Y-133050000D02*
X45750000Y-132550000D01*
X45850000Y-132550000D02*
X45850000Y-133050000D01*
X47650000Y-132550000D02*
X47850000Y-132550000D01*
X47650000Y-133050000D02*
X47650000Y-132550000D01*
X47750000Y-133050000D02*
X47750000Y-132550000D01*
X47850000Y-132550000D02*
X47850000Y-133050000D01*
X49650000Y-132550000D02*
X49850000Y-132550000D01*
X49650000Y-133050000D02*
X49650000Y-132550000D01*
X49750000Y-133050000D02*
X49750000Y-132550000D01*
X49850000Y-132550000D02*
X49850000Y-133050000D01*
X50250000Y-129550000D02*
X50250000Y-128940000D01*
X52200000Y-129550000D02*
X50250000Y-129550000D01*
X52200000Y-133050000D02*
X52200000Y-129550000D01*
X52810000Y-128940000D02*
X42690000Y-128940000D01*
X52810000Y-130250000D02*
X52200000Y-130250000D01*
X52810000Y-131550000D02*
X52200000Y-131550000D01*
X52810000Y-133660000D02*
X52810000Y-128940000D01*
%TO.C,TP5*%
X89200000Y-147250000D02*
G75*
G02*
X87300000Y-147250000I-950000J0D01*
G01*
X87300000Y-147250000D02*
G75*
G02*
X89200000Y-147250000I950000J0D01*
G01*
%TO.C,R30*%
X58912258Y-151227500D02*
X58437742Y-151227500D01*
X58912258Y-152272500D02*
X58437742Y-152272500D01*
%TO.C,C34*%
X49240000Y-142384420D02*
X49240000Y-142665580D01*
X50260000Y-142384420D02*
X50260000Y-142665580D01*
%TO.C,C42*%
X78892164Y-149140000D02*
X79107836Y-149140000D01*
X78892164Y-149860000D02*
X79107836Y-149860000D01*
%TO.C,C7*%
X84490000Y-144115580D02*
X84490000Y-143834420D01*
X85510000Y-144115580D02*
X85510000Y-143834420D01*
%TO.C,D1*%
X73265000Y-151662500D02*
X73265000Y-153947500D01*
X73265000Y-153947500D02*
X74735000Y-153947500D01*
X74735000Y-153947500D02*
X74735000Y-151662500D01*
%TO.C,C11*%
X71390580Y-139490000D02*
X71109420Y-139490000D01*
X71390580Y-140510000D02*
X71109420Y-140510000D01*
%TO.C,C12*%
X73590580Y-133990000D02*
X73309420Y-133990000D01*
X73590580Y-135010000D02*
X73309420Y-135010000D01*
%TO.C,R27*%
X69727500Y-161087742D02*
X69727500Y-161562258D01*
X70772500Y-161087742D02*
X70772500Y-161562258D01*
%TO.C,D4*%
X63765000Y-131765000D02*
X63765000Y-134050000D01*
X65235000Y-131765000D02*
X63765000Y-131765000D01*
X65235000Y-134050000D02*
X65235000Y-131765000D01*
%TO.C,U3*%
X68957500Y-147182500D02*
X68207500Y-147182500D01*
X68957500Y-152402500D02*
X67907500Y-152402500D01*
X70077500Y-147182500D02*
X71127500Y-147182500D01*
X70077500Y-152402500D02*
X71127500Y-152402500D01*
X67907500Y-147182500D02*
X67767500Y-146992500D01*
X68047500Y-146992500D01*
X67907500Y-147182500D01*
G36*
X67907500Y-147182500D02*
G01*
X67767500Y-146992500D01*
X68047500Y-146992500D01*
X67907500Y-147182500D01*
G37*
%TO.C,C37*%
X65640580Y-150240000D02*
X65359420Y-150240000D01*
X65640580Y-151260000D02*
X65359420Y-151260000D01*
D10*
%TO.C,X1*%
X73350000Y-146700000D02*
X75850000Y-146700000D01*
X73350000Y-148300000D02*
X73350000Y-146700000D01*
X75850000Y-146700000D02*
X75850000Y-147100000D01*
X75850000Y-148300000D02*
X73350000Y-148300000D01*
X75850000Y-148300000D02*
X75850000Y-147900000D01*
X76050000Y-147500000D02*
X76050000Y-147500000D01*
X76150000Y-147500000D02*
X76150000Y-147500000D01*
X76050000Y-147500000D02*
G75*
G02*
X76150000Y-147500000I50000J0D01*
G01*
X76150000Y-147500000D02*
G75*
G02*
X76050000Y-147500000I-50000J0D01*
G01*
D17*
%TO.C,C5*%
X69740000Y-144609420D02*
X69740000Y-144890580D01*
X70760000Y-144609420D02*
X70760000Y-144890580D01*
%TO.C,SW1*%
X58015000Y-124875000D02*
X58015000Y-127625000D01*
X58240000Y-122840000D02*
X71160000Y-122840000D01*
X71160000Y-129660000D01*
X58240000Y-129660000D01*
X58240000Y-122840000D01*
%TO.C,R24*%
X82837742Y-130977500D02*
X83312258Y-130977500D01*
X82837742Y-132022500D02*
X83312258Y-132022500D01*
%TO.C,L4*%
X77399622Y-133190000D02*
X76600378Y-133190000D01*
X77399622Y-134310000D02*
X76600378Y-134310000D01*
%TO.C,C36*%
X66240000Y-148134420D02*
X66240000Y-148415580D01*
X67260000Y-148134420D02*
X67260000Y-148415580D01*
%TO.C,D3*%
X60265000Y-132450000D02*
X60265000Y-134735000D01*
X60265000Y-134735000D02*
X61735000Y-134735000D01*
X61735000Y-134735000D02*
X61735000Y-132450000D01*
%TD*%
M02*
