%TF.GenerationSoftware,KiCad,Pcbnew,9.0.1*%
%TF.CreationDate,2025-09-24T08:41:34+02:00*%
%TF.ProjectId,Main_Board,4d61696e-5f42-46f6-9172-642e6b696361,rev?*%
%TF.SameCoordinates,Original*%
%TF.FileFunction,Drillmap*%
%TF.FilePolarity,Positive*%
%FSLAX45Y45*%
G04 Gerber Fmt 4.5, Leading zero omitted, Abs format (unit mm)*
G04 Created by KiCad (PCBNEW 9.0.1) date 2025-09-24 08:41:34*
%MOMM*%
%LPD*%
G01*
G04 APERTURE LIST*
%ADD10C,0.050000*%
%ADD11C,0.200000*%
%ADD12C,0.100000*%
G04 APERTURE END LIST*
D10*
X8699600Y-12236281D02*
G75*
G02*
X9053719Y-12590400I0J-354119D01*
G01*
X9057000Y-13645000D02*
X9880000Y-13645000D01*
X9053719Y-12590400D02*
X9057000Y-13645000D01*
X3484999Y-16063000D02*
G75*
G02*
X3702167Y-15736433I354121J0D01*
G01*
X9880000Y-13645000D02*
X9880000Y-14840000D01*
X3721050Y-12920298D02*
G75*
G02*
X3492000Y-12589000I125070J331298D01*
G01*
X9054000Y-14840000D02*
X9056000Y-16076000D01*
X3721050Y-12920298D02*
X3702167Y-15736433D01*
X3839119Y-16417119D02*
G75*
G02*
X3485001Y-16063000I1J354119D01*
G01*
X3492000Y-12589000D02*
G75*
G02*
X3846119Y-12234880I354120J0D01*
G01*
X9056000Y-16076000D02*
G75*
G02*
X8725881Y-16410144I-330120J-4000D01*
G01*
X3839119Y-16417118D02*
X8725880Y-16410144D01*
X8699600Y-12236281D02*
X3845124Y-12234881D01*
X9880000Y-14840000D02*
X9054000Y-14840000D01*
D11*
D12*
X8660000Y-13110000D02*
X8740000Y-13190000D01*
X8740000Y-13110000D02*
X8660000Y-13190000D01*
D11*
X3743275Y-16731102D02*
X3743275Y-16531102D01*
X3743275Y-16531102D02*
X3790894Y-16531102D01*
X3790894Y-16531102D02*
X3819466Y-16540626D01*
X3819466Y-16540626D02*
X3838514Y-16559674D01*
X3838514Y-16559674D02*
X3848037Y-16578721D01*
X3848037Y-16578721D02*
X3857561Y-16616817D01*
X3857561Y-16616817D02*
X3857561Y-16645388D01*
X3857561Y-16645388D02*
X3848037Y-16683483D01*
X3848037Y-16683483D02*
X3838514Y-16702531D01*
X3838514Y-16702531D02*
X3819466Y-16721579D01*
X3819466Y-16721579D02*
X3790894Y-16731102D01*
X3790894Y-16731102D02*
X3743275Y-16731102D01*
X3943275Y-16731102D02*
X3943275Y-16597769D01*
X3943275Y-16635864D02*
X3952799Y-16616817D01*
X3952799Y-16616817D02*
X3962323Y-16607293D01*
X3962323Y-16607293D02*
X3981371Y-16597769D01*
X3981371Y-16597769D02*
X4000418Y-16597769D01*
X4067085Y-16731102D02*
X4067085Y-16597769D01*
X4067085Y-16531102D02*
X4057561Y-16540626D01*
X4057561Y-16540626D02*
X4067085Y-16550150D01*
X4067085Y-16550150D02*
X4076609Y-16540626D01*
X4076609Y-16540626D02*
X4067085Y-16531102D01*
X4067085Y-16531102D02*
X4067085Y-16550150D01*
X4190894Y-16731102D02*
X4171847Y-16721579D01*
X4171847Y-16721579D02*
X4162323Y-16702531D01*
X4162323Y-16702531D02*
X4162323Y-16531102D01*
X4295656Y-16731102D02*
X4276609Y-16721579D01*
X4276609Y-16721579D02*
X4267085Y-16702531D01*
X4267085Y-16702531D02*
X4267085Y-16531102D01*
X4524228Y-16731102D02*
X4524228Y-16531102D01*
X4524228Y-16531102D02*
X4590895Y-16673959D01*
X4590895Y-16673959D02*
X4657561Y-16531102D01*
X4657561Y-16531102D02*
X4657561Y-16731102D01*
X4838514Y-16731102D02*
X4838514Y-16626340D01*
X4838514Y-16626340D02*
X4828990Y-16607293D01*
X4828990Y-16607293D02*
X4809942Y-16597769D01*
X4809942Y-16597769D02*
X4771847Y-16597769D01*
X4771847Y-16597769D02*
X4752799Y-16607293D01*
X4838514Y-16721579D02*
X4819466Y-16731102D01*
X4819466Y-16731102D02*
X4771847Y-16731102D01*
X4771847Y-16731102D02*
X4752799Y-16721579D01*
X4752799Y-16721579D02*
X4743276Y-16702531D01*
X4743276Y-16702531D02*
X4743276Y-16683483D01*
X4743276Y-16683483D02*
X4752799Y-16664436D01*
X4752799Y-16664436D02*
X4771847Y-16654912D01*
X4771847Y-16654912D02*
X4819466Y-16654912D01*
X4819466Y-16654912D02*
X4838514Y-16645388D01*
X4933752Y-16597769D02*
X4933752Y-16797769D01*
X4933752Y-16607293D02*
X4952799Y-16597769D01*
X4952799Y-16597769D02*
X4990895Y-16597769D01*
X4990895Y-16597769D02*
X5009942Y-16607293D01*
X5009942Y-16607293D02*
X5019466Y-16616817D01*
X5019466Y-16616817D02*
X5028990Y-16635864D01*
X5028990Y-16635864D02*
X5028990Y-16693007D01*
X5028990Y-16693007D02*
X5019466Y-16712055D01*
X5019466Y-16712055D02*
X5009942Y-16721579D01*
X5009942Y-16721579D02*
X4990895Y-16731102D01*
X4990895Y-16731102D02*
X4952799Y-16731102D01*
X4952799Y-16731102D02*
X4933752Y-16721579D01*
X5114704Y-16712055D02*
X5124228Y-16721579D01*
X5124228Y-16721579D02*
X5114704Y-16731102D01*
X5114704Y-16731102D02*
X5105180Y-16721579D01*
X5105180Y-16721579D02*
X5114704Y-16712055D01*
X5114704Y-16712055D02*
X5114704Y-16731102D01*
X5114704Y-16607293D02*
X5124228Y-16616817D01*
X5124228Y-16616817D02*
X5114704Y-16626340D01*
X5114704Y-16626340D02*
X5105180Y-16616817D01*
X5105180Y-16616817D02*
X5114704Y-16607293D01*
X5114704Y-16607293D02*
X5114704Y-16626340D01*
D12*
X3402499Y-17019619D02*
X3482499Y-17099619D01*
X3482499Y-17019619D02*
X3402499Y-17099619D01*
D11*
X3781371Y-16951102D02*
X3800418Y-16951102D01*
X3800418Y-16951102D02*
X3819466Y-16960626D01*
X3819466Y-16960626D02*
X3828990Y-16970150D01*
X3828990Y-16970150D02*
X3838514Y-16989198D01*
X3838514Y-16989198D02*
X3848037Y-17027293D01*
X3848037Y-17027293D02*
X3848037Y-17074912D01*
X3848037Y-17074912D02*
X3838514Y-17113007D01*
X3838514Y-17113007D02*
X3828990Y-17132055D01*
X3828990Y-17132055D02*
X3819466Y-17141579D01*
X3819466Y-17141579D02*
X3800418Y-17151102D01*
X3800418Y-17151102D02*
X3781371Y-17151102D01*
X3781371Y-17151102D02*
X3762323Y-17141579D01*
X3762323Y-17141579D02*
X3752799Y-17132055D01*
X3752799Y-17132055D02*
X3743275Y-17113007D01*
X3743275Y-17113007D02*
X3733752Y-17074912D01*
X3733752Y-17074912D02*
X3733752Y-17027293D01*
X3733752Y-17027293D02*
X3743275Y-16989198D01*
X3743275Y-16989198D02*
X3752799Y-16970150D01*
X3752799Y-16970150D02*
X3762323Y-16960626D01*
X3762323Y-16960626D02*
X3781371Y-16951102D01*
X3933752Y-17132055D02*
X3943275Y-17141579D01*
X3943275Y-17141579D02*
X3933752Y-17151102D01*
X3933752Y-17151102D02*
X3924228Y-17141579D01*
X3924228Y-17141579D02*
X3933752Y-17132055D01*
X3933752Y-17132055D02*
X3933752Y-17151102D01*
X4057561Y-17036817D02*
X4038514Y-17027293D01*
X4038514Y-17027293D02*
X4028990Y-17017769D01*
X4028990Y-17017769D02*
X4019466Y-16998721D01*
X4019466Y-16998721D02*
X4019466Y-16989198D01*
X4019466Y-16989198D02*
X4028990Y-16970150D01*
X4028990Y-16970150D02*
X4038514Y-16960626D01*
X4038514Y-16960626D02*
X4057561Y-16951102D01*
X4057561Y-16951102D02*
X4095656Y-16951102D01*
X4095656Y-16951102D02*
X4114704Y-16960626D01*
X4114704Y-16960626D02*
X4124228Y-16970150D01*
X4124228Y-16970150D02*
X4133752Y-16989198D01*
X4133752Y-16989198D02*
X4133752Y-16998721D01*
X4133752Y-16998721D02*
X4124228Y-17017769D01*
X4124228Y-17017769D02*
X4114704Y-17027293D01*
X4114704Y-17027293D02*
X4095656Y-17036817D01*
X4095656Y-17036817D02*
X4057561Y-17036817D01*
X4057561Y-17036817D02*
X4038514Y-17046341D01*
X4038514Y-17046341D02*
X4028990Y-17055864D01*
X4028990Y-17055864D02*
X4019466Y-17074912D01*
X4019466Y-17074912D02*
X4019466Y-17113007D01*
X4019466Y-17113007D02*
X4028990Y-17132055D01*
X4028990Y-17132055D02*
X4038514Y-17141579D01*
X4038514Y-17141579D02*
X4057561Y-17151102D01*
X4057561Y-17151102D02*
X4095656Y-17151102D01*
X4095656Y-17151102D02*
X4114704Y-17141579D01*
X4114704Y-17141579D02*
X4124228Y-17132055D01*
X4124228Y-17132055D02*
X4133752Y-17113007D01*
X4133752Y-17113007D02*
X4133752Y-17074912D01*
X4133752Y-17074912D02*
X4124228Y-17055864D01*
X4124228Y-17055864D02*
X4114704Y-17046341D01*
X4114704Y-17046341D02*
X4095656Y-17036817D01*
X4257561Y-16951102D02*
X4276609Y-16951102D01*
X4276609Y-16951102D02*
X4295657Y-16960626D01*
X4295657Y-16960626D02*
X4305180Y-16970150D01*
X4305180Y-16970150D02*
X4314704Y-16989198D01*
X4314704Y-16989198D02*
X4324228Y-17027293D01*
X4324228Y-17027293D02*
X4324228Y-17074912D01*
X4324228Y-17074912D02*
X4314704Y-17113007D01*
X4314704Y-17113007D02*
X4305180Y-17132055D01*
X4305180Y-17132055D02*
X4295657Y-17141579D01*
X4295657Y-17141579D02*
X4276609Y-17151102D01*
X4276609Y-17151102D02*
X4257561Y-17151102D01*
X4257561Y-17151102D02*
X4238514Y-17141579D01*
X4238514Y-17141579D02*
X4228990Y-17132055D01*
X4228990Y-17132055D02*
X4219466Y-17113007D01*
X4219466Y-17113007D02*
X4209942Y-17074912D01*
X4209942Y-17074912D02*
X4209942Y-17027293D01*
X4209942Y-17027293D02*
X4219466Y-16989198D01*
X4219466Y-16989198D02*
X4228990Y-16970150D01*
X4228990Y-16970150D02*
X4238514Y-16960626D01*
X4238514Y-16960626D02*
X4257561Y-16951102D01*
X4448037Y-16951102D02*
X4467085Y-16951102D01*
X4467085Y-16951102D02*
X4486133Y-16960626D01*
X4486133Y-16960626D02*
X4495657Y-16970150D01*
X4495657Y-16970150D02*
X4505180Y-16989198D01*
X4505180Y-16989198D02*
X4514704Y-17027293D01*
X4514704Y-17027293D02*
X4514704Y-17074912D01*
X4514704Y-17074912D02*
X4505180Y-17113007D01*
X4505180Y-17113007D02*
X4495657Y-17132055D01*
X4495657Y-17132055D02*
X4486133Y-17141579D01*
X4486133Y-17141579D02*
X4467085Y-17151102D01*
X4467085Y-17151102D02*
X4448037Y-17151102D01*
X4448037Y-17151102D02*
X4428990Y-17141579D01*
X4428990Y-17141579D02*
X4419466Y-17132055D01*
X4419466Y-17132055D02*
X4409942Y-17113007D01*
X4409942Y-17113007D02*
X4400418Y-17074912D01*
X4400418Y-17074912D02*
X4400418Y-17027293D01*
X4400418Y-17027293D02*
X4409942Y-16989198D01*
X4409942Y-16989198D02*
X4419466Y-16970150D01*
X4419466Y-16970150D02*
X4428990Y-16960626D01*
X4428990Y-16960626D02*
X4448037Y-16951102D01*
X4600418Y-17151102D02*
X4600418Y-17017769D01*
X4600418Y-17036817D02*
X4609942Y-17027293D01*
X4609942Y-17027293D02*
X4628990Y-17017769D01*
X4628990Y-17017769D02*
X4657561Y-17017769D01*
X4657561Y-17017769D02*
X4676609Y-17027293D01*
X4676609Y-17027293D02*
X4686133Y-17046341D01*
X4686133Y-17046341D02*
X4686133Y-17151102D01*
X4686133Y-17046341D02*
X4695657Y-17027293D01*
X4695657Y-17027293D02*
X4714704Y-17017769D01*
X4714704Y-17017769D02*
X4743276Y-17017769D01*
X4743276Y-17017769D02*
X4762323Y-17027293D01*
X4762323Y-17027293D02*
X4771847Y-17046341D01*
X4771847Y-17046341D02*
X4771847Y-17151102D01*
X4867085Y-17151102D02*
X4867085Y-17017769D01*
X4867085Y-17036817D02*
X4876609Y-17027293D01*
X4876609Y-17027293D02*
X4895657Y-17017769D01*
X4895657Y-17017769D02*
X4924228Y-17017769D01*
X4924228Y-17017769D02*
X4943276Y-17027293D01*
X4943276Y-17027293D02*
X4952799Y-17046341D01*
X4952799Y-17046341D02*
X4952799Y-17151102D01*
X4952799Y-17046341D02*
X4962323Y-17027293D01*
X4962323Y-17027293D02*
X4981371Y-17017769D01*
X4981371Y-17017769D02*
X5009942Y-17017769D01*
X5009942Y-17017769D02*
X5028990Y-17027293D01*
X5028990Y-17027293D02*
X5038514Y-17046341D01*
X5038514Y-17046341D02*
X5038514Y-17151102D01*
X5428990Y-16941579D02*
X5257561Y-17198721D01*
X5686133Y-16951102D02*
X5705180Y-16951102D01*
X5705180Y-16951102D02*
X5724228Y-16960626D01*
X5724228Y-16960626D02*
X5733752Y-16970150D01*
X5733752Y-16970150D02*
X5743276Y-16989198D01*
X5743276Y-16989198D02*
X5752799Y-17027293D01*
X5752799Y-17027293D02*
X5752799Y-17074912D01*
X5752799Y-17074912D02*
X5743276Y-17113007D01*
X5743276Y-17113007D02*
X5733752Y-17132055D01*
X5733752Y-17132055D02*
X5724228Y-17141579D01*
X5724228Y-17141579D02*
X5705180Y-17151102D01*
X5705180Y-17151102D02*
X5686133Y-17151102D01*
X5686133Y-17151102D02*
X5667085Y-17141579D01*
X5667085Y-17141579D02*
X5657561Y-17132055D01*
X5657561Y-17132055D02*
X5648038Y-17113007D01*
X5648038Y-17113007D02*
X5638514Y-17074912D01*
X5638514Y-17074912D02*
X5638514Y-17027293D01*
X5638514Y-17027293D02*
X5648038Y-16989198D01*
X5648038Y-16989198D02*
X5657561Y-16970150D01*
X5657561Y-16970150D02*
X5667085Y-16960626D01*
X5667085Y-16960626D02*
X5686133Y-16951102D01*
X5838514Y-17132055D02*
X5848038Y-17141579D01*
X5848038Y-17141579D02*
X5838514Y-17151102D01*
X5838514Y-17151102D02*
X5828990Y-17141579D01*
X5828990Y-17141579D02*
X5838514Y-17132055D01*
X5838514Y-17132055D02*
X5838514Y-17151102D01*
X5971847Y-16951102D02*
X5990895Y-16951102D01*
X5990895Y-16951102D02*
X6009942Y-16960626D01*
X6009942Y-16960626D02*
X6019466Y-16970150D01*
X6019466Y-16970150D02*
X6028990Y-16989198D01*
X6028990Y-16989198D02*
X6038514Y-17027293D01*
X6038514Y-17027293D02*
X6038514Y-17074912D01*
X6038514Y-17074912D02*
X6028990Y-17113007D01*
X6028990Y-17113007D02*
X6019466Y-17132055D01*
X6019466Y-17132055D02*
X6009942Y-17141579D01*
X6009942Y-17141579D02*
X5990895Y-17151102D01*
X5990895Y-17151102D02*
X5971847Y-17151102D01*
X5971847Y-17151102D02*
X5952799Y-17141579D01*
X5952799Y-17141579D02*
X5943276Y-17132055D01*
X5943276Y-17132055D02*
X5933752Y-17113007D01*
X5933752Y-17113007D02*
X5924228Y-17074912D01*
X5924228Y-17074912D02*
X5924228Y-17027293D01*
X5924228Y-17027293D02*
X5933752Y-16989198D01*
X5933752Y-16989198D02*
X5943276Y-16970150D01*
X5943276Y-16970150D02*
X5952799Y-16960626D01*
X5952799Y-16960626D02*
X5971847Y-16951102D01*
X6105180Y-16951102D02*
X6228990Y-16951102D01*
X6228990Y-16951102D02*
X6162323Y-17027293D01*
X6162323Y-17027293D02*
X6190895Y-17027293D01*
X6190895Y-17027293D02*
X6209942Y-17036817D01*
X6209942Y-17036817D02*
X6219466Y-17046341D01*
X6219466Y-17046341D02*
X6228990Y-17065388D01*
X6228990Y-17065388D02*
X6228990Y-17113007D01*
X6228990Y-17113007D02*
X6219466Y-17132055D01*
X6219466Y-17132055D02*
X6209942Y-17141579D01*
X6209942Y-17141579D02*
X6190895Y-17151102D01*
X6190895Y-17151102D02*
X6133752Y-17151102D01*
X6133752Y-17151102D02*
X6114704Y-17141579D01*
X6114704Y-17141579D02*
X6105180Y-17132055D01*
X6419466Y-17151102D02*
X6305180Y-17151102D01*
X6362323Y-17151102D02*
X6362323Y-16951102D01*
X6362323Y-16951102D02*
X6343276Y-16979674D01*
X6343276Y-16979674D02*
X6324228Y-16998721D01*
X6324228Y-16998721D02*
X6305180Y-17008245D01*
X6600419Y-16951102D02*
X6505180Y-16951102D01*
X6505180Y-16951102D02*
X6495657Y-17046341D01*
X6495657Y-17046341D02*
X6505180Y-17036817D01*
X6505180Y-17036817D02*
X6524228Y-17027293D01*
X6524228Y-17027293D02*
X6571847Y-17027293D01*
X6571847Y-17027293D02*
X6590895Y-17036817D01*
X6590895Y-17036817D02*
X6600419Y-17046341D01*
X6600419Y-17046341D02*
X6609942Y-17065388D01*
X6609942Y-17065388D02*
X6609942Y-17113007D01*
X6609942Y-17113007D02*
X6600419Y-17132055D01*
X6600419Y-17132055D02*
X6590895Y-17141579D01*
X6590895Y-17141579D02*
X6571847Y-17151102D01*
X6571847Y-17151102D02*
X6524228Y-17151102D01*
X6524228Y-17151102D02*
X6505180Y-17141579D01*
X6505180Y-17141579D02*
X6495657Y-17132055D01*
X6686133Y-16951102D02*
X6686133Y-16989198D01*
X6762323Y-16951102D02*
X6762323Y-16989198D01*
X7057562Y-17227293D02*
X7048038Y-17217769D01*
X7048038Y-17217769D02*
X7028990Y-17189198D01*
X7028990Y-17189198D02*
X7019466Y-17170150D01*
X7019466Y-17170150D02*
X7009942Y-17141579D01*
X7009942Y-17141579D02*
X7000419Y-17093960D01*
X7000419Y-17093960D02*
X7000419Y-17055864D01*
X7000419Y-17055864D02*
X7009942Y-17008245D01*
X7009942Y-17008245D02*
X7019466Y-16979674D01*
X7019466Y-16979674D02*
X7028990Y-16960626D01*
X7028990Y-16960626D02*
X7048038Y-16932055D01*
X7048038Y-16932055D02*
X7057562Y-16922531D01*
X7238514Y-17151102D02*
X7124228Y-17151102D01*
X7181371Y-17151102D02*
X7181371Y-16951102D01*
X7181371Y-16951102D02*
X7162323Y-16979674D01*
X7162323Y-16979674D02*
X7143276Y-16998721D01*
X7143276Y-16998721D02*
X7124228Y-17008245D01*
X7476609Y-17151102D02*
X7476609Y-16951102D01*
X7562323Y-17151102D02*
X7562323Y-17046341D01*
X7562323Y-17046341D02*
X7552800Y-17027293D01*
X7552800Y-17027293D02*
X7533752Y-17017769D01*
X7533752Y-17017769D02*
X7505181Y-17017769D01*
X7505181Y-17017769D02*
X7486133Y-17027293D01*
X7486133Y-17027293D02*
X7476609Y-17036817D01*
X7686133Y-17151102D02*
X7667085Y-17141579D01*
X7667085Y-17141579D02*
X7657562Y-17132055D01*
X7657562Y-17132055D02*
X7648038Y-17113007D01*
X7648038Y-17113007D02*
X7648038Y-17055864D01*
X7648038Y-17055864D02*
X7657562Y-17036817D01*
X7657562Y-17036817D02*
X7667085Y-17027293D01*
X7667085Y-17027293D02*
X7686133Y-17017769D01*
X7686133Y-17017769D02*
X7714704Y-17017769D01*
X7714704Y-17017769D02*
X7733752Y-17027293D01*
X7733752Y-17027293D02*
X7743276Y-17036817D01*
X7743276Y-17036817D02*
X7752800Y-17055864D01*
X7752800Y-17055864D02*
X7752800Y-17113007D01*
X7752800Y-17113007D02*
X7743276Y-17132055D01*
X7743276Y-17132055D02*
X7733752Y-17141579D01*
X7733752Y-17141579D02*
X7714704Y-17151102D01*
X7714704Y-17151102D02*
X7686133Y-17151102D01*
X7867085Y-17151102D02*
X7848038Y-17141579D01*
X7848038Y-17141579D02*
X7838514Y-17122531D01*
X7838514Y-17122531D02*
X7838514Y-16951102D01*
X8019466Y-17141579D02*
X8000419Y-17151102D01*
X8000419Y-17151102D02*
X7962323Y-17151102D01*
X7962323Y-17151102D02*
X7943276Y-17141579D01*
X7943276Y-17141579D02*
X7933752Y-17122531D01*
X7933752Y-17122531D02*
X7933752Y-17046341D01*
X7933752Y-17046341D02*
X7943276Y-17027293D01*
X7943276Y-17027293D02*
X7962323Y-17017769D01*
X7962323Y-17017769D02*
X8000419Y-17017769D01*
X8000419Y-17017769D02*
X8019466Y-17027293D01*
X8019466Y-17027293D02*
X8028990Y-17046341D01*
X8028990Y-17046341D02*
X8028990Y-17065388D01*
X8028990Y-17065388D02*
X7933752Y-17084436D01*
X8095657Y-17227293D02*
X8105181Y-17217769D01*
X8105181Y-17217769D02*
X8124228Y-17189198D01*
X8124228Y-17189198D02*
X8133752Y-17170150D01*
X8133752Y-17170150D02*
X8143276Y-17141579D01*
X8143276Y-17141579D02*
X8152800Y-17093960D01*
X8152800Y-17093960D02*
X8152800Y-17055864D01*
X8152800Y-17055864D02*
X8143276Y-17008245D01*
X8143276Y-17008245D02*
X8133752Y-16979674D01*
X8133752Y-16979674D02*
X8124228Y-16960626D01*
X8124228Y-16960626D02*
X8105181Y-16932055D01*
X8105181Y-16932055D02*
X8095657Y-16922531D01*
X8457562Y-17227293D02*
X8448038Y-17217769D01*
X8448038Y-17217769D02*
X8428990Y-17189198D01*
X8428990Y-17189198D02*
X8419466Y-17170150D01*
X8419466Y-17170150D02*
X8409943Y-17141579D01*
X8409943Y-17141579D02*
X8400419Y-17093960D01*
X8400419Y-17093960D02*
X8400419Y-17055864D01*
X8400419Y-17055864D02*
X8409943Y-17008245D01*
X8409943Y-17008245D02*
X8419466Y-16979674D01*
X8419466Y-16979674D02*
X8428990Y-16960626D01*
X8428990Y-16960626D02*
X8448038Y-16932055D01*
X8448038Y-16932055D02*
X8457562Y-16922531D01*
X8533752Y-17017769D02*
X8533752Y-17151102D01*
X8533752Y-17036817D02*
X8543276Y-17027293D01*
X8543276Y-17027293D02*
X8562324Y-17017769D01*
X8562324Y-17017769D02*
X8590895Y-17017769D01*
X8590895Y-17017769D02*
X8609943Y-17027293D01*
X8609943Y-17027293D02*
X8619466Y-17046341D01*
X8619466Y-17046341D02*
X8619466Y-17151102D01*
X8743276Y-17151102D02*
X8724228Y-17141579D01*
X8724228Y-17141579D02*
X8714705Y-17132055D01*
X8714705Y-17132055D02*
X8705181Y-17113007D01*
X8705181Y-17113007D02*
X8705181Y-17055864D01*
X8705181Y-17055864D02*
X8714705Y-17036817D01*
X8714705Y-17036817D02*
X8724228Y-17027293D01*
X8724228Y-17027293D02*
X8743276Y-17017769D01*
X8743276Y-17017769D02*
X8771847Y-17017769D01*
X8771847Y-17017769D02*
X8790895Y-17027293D01*
X8790895Y-17027293D02*
X8800419Y-17036817D01*
X8800419Y-17036817D02*
X8809943Y-17055864D01*
X8809943Y-17055864D02*
X8809943Y-17113007D01*
X8809943Y-17113007D02*
X8800419Y-17132055D01*
X8800419Y-17132055D02*
X8790895Y-17141579D01*
X8790895Y-17141579D02*
X8771847Y-17151102D01*
X8771847Y-17151102D02*
X8743276Y-17151102D01*
X8867086Y-17017769D02*
X8943276Y-17017769D01*
X8895657Y-16951102D02*
X8895657Y-17122531D01*
X8895657Y-17122531D02*
X8905181Y-17141579D01*
X8905181Y-17141579D02*
X8924228Y-17151102D01*
X8924228Y-17151102D02*
X8943276Y-17151102D01*
X9162324Y-17017769D02*
X9162324Y-17217769D01*
X9162324Y-17027293D02*
X9181371Y-17017769D01*
X9181371Y-17017769D02*
X9219467Y-17017769D01*
X9219467Y-17017769D02*
X9238514Y-17027293D01*
X9238514Y-17027293D02*
X9248038Y-17036817D01*
X9248038Y-17036817D02*
X9257562Y-17055864D01*
X9257562Y-17055864D02*
X9257562Y-17113007D01*
X9257562Y-17113007D02*
X9248038Y-17132055D01*
X9248038Y-17132055D02*
X9238514Y-17141579D01*
X9238514Y-17141579D02*
X9219467Y-17151102D01*
X9219467Y-17151102D02*
X9181371Y-17151102D01*
X9181371Y-17151102D02*
X9162324Y-17141579D01*
X9371847Y-17151102D02*
X9352800Y-17141579D01*
X9352800Y-17141579D02*
X9343276Y-17122531D01*
X9343276Y-17122531D02*
X9343276Y-16951102D01*
X9533752Y-17151102D02*
X9533752Y-17046341D01*
X9533752Y-17046341D02*
X9524228Y-17027293D01*
X9524228Y-17027293D02*
X9505181Y-17017769D01*
X9505181Y-17017769D02*
X9467086Y-17017769D01*
X9467086Y-17017769D02*
X9448038Y-17027293D01*
X9533752Y-17141579D02*
X9514705Y-17151102D01*
X9514705Y-17151102D02*
X9467086Y-17151102D01*
X9467086Y-17151102D02*
X9448038Y-17141579D01*
X9448038Y-17141579D02*
X9438514Y-17122531D01*
X9438514Y-17122531D02*
X9438514Y-17103483D01*
X9438514Y-17103483D02*
X9448038Y-17084436D01*
X9448038Y-17084436D02*
X9467086Y-17074912D01*
X9467086Y-17074912D02*
X9514705Y-17074912D01*
X9514705Y-17074912D02*
X9533752Y-17065388D01*
X9600419Y-17017769D02*
X9676609Y-17017769D01*
X9628990Y-16951102D02*
X9628990Y-17122531D01*
X9628990Y-17122531D02*
X9638514Y-17141579D01*
X9638514Y-17141579D02*
X9657562Y-17151102D01*
X9657562Y-17151102D02*
X9676609Y-17151102D01*
X9819467Y-17141579D02*
X9800419Y-17151102D01*
X9800419Y-17151102D02*
X9762324Y-17151102D01*
X9762324Y-17151102D02*
X9743276Y-17141579D01*
X9743276Y-17141579D02*
X9733752Y-17122531D01*
X9733752Y-17122531D02*
X9733752Y-17046341D01*
X9733752Y-17046341D02*
X9743276Y-17027293D01*
X9743276Y-17027293D02*
X9762324Y-17017769D01*
X9762324Y-17017769D02*
X9800419Y-17017769D01*
X9800419Y-17017769D02*
X9819467Y-17027293D01*
X9819467Y-17027293D02*
X9828990Y-17046341D01*
X9828990Y-17046341D02*
X9828990Y-17065388D01*
X9828990Y-17065388D02*
X9733752Y-17084436D01*
X10000419Y-17151102D02*
X10000419Y-16951102D01*
X10000419Y-17141579D02*
X9981371Y-17151102D01*
X9981371Y-17151102D02*
X9943276Y-17151102D01*
X9943276Y-17151102D02*
X9924228Y-17141579D01*
X9924228Y-17141579D02*
X9914705Y-17132055D01*
X9914705Y-17132055D02*
X9905181Y-17113007D01*
X9905181Y-17113007D02*
X9905181Y-17055864D01*
X9905181Y-17055864D02*
X9914705Y-17036817D01*
X9914705Y-17036817D02*
X9924228Y-17027293D01*
X9924228Y-17027293D02*
X9943276Y-17017769D01*
X9943276Y-17017769D02*
X9981371Y-17017769D01*
X9981371Y-17017769D02*
X10000419Y-17027293D01*
X10076609Y-17227293D02*
X10086133Y-17217769D01*
X10086133Y-17217769D02*
X10105181Y-17189198D01*
X10105181Y-17189198D02*
X10114705Y-17170150D01*
X10114705Y-17170150D02*
X10124228Y-17141579D01*
X10124228Y-17141579D02*
X10133752Y-17093960D01*
X10133752Y-17093960D02*
X10133752Y-17055864D01*
X10133752Y-17055864D02*
X10124228Y-17008245D01*
X10124228Y-17008245D02*
X10114705Y-16979674D01*
X10114705Y-16979674D02*
X10105181Y-16960626D01*
X10105181Y-16960626D02*
X10086133Y-16932055D01*
X10086133Y-16932055D02*
X10076609Y-16922531D01*
M02*
