%TF.GenerationSoftware,KiCad,Pcbnew,9.0.1*%
%TF.CreationDate,2025-09-24T08:41:35+02:00*%
%TF.ProjectId,Main_Board,4d61696e-5f42-46f6-9172-642e6b696361,rev?*%
%TF.SameCoordinates,Original*%
%TF.FileFunction,Legend,Bot*%
%TF.FilePolarity,Positive*%
%FSLAX46Y46*%
G04 Gerber Fmt 4.6, Leading zero omitted, Abs format (unit mm)*
G04 Created by KiCad (PCBNEW 9.0.1) date 2025-09-24 08:41:35*
%MOMM*%
%LPD*%
G01*
G04 APERTURE LIST*
%ADD10C,0.062500*%
%ADD11C,0.120000*%
%ADD12C,0.150000*%
%ADD13C,0.000000*%
%ADD14C,0.200000*%
G04 APERTURE END LIST*
D10*
X48324440Y-147515434D02*
X48824440Y-147515434D01*
X48824440Y-147515434D02*
X48467297Y-147348767D01*
X48467297Y-147348767D02*
X48824440Y-147182101D01*
X48824440Y-147182101D02*
X48324440Y-147182101D01*
X48514916Y-146944005D02*
X48514916Y-146563053D01*
X48824440Y-146372576D02*
X48824440Y-146063052D01*
X48824440Y-146063052D02*
X48633964Y-146229719D01*
X48633964Y-146229719D02*
X48633964Y-146158290D01*
X48633964Y-146158290D02*
X48610154Y-146110671D01*
X48610154Y-146110671D02*
X48586345Y-146086862D01*
X48586345Y-146086862D02*
X48538726Y-146063052D01*
X48538726Y-146063052D02*
X48419678Y-146063052D01*
X48419678Y-146063052D02*
X48372059Y-146086862D01*
X48372059Y-146086862D02*
X48348250Y-146110671D01*
X48348250Y-146110671D02*
X48324440Y-146158290D01*
X48324440Y-146158290D02*
X48324440Y-146301147D01*
X48324440Y-146301147D02*
X48348250Y-146348766D01*
X48348250Y-146348766D02*
X48372059Y-146372576D01*
X48372059Y-145848767D02*
X48348250Y-145824957D01*
X48348250Y-145824957D02*
X48324440Y-145848767D01*
X48324440Y-145848767D02*
X48348250Y-145872576D01*
X48348250Y-145872576D02*
X48372059Y-145848767D01*
X48372059Y-145848767D02*
X48324440Y-145848767D01*
X48824440Y-145658291D02*
X48824440Y-145348767D01*
X48824440Y-145348767D02*
X48633964Y-145515434D01*
X48633964Y-145515434D02*
X48633964Y-145444005D01*
X48633964Y-145444005D02*
X48610154Y-145396386D01*
X48610154Y-145396386D02*
X48586345Y-145372577D01*
X48586345Y-145372577D02*
X48538726Y-145348767D01*
X48538726Y-145348767D02*
X48419678Y-145348767D01*
X48419678Y-145348767D02*
X48372059Y-145372577D01*
X48372059Y-145372577D02*
X48348250Y-145396386D01*
X48348250Y-145396386D02*
X48324440Y-145444005D01*
X48324440Y-145444005D02*
X48324440Y-145586862D01*
X48324440Y-145586862D02*
X48348250Y-145634481D01*
X48348250Y-145634481D02*
X48372059Y-145658291D01*
X48514916Y-145134482D02*
X48514916Y-144753530D01*
X48586345Y-144515434D02*
X48586345Y-144348767D01*
X48324440Y-144277339D02*
X48324440Y-144515434D01*
X48324440Y-144515434D02*
X48824440Y-144515434D01*
X48824440Y-144515434D02*
X48824440Y-144277339D01*
X48467297Y-144086862D02*
X48467297Y-143848767D01*
X48324440Y-144134481D02*
X48824440Y-143967815D01*
X48824440Y-143967815D02*
X48324440Y-143801148D01*
X48514916Y-143634482D02*
X48514916Y-143253530D01*
X48586345Y-143015434D02*
X48586345Y-142848767D01*
X48324440Y-142777339D02*
X48324440Y-143015434D01*
X48324440Y-143015434D02*
X48824440Y-143015434D01*
X48824440Y-143015434D02*
X48824440Y-142777339D01*
X48586345Y-142396386D02*
X48562535Y-142324958D01*
X48562535Y-142324958D02*
X48538726Y-142301148D01*
X48538726Y-142301148D02*
X48491107Y-142277339D01*
X48491107Y-142277339D02*
X48419678Y-142277339D01*
X48419678Y-142277339D02*
X48372059Y-142301148D01*
X48372059Y-142301148D02*
X48348250Y-142324958D01*
X48348250Y-142324958D02*
X48324440Y-142372577D01*
X48324440Y-142372577D02*
X48324440Y-142563053D01*
X48324440Y-142563053D02*
X48824440Y-142563053D01*
X48824440Y-142563053D02*
X48824440Y-142396386D01*
X48824440Y-142396386D02*
X48800630Y-142348767D01*
X48800630Y-142348767D02*
X48776821Y-142324958D01*
X48776821Y-142324958D02*
X48729202Y-142301148D01*
X48729202Y-142301148D02*
X48681583Y-142301148D01*
X48681583Y-142301148D02*
X48633964Y-142324958D01*
X48633964Y-142324958D02*
X48610154Y-142348767D01*
X48610154Y-142348767D02*
X48586345Y-142396386D01*
X48586345Y-142396386D02*
X48586345Y-142563053D01*
X48514916Y-142063053D02*
X48514916Y-141682101D01*
X48800630Y-141182100D02*
X48824440Y-141229719D01*
X48824440Y-141229719D02*
X48824440Y-141301148D01*
X48824440Y-141301148D02*
X48800630Y-141372576D01*
X48800630Y-141372576D02*
X48753011Y-141420195D01*
X48753011Y-141420195D02*
X48705392Y-141444005D01*
X48705392Y-141444005D02*
X48610154Y-141467814D01*
X48610154Y-141467814D02*
X48538726Y-141467814D01*
X48538726Y-141467814D02*
X48443488Y-141444005D01*
X48443488Y-141444005D02*
X48395869Y-141420195D01*
X48395869Y-141420195D02*
X48348250Y-141372576D01*
X48348250Y-141372576D02*
X48324440Y-141301148D01*
X48324440Y-141301148D02*
X48324440Y-141253529D01*
X48324440Y-141253529D02*
X48348250Y-141182100D01*
X48348250Y-141182100D02*
X48372059Y-141158291D01*
X48372059Y-141158291D02*
X48538726Y-141158291D01*
X48538726Y-141158291D02*
X48538726Y-141253529D01*
X48324440Y-140944005D02*
X48824440Y-140944005D01*
X48824440Y-140944005D02*
X48324440Y-140658291D01*
X48324440Y-140658291D02*
X48824440Y-140658291D01*
X48324440Y-140420195D02*
X48824440Y-140420195D01*
X48824440Y-140420195D02*
X48824440Y-140301147D01*
X48824440Y-140301147D02*
X48800630Y-140229719D01*
X48800630Y-140229719D02*
X48753011Y-140182100D01*
X48753011Y-140182100D02*
X48705392Y-140158290D01*
X48705392Y-140158290D02*
X48610154Y-140134481D01*
X48610154Y-140134481D02*
X48538726Y-140134481D01*
X48538726Y-140134481D02*
X48443488Y-140158290D01*
X48443488Y-140158290D02*
X48395869Y-140182100D01*
X48395869Y-140182100D02*
X48348250Y-140229719D01*
X48348250Y-140229719D02*
X48324440Y-140301147D01*
X48324440Y-140301147D02*
X48324440Y-140420195D01*
X48514916Y-139920195D02*
X48514916Y-139539243D01*
X48324440Y-139301147D02*
X48824440Y-139301147D01*
X48824440Y-139301147D02*
X48467297Y-139134480D01*
X48467297Y-139134480D02*
X48824440Y-138967814D01*
X48824440Y-138967814D02*
X48324440Y-138967814D01*
D11*
%TO.C,C28*%
X67634420Y-130240000D02*
X67915580Y-130240000D01*
X67634420Y-131260000D02*
X67915580Y-131260000D01*
%TO.C,C31*%
X49240000Y-142334420D02*
X49240000Y-142615580D01*
X50260000Y-142334420D02*
X50260000Y-142615580D01*
%TO.C,R11*%
X68012258Y-133227500D02*
X67537742Y-133227500D01*
X68012258Y-134272500D02*
X67537742Y-134272500D01*
%TO.C,R9*%
X67537742Y-134727500D02*
X68012258Y-134727500D01*
X67537742Y-135772500D02*
X68012258Y-135772500D01*
%TO.C,R2*%
X44737258Y-156977500D02*
X44262742Y-156977500D01*
X44737258Y-158022500D02*
X44262742Y-158022500D01*
%TO.C,C23*%
X63609420Y-146490000D02*
X63890580Y-146490000D01*
X63609420Y-147510000D02*
X63890580Y-147510000D01*
%TO.C,R12*%
X69502500Y-138762742D02*
X69502500Y-139237258D01*
X70547500Y-138762742D02*
X70547500Y-139237258D01*
%TO.C,R3*%
X48137258Y-162477500D02*
X47662742Y-162477500D01*
X48137258Y-163522500D02*
X47662742Y-163522500D01*
%TO.C,R21*%
X44412258Y-132227500D02*
X43937742Y-132227500D01*
X44412258Y-133272500D02*
X43937742Y-133272500D01*
%TO.C,C24*%
X69515000Y-136140580D02*
X69515000Y-135859420D01*
X70535000Y-136140580D02*
X70535000Y-135859420D01*
%TO.C,C10*%
X81740000Y-137859420D02*
X81740000Y-138140580D01*
X82760000Y-137859420D02*
X82760000Y-138140580D01*
%TO.C,C22*%
X63915580Y-140740000D02*
X63634420Y-140740000D01*
X63915580Y-141760000D02*
X63634420Y-141760000D01*
%TO.C,C35*%
X59884420Y-143490000D02*
X60165580Y-143490000D01*
X59884420Y-144510000D02*
X60165580Y-144510000D01*
D12*
%TO.C,IC3*%
X52080000Y-139677500D02*
X52080000Y-143827500D01*
X57230000Y-139677500D02*
X57230000Y-143827500D01*
D11*
X52080000Y-139252500D02*
X51750000Y-139492500D01*
X51750000Y-139012500D01*
X52080000Y-139252500D01*
G36*
X52080000Y-139252500D02*
G01*
X51750000Y-139492500D01*
X51750000Y-139012500D01*
X52080000Y-139252500D01*
G37*
%TO.C,R33*%
X85227500Y-147587742D02*
X85227500Y-148062258D01*
X86272500Y-147587742D02*
X86272500Y-148062258D01*
%TO.C,R16*%
X61752500Y-144737258D02*
X61752500Y-144262742D01*
X62797500Y-144737258D02*
X62797500Y-144262742D01*
%TO.C,R17*%
X59787742Y-145477500D02*
X60262258Y-145477500D01*
X59787742Y-146522500D02*
X60262258Y-146522500D01*
%TO.C,C29*%
X53859420Y-134915000D02*
X54140580Y-134915000D01*
X53859420Y-135935000D02*
X54140580Y-135935000D01*
%TO.C,R1*%
X48237258Y-156977500D02*
X47762742Y-156977500D01*
X48237258Y-158022500D02*
X47762742Y-158022500D01*
%TO.C,U2*%
X58665000Y-139000000D02*
X58665000Y-136800000D01*
X58665000Y-139000000D02*
X58665000Y-141200000D01*
X61885000Y-139000000D02*
X61885000Y-136800000D01*
X61885000Y-139000000D02*
X61885000Y-141200000D01*
X58840000Y-136100000D02*
X58510000Y-136340000D01*
X58510000Y-135860000D01*
X58840000Y-136100000D01*
G36*
X58840000Y-136100000D02*
G01*
X58510000Y-136340000D01*
X58510000Y-135860000D01*
X58840000Y-136100000D01*
G37*
%TO.C,L2*%
X65550000Y-141200000D02*
X65550000Y-146900000D01*
X65550000Y-146900000D02*
X67050000Y-146900000D01*
X67050000Y-141200000D02*
X65550000Y-141200000D01*
X69450000Y-141200000D02*
X70950000Y-141200000D01*
X70950000Y-141200000D02*
X70950000Y-146900000D01*
X70950000Y-146900000D02*
X69450000Y-146900000D01*
D13*
%TO.C,G\u002A\u002A\u002A*%
G36*
X75669018Y-135204384D02*
G01*
X75681012Y-135218459D01*
X75702155Y-135252486D01*
X75712051Y-135285601D01*
X75710672Y-135316824D01*
X75697989Y-135345175D01*
X75673971Y-135369674D01*
X75667150Y-135374610D01*
X75653455Y-135382851D01*
X75638477Y-135388671D01*
X75619453Y-135392758D01*
X75593616Y-135395801D01*
X75558201Y-135398487D01*
X75551363Y-135398787D01*
X75530725Y-135399272D01*
X75498888Y-135399750D01*
X75456561Y-135400219D01*
X75404455Y-135400675D01*
X75343281Y-135401114D01*
X75273749Y-135401533D01*
X75196569Y-135401928D01*
X75112452Y-135402296D01*
X75022107Y-135402633D01*
X74926245Y-135402936D01*
X74825577Y-135403201D01*
X74720813Y-135403425D01*
X74612662Y-135403604D01*
X74501836Y-135403735D01*
X73510299Y-135404667D01*
X73475438Y-135368119D01*
X73467796Y-135359951D01*
X73445733Y-135332950D01*
X73433417Y-135309430D01*
X73430365Y-135286836D01*
X73436093Y-135262615D01*
X73450119Y-135234213D01*
X73455769Y-135224314D01*
X73461918Y-135214403D01*
X73468561Y-135206330D01*
X73476883Y-135199882D01*
X73488069Y-135194849D01*
X73503305Y-135191021D01*
X73523775Y-135188185D01*
X73550664Y-135186132D01*
X73585159Y-135184650D01*
X73628443Y-135183529D01*
X73681701Y-135182556D01*
X73746120Y-135181522D01*
X73782513Y-135181030D01*
X73830982Y-135180534D01*
X73889762Y-135180051D01*
X73957824Y-135179585D01*
X74034137Y-135179140D01*
X74117671Y-135178720D01*
X74207397Y-135178331D01*
X74302284Y-135177977D01*
X74401301Y-135177662D01*
X74503419Y-135177391D01*
X74607607Y-135177168D01*
X74712835Y-135176997D01*
X74818073Y-135176884D01*
X75643065Y-135176228D01*
X75669018Y-135204384D01*
G37*
G36*
X74956799Y-133071206D02*
G01*
X75011372Y-133073796D01*
X75057558Y-133080917D01*
X75098171Y-133093648D01*
X75136023Y-133113070D01*
X75173928Y-133140262D01*
X75214698Y-133176305D01*
X75241325Y-133202194D01*
X75278529Y-133241964D01*
X75308803Y-133280162D01*
X75334432Y-133319782D01*
X75357696Y-133363818D01*
X75372200Y-133395122D01*
X75388970Y-133437527D01*
X75400638Y-133478053D01*
X75407944Y-133520210D01*
X75411629Y-133567508D01*
X75412432Y-133623457D01*
X75411909Y-133656670D01*
X75409468Y-133703465D01*
X75404475Y-133743709D01*
X75396257Y-133780951D01*
X75384139Y-133818741D01*
X75367451Y-133860626D01*
X75347471Y-133902471D01*
X75305938Y-133968777D01*
X75255901Y-134028191D01*
X75198596Y-134079666D01*
X75135257Y-134122155D01*
X75067119Y-134154611D01*
X74995418Y-134175987D01*
X74968715Y-134179152D01*
X74933101Y-134179437D01*
X74894118Y-134176877D01*
X74856127Y-134171767D01*
X74823490Y-134164399D01*
X74800502Y-134157108D01*
X74731213Y-134127846D01*
X74669388Y-134089637D01*
X74614734Y-134042146D01*
X74566958Y-133985039D01*
X74525766Y-133917984D01*
X74490864Y-133840644D01*
X74461961Y-133752688D01*
X74459627Y-133744219D01*
X74448340Y-133698740D01*
X74441692Y-133659751D01*
X74439673Y-133623662D01*
X74442273Y-133586882D01*
X74449483Y-133545822D01*
X74461294Y-133496889D01*
X74466931Y-133475819D01*
X74486301Y-133411958D01*
X74507168Y-133357496D01*
X74530777Y-133310160D01*
X74558377Y-133267676D01*
X74591214Y-133227769D01*
X74630533Y-133188166D01*
X74649956Y-133170733D01*
X74700246Y-133132856D01*
X74752290Y-133104782D01*
X74808273Y-133085688D01*
X74870380Y-133074750D01*
X74940797Y-133071142D01*
X74956799Y-133071206D01*
G37*
G36*
X78124022Y-133389115D02*
G01*
X78179081Y-133401621D01*
X78194261Y-133407575D01*
X78230609Y-133426672D01*
X78268542Y-133452109D01*
X78305451Y-133481697D01*
X78338729Y-133513249D01*
X78365766Y-133544575D01*
X78383954Y-133573488D01*
X78390152Y-133586075D01*
X78404006Y-133612746D01*
X78417596Y-133637462D01*
X78418299Y-133638710D01*
X78429919Y-133664391D01*
X78441903Y-133699063D01*
X78453442Y-133739627D01*
X78463725Y-133782982D01*
X78471940Y-133826028D01*
X78477277Y-133865665D01*
X78479855Y-133914912D01*
X78475192Y-133994931D01*
X78460385Y-134075129D01*
X78436142Y-134153383D01*
X78403172Y-134227572D01*
X78362184Y-134295571D01*
X78313886Y-134355257D01*
X78283838Y-134383930D01*
X78237922Y-134416101D01*
X78188670Y-134437098D01*
X78134789Y-134447589D01*
X78089035Y-134450658D01*
X78037307Y-134449359D01*
X77992413Y-134441387D01*
X77951935Y-134426024D01*
X77913456Y-134402553D01*
X77874560Y-134370254D01*
X77868452Y-134364519D01*
X77816710Y-134307978D01*
X77774328Y-134245394D01*
X77740484Y-134175369D01*
X77714362Y-134096505D01*
X77711558Y-134085895D01*
X77706479Y-134064616D01*
X77702873Y-134044615D01*
X77700482Y-134023168D01*
X77699050Y-133997549D01*
X77698322Y-133965034D01*
X77698040Y-133922897D01*
X77698033Y-133920571D01*
X77698121Y-133877971D01*
X77698783Y-133844904D01*
X77700234Y-133818689D01*
X77702687Y-133796644D01*
X77706356Y-133776087D01*
X77711453Y-133754338D01*
X77713395Y-133746919D01*
X77733624Y-133686438D01*
X77761039Y-133625799D01*
X77793883Y-133568129D01*
X77830401Y-133516554D01*
X77868835Y-133474199D01*
X77903501Y-133445915D01*
X77954581Y-133416649D01*
X78009726Y-133397108D01*
X78066888Y-133387770D01*
X78124022Y-133389115D01*
G37*
G36*
X75079013Y-135617211D02*
G01*
X75110227Y-135630872D01*
X75139561Y-135656490D01*
X75156944Y-135680665D01*
X75167742Y-135712903D01*
X75167062Y-135749070D01*
X75165605Y-135756301D01*
X75155419Y-135780610D01*
X75136929Y-135801568D01*
X75109127Y-135819883D01*
X75071005Y-135836265D01*
X75021553Y-135851423D01*
X75004347Y-135855760D01*
X74969948Y-135863736D01*
X74923997Y-135873828D01*
X74866840Y-135885963D01*
X74798824Y-135900072D01*
X74720293Y-135916083D01*
X74631595Y-135933925D01*
X74533076Y-135953527D01*
X74425081Y-135974819D01*
X74307958Y-135997729D01*
X74290173Y-136001204D01*
X74233569Y-136012371D01*
X74179041Y-136023283D01*
X74128264Y-136033595D01*
X74082913Y-136042963D01*
X74044663Y-136051040D01*
X74015190Y-136057483D01*
X73996169Y-136061945D01*
X73957499Y-136070162D01*
X73917501Y-136075463D01*
X73881279Y-136077105D01*
X73851469Y-136074976D01*
X73830707Y-136068963D01*
X73819184Y-136061509D01*
X73797781Y-136040657D01*
X73779085Y-136014328D01*
X73765699Y-135986503D01*
X73760227Y-135961165D01*
X73760645Y-135952588D01*
X73769366Y-135926290D01*
X73787806Y-135900604D01*
X73814050Y-135877047D01*
X73846182Y-135857134D01*
X73882287Y-135842382D01*
X73920450Y-135834307D01*
X73929997Y-135832998D01*
X73957082Y-135827841D01*
X73988562Y-135820461D01*
X74019410Y-135811995D01*
X74039342Y-135806532D01*
X74076724Y-135797864D01*
X74116814Y-135790026D01*
X74153782Y-135784222D01*
X74174145Y-135781298D01*
X74211581Y-135775186D01*
X74254587Y-135767522D01*
X74299315Y-135759002D01*
X74341915Y-135750317D01*
X74399358Y-135738179D01*
X74506007Y-135715886D01*
X74604797Y-135695565D01*
X74695263Y-135677305D01*
X74776941Y-135661193D01*
X74849369Y-135647319D01*
X74912081Y-135635769D01*
X74964615Y-135626633D01*
X75006505Y-135619998D01*
X75037289Y-135615952D01*
X75056502Y-135614584D01*
X75079013Y-135617211D01*
G37*
G36*
X75791932Y-135791358D02*
G01*
X75808622Y-135803072D01*
X75827379Y-135820075D01*
X75845636Y-135839799D01*
X75860825Y-135859678D01*
X75870380Y-135877143D01*
X75873577Y-135886936D01*
X75878040Y-135918805D01*
X75874814Y-135950099D01*
X75864196Y-135976053D01*
X75861464Y-135979718D01*
X75845138Y-135995048D01*
X75818035Y-136014540D01*
X75779985Y-136038302D01*
X75730815Y-136066444D01*
X75670356Y-136099072D01*
X75649859Y-136109875D01*
X75586643Y-136143063D01*
X75518389Y-136178724D01*
X75446036Y-136216379D01*
X75370527Y-136255545D01*
X75292800Y-136295742D01*
X75213798Y-136336489D01*
X75134460Y-136377304D01*
X75055728Y-136417707D01*
X74978541Y-136457217D01*
X74903840Y-136495352D01*
X74832566Y-136531631D01*
X74765660Y-136565574D01*
X74704062Y-136596699D01*
X74648713Y-136624525D01*
X74600553Y-136648572D01*
X74560522Y-136668358D01*
X74529563Y-136683402D01*
X74508614Y-136693223D01*
X74491504Y-136700608D01*
X74465970Y-136710436D01*
X74444829Y-136717179D01*
X74431439Y-136719685D01*
X74405966Y-136714127D01*
X74381388Y-136698559D01*
X74360313Y-136675335D01*
X74344871Y-136646811D01*
X74337191Y-136615347D01*
X74336922Y-136588565D01*
X74342378Y-136563964D01*
X74354605Y-136541019D01*
X74374594Y-136518624D01*
X74403337Y-136495673D01*
X74441824Y-136471061D01*
X74491045Y-136443682D01*
X74534362Y-136420751D01*
X74607910Y-136382000D01*
X74684782Y-136341701D01*
X74764227Y-136300237D01*
X74845495Y-136257991D01*
X74927833Y-136215344D01*
X75010492Y-136172679D01*
X75092719Y-136130377D01*
X75173765Y-136088822D01*
X75252877Y-136048394D01*
X75329304Y-136009478D01*
X75402296Y-135972453D01*
X75471102Y-135937703D01*
X75534970Y-135905611D01*
X75593149Y-135876557D01*
X75644889Y-135850925D01*
X75689438Y-135829096D01*
X75726044Y-135811452D01*
X75753958Y-135798377D01*
X75772428Y-135790251D01*
X75780702Y-135787457D01*
X75791932Y-135791358D01*
G37*
G36*
X73550176Y-130340511D02*
G01*
X73559500Y-130342451D01*
X73568330Y-130344893D01*
X73577495Y-130348457D01*
X73587820Y-130353767D01*
X73600135Y-130361443D01*
X73615268Y-130372107D01*
X73634045Y-130386381D01*
X73657294Y-130404886D01*
X73685844Y-130428244D01*
X73720522Y-130457077D01*
X73762155Y-130492006D01*
X73811573Y-130533653D01*
X73869601Y-130582639D01*
X73936935Y-130639395D01*
X74011228Y-130701779D01*
X74081168Y-130760254D01*
X74145507Y-130813778D01*
X74202997Y-130861311D01*
X74252392Y-130901814D01*
X74281445Y-130925656D01*
X74321117Y-130958566D01*
X74364083Y-130994524D01*
X74408920Y-131032316D01*
X74454207Y-131070727D01*
X74498522Y-131108544D01*
X74540442Y-131144551D01*
X74578545Y-131177534D01*
X74611408Y-131206280D01*
X74637611Y-131229573D01*
X74655729Y-131246199D01*
X74666789Y-131257042D01*
X74687059Y-131278758D01*
X74703653Y-131298851D01*
X74713773Y-131314053D01*
X74714087Y-131314675D01*
X74723467Y-131342190D01*
X74726641Y-131372009D01*
X74723588Y-131399817D01*
X74714287Y-131421301D01*
X74707961Y-131428215D01*
X74688012Y-131443150D01*
X74660975Y-131458392D01*
X74630152Y-131472362D01*
X74598845Y-131483480D01*
X74570355Y-131490166D01*
X74566431Y-131490835D01*
X74543471Y-131496122D01*
X74511239Y-131504981D01*
X74471585Y-131516795D01*
X74426356Y-131530950D01*
X74377401Y-131546829D01*
X74326567Y-131563816D01*
X74275703Y-131581298D01*
X74226656Y-131598657D01*
X74181276Y-131615279D01*
X74141409Y-131630548D01*
X74108905Y-131643848D01*
X74101392Y-131647099D01*
X74064093Y-131663837D01*
X74026017Y-131681758D01*
X73991235Y-131698913D01*
X73963815Y-131713352D01*
X73949643Y-131721228D01*
X73901797Y-131747955D01*
X73862298Y-131770405D01*
X73829170Y-131789872D01*
X73800436Y-131807651D01*
X73774120Y-131825034D01*
X73748246Y-131843317D01*
X73720838Y-131863794D01*
X73689918Y-131887757D01*
X73653510Y-131916501D01*
X73651193Y-131918334D01*
X73622145Y-131940849D01*
X73592730Y-131962898D01*
X73566261Y-131982038D01*
X73546050Y-131995822D01*
X73535001Y-132002651D01*
X73504863Y-132017134D01*
X73478796Y-132021794D01*
X73454403Y-132016762D01*
X73429281Y-132002169D01*
X73422169Y-131996421D01*
X73402527Y-131976394D01*
X73386962Y-131955208D01*
X73382815Y-131947421D01*
X73377772Y-131934837D01*
X73373768Y-131919614D01*
X73370767Y-131900676D01*
X73368737Y-131876946D01*
X73367643Y-131847350D01*
X73367453Y-131810809D01*
X73368132Y-131766247D01*
X73369647Y-131712589D01*
X73371965Y-131648757D01*
X73375051Y-131573675D01*
X73378690Y-131484507D01*
X73382582Y-131379707D01*
X73386129Y-131273908D01*
X73389281Y-131169013D01*
X73391989Y-131066927D01*
X73394202Y-130969552D01*
X73395871Y-130878795D01*
X73396945Y-130796558D01*
X73397373Y-130724745D01*
X73397517Y-130689862D01*
X73398570Y-130616372D01*
X73400605Y-130553184D01*
X73403597Y-130500701D01*
X73407518Y-130459327D01*
X73412343Y-130429464D01*
X73418044Y-130411517D01*
X73430848Y-130391932D01*
X73455679Y-130367673D01*
X73485226Y-130349741D01*
X73516416Y-130339857D01*
X73546171Y-130339746D01*
X73550176Y-130340511D01*
G37*
G36*
X81133665Y-129789741D02*
G01*
X81185122Y-129789904D01*
X81226464Y-129790302D01*
X81259526Y-129791035D01*
X81286145Y-129792208D01*
X81308154Y-129793921D01*
X81327391Y-129796278D01*
X81345689Y-129799381D01*
X81364885Y-129803333D01*
X81450208Y-129824056D01*
X81579304Y-129864159D01*
X81701481Y-129913136D01*
X81816023Y-129970653D01*
X81922213Y-130036372D01*
X82019334Y-130109960D01*
X82024700Y-130114473D01*
X82134708Y-130214499D01*
X82233451Y-130319423D01*
X82321068Y-130429421D01*
X82397699Y-130544668D01*
X82463486Y-130665340D01*
X82508732Y-130765252D01*
X82550805Y-130879201D01*
X82581910Y-130992421D01*
X82602435Y-131106664D01*
X82612766Y-131223685D01*
X82613288Y-131345236D01*
X82612450Y-131365493D01*
X82600034Y-131495743D01*
X82575634Y-131623437D01*
X82539402Y-131748231D01*
X82491488Y-131869783D01*
X82432043Y-131987749D01*
X82361218Y-132101785D01*
X82279165Y-132211550D01*
X82186033Y-132316699D01*
X82161356Y-132342021D01*
X82078315Y-132421267D01*
X81995284Y-132490756D01*
X81909936Y-132552203D01*
X81819944Y-132607323D01*
X81722980Y-132657831D01*
X81658815Y-132687054D01*
X81543607Y-132731479D01*
X81427584Y-132766291D01*
X81312704Y-132790940D01*
X81200923Y-132804874D01*
X81186083Y-132805950D01*
X81118154Y-132809278D01*
X81054441Y-132809824D01*
X80996524Y-132807677D01*
X80945986Y-132802930D01*
X80904411Y-132795673D01*
X80873380Y-132785998D01*
X80868392Y-132783741D01*
X80855377Y-132776334D01*
X80843444Y-132766427D01*
X80831816Y-132752727D01*
X80819718Y-132733940D01*
X80806374Y-132708771D01*
X80791009Y-132675927D01*
X80772846Y-132634114D01*
X80751111Y-132582039D01*
X80749234Y-132577492D01*
X80730170Y-132531588D01*
X80709723Y-132482769D01*
X80689405Y-132434622D01*
X80670730Y-132390734D01*
X80655210Y-132354691D01*
X80649286Y-132340965D01*
X80634576Y-132306419D01*
X80616637Y-132263837D01*
X80596413Y-132215480D01*
X80574847Y-132163605D01*
X80552882Y-132110471D01*
X80531461Y-132058337D01*
X80527850Y-132049526D01*
X80502980Y-131989250D01*
X80474948Y-131921870D01*
X80445277Y-131851018D01*
X80415492Y-131780325D01*
X80387117Y-131713421D01*
X80361676Y-131653938D01*
X80356246Y-131641293D01*
X80333123Y-131587146D01*
X80306689Y-131524847D01*
X80278031Y-131456984D01*
X80248239Y-131386143D01*
X80218401Y-131314912D01*
X80189605Y-131245876D01*
X80162940Y-131181624D01*
X80152880Y-131157329D01*
X80126461Y-131093698D01*
X80099071Y-131027946D01*
X80071655Y-130962330D01*
X80045159Y-130899106D01*
X80020527Y-130840531D01*
X79998704Y-130788862D01*
X79980637Y-130746354D01*
X79972037Y-130726177D01*
X79943159Y-130657701D01*
X79919269Y-130599745D01*
X79900168Y-130551787D01*
X79885657Y-130513305D01*
X79875538Y-130483777D01*
X79869612Y-130462681D01*
X79867681Y-130449495D01*
X79871230Y-130429600D01*
X79884639Y-130399801D01*
X79907750Y-130363859D01*
X79940266Y-130322181D01*
X79981889Y-130275176D01*
X80032325Y-130223249D01*
X80086635Y-130171170D01*
X80151066Y-130114748D01*
X80215435Y-130065026D01*
X80282802Y-130019826D01*
X80356230Y-129976972D01*
X80438780Y-129934288D01*
X80444711Y-129931386D01*
X80548963Y-129885097D01*
X80651812Y-129848756D01*
X80756743Y-129821122D01*
X80775281Y-129817075D01*
X80814542Y-129809032D01*
X80850448Y-129802697D01*
X80885241Y-129797877D01*
X80921165Y-129794377D01*
X80960461Y-129792006D01*
X81005372Y-129790569D01*
X81058141Y-129789874D01*
X81121011Y-129789727D01*
X81133665Y-129789741D01*
G37*
G36*
X78571587Y-136269964D02*
G01*
X78460274Y-136293330D01*
X78348711Y-136315552D01*
X78238751Y-136336224D01*
X78132243Y-136354944D01*
X78031037Y-136371309D01*
X78009800Y-136374613D01*
X77969063Y-136381330D01*
X77938522Y-136387113D01*
X77916740Y-136392338D01*
X77902278Y-136397383D01*
X77893699Y-136402626D01*
X77889565Y-136408445D01*
X77889556Y-136415038D01*
X77896452Y-136420858D01*
X77911747Y-136425872D01*
X77936756Y-136430502D01*
X77972791Y-136435170D01*
X78021441Y-136439937D01*
X78082038Y-136444452D01*
X78153003Y-136448638D01*
X78233341Y-136452486D01*
X78322060Y-136455987D01*
X78418162Y-136459134D01*
X78520656Y-136461918D01*
X78628545Y-136464328D01*
X78740835Y-136466358D01*
X78856532Y-136467999D01*
X78974641Y-136469241D01*
X79094167Y-136470076D01*
X79214117Y-136470496D01*
X79333495Y-136470491D01*
X79451307Y-136470053D01*
X79566558Y-136469174D01*
X79678254Y-136467844D01*
X79785401Y-136466056D01*
X79887003Y-136463799D01*
X79982067Y-136461067D01*
X80069597Y-136457849D01*
X80148600Y-136454138D01*
X80228205Y-136449462D01*
X80325585Y-136442724D01*
X80425732Y-136434811D01*
X80526126Y-136425959D01*
X80624249Y-136416404D01*
X80717582Y-136406380D01*
X80803606Y-136396122D01*
X80879803Y-136385866D01*
X80906822Y-136381578D01*
X80956146Y-136372409D01*
X81011084Y-136360917D01*
X81068669Y-136347812D01*
X81125931Y-136333805D01*
X81179902Y-136319604D01*
X81227615Y-136305920D01*
X81266101Y-136293464D01*
X81279571Y-136288465D01*
X81309494Y-136276456D01*
X81345191Y-136261327D01*
X81383299Y-136244516D01*
X81420452Y-136227461D01*
X81422999Y-136226266D01*
X81488625Y-136196162D01*
X81544772Y-136172116D01*
X81592596Y-136153979D01*
X81633249Y-136141605D01*
X81667885Y-136134846D01*
X81697658Y-136133555D01*
X81723722Y-136137584D01*
X81747230Y-136146786D01*
X81769336Y-136161015D01*
X81791195Y-136180121D01*
X81804668Y-136194064D01*
X81821244Y-136216311D01*
X81831529Y-136240269D01*
X81836812Y-136269405D01*
X81838378Y-136307181D01*
X81838384Y-136310348D01*
X81837792Y-136338387D01*
X81835421Y-136358970D01*
X81830452Y-136376540D01*
X81822064Y-136395541D01*
X81810064Y-136416012D01*
X81790813Y-136439464D01*
X81765279Y-136462598D01*
X81732650Y-136485887D01*
X81692111Y-136509806D01*
X81642849Y-136534828D01*
X81584050Y-136561428D01*
X81514900Y-136590079D01*
X81434586Y-136621256D01*
X81416187Y-136628143D01*
X81335615Y-136656408D01*
X81256379Y-136680809D01*
X81175746Y-136702020D01*
X81090979Y-136720712D01*
X80999344Y-136737560D01*
X80898107Y-136753235D01*
X80817611Y-136764126D01*
X80725887Y-136775044D01*
X80630136Y-136784876D01*
X80529433Y-136793676D01*
X80422858Y-136801501D01*
X80309485Y-136808405D01*
X80188393Y-136814446D01*
X80058659Y-136819678D01*
X79919359Y-136824158D01*
X79769571Y-136827940D01*
X79608371Y-136831082D01*
X79583015Y-136831490D01*
X79491799Y-136832629D01*
X79394735Y-136833378D01*
X79292894Y-136833755D01*
X79187345Y-136833774D01*
X79079159Y-136833453D01*
X78969406Y-136832806D01*
X78859157Y-136831851D01*
X78749482Y-136830604D01*
X78641451Y-136829080D01*
X78536135Y-136827297D01*
X78434604Y-136825269D01*
X78337928Y-136823013D01*
X78247178Y-136820546D01*
X78163423Y-136817883D01*
X78087735Y-136815041D01*
X78021183Y-136812036D01*
X77964839Y-136808883D01*
X77919771Y-136805600D01*
X77869968Y-136801550D01*
X77809914Y-136797437D01*
X77762045Y-136795217D01*
X77726349Y-136794889D01*
X77702816Y-136796455D01*
X77691437Y-136799913D01*
X77685905Y-136805841D01*
X77681360Y-136821010D01*
X77686291Y-136837209D01*
X77699189Y-136852349D01*
X77718547Y-136864342D01*
X77742856Y-136871100D01*
X77759191Y-136873382D01*
X77815958Y-136882958D01*
X77882592Y-136896315D01*
X77957770Y-136913175D01*
X78040165Y-136933262D01*
X78053318Y-136936560D01*
X78093965Y-136946465D01*
X78131970Y-136955322D01*
X78165005Y-136962613D01*
X78190745Y-136967819D01*
X78206864Y-136970422D01*
X78213901Y-136971366D01*
X78236414Y-136975374D01*
X78266397Y-136981542D01*
X78300786Y-136989224D01*
X78336519Y-136997773D01*
X78348993Y-137000839D01*
X78387594Y-137010131D01*
X78433645Y-137021007D01*
X78483845Y-137032696D01*
X78534891Y-137044427D01*
X78583481Y-137055429D01*
X78596313Y-137058319D01*
X78649095Y-137070386D01*
X78705631Y-137083550D01*
X78761968Y-137096877D01*
X78814151Y-137109434D01*
X78858225Y-137120286D01*
X78896161Y-137129573D01*
X78943590Y-137140720D01*
X78990632Y-137151344D01*
X79033434Y-137160578D01*
X79068143Y-137167554D01*
X79105692Y-137174915D01*
X79149670Y-137183993D01*
X79192496Y-137193233D01*
X79228668Y-137201474D01*
X79245549Y-137205364D01*
X79279296Y-137212805D01*
X79320653Y-137221643D01*
X79366910Y-137231310D01*
X79415357Y-137241234D01*
X79463281Y-137250845D01*
X79482350Y-137254638D01*
X79538357Y-137265913D01*
X79598450Y-137278175D01*
X79658576Y-137290587D01*
X79714684Y-137302317D01*
X79762722Y-137312528D01*
X79808906Y-137322392D01*
X79864172Y-137333910D01*
X79910851Y-137343185D01*
X79950942Y-137350561D01*
X79986442Y-137356379D01*
X80019347Y-137360983D01*
X80051654Y-137364716D01*
X80085360Y-137367921D01*
X80108451Y-137370152D01*
X80150749Y-137374965D01*
X80194604Y-137380657D01*
X80233537Y-137386418D01*
X80278634Y-137392877D01*
X80342728Y-137400197D01*
X80416982Y-137407020D01*
X80500208Y-137413249D01*
X80591219Y-137418787D01*
X80688828Y-137423537D01*
X80691729Y-137423662D01*
X80770633Y-137427393D01*
X80838341Y-137431344D01*
X80895968Y-137435664D01*
X80944630Y-137440503D01*
X80985440Y-137446010D01*
X81019513Y-137452335D01*
X81047963Y-137459628D01*
X81071906Y-137468038D01*
X81092456Y-137477715D01*
X81101189Y-137482734D01*
X81128268Y-137504692D01*
X81146720Y-137532933D01*
X81158320Y-137569943D01*
X81161281Y-137591510D01*
X81162034Y-137629424D01*
X81158722Y-137669923D01*
X81151604Y-137707698D01*
X81149186Y-137714628D01*
X81136125Y-137735997D01*
X81116199Y-137758127D01*
X81092603Y-137777785D01*
X81068532Y-137791741D01*
X81058517Y-137794785D01*
X81033980Y-137798815D01*
X80999479Y-137802118D01*
X80956442Y-137804687D01*
X80906293Y-137806518D01*
X80850460Y-137807606D01*
X80790368Y-137807945D01*
X80727444Y-137807532D01*
X80663114Y-137806361D01*
X80598805Y-137804426D01*
X80535941Y-137801724D01*
X80475950Y-137798249D01*
X80420257Y-137793996D01*
X80312341Y-137783744D01*
X80104494Y-137759495D01*
X79899604Y-137729731D01*
X79700554Y-137694892D01*
X79510232Y-137655417D01*
X79475781Y-137647770D01*
X79428436Y-137637537D01*
X79381159Y-137627584D01*
X79337937Y-137618747D01*
X79302756Y-137611863D01*
X79286256Y-137608664D01*
X79249598Y-137601211D01*
X79205570Y-137591943D01*
X79157134Y-137581493D01*
X79107251Y-137570496D01*
X79058882Y-137559588D01*
X79025974Y-137552102D01*
X78980645Y-137541888D01*
X78937923Y-137532367D01*
X78900165Y-137524061D01*
X78869727Y-137517491D01*
X78848964Y-137513177D01*
X78831537Y-137509513D01*
X78802462Y-137503072D01*
X78765621Y-137494692D01*
X78723262Y-137484889D01*
X78677632Y-137474180D01*
X78630979Y-137463082D01*
X78616694Y-137459676D01*
X78570159Y-137448724D01*
X78514752Y-137435854D01*
X78452810Y-137421599D01*
X78386671Y-137406495D01*
X78318673Y-137391075D01*
X78251153Y-137375874D01*
X78186448Y-137361427D01*
X78155688Y-137354581D01*
X78092262Y-137340400D01*
X78028757Y-137326123D01*
X77967196Y-137312210D01*
X77909603Y-137299120D01*
X77858000Y-137287311D01*
X77814410Y-137277243D01*
X77780855Y-137269374D01*
X77767295Y-137266168D01*
X77691493Y-137248766D01*
X77624170Y-137234243D01*
X77565998Y-137222728D01*
X77517649Y-137214345D01*
X77479794Y-137209222D01*
X77453105Y-137207487D01*
X77451024Y-137207496D01*
X77431852Y-137208818D01*
X77412733Y-137213111D01*
X77390080Y-137221434D01*
X77360304Y-137234845D01*
X77336988Y-137244951D01*
X77297570Y-137259687D01*
X77252823Y-137274352D01*
X77206670Y-137287597D01*
X77186424Y-137293100D01*
X77155406Y-137302076D01*
X77129651Y-137310204D01*
X77111395Y-137316763D01*
X77102878Y-137321032D01*
X77100958Y-137323500D01*
X77096116Y-137336220D01*
X77092194Y-137357746D01*
X77089172Y-137388579D01*
X77087028Y-137429223D01*
X77085741Y-137480180D01*
X77085289Y-137541953D01*
X77085651Y-137615045D01*
X77086806Y-137699957D01*
X77091026Y-137948554D01*
X77105881Y-137952282D01*
X77108757Y-137952718D01*
X77123606Y-137953526D01*
X77147955Y-137953962D01*
X77179790Y-137954020D01*
X77217096Y-137953689D01*
X77257857Y-137952961D01*
X77274068Y-137952567D01*
X77337706Y-137950148D01*
X77393443Y-137946203D01*
X77444863Y-137940249D01*
X77495551Y-137931801D01*
X77549090Y-137920375D01*
X77609065Y-137905486D01*
X77688605Y-137882811D01*
X77765013Y-137856105D01*
X77835860Y-137825287D01*
X77904276Y-137788835D01*
X77973392Y-137745227D01*
X78046339Y-137692942D01*
X78051869Y-137688847D01*
X78079931Y-137669491D01*
X78109544Y-137650875D01*
X78135149Y-137636532D01*
X78159015Y-137625711D01*
X78188403Y-137617258D01*
X78218418Y-137615348D01*
X78252417Y-137619858D01*
X78293756Y-137630663D01*
X78294798Y-137630976D01*
X78321814Y-137638464D01*
X78356399Y-137647204D01*
X78394211Y-137656136D01*
X78430910Y-137664197D01*
X78462970Y-137671307D01*
X78500360Y-137681203D01*
X78529836Y-137691450D01*
X78553988Y-137702862D01*
X78554765Y-137703290D01*
X78573824Y-137714494D01*
X78587921Y-137724092D01*
X78594056Y-137730048D01*
X78593788Y-137731239D01*
X78586901Y-137739322D01*
X78571985Y-137753266D01*
X78550457Y-137771949D01*
X78523736Y-137794247D01*
X78493241Y-137819039D01*
X78460392Y-137845200D01*
X78426606Y-137871609D01*
X78393304Y-137897141D01*
X78361903Y-137920676D01*
X78333823Y-137941088D01*
X78310483Y-137957256D01*
X78293301Y-137968058D01*
X78277442Y-137977290D01*
X78253975Y-137991244D01*
X78226301Y-138007891D01*
X78197603Y-138025327D01*
X78188623Y-138030747D01*
X78153868Y-138050830D01*
X78114305Y-138072577D01*
X78071667Y-138095137D01*
X78027689Y-138117659D01*
X77984103Y-138139293D01*
X77942644Y-138159187D01*
X77905046Y-138176492D01*
X77873043Y-138190356D01*
X77848367Y-138199928D01*
X77832755Y-138204358D01*
X77820992Y-138206779D01*
X77796828Y-138213427D01*
X77767913Y-138222683D01*
X77738215Y-138233332D01*
X77717836Y-138240878D01*
X77672753Y-138255887D01*
X77627862Y-138268134D01*
X77581074Y-138277961D01*
X77530304Y-138285712D01*
X77473466Y-138291730D01*
X77408473Y-138296359D01*
X77333237Y-138299941D01*
X77325195Y-138300241D01*
X77282045Y-138301508D01*
X77229711Y-138302594D01*
X77169730Y-138303499D01*
X77103639Y-138304222D01*
X77032977Y-138304764D01*
X76959282Y-138305125D01*
X76884092Y-138305302D01*
X76808945Y-138305298D01*
X76735379Y-138305110D01*
X76664932Y-138304739D01*
X76599141Y-138304185D01*
X76539545Y-138303446D01*
X76487682Y-138302524D01*
X76445089Y-138301417D01*
X76413306Y-138300126D01*
X76383865Y-138298409D01*
X76338028Y-138295284D01*
X76292589Y-138291724D01*
X76251527Y-138288046D01*
X76218823Y-138284568D01*
X76147160Y-138275082D01*
X76058525Y-138261387D01*
X75965432Y-138245171D01*
X75869975Y-138226887D01*
X75774249Y-138206992D01*
X75680348Y-138185938D01*
X75590367Y-138164181D01*
X75506399Y-138142175D01*
X75430541Y-138120375D01*
X75364886Y-138099236D01*
X75364434Y-138099080D01*
X75328610Y-138087019D01*
X75291194Y-138074916D01*
X75256592Y-138064169D01*
X75229212Y-138056177D01*
X75189687Y-138043898D01*
X75138557Y-138025462D01*
X75079533Y-138002160D01*
X75014062Y-137974666D01*
X74943589Y-137943653D01*
X74869561Y-137909796D01*
X74793423Y-137873768D01*
X74716620Y-137836242D01*
X74640598Y-137797891D01*
X74566804Y-137759389D01*
X74496682Y-137721411D01*
X74431678Y-137684628D01*
X74379283Y-137653428D01*
X74261369Y-137577837D01*
X74140001Y-137493003D01*
X74016743Y-137400085D01*
X73893160Y-137300244D01*
X73770816Y-137194639D01*
X73762615Y-137187262D01*
X73727566Y-137154739D01*
X73686932Y-137115777D01*
X73642543Y-137072229D01*
X73596229Y-137025951D01*
X73549819Y-136978797D01*
X73505143Y-136932622D01*
X73464030Y-136889282D01*
X73428310Y-136850630D01*
X73399813Y-136818522D01*
X73390703Y-136807899D01*
X73303679Y-136702834D01*
X73220984Y-136596524D01*
X73143784Y-136490620D01*
X73073247Y-136386774D01*
X73010541Y-136286636D01*
X72956832Y-136191857D01*
X72952897Y-136184424D01*
X72937915Y-136155431D01*
X72920202Y-136120336D01*
X72900506Y-136080696D01*
X72879576Y-136038073D01*
X72858162Y-135994025D01*
X72837011Y-135950113D01*
X72816873Y-135907895D01*
X72798496Y-135868932D01*
X72782629Y-135834784D01*
X72770021Y-135807009D01*
X72761420Y-135787168D01*
X72757577Y-135776821D01*
X72754699Y-135767572D01*
X72747590Y-135748204D01*
X72737712Y-135723125D01*
X72726267Y-135695459D01*
X72722903Y-135687451D01*
X72696963Y-135620942D01*
X72671295Y-135546419D01*
X72645431Y-135462455D01*
X72618903Y-135367623D01*
X72589524Y-135254036D01*
X72563618Y-135144252D01*
X72542523Y-135042856D01*
X72525971Y-134948439D01*
X72513692Y-134859595D01*
X72505416Y-134774915D01*
X72502909Y-134743903D01*
X72499324Y-134703899D01*
X72495644Y-134666912D01*
X72492182Y-134636042D01*
X72489249Y-134614390D01*
X72488011Y-134603499D01*
X72486489Y-134577081D01*
X72485440Y-134539885D01*
X72484854Y-134492859D01*
X72484723Y-134436953D01*
X72485038Y-134373114D01*
X72485318Y-134346782D01*
X72972444Y-134346782D01*
X72972819Y-134429222D01*
X72973983Y-134507484D01*
X72975915Y-134579938D01*
X72978590Y-134644953D01*
X72981988Y-134700900D01*
X72986084Y-134746148D01*
X72990769Y-134785377D01*
X73005979Y-134891852D01*
X73024594Y-134997943D01*
X73046091Y-135101262D01*
X73069949Y-135199421D01*
X73095644Y-135290033D01*
X73122656Y-135370710D01*
X73125861Y-135379618D01*
X73136321Y-135410809D01*
X73145685Y-135441585D01*
X73152239Y-135466407D01*
X73154547Y-135475162D01*
X73163597Y-135502286D01*
X73177319Y-135538067D01*
X73194985Y-135580918D01*
X73215867Y-135629248D01*
X73239236Y-135681468D01*
X73264365Y-135735989D01*
X73290527Y-135791222D01*
X73316992Y-135845577D01*
X73343033Y-135897466D01*
X73367921Y-135945298D01*
X73390930Y-135987485D01*
X73435756Y-136063033D01*
X73494459Y-136153143D01*
X73560338Y-136246652D01*
X73631830Y-136341614D01*
X73707376Y-136436084D01*
X73785413Y-136528116D01*
X73864381Y-136615764D01*
X73942718Y-136697082D01*
X74018863Y-136770123D01*
X74022268Y-136773238D01*
X74110068Y-136851436D01*
X74200836Y-136928432D01*
X74292769Y-137002836D01*
X74384068Y-137073256D01*
X74472932Y-137138305D01*
X74557560Y-137196590D01*
X74636153Y-137246723D01*
X74670372Y-137266968D01*
X74723522Y-137296793D01*
X74782734Y-137328499D01*
X74846599Y-137361433D01*
X74913712Y-137394944D01*
X74982665Y-137428381D01*
X75052050Y-137461092D01*
X75120460Y-137492426D01*
X75186487Y-137521730D01*
X75248725Y-137548354D01*
X75305766Y-137571645D01*
X75356202Y-137590953D01*
X75398627Y-137605625D01*
X75431633Y-137615010D01*
X75437220Y-137616372D01*
X75463996Y-137623668D01*
X75497639Y-137633678D01*
X75534405Y-137645260D01*
X75570549Y-137657277D01*
X75598679Y-137666555D01*
X75672961Y-137688380D01*
X75756450Y-137709742D01*
X75846939Y-137730236D01*
X75942222Y-137749456D01*
X76040092Y-137766997D01*
X76138342Y-137782452D01*
X76234765Y-137795417D01*
X76327155Y-137805484D01*
X76413306Y-137812248D01*
X76436059Y-137813575D01*
X76473809Y-137815575D01*
X76508511Y-137817180D01*
X76537074Y-137818254D01*
X76556408Y-137818657D01*
X76594551Y-137818717D01*
X76598483Y-137786303D01*
X76598884Y-137780909D01*
X76599488Y-137762575D01*
X76599969Y-137733882D01*
X76600333Y-137695911D01*
X76600586Y-137649743D01*
X76600733Y-137596460D01*
X76600780Y-137537143D01*
X76600732Y-137472872D01*
X76600596Y-137404731D01*
X76600376Y-137333799D01*
X76600079Y-137261158D01*
X76599710Y-137187890D01*
X76599275Y-137115075D01*
X76598780Y-137043796D01*
X76598229Y-136975133D01*
X76597630Y-136910167D01*
X76596987Y-136849981D01*
X76596306Y-136795654D01*
X76595593Y-136748270D01*
X76594854Y-136708908D01*
X76594093Y-136678650D01*
X76593318Y-136658578D01*
X76592533Y-136649772D01*
X76591950Y-136647776D01*
X76585313Y-136634116D01*
X76575677Y-136630188D01*
X76561584Y-136636049D01*
X76541573Y-136651755D01*
X76520351Y-136668973D01*
X76479491Y-136697443D01*
X76429995Y-136727794D01*
X76373797Y-136759052D01*
X76312830Y-136790240D01*
X76249028Y-136820383D01*
X76184326Y-136848505D01*
X76120656Y-136873630D01*
X76059954Y-136894781D01*
X76024178Y-136905824D01*
X75943067Y-136928084D01*
X75855569Y-136948846D01*
X75764238Y-136967677D01*
X75671627Y-136984141D01*
X75580287Y-136997802D01*
X75492771Y-137008227D01*
X75411633Y-137014978D01*
X75339424Y-137017622D01*
X75305176Y-137017644D01*
X75272471Y-137016658D01*
X75247978Y-137013916D01*
X75229424Y-137008735D01*
X75214533Y-137000431D01*
X75201033Y-136988321D01*
X75186648Y-136971722D01*
X75165109Y-136942500D01*
X75149757Y-136913689D01*
X75144540Y-136890385D01*
X75144604Y-136888916D01*
X75150210Y-136872600D01*
X75163202Y-136852280D01*
X75181201Y-136830827D01*
X75201830Y-136811111D01*
X75222712Y-136796003D01*
X75225717Y-136794255D01*
X75235977Y-136788754D01*
X75246281Y-136784640D01*
X75258678Y-136781615D01*
X75275218Y-136779376D01*
X75297950Y-136777624D01*
X75328925Y-136776057D01*
X75370191Y-136774376D01*
X75441610Y-136770638D01*
X75577948Y-136757744D01*
X75712983Y-136736940D01*
X75851468Y-136707568D01*
X75873289Y-136702217D01*
X75998459Y-136665884D01*
X76115857Y-136621924D01*
X76224968Y-136570633D01*
X76325274Y-136512307D01*
X76416258Y-136447240D01*
X76497405Y-136375728D01*
X76568196Y-136298065D01*
X76607266Y-136249923D01*
X76604052Y-135977015D01*
X76603562Y-135937512D01*
X76602790Y-135882472D01*
X76601977Y-135831838D01*
X76601150Y-135786935D01*
X76600336Y-135749086D01*
X76599563Y-135719614D01*
X76598856Y-135699842D01*
X76598242Y-135691094D01*
X76597304Y-135688215D01*
X76591625Y-135681567D01*
X76579607Y-135674437D01*
X76559404Y-135665860D01*
X76529171Y-135654867D01*
X76511760Y-135648578D01*
X76474875Y-135634285D01*
X76438048Y-135618971D01*
X76407131Y-135605025D01*
X76360032Y-135580654D01*
X76284760Y-135533324D01*
X76217176Y-135479821D01*
X76158056Y-135421054D01*
X76108170Y-135357932D01*
X76068293Y-135291365D01*
X76039197Y-135222261D01*
X76021655Y-135151531D01*
X76019353Y-135133948D01*
X76016645Y-135097850D01*
X76015405Y-135056823D01*
X76015597Y-135014308D01*
X76017180Y-134973749D01*
X76020116Y-134938587D01*
X76024366Y-134912265D01*
X76031026Y-134888950D01*
X76050915Y-134840254D01*
X76078882Y-134788415D01*
X76113442Y-134735808D01*
X76153107Y-134684804D01*
X76196391Y-134637775D01*
X76262515Y-134578409D01*
X76336603Y-134525778D01*
X76415682Y-134483463D01*
X76501336Y-134450489D01*
X76524619Y-134442870D01*
X76548947Y-134434500D01*
X76567018Y-134427813D01*
X76576066Y-134423797D01*
X76578417Y-134421475D01*
X76584828Y-134409039D01*
X76589983Y-134391333D01*
X76591829Y-134375992D01*
X76593585Y-134348660D01*
X76595240Y-134309763D01*
X76596793Y-134259693D01*
X76598240Y-134198843D01*
X76599578Y-134127604D01*
X76600806Y-134046368D01*
X76601919Y-133955527D01*
X76602915Y-133855474D01*
X76603791Y-133746600D01*
X76604544Y-133629298D01*
X76605173Y-133503960D01*
X76605672Y-133370977D01*
X76606041Y-133230742D01*
X76606276Y-133083647D01*
X76606374Y-132930084D01*
X76606333Y-132770446D01*
X76606149Y-132605123D01*
X76605820Y-132434508D01*
X76605343Y-132258994D01*
X76605261Y-132232854D01*
X76604856Y-132111585D01*
X76604424Y-131993454D01*
X76603968Y-131879073D01*
X76603492Y-131769057D01*
X76603000Y-131664021D01*
X76602495Y-131564579D01*
X76601981Y-131471343D01*
X76601463Y-131384930D01*
X76600943Y-131305951D01*
X76600426Y-131235023D01*
X76599916Y-131172758D01*
X76599416Y-131119771D01*
X76598931Y-131076675D01*
X76598463Y-131044086D01*
X76598017Y-131022616D01*
X76597597Y-131012880D01*
X76594828Y-130995092D01*
X76588379Y-130978890D01*
X76576801Y-130970474D01*
X76557884Y-130968508D01*
X76529420Y-130971657D01*
X76512581Y-130973842D01*
X76485615Y-130976787D01*
X76451605Y-130980163D01*
X76413232Y-130983704D01*
X76373174Y-130987144D01*
X76340567Y-130989907D01*
X76293914Y-130994059D01*
X76247721Y-130998368D01*
X76205939Y-131002463D01*
X76172518Y-131005972D01*
X76145497Y-131009425D01*
X76094045Y-131017649D01*
X76034233Y-131028782D01*
X75968164Y-131042340D01*
X75897944Y-131057837D01*
X75825675Y-131074790D01*
X75753462Y-131092714D01*
X75683410Y-131111124D01*
X75617621Y-131129535D01*
X75558201Y-131147463D01*
X75550342Y-131149939D01*
X75501844Y-131164886D01*
X75462253Y-131176257D01*
X75429182Y-131184530D01*
X75400243Y-131190182D01*
X75373046Y-131193690D01*
X75345203Y-131195530D01*
X75314326Y-131196180D01*
X75299940Y-131196260D01*
X75281499Y-131196031D01*
X75264779Y-131194870D01*
X75248848Y-131192191D01*
X75232779Y-131187408D01*
X75215641Y-131179935D01*
X75196504Y-131169186D01*
X75174438Y-131154576D01*
X75148514Y-131135517D01*
X75117803Y-131111425D01*
X75081373Y-131081712D01*
X75038296Y-131045794D01*
X74987642Y-131003084D01*
X74928481Y-130952996D01*
X74920111Y-130945912D01*
X74883753Y-130915208D01*
X74839205Y-130877674D01*
X74787480Y-130834163D01*
X74729591Y-130785523D01*
X74666554Y-130732606D01*
X74599380Y-130676262D01*
X74529085Y-130617341D01*
X74456681Y-130556693D01*
X74383182Y-130495169D01*
X74309603Y-130433619D01*
X74236956Y-130372894D01*
X74133227Y-130286211D01*
X74019415Y-130191075D01*
X73913827Y-130102781D01*
X73815778Y-130020755D01*
X73724584Y-129944424D01*
X73639560Y-129873216D01*
X73560024Y-129806557D01*
X73485291Y-129743875D01*
X73414677Y-129684596D01*
X73347497Y-129628148D01*
X73283067Y-129573957D01*
X73249362Y-129546151D01*
X73209971Y-129515424D01*
X73177262Y-129492148D01*
X73151737Y-129476653D01*
X73133900Y-129469267D01*
X73124255Y-129470319D01*
X73121049Y-129475633D01*
X73117618Y-129487502D01*
X73114559Y-129506143D01*
X73111817Y-129532352D01*
X73109337Y-129566928D01*
X73107062Y-129610665D01*
X73104937Y-129664360D01*
X73102907Y-129728811D01*
X73100915Y-129804813D01*
X73099557Y-129859894D01*
X73096604Y-129974632D01*
X73093200Y-130101274D01*
X73089352Y-130239535D01*
X73085069Y-130389129D01*
X73080360Y-130549769D01*
X73075233Y-130721170D01*
X73069697Y-130903046D01*
X73063760Y-131095112D01*
X73057431Y-131297082D01*
X73050719Y-131508669D01*
X73043632Y-131729588D01*
X73036178Y-131959553D01*
X73034092Y-132023746D01*
X73030025Y-132149782D01*
X73026341Y-132265432D01*
X73023000Y-132372021D01*
X73019966Y-132470870D01*
X73017199Y-132563305D01*
X73014662Y-132650647D01*
X73012316Y-132734221D01*
X73010124Y-132815350D01*
X73008047Y-132895357D01*
X73006047Y-132975566D01*
X73004086Y-133057300D01*
X73002126Y-133141881D01*
X73000478Y-133213302D01*
X72994872Y-133443816D01*
X72989070Y-133663626D01*
X72983038Y-133873997D01*
X72976742Y-134076194D01*
X72976286Y-134090699D01*
X72974155Y-134175890D01*
X72972882Y-134261794D01*
X72972444Y-134346782D01*
X72485318Y-134346782D01*
X72485792Y-134302290D01*
X72486976Y-134225430D01*
X72488581Y-134143482D01*
X72490599Y-134057394D01*
X72493021Y-133968115D01*
X72495838Y-133876592D01*
X72499955Y-133750209D01*
X72505893Y-133566938D01*
X72511421Y-133395038D01*
X72516556Y-133233921D01*
X72521314Y-133083003D01*
X72525712Y-132941696D01*
X72529767Y-132809414D01*
X72533496Y-132685571D01*
X72536915Y-132569580D01*
X72540042Y-132460856D01*
X72542893Y-132358813D01*
X72545484Y-132262862D01*
X72547833Y-132172420D01*
X72549957Y-132086899D01*
X72551872Y-132005712D01*
X72553595Y-131928275D01*
X72555143Y-131853999D01*
X72556532Y-131782300D01*
X72557780Y-131712591D01*
X72557900Y-131705634D01*
X72559256Y-131635344D01*
X72560869Y-131563573D01*
X72562679Y-131492299D01*
X72564628Y-131423495D01*
X72566658Y-131359137D01*
X72568710Y-131301201D01*
X72570724Y-131251662D01*
X72572643Y-131212494D01*
X72572705Y-131211374D01*
X72577221Y-131124286D01*
X72581524Y-131029499D01*
X72585643Y-130926238D01*
X72589604Y-130813728D01*
X72593435Y-130691194D01*
X72597163Y-130557861D01*
X72600815Y-130412956D01*
X72604547Y-130258793D01*
X72608334Y-130105520D01*
X72611931Y-129963708D01*
X72615357Y-129832901D01*
X72618630Y-129712641D01*
X72621770Y-129602470D01*
X72624796Y-129501933D01*
X72627727Y-129410572D01*
X72630581Y-129327929D01*
X72633378Y-129253549D01*
X72636137Y-129186973D01*
X72638877Y-129127744D01*
X72641617Y-129075406D01*
X72644375Y-129029502D01*
X72647171Y-128989574D01*
X72650024Y-128955165D01*
X72652953Y-128925818D01*
X72655976Y-128901077D01*
X72659114Y-128880483D01*
X72662384Y-128863581D01*
X72665806Y-128849912D01*
X72673012Y-128829742D01*
X72695917Y-128790538D01*
X72727670Y-128756661D01*
X72766311Y-128729125D01*
X72809880Y-128708943D01*
X72856416Y-128697130D01*
X72903959Y-128694699D01*
X72950549Y-128702663D01*
X72962409Y-128706560D01*
X72975828Y-128712005D01*
X72990418Y-128719201D01*
X73006864Y-128728673D01*
X73025851Y-128740941D01*
X73048065Y-128756527D01*
X73074191Y-128775952D01*
X73104915Y-128799740D01*
X73140921Y-128828411D01*
X73182894Y-128862486D01*
X73231521Y-128902489D01*
X73287487Y-128948941D01*
X73351476Y-129002363D01*
X73424174Y-129063277D01*
X73456635Y-129090497D01*
X73498570Y-129125638D01*
X73548144Y-129167165D01*
X73604428Y-129214297D01*
X73666489Y-129266256D01*
X73733397Y-129322262D01*
X73804221Y-129381536D01*
X73878029Y-129443298D01*
X73953889Y-129506769D01*
X74030872Y-129571169D01*
X74108045Y-129635719D01*
X74184477Y-129699640D01*
X74281074Y-129780422D01*
X74370735Y-129855416D01*
X74452159Y-129923537D01*
X74525971Y-129985309D01*
X74592798Y-130041260D01*
X74653265Y-130091916D01*
X74707998Y-130137802D01*
X74757623Y-130179445D01*
X74802765Y-130217371D01*
X74844051Y-130252105D01*
X74882106Y-130284175D01*
X74917555Y-130314105D01*
X74951025Y-130342423D01*
X74983141Y-130369654D01*
X75014529Y-130396324D01*
X75045815Y-130422960D01*
X75077624Y-130450087D01*
X75110583Y-130478231D01*
X75127604Y-130492758D01*
X75178558Y-130535999D01*
X75221501Y-130571949D01*
X75257368Y-130601313D01*
X75287093Y-130624796D01*
X75311610Y-130643103D01*
X75331853Y-130656939D01*
X75348757Y-130667008D01*
X75363256Y-130674015D01*
X75376284Y-130678665D01*
X75378249Y-130679250D01*
X75386839Y-130681882D01*
X75394260Y-130683766D01*
X75401968Y-130684622D01*
X75411414Y-130684174D01*
X75424052Y-130682142D01*
X75441335Y-130678247D01*
X75464717Y-130672211D01*
X75495650Y-130663756D01*
X75535588Y-130652603D01*
X75585984Y-130638473D01*
X75643580Y-130622861D01*
X75765109Y-130593234D01*
X75890506Y-130567158D01*
X76020797Y-130544512D01*
X76157009Y-130525171D01*
X76300168Y-130509014D01*
X76451299Y-130495917D01*
X76611431Y-130485758D01*
X76781587Y-130478414D01*
X76962795Y-130473762D01*
X77001397Y-130473178D01*
X77199976Y-130473737D01*
X77389187Y-130480403D01*
X77568564Y-130493154D01*
X77737637Y-130511967D01*
X77847575Y-130529059D01*
X77988771Y-130557337D01*
X78137591Y-130593659D01*
X78293265Y-130637817D01*
X78455021Y-130689605D01*
X78622086Y-130748817D01*
X78635301Y-130753696D01*
X78664205Y-130764194D01*
X78688106Y-130772639D01*
X78704820Y-130778266D01*
X78712162Y-130780311D01*
X78714992Y-130779347D01*
X78718974Y-130774628D01*
X78723857Y-130764752D01*
X78730149Y-130748378D01*
X78738356Y-130724166D01*
X78748983Y-130690775D01*
X78762536Y-130646863D01*
X78777164Y-130600181D01*
X78809213Y-130505964D01*
X78843484Y-130416718D01*
X78881886Y-130327636D01*
X78926324Y-130233909D01*
X78963203Y-130161496D01*
X79035115Y-130033838D01*
X79112203Y-129914507D01*
X79196223Y-129801045D01*
X79288931Y-129690995D01*
X79392082Y-129581901D01*
X79422155Y-129552164D01*
X79521745Y-129460497D01*
X79624596Y-129376530D01*
X79733732Y-129297898D01*
X79852177Y-129222236D01*
X79854048Y-129221110D01*
X79884240Y-129203645D01*
X79920742Y-129183582D01*
X79961839Y-129161768D01*
X80005812Y-129139052D01*
X80050945Y-129116279D01*
X80095520Y-129094299D01*
X80137822Y-129073958D01*
X80176131Y-129056104D01*
X80208732Y-129041583D01*
X80233906Y-129031245D01*
X80249938Y-129025935D01*
X80262897Y-129022506D01*
X80286933Y-129015294D01*
X80315934Y-129005983D01*
X80346169Y-128995743D01*
X80377881Y-128984989D01*
X80505105Y-128947569D01*
X80637583Y-128917674D01*
X80777069Y-128894949D01*
X80925321Y-128879042D01*
X81045140Y-128873085D01*
X81187874Y-128875153D01*
X81333981Y-128886397D01*
X81481295Y-128906451D01*
X81627647Y-128934948D01*
X81770869Y-128971522D01*
X81908792Y-129015805D01*
X82039249Y-129067431D01*
X82042675Y-129068929D01*
X82075523Y-129083092D01*
X82107693Y-129096648D01*
X82135652Y-129108125D01*
X82155865Y-129116050D01*
X82178903Y-129125837D01*
X82217038Y-129145193D01*
X82262049Y-129170750D01*
X82312457Y-129201509D01*
X82366786Y-129236472D01*
X82423557Y-129274638D01*
X82481291Y-129315010D01*
X82538511Y-129356588D01*
X82593739Y-129398373D01*
X82645496Y-129439367D01*
X82692304Y-129478571D01*
X82701746Y-129486812D01*
X82793656Y-129573453D01*
X82884775Y-129670767D01*
X82973837Y-129777247D01*
X83059574Y-129891390D01*
X83140720Y-130011688D01*
X83154392Y-130033969D01*
X83175363Y-130070298D01*
X83199100Y-130113258D01*
X83224620Y-130160918D01*
X83250940Y-130211347D01*
X83277080Y-130262612D01*
X83302056Y-130312783D01*
X83324887Y-130359929D01*
X83344590Y-130402117D01*
X83360183Y-130437417D01*
X83370685Y-130463898D01*
X83373143Y-130470906D01*
X83388129Y-130517394D01*
X83404300Y-130573092D01*
X83421034Y-130635459D01*
X83437711Y-130701952D01*
X83453710Y-130770030D01*
X83468410Y-130837149D01*
X83481190Y-130900768D01*
X83491429Y-130958344D01*
X83497303Y-130998695D01*
X83505588Y-131076538D01*
X83511379Y-131161397D01*
X83514625Y-131250099D01*
X83515278Y-131339469D01*
X83513287Y-131426334D01*
X83508603Y-131507519D01*
X83501175Y-131579849D01*
X83499036Y-131595030D01*
X83490437Y-131646031D01*
X83478818Y-131705005D01*
X83464801Y-131769431D01*
X83449010Y-131836788D01*
X83432068Y-131904557D01*
X83414600Y-131970217D01*
X83397227Y-132031248D01*
X83380575Y-132085128D01*
X83365265Y-132129339D01*
X83360136Y-132142654D01*
X83348425Y-132171780D01*
X83333831Y-132207062D01*
X83317604Y-132245566D01*
X83300996Y-132284358D01*
X83285256Y-132320502D01*
X83271636Y-132351064D01*
X83261386Y-132373110D01*
X83260003Y-132375915D01*
X83247804Y-132398796D01*
X83230349Y-132429499D01*
X83208954Y-132465876D01*
X83184936Y-132505779D01*
X83159610Y-132547057D01*
X83134294Y-132587564D01*
X83110303Y-132625149D01*
X83088954Y-132657664D01*
X83071564Y-132682960D01*
X83025014Y-132745876D01*
X82918922Y-132874845D01*
X82803448Y-132997364D01*
X82679966Y-133112115D01*
X82549849Y-133217781D01*
X82414472Y-133313043D01*
X82400007Y-133322413D01*
X82319075Y-133372544D01*
X82239648Y-133417472D01*
X82158298Y-133458960D01*
X82071597Y-133498772D01*
X81976115Y-133538675D01*
X81971936Y-133540350D01*
X81914143Y-133563125D01*
X81862642Y-133582432D01*
X81815116Y-133598908D01*
X81769251Y-133613188D01*
X81722727Y-133625910D01*
X81673230Y-133637710D01*
X81618441Y-133649224D01*
X81556046Y-133661089D01*
X81483726Y-133673941D01*
X81315493Y-133703162D01*
X81111750Y-133703308D01*
X81069247Y-133703288D01*
X81012059Y-133702948D01*
X80963049Y-133702028D01*
X80919687Y-133700297D01*
X80879441Y-133697526D01*
X80839779Y-133693482D01*
X80798170Y-133687936D01*
X80752083Y-133680656D01*
X80698987Y-133671412D01*
X80636349Y-133659974D01*
X80582543Y-133650249D01*
X80536639Y-133642524D01*
X80500623Y-133637254D01*
X80473386Y-133634320D01*
X80453819Y-133633604D01*
X80440811Y-133634988D01*
X80433254Y-133638353D01*
X80429372Y-133643627D01*
X80423982Y-133659062D01*
X80418984Y-133684156D01*
X80414277Y-133719580D01*
X80409760Y-133766009D01*
X80405332Y-133824113D01*
X80404968Y-133829275D01*
X80398164Y-133902653D01*
X80387754Y-133986193D01*
X80374026Y-134078459D01*
X80357266Y-134178013D01*
X80337761Y-134283416D01*
X80315798Y-134393232D01*
X80291664Y-134506021D01*
X80265645Y-134620346D01*
X80238028Y-134734770D01*
X80209100Y-134847854D01*
X80179147Y-134958160D01*
X80162927Y-135012053D01*
X80146459Y-135057277D01*
X80129638Y-135092874D01*
X80111707Y-135120205D01*
X80091909Y-135140628D01*
X80069491Y-135155505D01*
X80069313Y-135155597D01*
X80057705Y-135160204D01*
X80036455Y-135167396D01*
X80007752Y-135176479D01*
X79973787Y-135186761D01*
X79936749Y-135197547D01*
X79885497Y-135212018D01*
X79834418Y-135225896D01*
X79793147Y-135236280D01*
X79760626Y-135243328D01*
X79735798Y-135247198D01*
X79717604Y-135248048D01*
X79704989Y-135246036D01*
X79696893Y-135241320D01*
X79692259Y-135234058D01*
X79691955Y-135230979D01*
X79693626Y-135216880D01*
X79698029Y-135194395D01*
X79704676Y-135165876D01*
X79713079Y-135133676D01*
X79717430Y-135117647D01*
X79739969Y-135029723D01*
X79763419Y-134930425D01*
X79787621Y-134820521D01*
X79812413Y-134700781D01*
X79837635Y-134571977D01*
X79863127Y-134434877D01*
X79888728Y-134290253D01*
X79891480Y-134274358D01*
X79900702Y-134221400D01*
X79909926Y-134168878D01*
X79918733Y-134119138D01*
X79926707Y-134074529D01*
X79933432Y-134037397D01*
X79938490Y-134010089D01*
X79944363Y-133976760D01*
X79951064Y-133933736D01*
X79956845Y-133891516D01*
X79960888Y-133855738D01*
X79965434Y-133813534D01*
X79974045Y-133749514D01*
X79985670Y-133676312D01*
X80000511Y-133592586D01*
X80002354Y-133581289D01*
X80006020Y-133552554D01*
X80009689Y-133516817D01*
X80013018Y-133477553D01*
X80015667Y-133438235D01*
X80021108Y-133360611D01*
X80028931Y-133281521D01*
X80039465Y-133199851D01*
X80053238Y-133111011D01*
X80053571Y-133108999D01*
X80059890Y-133070478D01*
X80064646Y-133042444D01*
X80068514Y-133023317D01*
X80072173Y-133011518D01*
X80076299Y-133005467D01*
X80081569Y-133003584D01*
X80088661Y-133004291D01*
X80098252Y-133006007D01*
X80102543Y-133006695D01*
X80124025Y-133011097D01*
X80147444Y-133017662D01*
X80174304Y-133026979D01*
X80206105Y-133039640D01*
X80244349Y-133056238D01*
X80290538Y-133077361D01*
X80346175Y-133103603D01*
X80411543Y-133134328D01*
X80478623Y-133164505D01*
X80539604Y-133189925D01*
X80596327Y-133210984D01*
X80650635Y-133228082D01*
X80704371Y-133241616D01*
X80759376Y-133251983D01*
X80817492Y-133259582D01*
X80880563Y-133264811D01*
X80950430Y-133268066D01*
X81028937Y-133269747D01*
X81117924Y-133270250D01*
X81171992Y-133270101D01*
X81233935Y-133269462D01*
X81289768Y-133268357D01*
X81337931Y-133266828D01*
X81376867Y-133264916D01*
X81405017Y-133262663D01*
X81446148Y-133257136D01*
X81519905Y-133243037D01*
X81599225Y-133223420D01*
X81681219Y-133199166D01*
X81763000Y-133171155D01*
X81841682Y-133140267D01*
X81914375Y-133107383D01*
X81995137Y-133066673D01*
X82084556Y-133017948D01*
X82163632Y-132970305D01*
X82233364Y-132923135D01*
X82294750Y-132875830D01*
X82365696Y-132815075D01*
X82486968Y-132700084D01*
X82597038Y-132580304D01*
X82695831Y-132455834D01*
X82783274Y-132326770D01*
X82859291Y-132193210D01*
X82923808Y-132055250D01*
X82935804Y-132025999D01*
X82959934Y-131963498D01*
X82983314Y-131898363D01*
X83005213Y-131832904D01*
X83024900Y-131769433D01*
X83041643Y-131710260D01*
X83054713Y-131657695D01*
X83063378Y-131614048D01*
X83063426Y-131613750D01*
X83070376Y-131560316D01*
X83075801Y-131497123D01*
X83079679Y-131426652D01*
X83081987Y-131351385D01*
X83082702Y-131273804D01*
X83081800Y-131196389D01*
X83079259Y-131121623D01*
X83075056Y-131051988D01*
X83069167Y-130989964D01*
X83069135Y-130989694D01*
X83061751Y-130943285D01*
X83049845Y-130888162D01*
X83034178Y-130826755D01*
X83015511Y-130761492D01*
X82994606Y-130694801D01*
X82972224Y-130629113D01*
X82949125Y-130566856D01*
X82926070Y-130510458D01*
X82903822Y-130462348D01*
X82890991Y-130437004D01*
X82836103Y-130335027D01*
X82780105Y-130241025D01*
X82723883Y-130156422D01*
X82668319Y-130082645D01*
X82649269Y-130059744D01*
X82601210Y-130005951D01*
X82545836Y-129948370D01*
X82485251Y-129888980D01*
X82421561Y-129829763D01*
X82356869Y-129772698D01*
X82293280Y-129719765D01*
X82232899Y-129672945D01*
X82185571Y-129639247D01*
X82120156Y-129596332D01*
X82050913Y-129554400D01*
X81980450Y-129514902D01*
X81911373Y-129479285D01*
X81846288Y-129449000D01*
X81787802Y-129425495D01*
X81773774Y-129420576D01*
X81738333Y-129408969D01*
X81696498Y-129396077D01*
X81650862Y-129382627D01*
X81604015Y-129369347D01*
X81558550Y-129356965D01*
X81517056Y-129346206D01*
X81482127Y-129337800D01*
X81456352Y-129332472D01*
X81429472Y-129328418D01*
X81378759Y-129322957D01*
X81319307Y-129318620D01*
X81253290Y-129315480D01*
X81182884Y-129313608D01*
X81110263Y-129313075D01*
X81037603Y-129313955D01*
X80967078Y-129316318D01*
X80898095Y-129319824D01*
X80834905Y-129324105D01*
X80779075Y-129329439D01*
X80728042Y-129336296D01*
X80679247Y-129345143D01*
X80630127Y-129356447D01*
X80578122Y-129370675D01*
X80520670Y-129388297D01*
X80455210Y-129409779D01*
X80420393Y-129421703D01*
X80347696Y-129448662D01*
X80280279Y-129477024D01*
X80215291Y-129508206D01*
X80149883Y-129543622D01*
X80081204Y-129584692D01*
X80006405Y-129632829D01*
X80004842Y-129633864D01*
X79925315Y-129687681D01*
X79855154Y-129737949D01*
X79792585Y-129786338D01*
X79735830Y-129834519D01*
X79683113Y-129884165D01*
X79632659Y-129936945D01*
X79582691Y-129994530D01*
X79531433Y-130058593D01*
X79477108Y-130130804D01*
X79455810Y-130160262D01*
X79436233Y-130188731D01*
X79418417Y-130216633D01*
X79400982Y-130246326D01*
X79382546Y-130280169D01*
X79361727Y-130320520D01*
X79337143Y-130369738D01*
X79316623Y-130411487D01*
X79291685Y-130463315D01*
X79271098Y-130507801D01*
X79253966Y-130547016D01*
X79239394Y-130583031D01*
X79226486Y-130617916D01*
X79214346Y-130653743D01*
X79208874Y-130670198D01*
X79199737Y-130696657D01*
X79191803Y-130718571D01*
X79190606Y-130722143D01*
X79185977Y-130742054D01*
X79181171Y-130770941D01*
X79176588Y-130806178D01*
X79172626Y-130845139D01*
X79171846Y-130853822D01*
X79169253Y-130879919D01*
X79166267Y-130904498D01*
X79162548Y-130929243D01*
X79157755Y-130955837D01*
X79151547Y-130985963D01*
X79143583Y-131021304D01*
X79133522Y-131063543D01*
X79121024Y-131114364D01*
X79105748Y-131175450D01*
X79092554Y-131228273D01*
X79078998Y-131283171D01*
X79066165Y-131335737D01*
X79054522Y-131384046D01*
X79044531Y-131426169D01*
X79036658Y-131460180D01*
X79031367Y-131484152D01*
X79025128Y-131512858D01*
X79016302Y-131551191D01*
X79007453Y-131587562D01*
X78999786Y-131616894D01*
X78997528Y-131625484D01*
X78989825Y-131660649D01*
X78983169Y-131699220D01*
X78978798Y-131734280D01*
X78976126Y-131762186D01*
X78973067Y-131786483D01*
X78969458Y-131802556D01*
X78964518Y-131812644D01*
X78957462Y-131818986D01*
X78947508Y-131823824D01*
X78939544Y-131826458D01*
X78926258Y-131827784D01*
X78908094Y-131825885D01*
X78881581Y-131820589D01*
X78867872Y-131817093D01*
X78844131Y-131810295D01*
X78813788Y-131801151D01*
X78778890Y-131790321D01*
X78741481Y-131778467D01*
X78703608Y-131766250D01*
X78667317Y-131754329D01*
X78634654Y-131743366D01*
X78607665Y-131734022D01*
X78588395Y-131726956D01*
X78578891Y-131722831D01*
X78576881Y-131717700D01*
X78576055Y-131701808D01*
X78577030Y-131677329D01*
X78579604Y-131646272D01*
X78583572Y-131610651D01*
X78588731Y-131572474D01*
X78594878Y-131533753D01*
X78601808Y-131496500D01*
X78604600Y-131482567D01*
X78616032Y-131421381D01*
X78624674Y-131366252D01*
X78631206Y-131312418D01*
X78636309Y-131255121D01*
X78637291Y-131240779D01*
X78637776Y-131218000D01*
X78635587Y-131199110D01*
X78629597Y-131183125D01*
X78618680Y-131169061D01*
X78601708Y-131155936D01*
X78577555Y-131142765D01*
X78545094Y-131128564D01*
X78503197Y-131112350D01*
X78450739Y-131093140D01*
X78333867Y-131052720D01*
X78198642Y-131011271D01*
X78065646Y-130976777D01*
X77931379Y-130948427D01*
X77792340Y-130925414D01*
X77645026Y-130906927D01*
X77624474Y-130905118D01*
X77594776Y-130903105D01*
X77557747Y-130900977D01*
X77514898Y-130898790D01*
X77467742Y-130896598D01*
X77417791Y-130894457D01*
X77366560Y-130892422D01*
X77315559Y-130890550D01*
X77266303Y-130888896D01*
X77220304Y-130887514D01*
X77179074Y-130886461D01*
X77144126Y-130885792D01*
X77116973Y-130885563D01*
X77099129Y-130885828D01*
X77092104Y-130886645D01*
X77091920Y-130889132D01*
X77091628Y-130902848D01*
X77091348Y-130928101D01*
X77091079Y-130964386D01*
X77090821Y-131011201D01*
X77090574Y-131068042D01*
X77090339Y-131134407D01*
X77090116Y-131209791D01*
X77089903Y-131293692D01*
X77089703Y-131385607D01*
X77089514Y-131485032D01*
X77089336Y-131591464D01*
X77089171Y-131704399D01*
X77089017Y-131823335D01*
X77088875Y-131947768D01*
X77088745Y-132077195D01*
X77088627Y-132211112D01*
X77088521Y-132349017D01*
X77088427Y-132490406D01*
X77088345Y-132634776D01*
X77088276Y-132781623D01*
X77088218Y-132930445D01*
X77088173Y-133080737D01*
X77088141Y-133231998D01*
X77088121Y-133383723D01*
X77088113Y-133535409D01*
X77088118Y-133686553D01*
X77088135Y-133836653D01*
X77088166Y-133985203D01*
X77088209Y-134131702D01*
X77088264Y-134275646D01*
X77088333Y-134416531D01*
X77088415Y-134553855D01*
X77088509Y-134687114D01*
X77088617Y-134815805D01*
X77088737Y-134939425D01*
X77088871Y-135057470D01*
X77089018Y-135169437D01*
X77089178Y-135274823D01*
X77089352Y-135373125D01*
X77089539Y-135463839D01*
X77089739Y-135546462D01*
X77089953Y-135620491D01*
X77090181Y-135685423D01*
X77090422Y-135740754D01*
X77090677Y-135785981D01*
X77090945Y-135820601D01*
X77091227Y-135844110D01*
X77091524Y-135856006D01*
X77092903Y-135880520D01*
X77095119Y-135912631D01*
X77097431Y-135939106D01*
X77099636Y-135957711D01*
X77101531Y-135966213D01*
X77102424Y-135967159D01*
X77112834Y-135971678D01*
X77131444Y-135976300D01*
X77154936Y-135980157D01*
X77183721Y-135984462D01*
X77224751Y-135993154D01*
X77266608Y-136005477D01*
X77312497Y-136022415D01*
X77365625Y-136044956D01*
X77397724Y-136058512D01*
X77429090Y-136070354D01*
X77455051Y-136078672D01*
X77472781Y-136082477D01*
X77474055Y-136082586D01*
X77489466Y-136082416D01*
X77510701Y-136079740D01*
X77539255Y-136074277D01*
X77576621Y-136065744D01*
X77624294Y-136053859D01*
X77659304Y-136044974D01*
X77732501Y-136027008D01*
X77803239Y-136010603D01*
X77874460Y-135995132D01*
X77949104Y-135979968D01*
X78030113Y-135964483D01*
X78120428Y-135948049D01*
X78210565Y-135931709D01*
X78313325Y-135912442D01*
X78411946Y-135893273D01*
X78504405Y-135874604D01*
X78588678Y-135856836D01*
X78662744Y-135840370D01*
X78697695Y-135831955D01*
X78750302Y-135818364D01*
X78811143Y-135801858D01*
X78878293Y-135783001D01*
X78949827Y-135762357D01*
X79023818Y-135740489D01*
X79098341Y-135717962D01*
X79171470Y-135695339D01*
X79241279Y-135673184D01*
X79305843Y-135652061D01*
X79355090Y-135635670D01*
X79432219Y-135610064D01*
X79499712Y-135587761D01*
X79558876Y-135568339D01*
X79611017Y-135551377D01*
X79657443Y-135536453D01*
X79699459Y-135523146D01*
X79738372Y-135511033D01*
X79775488Y-135499695D01*
X79812114Y-135488707D01*
X79827442Y-135484153D01*
X79970031Y-135442258D01*
X80109952Y-135401989D01*
X80244963Y-135363976D01*
X80372826Y-135328852D01*
X80491299Y-135297247D01*
X80513942Y-135291281D01*
X80566323Y-135277267D01*
X80617682Y-135263256D01*
X80665829Y-135249861D01*
X80708579Y-135237695D01*
X80743742Y-135227369D01*
X80769131Y-135219496D01*
X80791084Y-135212689D01*
X80849794Y-135198090D01*
X80903390Y-135190130D01*
X80950230Y-135188993D01*
X80988674Y-135194863D01*
X81003269Y-135199817D01*
X81040185Y-135220874D01*
X81072089Y-135251966D01*
X81097341Y-135291634D01*
X81100526Y-135298178D01*
X81109787Y-135319306D01*
X81115040Y-135337633D01*
X81117386Y-135358201D01*
X81117924Y-135386053D01*
X81117899Y-135394093D01*
X81117079Y-135419169D01*
X81114391Y-135437497D01*
X81108885Y-135453522D01*
X81099610Y-135471689D01*
X81092106Y-135484376D01*
X81070186Y-135512964D01*
X81042850Y-135536796D01*
X81007790Y-135557650D01*
X80962703Y-135577306D01*
X80941045Y-135585350D01*
X80892208Y-135601964D01*
X80832707Y-135620623D01*
X80763473Y-135641055D01*
X80685439Y-135662989D01*
X80599535Y-135686153D01*
X80506694Y-135710276D01*
X80496376Y-135712920D01*
X80429785Y-135730367D01*
X80356504Y-135750137D01*
X80278606Y-135771632D01*
X80198165Y-135794255D01*
X80117251Y-135817408D01*
X80037939Y-135840495D01*
X79962301Y-135862917D01*
X79892410Y-135884078D01*
X79830338Y-135903381D01*
X79778157Y-135920227D01*
X79757640Y-135927003D01*
X79711113Y-135942260D01*
X79657234Y-135959815D01*
X79597739Y-135979112D01*
X79534363Y-135999593D01*
X79468843Y-136020701D01*
X79402913Y-136041878D01*
X79338310Y-136062569D01*
X79276768Y-136082215D01*
X79220023Y-136100260D01*
X79169810Y-136116147D01*
X79127866Y-136129318D01*
X79095926Y-136139216D01*
X79059640Y-136150063D01*
X78977334Y-136173108D01*
X78885524Y-136197023D01*
X78786063Y-136221407D01*
X78680800Y-136245854D01*
X78662368Y-136249923D01*
X78571587Y-136269964D01*
G37*
D11*
%TO.C,R5*%
X47812258Y-126727500D02*
X47337742Y-126727500D01*
X47812258Y-127772500D02*
X47337742Y-127772500D01*
%TO.C,C25*%
X63634420Y-135490000D02*
X63915580Y-135490000D01*
X63634420Y-136510000D02*
X63915580Y-136510000D01*
%TO.C,R20*%
X47912258Y-132227500D02*
X47437742Y-132227500D01*
X47912258Y-133272500D02*
X47437742Y-133272500D01*
%TO.C,R4*%
X44637258Y-162477500D02*
X44162742Y-162477500D01*
X44637258Y-163522500D02*
X44162742Y-163522500D01*
D14*
%TO.C,IC2*%
X66075000Y-138125000D02*
X66075000Y-138875000D01*
X66075000Y-138875000D02*
X68975000Y-138875000D01*
X68975000Y-138125000D02*
X66075000Y-138125000D01*
X68975000Y-138875000D02*
X68975000Y-138125000D01*
X69075000Y-140375000D02*
X69075000Y-139225000D01*
D11*
%TO.C,C9*%
X83490000Y-138140580D02*
X83490000Y-137859420D01*
X84510000Y-138140580D02*
X84510000Y-137859420D01*
D14*
%TO.C,R15*%
X62275000Y-134425000D02*
X62275000Y-131575000D01*
D11*
%TO.C,C21*%
X63634420Y-137240000D02*
X63915580Y-137240000D01*
X63634420Y-138260000D02*
X63915580Y-138260000D01*
%TO.C,R28*%
X77837742Y-146727500D02*
X78312258Y-146727500D01*
X77837742Y-147772500D02*
X78312258Y-147772500D01*
%TO.C,J11*%
X38140000Y-149740000D02*
X38140000Y-137060000D01*
X41710000Y-135340000D02*
X45960000Y-135340000D01*
X41710000Y-151460000D02*
X45960000Y-151460000D01*
X44360000Y-136360000D02*
X44360000Y-137640000D01*
X44360000Y-149160000D02*
X47250000Y-149160000D01*
X44360000Y-150440000D02*
X44360000Y-149160000D01*
X45960000Y-135340000D02*
X45960000Y-136360000D01*
X45960000Y-136360000D02*
X44360000Y-136360000D01*
X45960000Y-150440000D02*
X44360000Y-150440000D01*
X45960000Y-151460000D02*
X45960000Y-150440000D01*
%TO.C,R10*%
X67537742Y-131727500D02*
X68012258Y-131727500D01*
X67537742Y-132772500D02*
X68012258Y-132772500D01*
%TO.C,R32*%
X83477500Y-147587742D02*
X83477500Y-148062258D01*
X84522500Y-147587742D02*
X84522500Y-148062258D01*
%TO.C,R8*%
X63537742Y-138977500D02*
X64012258Y-138977500D01*
X63537742Y-140022500D02*
X64012258Y-140022500D01*
%TO.C,C27*%
X63609420Y-147990000D02*
X63890580Y-147990000D01*
X63609420Y-149010000D02*
X63890580Y-149010000D01*
%TO.C,C30*%
X53859420Y-136415000D02*
X54140580Y-136415000D01*
X53859420Y-137435000D02*
X54140580Y-137435000D01*
%TO.C,R6*%
X44312258Y-126727500D02*
X43837742Y-126727500D01*
X44312258Y-127772500D02*
X43837742Y-127772500D01*
%TO.C,R29*%
X75312258Y-146727500D02*
X74837742Y-146727500D01*
X75312258Y-147772500D02*
X74837742Y-147772500D01*
%TD*%
M02*
