%TF.GenerationSoftware,KiCad,Pcbnew,9.0.1*%
%TF.CreationDate,2025-09-24T13:31:49+02:00*%
%TF.ProjectId,Main_Board,4d61696e-5f42-46f6-9172-642e6b696361,rev?*%
%TF.SameCoordinates,Original*%
%TF.FileFunction,Paste,Top*%
%TF.FilePolarity,Positive*%
%FSLAX46Y46*%
G04 Gerber Fmt 4.6, Leading zero omitted, Abs format (unit mm)*
G04 Created by KiCad (PCBNEW 9.0.1) date 2025-09-24 13:31:49*
%MOMM*%
%LPD*%
G01*
G04 APERTURE LIST*
G04 Aperture macros list*
%AMRoundRect*
0 Rectangle with rounded corners*
0 $1 Rounding radius*
0 $2 $3 $4 $5 $6 $7 $8 $9 X,Y pos of 4 corners*
0 Add a 4 corners polygon primitive as box body*
4,1,4,$2,$3,$4,$5,$6,$7,$8,$9,$2,$3,0*
0 Add four circle primitives for the rounded corners*
1,1,$1+$1,$2,$3*
1,1,$1+$1,$4,$5*
1,1,$1+$1,$6,$7*
1,1,$1+$1,$8,$9*
0 Add four rect primitives between the rounded corners*
20,1,$1+$1,$2,$3,$4,$5,0*
20,1,$1+$1,$4,$5,$6,$7,0*
20,1,$1+$1,$6,$7,$8,$9,0*
20,1,$1+$1,$8,$9,$2,$3,0*%
%AMFreePoly0*
4,1,24,6.400000,4.050000,-2.500000,4.050000,-2.500000,3.250000,6.400000,3.250000,6.400000,1.650000,-2.500000,1.650000,-2.500000,0.850000,-0.200000,0.850000,0.200000,0.850000,0.200000,-0.850000,-0.200000,-0.850000,-0.200000,0.450000,-2.900000,0.450000,-2.900000,2.050000,6.000000,2.050000,6.000000,2.850000,-2.900000,2.850000,-2.900000,4.450000,6.000000,4.450000,6.000000,5.250000,
0.000000,5.250000,0.000000,5.650000,6.400000,5.650000,6.400000,4.050000,6.400000,4.050000,$1*%
G04 Aperture macros list end*
%ADD10RoundRect,0.140000X-0.140000X-0.170000X0.140000X-0.170000X0.140000X0.170000X-0.140000X0.170000X0*%
%ADD11RoundRect,0.140000X-0.170000X0.140000X-0.170000X-0.140000X0.170000X-0.140000X0.170000X0.140000X0*%
%ADD12RoundRect,0.225000X0.250000X-0.225000X0.250000X0.225000X-0.250000X0.225000X-0.250000X-0.225000X0*%
%ADD13FreePoly0,270.000000*%
%ADD14RoundRect,0.250000X-1.500000X0.250000X-1.500000X-0.250000X1.500000X-0.250000X1.500000X0.250000X0*%
%ADD15RoundRect,0.250001X-1.449999X0.499999X-1.449999X-0.499999X1.449999X-0.499999X1.449999X0.499999X0*%
%ADD16R,0.900000X1.700000*%
%ADD17RoundRect,0.200000X0.275000X-0.200000X0.275000X0.200000X-0.275000X0.200000X-0.275000X-0.200000X0*%
%ADD18RoundRect,0.140000X0.170000X-0.140000X0.170000X0.140000X-0.170000X0.140000X-0.170000X-0.140000X0*%
%ADD19RoundRect,0.212500X0.212500X0.212500X-0.212500X0.212500X-0.212500X-0.212500X0.212500X-0.212500X0*%
%ADD20RoundRect,0.062500X0.375000X0.062500X-0.375000X0.062500X-0.375000X-0.062500X0.375000X-0.062500X0*%
%ADD21RoundRect,0.062500X0.062500X0.375000X-0.062500X0.375000X-0.062500X-0.375000X0.062500X-0.375000X0*%
%ADD22RoundRect,0.200000X-0.275000X0.200000X-0.275000X-0.200000X0.275000X-0.200000X0.275000X0.200000X0*%
%ADD23RoundRect,0.225000X-0.250000X0.225000X-0.250000X-0.225000X0.250000X-0.225000X0.250000X0.225000X0*%
%ADD24RoundRect,0.218750X0.256250X-0.218750X0.256250X0.218750X-0.256250X0.218750X-0.256250X-0.218750X0*%
%ADD25RoundRect,0.147500X-0.172500X0.147500X-0.172500X-0.147500X0.172500X-0.147500X0.172500X0.147500X0*%
%ADD26RoundRect,0.225000X-0.225000X-0.250000X0.225000X-0.250000X0.225000X0.250000X-0.225000X0.250000X0*%
%ADD27R,2.400000X0.740000*%
%ADD28R,0.802000X1.505000*%
%ADD29R,2.101200X1.567800*%
%ADD30R,0.900000X0.600000*%
%ADD31R,0.275000X0.700000*%
%ADD32R,0.450000X0.245000*%
%ADD33RoundRect,0.200000X-0.200000X-0.275000X0.200000X-0.275000X0.200000X0.275000X-0.200000X0.275000X0*%
%ADD34RoundRect,0.250000X0.315000X-0.315000X0.315000X0.315000X-0.315000X0.315000X-0.315000X-0.315000X0*%
%ADD35RoundRect,0.062500X0.062500X-0.375000X0.062500X0.375000X-0.062500X0.375000X-0.062500X-0.375000X0*%
%ADD36RoundRect,0.062500X0.375000X-0.062500X0.375000X0.062500X-0.375000X0.062500X-0.375000X-0.062500X0*%
%ADD37RoundRect,0.225000X0.225000X0.250000X-0.225000X0.250000X-0.225000X-0.250000X0.225000X-0.250000X0*%
%ADD38R,0.700000X0.750000*%
%ADD39RoundRect,0.200000X0.200000X0.275000X-0.200000X0.275000X-0.200000X-0.275000X0.200000X-0.275000X0*%
%ADD40RoundRect,0.147500X0.147500X0.172500X-0.147500X0.172500X-0.147500X-0.172500X0.147500X-0.172500X0*%
%ADD41RoundRect,0.218750X-0.256250X0.218750X-0.256250X-0.218750X0.256250X-0.218750X0.256250X0.218750X0*%
%ADD42RoundRect,0.150000X-0.325000X-0.150000X0.325000X-0.150000X0.325000X0.150000X-0.325000X0.150000X0*%
%ADD43RoundRect,0.150000X-0.150000X-0.325000X0.150000X-0.325000X0.150000X0.325000X-0.150000X0.325000X0*%
%ADD44R,0.600000X1.100000*%
%ADD45RoundRect,0.218750X0.218750X0.381250X-0.218750X0.381250X-0.218750X-0.381250X0.218750X-0.381250X0*%
G04 APERTURE END LIST*
D10*
%TO.C,C42*%
X78520000Y-149500000D03*
X79480000Y-149500000D03*
%TD*%
D11*
%TO.C,C14*%
X76580000Y-147040000D03*
X76580000Y-148000000D03*
%TD*%
D10*
%TO.C,C2*%
X78520000Y-147250000D03*
X79480000Y-147250000D03*
%TD*%
D12*
%TO.C,C43*%
X86500000Y-144750000D03*
X86500000Y-143200000D03*
%TD*%
D13*
%TO.C,AE1*%
X91350000Y-140000000D03*
%TD*%
D14*
%TO.C,J14*%
X45500000Y-138350000D03*
X45500000Y-140350000D03*
X45500000Y-142350000D03*
X45500000Y-144350000D03*
X45500000Y-146350000D03*
X45500000Y-148350000D03*
D15*
X39750000Y-136000000D03*
X39750000Y-150700000D03*
%TD*%
D16*
%TO.C,SW2*%
X88700000Y-131500000D03*
X85300000Y-131500000D03*
%TD*%
D17*
%TO.C,R19*%
X77500000Y-153250000D03*
X77500000Y-151600000D03*
%TD*%
D18*
%TO.C,C40*%
X86725000Y-140960000D03*
X86725000Y-140000000D03*
%TD*%
D19*
%TO.C,U4*%
X54025000Y-150587500D03*
X54025000Y-149537500D03*
X52975000Y-150587500D03*
X52975000Y-149537500D03*
D20*
X55437500Y-151312500D03*
X55437500Y-150812500D03*
X55437500Y-150312500D03*
X55437500Y-149812500D03*
X55437500Y-149312500D03*
X55437500Y-148812500D03*
D21*
X54750000Y-148125000D03*
X54250000Y-148125000D03*
X53750000Y-148125000D03*
X53250000Y-148125000D03*
X52750000Y-148125000D03*
X52250000Y-148125000D03*
D20*
X51562500Y-148812500D03*
X51562500Y-149312500D03*
X51562500Y-149812500D03*
X51562500Y-150312500D03*
X51562500Y-150812500D03*
X51562500Y-151312500D03*
D21*
X52250000Y-152000000D03*
X52750000Y-152000000D03*
X53250000Y-152000000D03*
X53750000Y-152000000D03*
X54250000Y-152000000D03*
X54750000Y-152000000D03*
%TD*%
D12*
%TO.C,C15*%
X65000000Y-149025000D03*
X65000000Y-147475000D03*
%TD*%
D18*
%TO.C,C41*%
X83725000Y-140960000D03*
X83725000Y-140000000D03*
%TD*%
D22*
%TO.C,R22*%
X62750000Y-132425000D03*
X62750000Y-134075000D03*
%TD*%
D23*
%TO.C,C16*%
X58750000Y-148450000D03*
X58750000Y-150000000D03*
%TD*%
D17*
%TO.C,R23*%
X66250000Y-134075000D03*
X66250000Y-132425000D03*
%TD*%
%TO.C,R18*%
X72250000Y-153287500D03*
X72250000Y-151637500D03*
%TD*%
D24*
%TO.C,D2*%
X75750000Y-153250000D03*
X75750000Y-151675000D03*
%TD*%
D25*
%TO.C,L3*%
X76000000Y-135130000D03*
X76000000Y-136100000D03*
%TD*%
D17*
%TO.C,R26*%
X68500000Y-162150000D03*
X68500000Y-160500000D03*
%TD*%
D26*
%TO.C,C8*%
X72700000Y-133000000D03*
X74250000Y-133000000D03*
%TD*%
D27*
%TO.C,J1*%
X63100000Y-137940000D03*
X67000000Y-137940000D03*
X63100000Y-139210000D03*
X67000000Y-139210000D03*
X63100000Y-140480000D03*
X67000000Y-140480000D03*
X63100000Y-141750000D03*
X67000000Y-141750000D03*
X63100000Y-143020000D03*
X67000000Y-143020000D03*
X63100000Y-144290000D03*
X67000000Y-144290000D03*
X63100000Y-145560000D03*
X67000000Y-145560000D03*
%TD*%
D28*
%TO.C,IC4*%
X52750000Y-144245000D03*
X54020000Y-144245000D03*
X55290000Y-144245000D03*
X56560000Y-144245000D03*
X56560000Y-139250000D03*
X55290000Y-139250000D03*
X54020000Y-139250000D03*
X52750000Y-139250000D03*
D29*
X54655000Y-141747500D03*
%TD*%
D30*
%TO.C,U5*%
X63050000Y-150000000D03*
X63050000Y-149050000D03*
X63050000Y-148100000D03*
X60250000Y-148100000D03*
X60250000Y-150000000D03*
%TD*%
D31*
%TO.C,FL1*%
X88000000Y-140000000D03*
D32*
X88612000Y-140227000D03*
D31*
X89225000Y-140000000D03*
D32*
X88612000Y-139773000D03*
%TD*%
D33*
%TO.C,R31*%
X67692500Y-153542500D03*
X69342500Y-153542500D03*
%TD*%
D34*
%TO.C,U1*%
X75075000Y-143350000D03*
X76475000Y-143350000D03*
X77875000Y-143350000D03*
X79275000Y-143350000D03*
X75075000Y-141950000D03*
X76475000Y-141950000D03*
X77875000Y-141950000D03*
X79275000Y-141950000D03*
X75075000Y-140550000D03*
X76475000Y-140550000D03*
X77875000Y-140550000D03*
X79275000Y-140550000D03*
X75075000Y-139150000D03*
X76475000Y-139150000D03*
X77875000Y-139150000D03*
X79275000Y-139150000D03*
D35*
X74425000Y-144687500D03*
X74925000Y-144687500D03*
X75425000Y-144687500D03*
X75925000Y-144687500D03*
X76425000Y-144687500D03*
X76925000Y-144687500D03*
X77425000Y-144687500D03*
X77925000Y-144687500D03*
X78425000Y-144687500D03*
X78925000Y-144687500D03*
X79425000Y-144687500D03*
X79925000Y-144687500D03*
D36*
X80612500Y-144000000D03*
X80612500Y-143500000D03*
X80612500Y-143000000D03*
X80612500Y-142500000D03*
X80612500Y-142000000D03*
X80612500Y-141500000D03*
X80612500Y-141000000D03*
X80612500Y-140500000D03*
X80612500Y-140000000D03*
X80612500Y-139500000D03*
X80612500Y-139000000D03*
X80612500Y-138500000D03*
D35*
X79925000Y-137812500D03*
X79425000Y-137812500D03*
X78925000Y-137812500D03*
X78425000Y-137812500D03*
X77925000Y-137812500D03*
X77425000Y-137812500D03*
X76925000Y-137812500D03*
X76425000Y-137812500D03*
X75925000Y-137812500D03*
X75425000Y-137812500D03*
X74925000Y-137812500D03*
X74425000Y-137812500D03*
D36*
X73737500Y-138500000D03*
X73737500Y-139000000D03*
X73737500Y-139500000D03*
X73737500Y-140000000D03*
X73737500Y-140500000D03*
X73737500Y-141000000D03*
X73737500Y-141500000D03*
X73737500Y-142000000D03*
X73737500Y-142500000D03*
X73737500Y-143000000D03*
X73737500Y-143500000D03*
X73737500Y-144000000D03*
%TD*%
D37*
%TO.C,C38*%
X74225000Y-136000000D03*
X72675000Y-136000000D03*
%TD*%
D23*
%TO.C,C33*%
X60000000Y-144475000D03*
X60000000Y-146025000D03*
%TD*%
D12*
%TO.C,C32*%
X58250000Y-146025000D03*
X58250000Y-144475000D03*
%TD*%
D22*
%TO.C,R25*%
X79250000Y-151600000D03*
X79250000Y-153250000D03*
%TD*%
D23*
%TO.C,C6*%
X72000000Y-143975000D03*
X72000000Y-145525000D03*
%TD*%
D38*
%TO.C,Y2*%
X82750000Y-136350000D03*
X82750000Y-135000000D03*
X81750000Y-135000000D03*
X81750000Y-136350000D03*
%TD*%
D37*
%TO.C,C39*%
X78775000Y-135500000D03*
X77225000Y-135500000D03*
%TD*%
D39*
%TO.C,R30*%
X59500000Y-151750000D03*
X57850000Y-151750000D03*
%TD*%
D23*
%TO.C,C34*%
X49750000Y-141750000D03*
X49750000Y-143300000D03*
%TD*%
D40*
%TO.C,L5*%
X85695000Y-140000000D03*
X84725000Y-140000000D03*
%TD*%
D12*
%TO.C,C7*%
X85000000Y-144750000D03*
X85000000Y-143200000D03*
%TD*%
D24*
%TO.C,D1*%
X74000000Y-153250000D03*
X74000000Y-151675000D03*
%TD*%
D37*
%TO.C,C11*%
X72025000Y-140000000D03*
X70475000Y-140000000D03*
%TD*%
%TO.C,C12*%
X74225000Y-134500000D03*
X72675000Y-134500000D03*
%TD*%
D22*
%TO.C,R27*%
X70250000Y-160500000D03*
X70250000Y-162150000D03*
%TD*%
D41*
%TO.C,D4*%
X64500000Y-132462500D03*
X64500000Y-134037500D03*
%TD*%
D42*
%TO.C,U3*%
X68517500Y-147792500D03*
X68517500Y-148592500D03*
X68517500Y-149392500D03*
X68517500Y-150192500D03*
X68517500Y-150992500D03*
X68517500Y-151792500D03*
D43*
X69517500Y-151792500D03*
D42*
X70517500Y-151792500D03*
X70517500Y-150992500D03*
X70517500Y-150192500D03*
X70517500Y-149392500D03*
X70517500Y-148592500D03*
X70517500Y-147792500D03*
D43*
X69517500Y-147792500D03*
%TD*%
D37*
%TO.C,C37*%
X66275000Y-150750000D03*
X64725000Y-150750000D03*
%TD*%
D44*
%TO.C,X1*%
X75250000Y-147500000D03*
X73850000Y-147500000D03*
%TD*%
D23*
%TO.C,C5*%
X70250000Y-143975000D03*
X70250000Y-145525000D03*
%TD*%
D33*
%TO.C,R24*%
X82250000Y-131500000D03*
X83900000Y-131500000D03*
%TD*%
D45*
%TO.C,L4*%
X78062500Y-133750000D03*
X75937500Y-133750000D03*
%TD*%
D23*
%TO.C,C36*%
X66750000Y-147500000D03*
X66750000Y-149050000D03*
%TD*%
D24*
%TO.C,D3*%
X61000000Y-134037500D03*
X61000000Y-132462500D03*
%TD*%
D10*
%TO.C,C1*%
X78500000Y-148250000D03*
X79460000Y-148250000D03*
%TD*%
D18*
%TO.C,C13*%
X72750000Y-147960000D03*
X72750000Y-147000000D03*
%TD*%
M02*
