M48
; DRILL file {KiCad 9.0.1} date 2025-09-24T11:37:55+0200
; FORMAT={-:-/ absolute / metric / decimal}
; #@! TF.CreationDate,2025-09-24T11:37:55+02:00
; #@! TF.GenerationSoftware,Kicad,Pcbnew,9.0.1
; #@! TF.FileFunction,Plated,1,4,PTH
FMAT,2
METRIC
; #@! TA.AperFunction,Plated,PTH,ViaDrill
T1C0.300
; #@! TA.AperFunction,Plated,PTH,ComponentDrill
T2C0.500
; #@! TA.AperFunction,Plated,PTH,ComponentDrill
T3C0.750
; #@! TA.AperFunction,Plated,PTH,ComponentDrill
T4C1.000
; #@! TA.AperFunction,Plated,PTH,ComponentDrill
T5C1.850
; #@! TA.AperFunction,Plated,PTH,ComponentDrill
T6C3.200
%
G90
G05
T1
X39.0Y-132.0
X39.0Y-138.0
X39.0Y-141.0
X39.0Y-144.0
X39.0Y-147.0
X39.0Y-153.0
X39.0Y-156.0
X42.93Y-162.31
X43.27Y-126.25
X43.32Y-133.66
X43.68Y-158.43
X44.7Y-159.07
X45.5Y-141.35
X46.22Y-156.65
X47.89Y-140.32
X48.0Y-146.35
X49.45Y-126.2
X49.6Y-156.67
X49.64Y-131.8
X49.83Y-162.98
X52.345Y-159.357
X52.38Y-158.55
X52.5Y-141.3
X53.494Y-147.2
X53.73Y-162.41
X53.74Y-140.97
X53.959Y-153.051
X54.0Y-123.0
X54.0Y-126.0
X54.0Y-129.0
X54.293Y-147.25
X54.76Y-152.8
X55.079Y-147.396
X55.243Y-130.47
X55.25Y-140.96
X55.3Y-145.6
X55.313Y-137.833
X55.5Y-146.6
X55.6Y-135.4
X55.6Y-136.9
X55.65Y-132.82
X55.88Y-151.93
X56.221Y-147.732
X56.353Y-151.093
X56.37Y-148.518
X56.537Y-149.748
X56.6Y-138.002
X56.674Y-129.965
X56.78Y-142.54
X56.8Y-141.1
X56.865Y-150.478
X57.0Y-123.0
X57.0Y-126.0
X57.048Y-163.17
X57.09Y-136.14
X57.502Y-146.467
X57.6Y-140.66
X57.607Y-148.438
X57.7Y-144.5
X57.83Y-152.67
X59.889Y-144.495
X59.923Y-147.3
X59.96Y-130.79
X60.0Y-123.0
X60.009Y-140.625
X60.312Y-150.902
X60.387Y-151.919
X60.466Y-137.532
X61.009Y-143.125
X61.035Y-147.429
X61.197Y-137.857
X61.55Y-139.2
X61.64Y-150.69
X61.722Y-147.955
X61.91Y-151.61
X62.3Y-153.2
X63.0Y-123.0
X63.05Y-151.65
X63.133Y-144.164
X63.155Y-149.073
X63.82Y-157.41
X64.46Y-130.46
X64.86Y-159.75
X64.91Y-142.4
X65.0Y-147.475
X66.0Y-123.0
X66.598Y-153.531
X67.35Y-150.74
X67.57Y-148.85
X67.592Y-147.677
X67.7Y-133.0
X68.31Y-155.135
X68.533Y-159.198
X69.0Y-123.0
X69.4Y-150.46
X70.04Y-130.54
X70.3Y-146.99
X70.55Y-141.77
X70.55Y-157.9
X70.942Y-144.776
X71.0Y-139.0
X71.3Y-157.15
X71.331Y-143.931
X71.545Y-132.99
X71.545Y-134.09
X71.555Y-134.79
X71.575Y-136.03
X71.679Y-131.928
X71.8Y-139.0
X72.0Y-123.0
X72.0Y-162.0
X72.066Y-146.475
X72.25Y-150.15
X72.334Y-136.966
X72.46Y-158.13
X72.5Y-141.795
X72.8Y-145.525
X72.937Y-143.506
X73.228Y-154.559
X73.3Y-145.0
X73.625Y-134.5
X73.625Y-135.986
X73.65Y-133.051
X74.0Y-154.05
X75.0Y-123.0
X75.0Y-132.0
X75.0Y-139.25
X75.0Y-162.0
X75.51Y-154.15
X76.1Y-145.65
X76.439Y-148.892
X76.53Y-132.0
X76.7Y-146.2
X77.764Y-136.633
X78.0Y-123.0
X78.0Y-129.0
X78.0Y-162.0
X78.25Y-142.25
X78.26Y-152.32
X78.49Y-154.54
X78.504Y-148.69
X78.515Y-145.694
X78.595Y-136.475
X79.0Y-139.25
X79.065Y-146.275
X79.331Y-136.789
X80.1Y-135.0
X80.2Y-136.6
X80.52Y-152.0
X80.74Y-144.85
X81.0Y-123.0
X81.0Y-126.0
X81.0Y-129.0
X81.0Y-162.0
X81.18Y-148.72
X81.33Y-151.22
X81.4Y-131.5
X81.644Y-141.486
X81.827Y-142.267
X82.043Y-143.057
X82.3Y-143.9
X83.0Y-137.25
X83.025Y-138.766
X83.9Y-132.8
X84.0Y-129.0
X84.0Y-147.25
X84.25Y-141.72
X84.84Y-141.04
X84.975Y-137.24
X85.0Y-138.75
X85.547Y-156.82
X85.63Y-141.03
X86.32Y-137.69
X86.36Y-138.93
X86.71Y-141.58
X86.716Y-150.419
X87.0Y-156.0
X87.11Y-137.68
X87.13Y-138.92
X87.427Y-145.161
X87.579Y-143.205
X87.81Y-142.01
X87.82Y-141.07
X87.87Y-137.68
X87.89Y-138.92
X88.6Y-142.01
X88.61Y-141.07
X88.66Y-138.91
X88.68Y-137.71
X89.1Y-156.47
X89.39Y-142.0
X89.4Y-141.06
X89.45Y-138.9
X89.47Y-137.7
X89.51Y-153.77
X89.662Y-135.026
X89.69Y-150.91
X90.0Y-144.0
X90.0Y-147.0
X90.15Y-142.0
X90.16Y-141.06
X90.21Y-138.9
X90.23Y-137.7
T2
X36.0Y-160.65
X36.047Y-125.9
X36.703Y-158.953
X36.703Y-162.347
X36.75Y-124.203
X36.75Y-127.597
X38.4Y-158.25
X38.4Y-163.05
X38.447Y-123.5
X38.447Y-128.3
X40.097Y-158.953
X40.097Y-162.347
X40.144Y-124.203
X40.144Y-127.597
X40.8Y-160.65
X40.847Y-125.9
X84.5Y-160.6
X84.6Y-125.9
X85.203Y-158.903
X85.203Y-162.297
X85.303Y-124.203
X85.303Y-127.597
X86.9Y-158.2
X86.9Y-163.0
X87.0Y-123.5
X87.0Y-128.3
X88.597Y-158.903
X88.597Y-162.297
X88.697Y-124.203
X88.697Y-127.597
X89.3Y-160.6
X89.4Y-125.9
T3
X44.75Y-125.0
X44.75Y-130.75
X44.75Y-155.25
X44.75Y-160.75
X46.75Y-125.0
X46.75Y-130.75
X46.75Y-155.25
X46.75Y-160.75
X48.75Y-125.0
X48.75Y-130.75
X48.75Y-155.25
X48.75Y-160.75
X50.75Y-125.0
X50.75Y-130.75
X50.75Y-155.25
X50.75Y-160.75
X56.75Y-155.2
X56.75Y-160.75
X58.75Y-155.2
X58.75Y-160.75
X60.75Y-155.2
X60.75Y-160.75
X62.75Y-155.2
X62.75Y-160.75
X73.75Y-157.0
X75.75Y-157.0
X77.75Y-157.0
X79.75Y-157.0
T4
X75.5Y-125.475
X78.0Y-125.475
T5
X60.0Y-126.25
X64.7Y-126.25
X69.4Y-126.25
T6
X38.4Y-160.65
X38.447Y-125.9
X86.9Y-160.6
X87.0Y-125.9
M30
