ISO-10303-21;
HEADER;
/* Generated by software containing ST-Developer
 * from STEP Tools, Inc. (www.steptools.com) 
 */

FILE_DESCRIPTION(
/* description */ ('KiCad electronic assembly'),
/* implementation_level */ '2;1');

FILE_NAME(
/* name */ 'support_PCB.step',
/* time_stamp */ '2026-01-02T12:09:40+01:00',
/* author */ (''),
/* organization */ (''),
/* preprocessor_version */ 'ST-DEVELOPER v20.1',
/* originating_system */ 'Autodesk Translation Framework v14.21.0.0',
/* authorisation */ '');

FILE_SCHEMA (('AUTOMOTIVE_DESIGN { 1 0 10303 214 3 1 1 }'));
ENDSEC;

DATA;
#10=MECHANICAL_DESIGN_GEOMETRIC_PRESENTATION_REPRESENTATION('',(#17),#1501);
#11=SHAPE_REPRESENTATION_RELATIONSHIP('SRR','None',#1511,#12);
#12=ADVANCED_BREP_SHAPE_REPRESENTATION('',(#18),#1499);
#13=ITEM_DEFINED_TRANSFORMATION($,$,#897,#979);
#14=(
REPRESENTATION_RELATIONSHIP($,$,#1512,#1511)
REPRESENTATION_RELATIONSHIP_WITH_TRANSFORMATION(#13)
SHAPE_REPRESENTATION_RELATIONSHIP()
);
#15=CONTEXT_DEPENDENT_SHAPE_REPRESENTATION(#14,#1510);
#16=NEXT_ASSEMBLY_USAGE_OCCURRENCE('C_0603_1608Metric:1',
'C_0603_1608Metric:1','C_0603_1608Metric:1',#1514,#1515,
'C_0603_1608Metric:1');
#17=STYLED_ITEM('',(#1525),#18);
#18=MANIFOLD_SOLID_BREP('Body1',#883);
#19=FACE_BOUND('',#113,.T.);
#20=FACE_BOUND('',#131,.T.);
#21=FACE_BOUND('',#137,.T.);
#22=PLANE('',#904);
#23=PLANE('',#908);
#24=PLANE('',#912);
#25=PLANE('',#919);
#26=PLANE('',#920);
#27=PLANE('',#921);
#28=PLANE('',#922);
#29=PLANE('',#923);
#30=PLANE('',#927);
#31=PLANE('',#928);
#32=PLANE('',#929);
#33=PLANE('',#930);
#34=PLANE('',#944);
#35=PLANE('',#947);
#36=PLANE('',#954);
#37=PLANE('',#955);
#38=PLANE('',#956);
#39=PLANE('',#957);
#40=PLANE('',#958);
#41=PLANE('',#963);
#42=PLANE('',#966);
#43=PLANE('',#972);
#44=PLANE('',#974);
#45=PLANE('',#975);
#46=PLANE('',#976);
#47=PLANE('',#977);
#48=PLANE('',#978);
#49=FACE_OUTER_BOUND('',#94,.T.);
#50=FACE_OUTER_BOUND('',#95,.T.);
#51=FACE_OUTER_BOUND('',#96,.T.);
#52=FACE_OUTER_BOUND('',#97,.T.);
#53=FACE_OUTER_BOUND('',#98,.T.);
#54=FACE_OUTER_BOUND('',#99,.T.);
#55=FACE_OUTER_BOUND('',#100,.T.);
#56=FACE_OUTER_BOUND('',#101,.T.);
#57=FACE_OUTER_BOUND('',#102,.T.);
#58=FACE_OUTER_BOUND('',#103,.T.);
#59=FACE_OUTER_BOUND('',#104,.T.);
#60=FACE_OUTER_BOUND('',#105,.T.);
#61=FACE_OUTER_BOUND('',#106,.T.);
#62=FACE_OUTER_BOUND('',#107,.T.);
#63=FACE_OUTER_BOUND('',#108,.T.);
#64=FACE_OUTER_BOUND('',#109,.T.);
#65=FACE_OUTER_BOUND('',#110,.T.);
#66=FACE_OUTER_BOUND('',#111,.T.);
#67=FACE_OUTER_BOUND('',#112,.T.);
#68=FACE_OUTER_BOUND('',#114,.T.);
#69=FACE_OUTER_BOUND('',#115,.T.);
#70=FACE_OUTER_BOUND('',#116,.T.);
#71=FACE_OUTER_BOUND('',#117,.T.);
#72=FACE_OUTER_BOUND('',#118,.T.);
#73=FACE_OUTER_BOUND('',#119,.T.);
#74=FACE_OUTER_BOUND('',#120,.T.);
#75=FACE_OUTER_BOUND('',#121,.T.);
#76=FACE_OUTER_BOUND('',#122,.T.);
#77=FACE_OUTER_BOUND('',#123,.T.);
#78=FACE_OUTER_BOUND('',#124,.T.);
#79=FACE_OUTER_BOUND('',#125,.T.);
#80=FACE_OUTER_BOUND('',#126,.T.);
#81=FACE_OUTER_BOUND('',#127,.T.);
#82=FACE_OUTER_BOUND('',#128,.T.);
#83=FACE_OUTER_BOUND('',#129,.T.);
#84=FACE_OUTER_BOUND('',#130,.T.);
#85=FACE_OUTER_BOUND('',#132,.T.);
#86=FACE_OUTER_BOUND('',#133,.T.);
#87=FACE_OUTER_BOUND('',#134,.T.);
#88=FACE_OUTER_BOUND('',#135,.T.);
#89=FACE_OUTER_BOUND('',#136,.T.);
#90=FACE_OUTER_BOUND('',#138,.T.);
#91=FACE_OUTER_BOUND('',#139,.T.);
#92=FACE_OUTER_BOUND('',#140,.T.);
#93=FACE_OUTER_BOUND('',#141,.T.);
#94=EDGE_LOOP('',(#568,#569,#570,#571));
#95=EDGE_LOOP('',(#572,#573,#574,#575));
#96=EDGE_LOOP('',(#576,#577,#578,#579));
#97=EDGE_LOOP('',(#580,#581,#582,#583));
#98=EDGE_LOOP('',(#584,#585,#586,#587));
#99=EDGE_LOOP('',(#588,#589,#590,#591));
#100=EDGE_LOOP('',(#592,#593,#594,#595));
#101=EDGE_LOOP('',(#596,#597,#598,#599));
#102=EDGE_LOOP('',(#600,#601,#602,#603));
#103=EDGE_LOOP('',(#604,#605,#606,#607));
#104=EDGE_LOOP('',(#608,#609,#610,#611));
#105=EDGE_LOOP('',(#612,#613,#614,#615));
#106=EDGE_LOOP('',(#616,#617,#618,#619));
#107=EDGE_LOOP('',(#620,#621,#622,#623));
#108=EDGE_LOOP('',(#624,#625,#626,#627));
#109=EDGE_LOOP('',(#628,#629,#630,#631));
#110=EDGE_LOOP('',(#632,#633,#634,#635));
#111=EDGE_LOOP('',(#636,#637,#638,#639));
#112=EDGE_LOOP('',(#640,#641,#642,#643,#644,#645,#646,#647,#648,#649,#650,
#651,#652,#653,#654));
#113=EDGE_LOOP('',(#655,#656,#657,#658,#659,#660,#661,#662,#663,#664,#665,
#666));
#114=EDGE_LOOP('',(#667,#668,#669,#670));
#115=EDGE_LOOP('',(#671,#672,#673,#674));
#116=EDGE_LOOP('',(#675,#676,#677,#678));
#117=EDGE_LOOP('',(#679,#680,#681,#682));
#118=EDGE_LOOP('',(#683,#684,#685,#686));
#119=EDGE_LOOP('',(#687,#688,#689,#690));
#120=EDGE_LOOP('',(#691,#692,#693,#694));
#121=EDGE_LOOP('',(#695,#696,#697,#698));
#122=EDGE_LOOP('',(#699,#700,#701,#702));
#123=EDGE_LOOP('',(#703,#704,#705,#706));
#124=EDGE_LOOP('',(#707,#708,#709,#710));
#125=EDGE_LOOP('',(#711,#712,#713,#714));
#126=EDGE_LOOP('',(#715,#716,#717,#718));
#127=EDGE_LOOP('',(#719,#720,#721,#722));
#128=EDGE_LOOP('',(#723,#724,#725,#726));
#129=EDGE_LOOP('',(#727,#728,#729,#730));
#130=EDGE_LOOP('',(#731,#732,#733,#734,#735,#736,#737,#738,#739,#740,#741,
#742,#743,#744,#745));
#131=EDGE_LOOP('',(#746,#747,#748,#749,#750,#751,#752,#753,#754,#755,#756,
#757));
#132=EDGE_LOOP('',(#758,#759,#760,#761));
#133=EDGE_LOOP('',(#762,#763,#764,#765));
#134=EDGE_LOOP('',(#766,#767,#768,#769));
#135=EDGE_LOOP('',(#770,#771,#772,#773));
#136=EDGE_LOOP('',(#774,#775,#776,#777,#778,#779,#780,#781,#782,#783,#784,
#785,#786,#787,#788));
#137=EDGE_LOOP('',(#789,#790,#791,#792,#793,#794,#795,#796,#797,#798,#799,
#800,#801,#802,#803));
#138=EDGE_LOOP('',(#804,#805,#806,#807));
#139=EDGE_LOOP('',(#808,#809,#810,#811));
#140=EDGE_LOOP('',(#812,#813,#814,#815));
#141=EDGE_LOOP('',(#816,#817,#818,#819));
#142=LINE('',#1245,#232);
#143=LINE('',#1248,#233);
#144=LINE('',#1253,#234);
#145=LINE('',#1257,#235);
#146=LINE('',#1259,#236);
#147=LINE('',#1260,#237);
#148=LINE('',#1265,#238);
#149=LINE('',#1269,#239);
#150=LINE('',#1271,#240);
#151=LINE('',#1272,#241);
#152=LINE('',#1277,#242);
#153=LINE('',#1281,#243);
#154=LINE('',#1283,#244);
#155=LINE('',#1284,#245);
#156=LINE('',#1289,#246);
#157=LINE('',#1295,#247);
#158=LINE('',#1299,#248);
#159=LINE('',#1301,#249);
#160=LINE('',#1302,#250);
#161=LINE('',#1305,#251);
#162=LINE('',#1307,#252);
#163=LINE('',#1308,#253);
#164=LINE('',#1311,#254);
#165=LINE('',#1313,#255);
#166=LINE('',#1314,#256);
#167=LINE('',#1317,#257);
#168=LINE('',#1319,#258);
#169=LINE('',#1320,#259);
#170=LINE('',#1323,#260);
#171=LINE('',#1325,#261);
#172=LINE('',#1326,#262);
#173=LINE('',#1333,#263);
#174=LINE('',#1335,#264);
#175=LINE('',#1337,#265);
#176=LINE('',#1338,#266);
#177=LINE('',#1342,#267);
#178=LINE('',#1344,#268);
#179=LINE('',#1346,#269);
#180=LINE('',#1347,#270);
#181=LINE('',#1351,#271);
#182=LINE('',#1353,#272);
#183=LINE('',#1355,#273);
#184=LINE('',#1356,#274);
#185=LINE('',#1360,#275);
#186=LINE('',#1362,#276);
#187=LINE('',#1364,#277);
#188=LINE('',#1366,#278);
#189=LINE('',#1368,#279);
#190=LINE('',#1374,#280);
#191=LINE('',#1378,#281);
#192=LINE('',#1382,#282);
#193=LINE('',#1390,#283);
#194=LINE('',#1392,#284);
#195=LINE('',#1394,#285);
#196=LINE('',#1396,#286);
#197=LINE('',#1398,#287);
#198=LINE('',#1405,#288);
#199=LINE('',#1408,#289);
#200=LINE('',#1411,#290);
#201=LINE('',#1412,#291);
#202=LINE('',#1416,#292);
#203=LINE('',#1419,#293);
#204=LINE('',#1420,#294);
#205=LINE('',#1424,#295);
#206=LINE('',#1428,#296);
#207=LINE('',#1432,#297);
#208=LINE('',#1435,#298);
#209=LINE('',#1436,#299);
#210=LINE('',#1439,#300);
#211=LINE('',#1440,#301);
#212=LINE('',#1443,#302);
#213=LINE('',#1444,#303);
#214=LINE('',#1447,#304);
#215=LINE('',#1448,#305);
#216=LINE('',#1451,#306);
#217=LINE('',#1452,#307);
#218=LINE('',#1456,#308);
#219=LINE('',#1460,#309);
#220=LINE('',#1462,#310);
#221=LINE('',#1469,#311);
#222=LINE('',#1471,#312);
#223=LINE('',#1473,#313);
#224=LINE('',#1475,#314);
#225=LINE('',#1477,#315);
#226=LINE('',#1482,#316);
#227=LINE('',#1484,#317);
#228=LINE('',#1486,#318);
#229=LINE('',#1489,#319);
#230=LINE('',#1491,#320);
#231=LINE('',#1493,#321);
#232=VECTOR('',#988,10.);
#233=VECTOR('',#991,10.);
#234=VECTOR('',#996,10.);
#235=VECTOR('',#1001,10.);
#236=VECTOR('',#1002,10.);
#237=VECTOR('',#1003,10.);
#238=VECTOR('',#1008,10.);
#239=VECTOR('',#1013,10.);
#240=VECTOR('',#1014,10.);
#241=VECTOR('',#1015,10.);
#242=VECTOR('',#1020,10.);
#243=VECTOR('',#1025,10.);
#244=VECTOR('',#1026,10.);
#245=VECTOR('',#1027,10.);
#246=VECTOR('',#1032,10.);
#247=VECTOR('',#1039,10.);
#248=VECTOR('',#1044,10.);
#249=VECTOR('',#1045,10.);
#250=VECTOR('',#1046,10.);
#251=VECTOR('',#1049,10.);
#252=VECTOR('',#1050,10.);
#253=VECTOR('',#1051,10.);
#254=VECTOR('',#1054,10.);
#255=VECTOR('',#1055,10.);
#256=VECTOR('',#1056,10.);
#257=VECTOR('',#1059,10.);
#258=VECTOR('',#1060,10.);
#259=VECTOR('',#1061,10.);
#260=VECTOR('',#1064,10.);
#261=VECTOR('',#1065,10.);
#262=VECTOR('',#1066,10.);
#263=VECTOR('',#1075,10.);
#264=VECTOR('',#1076,10.);
#265=VECTOR('',#1077,10.);
#266=VECTOR('',#1078,10.);
#267=VECTOR('',#1081,10.);
#268=VECTOR('',#1082,10.);
#269=VECTOR('',#1083,10.);
#270=VECTOR('',#1084,10.);
#271=VECTOR('',#1087,10.);
#272=VECTOR('',#1088,10.);
#273=VECTOR('',#1089,10.);
#274=VECTOR('',#1090,10.);
#275=VECTOR('',#1093,10.);
#276=VECTOR('',#1094,10.);
#277=VECTOR('',#1095,10.);
#278=VECTOR('',#1096,10.);
#279=VECTOR('',#1097,10.);
#280=VECTOR('',#1102,10.);
#281=VECTOR('',#1105,10.);
#282=VECTOR('',#1108,10.);
#283=VECTOR('',#1115,10.);
#284=VECTOR('',#1116,10.);
#285=VECTOR('',#1117,10.);
#286=VECTOR('',#1118,10.);
#287=VECTOR('',#1119,10.);
#288=VECTOR('',#1130,10.);
#289=VECTOR('',#1133,10.);
#290=VECTOR('',#1136,10.);
#291=VECTOR('',#1137,10.);
#292=VECTOR('',#1142,10.);
#293=VECTOR('',#1145,10.);
#294=VECTOR('',#1146,10.);
#295=VECTOR('',#1151,10.);
#296=VECTOR('',#1156,10.);
#297=VECTOR('',#1161,10.);
#298=VECTOR('',#1164,10.);
#299=VECTOR('',#1165,10.);
#300=VECTOR('',#1168,10.);
#301=VECTOR('',#1169,10.);
#302=VECTOR('',#1172,10.);
#303=VECTOR('',#1173,10.);
#304=VECTOR('',#1176,10.);
#305=VECTOR('',#1177,10.);
#306=VECTOR('',#1180,10.);
#307=VECTOR('',#1181,10.);
#308=VECTOR('',#1186,10.);
#309=VECTOR('',#1191,10.);
#310=VECTOR('',#1194,10.);
#311=VECTOR('',#1203,10.);
#312=VECTOR('',#1204,10.);
#313=VECTOR('',#1205,10.);
#314=VECTOR('',#1206,10.);
#315=VECTOR('',#1207,10.);
#316=VECTOR('',#1216,10.);
#317=VECTOR('',#1219,10.);
#318=VECTOR('',#1222,10.);
#319=VECTOR('',#1227,10.);
#320=VECTOR('',#1230,10.);
#321=VECTOR('',#1233,10.);
#322=CIRCLE('',#899,3.78647373259233);
#323=CIRCLE('',#900,3.78647373259233);
#324=CIRCLE('',#902,3.79118475054474);
#325=CIRCLE('',#903,3.79118475054474);
#326=CIRCLE('',#906,3.79120868890497);
#327=CIRCLE('',#907,3.79120868890497);
#328=CIRCLE('',#910,3.79121174858401);
#329=CIRCLE('',#911,3.79121174858401);
#330=CIRCLE('',#914,3.88810463270844);
#331=CIRCLE('',#915,3.88810463270844);
#332=CIRCLE('',#917,3.55144308500002);
#333=CIRCLE('',#918,3.55144308500002);
#334=CIRCLE('',#925,3.79118475054495);
#335=CIRCLE('',#926,3.79118475054495);
#336=CIRCLE('',#931,5.57190785108331);
#337=CIRCLE('',#932,5.90856939879172);
#338=CIRCLE('',#933,5.81167651466729);
#339=CIRCLE('',#934,5.81167345498825);
#340=CIRCLE('',#935,5.81164951662803);
#341=CIRCLE('',#936,5.80693849867672);
#342=CIRCLE('',#937,5.81164951662824);
#343=CIRCLE('',#938,4.03014631977728);
#344=CIRCLE('',#939,3.54120868890499);
#345=CIRCLE('',#940,3.54121174858399);
#346=CIRCLE('',#941,4.06934672679787);
#347=CIRCLE('',#943,5.81167651466729);
#348=CIRCLE('',#946,5.81167345498825);
#349=CIRCLE('',#949,5.81164951662803);
#350=CIRCLE('',#951,5.80693849867672);
#351=CIRCLE('',#953,5.81164951662824);
#352=CIRCLE('',#960,5.57190785108331);
#353=CIRCLE('',#962,5.90856939879172);
#354=CIRCLE('',#965,3.54120868890499);
#355=CIRCLE('',#967,4.03014631977728);
#356=CIRCLE('',#968,4.06934672679787);
#357=CIRCLE('',#969,3.54121174858399);
#358=VERTEX_POINT('',#1241);
#359=VERTEX_POINT('',#1242);
#360=VERTEX_POINT('',#1244);
#361=VERTEX_POINT('',#1246);
#362=VERTEX_POINT('',#1250);
#363=VERTEX_POINT('',#1252);
#364=VERTEX_POINT('',#1256);
#365=VERTEX_POINT('',#1258);
#366=VERTEX_POINT('',#1262);
#367=VERTEX_POINT('',#1264);
#368=VERTEX_POINT('',#1268);
#369=VERTEX_POINT('',#1270);
#370=VERTEX_POINT('',#1274);
#371=VERTEX_POINT('',#1276);
#372=VERTEX_POINT('',#1280);
#373=VERTEX_POINT('',#1282);
#374=VERTEX_POINT('',#1286);
#375=VERTEX_POINT('',#1288);
#376=VERTEX_POINT('',#1292);
#377=VERTEX_POINT('',#1294);
#378=VERTEX_POINT('',#1298);
#379=VERTEX_POINT('',#1300);
#380=VERTEX_POINT('',#1304);
#381=VERTEX_POINT('',#1306);
#382=VERTEX_POINT('',#1310);
#383=VERTEX_POINT('',#1312);
#384=VERTEX_POINT('',#1316);
#385=VERTEX_POINT('',#1318);
#386=VERTEX_POINT('',#1322);
#387=VERTEX_POINT('',#1324);
#388=VERTEX_POINT('',#1331);
#389=VERTEX_POINT('',#1332);
#390=VERTEX_POINT('',#1334);
#391=VERTEX_POINT('',#1336);
#392=VERTEX_POINT('',#1340);
#393=VERTEX_POINT('',#1341);
#394=VERTEX_POINT('',#1343);
#395=VERTEX_POINT('',#1345);
#396=VERTEX_POINT('',#1349);
#397=VERTEX_POINT('',#1350);
#398=VERTEX_POINT('',#1352);
#399=VERTEX_POINT('',#1354);
#400=VERTEX_POINT('',#1358);
#401=VERTEX_POINT('',#1359);
#402=VERTEX_POINT('',#1361);
#403=VERTEX_POINT('',#1363);
#404=VERTEX_POINT('',#1365);
#405=VERTEX_POINT('',#1367);
#406=VERTEX_POINT('',#1369);
#407=VERTEX_POINT('',#1371);
#408=VERTEX_POINT('',#1373);
#409=VERTEX_POINT('',#1375);
#410=VERTEX_POINT('',#1377);
#411=VERTEX_POINT('',#1379);
#412=VERTEX_POINT('',#1381);
#413=VERTEX_POINT('',#1383);
#414=VERTEX_POINT('',#1385);
#415=VERTEX_POINT('',#1388);
#416=VERTEX_POINT('',#1389);
#417=VERTEX_POINT('',#1391);
#418=VERTEX_POINT('',#1393);
#419=VERTEX_POINT('',#1395);
#420=VERTEX_POINT('',#1397);
#421=VERTEX_POINT('',#1404);
#422=VERTEX_POINT('',#1406);
#423=VERTEX_POINT('',#1410);
#424=VERTEX_POINT('',#1414);
#425=VERTEX_POINT('',#1418);
#426=VERTEX_POINT('',#1422);
#427=VERTEX_POINT('',#1426);
#428=VERTEX_POINT('',#1430);
#429=VERTEX_POINT('',#1434);
#430=VERTEX_POINT('',#1438);
#431=VERTEX_POINT('',#1442);
#432=VERTEX_POINT('',#1446);
#433=VERTEX_POINT('',#1450);
#434=VERTEX_POINT('',#1454);
#435=VERTEX_POINT('',#1458);
#436=VERTEX_POINT('',#1466);
#437=VERTEX_POINT('',#1468);
#438=VERTEX_POINT('',#1470);
#439=VERTEX_POINT('',#1472);
#440=VERTEX_POINT('',#1474);
#441=VERTEX_POINT('',#1476);
#442=EDGE_CURVE('',#358,#359,#322,.T.);
#443=EDGE_CURVE('',#358,#360,#142,.T.);
#444=EDGE_CURVE('',#360,#361,#323,.T.);
#445=EDGE_CURVE('',#359,#361,#143,.T.);
#446=EDGE_CURVE('',#362,#358,#324,.T.);
#447=EDGE_CURVE('',#362,#363,#144,.T.);
#448=EDGE_CURVE('',#363,#360,#325,.T.);
#449=EDGE_CURVE('',#364,#362,#145,.T.);
#450=EDGE_CURVE('',#364,#365,#146,.T.);
#451=EDGE_CURVE('',#365,#363,#147,.T.);
#452=EDGE_CURVE('',#366,#364,#326,.T.);
#453=EDGE_CURVE('',#366,#367,#148,.T.);
#454=EDGE_CURVE('',#367,#365,#327,.T.);
#455=EDGE_CURVE('',#368,#366,#149,.T.);
#456=EDGE_CURVE('',#368,#369,#150,.T.);
#457=EDGE_CURVE('',#369,#367,#151,.T.);
#458=EDGE_CURVE('',#370,#368,#328,.T.);
#459=EDGE_CURVE('',#370,#371,#152,.T.);
#460=EDGE_CURVE('',#371,#369,#329,.T.);
#461=EDGE_CURVE('',#372,#370,#153,.T.);
#462=EDGE_CURVE('',#372,#373,#154,.T.);
#463=EDGE_CURVE('',#373,#371,#155,.T.);
#464=EDGE_CURVE('',#374,#372,#330,.T.);
#465=EDGE_CURVE('',#374,#375,#156,.T.);
#466=EDGE_CURVE('',#375,#373,#331,.T.);
#467=EDGE_CURVE('',#376,#374,#332,.T.);
#468=EDGE_CURVE('',#376,#377,#157,.T.);
#469=EDGE_CURVE('',#377,#375,#333,.T.);
#470=EDGE_CURVE('',#378,#376,#158,.T.);
#471=EDGE_CURVE('',#378,#379,#159,.T.);
#472=EDGE_CURVE('',#379,#377,#160,.T.);
#473=EDGE_CURVE('',#380,#378,#161,.T.);
#474=EDGE_CURVE('',#380,#381,#162,.T.);
#475=EDGE_CURVE('',#381,#379,#163,.T.);
#476=EDGE_CURVE('',#382,#380,#164,.T.);
#477=EDGE_CURVE('',#382,#383,#165,.T.);
#478=EDGE_CURVE('',#383,#381,#166,.T.);
#479=EDGE_CURVE('',#384,#382,#167,.T.);
#480=EDGE_CURVE('',#384,#385,#168,.T.);
#481=EDGE_CURVE('',#385,#383,#169,.T.);
#482=EDGE_CURVE('',#386,#384,#170,.T.);
#483=EDGE_CURVE('',#386,#387,#171,.T.);
#484=EDGE_CURVE('',#387,#385,#172,.T.);
#485=EDGE_CURVE('',#359,#386,#334,.T.);
#486=EDGE_CURVE('',#361,#387,#335,.T.);
#487=EDGE_CURVE('',#388,#389,#173,.T.);
#488=EDGE_CURVE('',#390,#389,#174,.T.);
#489=EDGE_CURVE('',#391,#390,#175,.T.);
#490=EDGE_CURVE('',#391,#388,#176,.T.);
#491=EDGE_CURVE('',#392,#393,#177,.T.);
#492=EDGE_CURVE('',#394,#393,#178,.T.);
#493=EDGE_CURVE('',#395,#394,#179,.T.);
#494=EDGE_CURVE('',#395,#392,#180,.T.);
#495=EDGE_CURVE('',#396,#397,#181,.T.);
#496=EDGE_CURVE('',#397,#398,#182,.T.);
#497=EDGE_CURVE('',#399,#398,#183,.T.);
#498=EDGE_CURVE('',#399,#396,#184,.T.);
#499=EDGE_CURVE('',#400,#401,#185,.T.);
#500=EDGE_CURVE('',#401,#402,#186,.T.);
#501=EDGE_CURVE('',#402,#403,#187,.T.);
#502=EDGE_CURVE('',#403,#404,#188,.T.);
#503=EDGE_CURVE('',#404,#405,#189,.T.);
#504=EDGE_CURVE('',#405,#406,#336,.T.);
#505=EDGE_CURVE('',#406,#407,#337,.T.);
#506=EDGE_CURVE('',#407,#408,#190,.T.);
#507=EDGE_CURVE('',#408,#409,#338,.T.);
#508=EDGE_CURVE('',#409,#410,#191,.T.);
#509=EDGE_CURVE('',#410,#411,#339,.T.);
#510=EDGE_CURVE('',#411,#412,#192,.T.);
#511=EDGE_CURVE('',#412,#413,#340,.T.);
#512=EDGE_CURVE('',#413,#414,#341,.T.);
#513=EDGE_CURVE('',#414,#400,#342,.T.);
#514=EDGE_CURVE('',#415,#416,#193,.T.);
#515=EDGE_CURVE('',#416,#417,#194,.T.);
#516=EDGE_CURVE('',#417,#418,#195,.T.);
#517=EDGE_CURVE('',#418,#419,#196,.T.);
#518=EDGE_CURVE('',#419,#420,#197,.T.);
#519=EDGE_CURVE('',#420,#391,#343,.T.);
#520=EDGE_CURVE('',#390,#395,#344,.T.);
#521=EDGE_CURVE('',#394,#399,#345,.T.);
#522=EDGE_CURVE('',#398,#415,#346,.T.);
#523=EDGE_CURVE('',#421,#408,#198,.T.);
#524=EDGE_CURVE('',#422,#421,#347,.T.);
#525=EDGE_CURVE('',#422,#409,#199,.T.);
#526=EDGE_CURVE('',#423,#422,#200,.T.);
#527=EDGE_CURVE('',#423,#410,#201,.T.);
#528=EDGE_CURVE('',#424,#423,#348,.T.);
#529=EDGE_CURVE('',#424,#411,#202,.T.);
#530=EDGE_CURVE('',#425,#424,#203,.T.);
#531=EDGE_CURVE('',#425,#412,#204,.T.);
#532=EDGE_CURVE('',#426,#425,#349,.T.);
#533=EDGE_CURVE('',#426,#413,#205,.T.);
#534=EDGE_CURVE('',#427,#426,#350,.T.);
#535=EDGE_CURVE('',#427,#414,#206,.T.);
#536=EDGE_CURVE('',#428,#427,#351,.T.);
#537=EDGE_CURVE('',#428,#400,#207,.T.);
#538=EDGE_CURVE('',#429,#428,#208,.T.);
#539=EDGE_CURVE('',#429,#401,#209,.T.);
#540=EDGE_CURVE('',#430,#429,#210,.T.);
#541=EDGE_CURVE('',#430,#402,#211,.T.);
#542=EDGE_CURVE('',#431,#430,#212,.T.);
#543=EDGE_CURVE('',#431,#403,#213,.T.);
#544=EDGE_CURVE('',#432,#431,#214,.T.);
#545=EDGE_CURVE('',#432,#404,#215,.T.);
#546=EDGE_CURVE('',#433,#432,#216,.T.);
#547=EDGE_CURVE('',#433,#405,#217,.T.);
#548=EDGE_CURVE('',#434,#433,#352,.T.);
#549=EDGE_CURVE('',#434,#406,#218,.T.);
#550=EDGE_CURVE('',#435,#434,#353,.T.);
#551=EDGE_CURVE('',#435,#407,#219,.T.);
#552=EDGE_CURVE('',#421,#435,#220,.T.);
#553=EDGE_CURVE('',#389,#392,#354,.T.);
#554=EDGE_CURVE('',#436,#388,#355,.T.);
#555=EDGE_CURVE('',#437,#436,#221,.T.);
#556=EDGE_CURVE('',#438,#437,#222,.T.);
#557=EDGE_CURVE('',#439,#438,#223,.T.);
#558=EDGE_CURVE('',#440,#439,#224,.T.);
#559=EDGE_CURVE('',#441,#440,#225,.T.);
#560=EDGE_CURVE('',#397,#441,#356,.T.);
#561=EDGE_CURVE('',#393,#396,#357,.T.);
#562=EDGE_CURVE('',#436,#420,#226,.T.);
#563=EDGE_CURVE('',#419,#437,#227,.T.);
#564=EDGE_CURVE('',#441,#415,#228,.T.);
#565=EDGE_CURVE('',#416,#440,#229,.T.);
#566=EDGE_CURVE('',#417,#439,#230,.T.);
#567=EDGE_CURVE('',#418,#438,#231,.T.);
#568=ORIENTED_EDGE('',*,*,#442,.F.);
#569=ORIENTED_EDGE('',*,*,#443,.T.);
#570=ORIENTED_EDGE('',*,*,#444,.T.);
#571=ORIENTED_EDGE('',*,*,#445,.F.);
#572=ORIENTED_EDGE('',*,*,#446,.F.);
#573=ORIENTED_EDGE('',*,*,#447,.T.);
#574=ORIENTED_EDGE('',*,*,#448,.T.);
#575=ORIENTED_EDGE('',*,*,#443,.F.);
#576=ORIENTED_EDGE('',*,*,#449,.F.);
#577=ORIENTED_EDGE('',*,*,#450,.T.);
#578=ORIENTED_EDGE('',*,*,#451,.T.);
#579=ORIENTED_EDGE('',*,*,#447,.F.);
#580=ORIENTED_EDGE('',*,*,#452,.F.);
#581=ORIENTED_EDGE('',*,*,#453,.T.);
#582=ORIENTED_EDGE('',*,*,#454,.T.);
#583=ORIENTED_EDGE('',*,*,#450,.F.);
#584=ORIENTED_EDGE('',*,*,#455,.F.);
#585=ORIENTED_EDGE('',*,*,#456,.T.);
#586=ORIENTED_EDGE('',*,*,#457,.T.);
#587=ORIENTED_EDGE('',*,*,#453,.F.);
#588=ORIENTED_EDGE('',*,*,#458,.F.);
#589=ORIENTED_EDGE('',*,*,#459,.T.);
#590=ORIENTED_EDGE('',*,*,#460,.T.);
#591=ORIENTED_EDGE('',*,*,#456,.F.);
#592=ORIENTED_EDGE('',*,*,#461,.F.);
#593=ORIENTED_EDGE('',*,*,#462,.T.);
#594=ORIENTED_EDGE('',*,*,#463,.T.);
#595=ORIENTED_EDGE('',*,*,#459,.F.);
#596=ORIENTED_EDGE('',*,*,#464,.F.);
#597=ORIENTED_EDGE('',*,*,#465,.T.);
#598=ORIENTED_EDGE('',*,*,#466,.T.);
#599=ORIENTED_EDGE('',*,*,#462,.F.);
#600=ORIENTED_EDGE('',*,*,#467,.F.);
#601=ORIENTED_EDGE('',*,*,#468,.T.);
#602=ORIENTED_EDGE('',*,*,#469,.T.);
#603=ORIENTED_EDGE('',*,*,#465,.F.);
#604=ORIENTED_EDGE('',*,*,#470,.F.);
#605=ORIENTED_EDGE('',*,*,#471,.T.);
#606=ORIENTED_EDGE('',*,*,#472,.T.);
#607=ORIENTED_EDGE('',*,*,#468,.F.);
#608=ORIENTED_EDGE('',*,*,#473,.F.);
#609=ORIENTED_EDGE('',*,*,#474,.T.);
#610=ORIENTED_EDGE('',*,*,#475,.T.);
#611=ORIENTED_EDGE('',*,*,#471,.F.);
#612=ORIENTED_EDGE('',*,*,#476,.F.);
#613=ORIENTED_EDGE('',*,*,#477,.T.);
#614=ORIENTED_EDGE('',*,*,#478,.T.);
#615=ORIENTED_EDGE('',*,*,#474,.F.);
#616=ORIENTED_EDGE('',*,*,#479,.F.);
#617=ORIENTED_EDGE('',*,*,#480,.T.);
#618=ORIENTED_EDGE('',*,*,#481,.T.);
#619=ORIENTED_EDGE('',*,*,#477,.F.);
#620=ORIENTED_EDGE('',*,*,#482,.F.);
#621=ORIENTED_EDGE('',*,*,#483,.T.);
#622=ORIENTED_EDGE('',*,*,#484,.T.);
#623=ORIENTED_EDGE('',*,*,#480,.F.);
#624=ORIENTED_EDGE('',*,*,#485,.F.);
#625=ORIENTED_EDGE('',*,*,#445,.T.);
#626=ORIENTED_EDGE('',*,*,#486,.T.);
#627=ORIENTED_EDGE('',*,*,#483,.F.);
#628=ORIENTED_EDGE('',*,*,#487,.T.);
#629=ORIENTED_EDGE('',*,*,#488,.F.);
#630=ORIENTED_EDGE('',*,*,#489,.F.);
#631=ORIENTED_EDGE('',*,*,#490,.T.);
#632=ORIENTED_EDGE('',*,*,#491,.T.);
#633=ORIENTED_EDGE('',*,*,#492,.F.);
#634=ORIENTED_EDGE('',*,*,#493,.F.);
#635=ORIENTED_EDGE('',*,*,#494,.T.);
#636=ORIENTED_EDGE('',*,*,#495,.T.);
#637=ORIENTED_EDGE('',*,*,#496,.T.);
#638=ORIENTED_EDGE('',*,*,#497,.F.);
#639=ORIENTED_EDGE('',*,*,#498,.T.);
#640=ORIENTED_EDGE('',*,*,#499,.T.);
#641=ORIENTED_EDGE('',*,*,#500,.T.);
#642=ORIENTED_EDGE('',*,*,#501,.T.);
#643=ORIENTED_EDGE('',*,*,#502,.T.);
#644=ORIENTED_EDGE('',*,*,#503,.T.);
#645=ORIENTED_EDGE('',*,*,#504,.T.);
#646=ORIENTED_EDGE('',*,*,#505,.T.);
#647=ORIENTED_EDGE('',*,*,#506,.T.);
#648=ORIENTED_EDGE('',*,*,#507,.T.);
#649=ORIENTED_EDGE('',*,*,#508,.T.);
#650=ORIENTED_EDGE('',*,*,#509,.T.);
#651=ORIENTED_EDGE('',*,*,#510,.T.);
#652=ORIENTED_EDGE('',*,*,#511,.T.);
#653=ORIENTED_EDGE('',*,*,#512,.T.);
#654=ORIENTED_EDGE('',*,*,#513,.T.);
#655=ORIENTED_EDGE('',*,*,#514,.T.);
#656=ORIENTED_EDGE('',*,*,#515,.T.);
#657=ORIENTED_EDGE('',*,*,#516,.T.);
#658=ORIENTED_EDGE('',*,*,#517,.T.);
#659=ORIENTED_EDGE('',*,*,#518,.T.);
#660=ORIENTED_EDGE('',*,*,#519,.T.);
#661=ORIENTED_EDGE('',*,*,#489,.T.);
#662=ORIENTED_EDGE('',*,*,#520,.T.);
#663=ORIENTED_EDGE('',*,*,#493,.T.);
#664=ORIENTED_EDGE('',*,*,#521,.T.);
#665=ORIENTED_EDGE('',*,*,#497,.T.);
#666=ORIENTED_EDGE('',*,*,#522,.T.);
#667=ORIENTED_EDGE('',*,*,#523,.F.);
#668=ORIENTED_EDGE('',*,*,#524,.F.);
#669=ORIENTED_EDGE('',*,*,#525,.T.);
#670=ORIENTED_EDGE('',*,*,#507,.F.);
#671=ORIENTED_EDGE('',*,*,#525,.F.);
#672=ORIENTED_EDGE('',*,*,#526,.F.);
#673=ORIENTED_EDGE('',*,*,#527,.T.);
#674=ORIENTED_EDGE('',*,*,#508,.F.);
#675=ORIENTED_EDGE('',*,*,#527,.F.);
#676=ORIENTED_EDGE('',*,*,#528,.F.);
#677=ORIENTED_EDGE('',*,*,#529,.T.);
#678=ORIENTED_EDGE('',*,*,#509,.F.);
#679=ORIENTED_EDGE('',*,*,#529,.F.);
#680=ORIENTED_EDGE('',*,*,#530,.F.);
#681=ORIENTED_EDGE('',*,*,#531,.T.);
#682=ORIENTED_EDGE('',*,*,#510,.F.);
#683=ORIENTED_EDGE('',*,*,#531,.F.);
#684=ORIENTED_EDGE('',*,*,#532,.F.);
#685=ORIENTED_EDGE('',*,*,#533,.T.);
#686=ORIENTED_EDGE('',*,*,#511,.F.);
#687=ORIENTED_EDGE('',*,*,#533,.F.);
#688=ORIENTED_EDGE('',*,*,#534,.F.);
#689=ORIENTED_EDGE('',*,*,#535,.T.);
#690=ORIENTED_EDGE('',*,*,#512,.F.);
#691=ORIENTED_EDGE('',*,*,#535,.F.);
#692=ORIENTED_EDGE('',*,*,#536,.F.);
#693=ORIENTED_EDGE('',*,*,#537,.T.);
#694=ORIENTED_EDGE('',*,*,#513,.F.);
#695=ORIENTED_EDGE('',*,*,#537,.F.);
#696=ORIENTED_EDGE('',*,*,#538,.F.);
#697=ORIENTED_EDGE('',*,*,#539,.T.);
#698=ORIENTED_EDGE('',*,*,#499,.F.);
#699=ORIENTED_EDGE('',*,*,#539,.F.);
#700=ORIENTED_EDGE('',*,*,#540,.F.);
#701=ORIENTED_EDGE('',*,*,#541,.T.);
#702=ORIENTED_EDGE('',*,*,#500,.F.);
#703=ORIENTED_EDGE('',*,*,#541,.F.);
#704=ORIENTED_EDGE('',*,*,#542,.F.);
#705=ORIENTED_EDGE('',*,*,#543,.T.);
#706=ORIENTED_EDGE('',*,*,#501,.F.);
#707=ORIENTED_EDGE('',*,*,#543,.F.);
#708=ORIENTED_EDGE('',*,*,#544,.F.);
#709=ORIENTED_EDGE('',*,*,#545,.T.);
#710=ORIENTED_EDGE('',*,*,#502,.F.);
#711=ORIENTED_EDGE('',*,*,#545,.F.);
#712=ORIENTED_EDGE('',*,*,#546,.F.);
#713=ORIENTED_EDGE('',*,*,#547,.T.);
#714=ORIENTED_EDGE('',*,*,#503,.F.);
#715=ORIENTED_EDGE('',*,*,#547,.F.);
#716=ORIENTED_EDGE('',*,*,#548,.F.);
#717=ORIENTED_EDGE('',*,*,#549,.T.);
#718=ORIENTED_EDGE('',*,*,#504,.F.);
#719=ORIENTED_EDGE('',*,*,#549,.F.);
#720=ORIENTED_EDGE('',*,*,#550,.F.);
#721=ORIENTED_EDGE('',*,*,#551,.T.);
#722=ORIENTED_EDGE('',*,*,#505,.F.);
#723=ORIENTED_EDGE('',*,*,#551,.F.);
#724=ORIENTED_EDGE('',*,*,#552,.F.);
#725=ORIENTED_EDGE('',*,*,#523,.T.);
#726=ORIENTED_EDGE('',*,*,#506,.F.);
#727=ORIENTED_EDGE('',*,*,#494,.F.);
#728=ORIENTED_EDGE('',*,*,#520,.F.);
#729=ORIENTED_EDGE('',*,*,#488,.T.);
#730=ORIENTED_EDGE('',*,*,#553,.T.);
#731=ORIENTED_EDGE('',*,*,#486,.F.);
#732=ORIENTED_EDGE('',*,*,#444,.F.);
#733=ORIENTED_EDGE('',*,*,#448,.F.);
#734=ORIENTED_EDGE('',*,*,#451,.F.);
#735=ORIENTED_EDGE('',*,*,#454,.F.);
#736=ORIENTED_EDGE('',*,*,#457,.F.);
#737=ORIENTED_EDGE('',*,*,#460,.F.);
#738=ORIENTED_EDGE('',*,*,#463,.F.);
#739=ORIENTED_EDGE('',*,*,#466,.F.);
#740=ORIENTED_EDGE('',*,*,#469,.F.);
#741=ORIENTED_EDGE('',*,*,#472,.F.);
#742=ORIENTED_EDGE('',*,*,#475,.F.);
#743=ORIENTED_EDGE('',*,*,#478,.F.);
#744=ORIENTED_EDGE('',*,*,#481,.F.);
#745=ORIENTED_EDGE('',*,*,#484,.F.);
#746=ORIENTED_EDGE('',*,*,#553,.F.);
#747=ORIENTED_EDGE('',*,*,#487,.F.);
#748=ORIENTED_EDGE('',*,*,#554,.F.);
#749=ORIENTED_EDGE('',*,*,#555,.F.);
#750=ORIENTED_EDGE('',*,*,#556,.F.);
#751=ORIENTED_EDGE('',*,*,#557,.F.);
#752=ORIENTED_EDGE('',*,*,#558,.F.);
#753=ORIENTED_EDGE('',*,*,#559,.F.);
#754=ORIENTED_EDGE('',*,*,#560,.F.);
#755=ORIENTED_EDGE('',*,*,#495,.F.);
#756=ORIENTED_EDGE('',*,*,#561,.F.);
#757=ORIENTED_EDGE('',*,*,#491,.F.);
#758=ORIENTED_EDGE('',*,*,#492,.T.);
#759=ORIENTED_EDGE('',*,*,#561,.T.);
#760=ORIENTED_EDGE('',*,*,#498,.F.);
#761=ORIENTED_EDGE('',*,*,#521,.F.);
#762=ORIENTED_EDGE('',*,*,#554,.T.);
#763=ORIENTED_EDGE('',*,*,#490,.F.);
#764=ORIENTED_EDGE('',*,*,#519,.F.);
#765=ORIENTED_EDGE('',*,*,#562,.F.);
#766=ORIENTED_EDGE('',*,*,#555,.T.);
#767=ORIENTED_EDGE('',*,*,#562,.T.);
#768=ORIENTED_EDGE('',*,*,#518,.F.);
#769=ORIENTED_EDGE('',*,*,#563,.T.);
#770=ORIENTED_EDGE('',*,*,#560,.T.);
#771=ORIENTED_EDGE('',*,*,#564,.T.);
#772=ORIENTED_EDGE('',*,*,#522,.F.);
#773=ORIENTED_EDGE('',*,*,#496,.F.);
#774=ORIENTED_EDGE('',*,*,#538,.T.);
#775=ORIENTED_EDGE('',*,*,#536,.T.);
#776=ORIENTED_EDGE('',*,*,#534,.T.);
#777=ORIENTED_EDGE('',*,*,#532,.T.);
#778=ORIENTED_EDGE('',*,*,#530,.T.);
#779=ORIENTED_EDGE('',*,*,#528,.T.);
#780=ORIENTED_EDGE('',*,*,#526,.T.);
#781=ORIENTED_EDGE('',*,*,#524,.T.);
#782=ORIENTED_EDGE('',*,*,#552,.T.);
#783=ORIENTED_EDGE('',*,*,#550,.T.);
#784=ORIENTED_EDGE('',*,*,#548,.T.);
#785=ORIENTED_EDGE('',*,*,#546,.T.);
#786=ORIENTED_EDGE('',*,*,#544,.T.);
#787=ORIENTED_EDGE('',*,*,#542,.T.);
#788=ORIENTED_EDGE('',*,*,#540,.T.);
#789=ORIENTED_EDGE('',*,*,#442,.T.);
#790=ORIENTED_EDGE('',*,*,#485,.T.);
#791=ORIENTED_EDGE('',*,*,#482,.T.);
#792=ORIENTED_EDGE('',*,*,#479,.T.);
#793=ORIENTED_EDGE('',*,*,#476,.T.);
#794=ORIENTED_EDGE('',*,*,#473,.T.);
#795=ORIENTED_EDGE('',*,*,#470,.T.);
#796=ORIENTED_EDGE('',*,*,#467,.T.);
#797=ORIENTED_EDGE('',*,*,#464,.T.);
#798=ORIENTED_EDGE('',*,*,#461,.T.);
#799=ORIENTED_EDGE('',*,*,#458,.T.);
#800=ORIENTED_EDGE('',*,*,#455,.T.);
#801=ORIENTED_EDGE('',*,*,#452,.T.);
#802=ORIENTED_EDGE('',*,*,#449,.T.);
#803=ORIENTED_EDGE('',*,*,#446,.T.);
#804=ORIENTED_EDGE('',*,*,#559,.T.);
#805=ORIENTED_EDGE('',*,*,#565,.F.);
#806=ORIENTED_EDGE('',*,*,#514,.F.);
#807=ORIENTED_EDGE('',*,*,#564,.F.);
#808=ORIENTED_EDGE('',*,*,#558,.T.);
#809=ORIENTED_EDGE('',*,*,#566,.F.);
#810=ORIENTED_EDGE('',*,*,#515,.F.);
#811=ORIENTED_EDGE('',*,*,#565,.T.);
#812=ORIENTED_EDGE('',*,*,#557,.T.);
#813=ORIENTED_EDGE('',*,*,#567,.F.);
#814=ORIENTED_EDGE('',*,*,#516,.F.);
#815=ORIENTED_EDGE('',*,*,#566,.T.);
#816=ORIENTED_EDGE('',*,*,#556,.T.);
#817=ORIENTED_EDGE('',*,*,#563,.F.);
#818=ORIENTED_EDGE('',*,*,#517,.F.);
#819=ORIENTED_EDGE('',*,*,#567,.T.);
#820=CYLINDRICAL_SURFACE('',#898,3.78647373259233);
#821=CYLINDRICAL_SURFACE('',#901,3.79118475054474);
#822=CYLINDRICAL_SURFACE('',#905,3.79120868890497);
#823=CYLINDRICAL_SURFACE('',#909,3.79121174858401);
#824=CYLINDRICAL_SURFACE('',#913,3.88810463270844);
#825=CYLINDRICAL_SURFACE('',#916,3.55144308500002);
#826=CYLINDRICAL_SURFACE('',#924,3.79118475054495);
#827=CYLINDRICAL_SURFACE('',#942,5.81167651466729);
#828=CYLINDRICAL_SURFACE('',#945,5.81167345498825);
#829=CYLINDRICAL_SURFACE('',#948,5.81164951662803);
#830=CYLINDRICAL_SURFACE('',#950,5.80693849867672);
#831=CYLINDRICAL_SURFACE('',#952,5.81164951662824);
#832=CYLINDRICAL_SURFACE('',#959,5.57190785108331);
#833=CYLINDRICAL_SURFACE('',#961,5.90856939879172);
#834=CYLINDRICAL_SURFACE('',#964,3.54120868890499);
#835=CYLINDRICAL_SURFACE('',#970,3.54121174858399);
#836=CYLINDRICAL_SURFACE('',#971,4.03014631977728);
#837=CYLINDRICAL_SURFACE('',#973,4.06934672679787);
#838=ADVANCED_FACE('',(#49),#820,.F.);
#839=ADVANCED_FACE('',(#50),#821,.F.);
#840=ADVANCED_FACE('',(#51),#22,.F.);
#841=ADVANCED_FACE('',(#52),#822,.F.);
#842=ADVANCED_FACE('',(#53),#23,.F.);
#843=ADVANCED_FACE('',(#54),#823,.F.);
#844=ADVANCED_FACE('',(#55),#24,.F.);
#845=ADVANCED_FACE('',(#56),#824,.F.);
#846=ADVANCED_FACE('',(#57),#825,.F.);
#847=ADVANCED_FACE('',(#58),#25,.F.);
#848=ADVANCED_FACE('',(#59),#26,.F.);
#849=ADVANCED_FACE('',(#60),#27,.F.);
#850=ADVANCED_FACE('',(#61),#28,.F.);
#851=ADVANCED_FACE('',(#62),#29,.F.);
#852=ADVANCED_FACE('',(#63),#826,.F.);
#853=ADVANCED_FACE('',(#64),#30,.T.);
#854=ADVANCED_FACE('',(#65),#31,.T.);
#855=ADVANCED_FACE('',(#66),#32,.T.);
#856=ADVANCED_FACE('',(#67,#19),#33,.T.);
#857=ADVANCED_FACE('',(#68),#827,.T.);
#858=ADVANCED_FACE('',(#69),#34,.F.);
#859=ADVANCED_FACE('',(#70),#828,.T.);
#860=ADVANCED_FACE('',(#71),#35,.F.);
#861=ADVANCED_FACE('',(#72),#829,.T.);
#862=ADVANCED_FACE('',(#73),#830,.T.);
#863=ADVANCED_FACE('',(#74),#831,.T.);
#864=ADVANCED_FACE('',(#75),#36,.F.);
#865=ADVANCED_FACE('',(#76),#37,.F.);
#866=ADVANCED_FACE('',(#77),#38,.F.);
#867=ADVANCED_FACE('',(#78),#39,.F.);
#868=ADVANCED_FACE('',(#79),#40,.F.);
#869=ADVANCED_FACE('',(#80),#832,.T.);
#870=ADVANCED_FACE('',(#81),#833,.T.);
#871=ADVANCED_FACE('',(#82),#41,.F.);
#872=ADVANCED_FACE('',(#83),#834,.T.);
#873=ADVANCED_FACE('',(#84,#20),#42,.F.);
#874=ADVANCED_FACE('',(#85),#835,.T.);
#875=ADVANCED_FACE('',(#86),#836,.T.);
#876=ADVANCED_FACE('',(#87),#43,.T.);
#877=ADVANCED_FACE('',(#88),#837,.T.);
#878=ADVANCED_FACE('',(#89,#21),#44,.T.);
#879=ADVANCED_FACE('',(#90),#45,.T.);
#880=ADVANCED_FACE('',(#91),#46,.T.);
#881=ADVANCED_FACE('',(#92),#47,.T.);
#882=ADVANCED_FACE('',(#93),#48,.T.);
#883=CLOSED_SHELL('',(#838,#839,#840,#841,#842,#843,#844,#845,#846,#847,
#848,#849,#850,#851,#852,#853,#854,#855,#856,#857,#858,#859,#860,#861,#862,
#863,#864,#865,#866,#867,#868,#869,#870,#871,#872,#873,#874,#875,#876,#877,
#878,#879,#880,#881,#882));
#884=DERIVED_UNIT_ELEMENT(#886,1.);
#885=DERIVED_UNIT_ELEMENT(#1503,-3.);
#886=(
MASS_UNIT()
NAMED_UNIT(*)
SI_UNIT(.KILO.,.GRAM.)
);
#887=DERIVED_UNIT((#884,#885));
#888=MEASURE_REPRESENTATION_ITEM('density measure',
POSITIVE_RATIO_MEASURE(7850.),#887);
#889=PROPERTY_DEFINITION_REPRESENTATION(#894,#891);
#890=PROPERTY_DEFINITION_REPRESENTATION(#895,#892);
#891=REPRESENTATION('material name',(#893),#1500);
#892=REPRESENTATION('density',(#888),#1500);
#893=DESCRIPTIVE_REPRESENTATION_ITEM('Steel','Steel');
#894=PROPERTY_DEFINITION('material property','material name',#1515);
#895=PROPERTY_DEFINITION('material property','density of part',#1515);
#896=AXIS2_PLACEMENT_3D('',#1238,#980,#981);
#897=AXIS2_PLACEMENT_3D('',#1239,#982,#983);
#898=AXIS2_PLACEMENT_3D('',#1240,#984,#985);
#899=AXIS2_PLACEMENT_3D('',#1243,#986,#987);
#900=AXIS2_PLACEMENT_3D('',#1247,#989,#990);
#901=AXIS2_PLACEMENT_3D('',#1249,#992,#993);
#902=AXIS2_PLACEMENT_3D('',#1251,#994,#995);
#903=AXIS2_PLACEMENT_3D('',#1254,#997,#998);
#904=AXIS2_PLACEMENT_3D('',#1255,#999,#1000);
#905=AXIS2_PLACEMENT_3D('',#1261,#1004,#1005);
#906=AXIS2_PLACEMENT_3D('',#1263,#1006,#1007);
#907=AXIS2_PLACEMENT_3D('',#1266,#1009,#1010);
#908=AXIS2_PLACEMENT_3D('',#1267,#1011,#1012);
#909=AXIS2_PLACEMENT_3D('',#1273,#1016,#1017);
#910=AXIS2_PLACEMENT_3D('',#1275,#1018,#1019);
#911=AXIS2_PLACEMENT_3D('',#1278,#1021,#1022);
#912=AXIS2_PLACEMENT_3D('',#1279,#1023,#1024);
#913=AXIS2_PLACEMENT_3D('',#1285,#1028,#1029);
#914=AXIS2_PLACEMENT_3D('',#1287,#1030,#1031);
#915=AXIS2_PLACEMENT_3D('',#1290,#1033,#1034);
#916=AXIS2_PLACEMENT_3D('',#1291,#1035,#1036);
#917=AXIS2_PLACEMENT_3D('',#1293,#1037,#1038);
#918=AXIS2_PLACEMENT_3D('',#1296,#1040,#1041);
#919=AXIS2_PLACEMENT_3D('',#1297,#1042,#1043);
#920=AXIS2_PLACEMENT_3D('',#1303,#1047,#1048);
#921=AXIS2_PLACEMENT_3D('',#1309,#1052,#1053);
#922=AXIS2_PLACEMENT_3D('',#1315,#1057,#1058);
#923=AXIS2_PLACEMENT_3D('',#1321,#1062,#1063);
#924=AXIS2_PLACEMENT_3D('',#1327,#1067,#1068);
#925=AXIS2_PLACEMENT_3D('',#1328,#1069,#1070);
#926=AXIS2_PLACEMENT_3D('',#1329,#1071,#1072);
#927=AXIS2_PLACEMENT_3D('',#1330,#1073,#1074);
#928=AXIS2_PLACEMENT_3D('',#1339,#1079,#1080);
#929=AXIS2_PLACEMENT_3D('',#1348,#1085,#1086);
#930=AXIS2_PLACEMENT_3D('',#1357,#1091,#1092);
#931=AXIS2_PLACEMENT_3D('',#1370,#1098,#1099);
#932=AXIS2_PLACEMENT_3D('',#1372,#1100,#1101);
#933=AXIS2_PLACEMENT_3D('',#1376,#1103,#1104);
#934=AXIS2_PLACEMENT_3D('',#1380,#1106,#1107);
#935=AXIS2_PLACEMENT_3D('',#1384,#1109,#1110);
#936=AXIS2_PLACEMENT_3D('',#1386,#1111,#1112);
#937=AXIS2_PLACEMENT_3D('',#1387,#1113,#1114);
#938=AXIS2_PLACEMENT_3D('',#1399,#1120,#1121);
#939=AXIS2_PLACEMENT_3D('',#1400,#1122,#1123);
#940=AXIS2_PLACEMENT_3D('',#1401,#1124,#1125);
#941=AXIS2_PLACEMENT_3D('',#1402,#1126,#1127);
#942=AXIS2_PLACEMENT_3D('',#1403,#1128,#1129);
#943=AXIS2_PLACEMENT_3D('',#1407,#1131,#1132);
#944=AXIS2_PLACEMENT_3D('',#1409,#1134,#1135);
#945=AXIS2_PLACEMENT_3D('',#1413,#1138,#1139);
#946=AXIS2_PLACEMENT_3D('',#1415,#1140,#1141);
#947=AXIS2_PLACEMENT_3D('',#1417,#1143,#1144);
#948=AXIS2_PLACEMENT_3D('',#1421,#1147,#1148);
#949=AXIS2_PLACEMENT_3D('',#1423,#1149,#1150);
#950=AXIS2_PLACEMENT_3D('',#1425,#1152,#1153);
#951=AXIS2_PLACEMENT_3D('',#1427,#1154,#1155);
#952=AXIS2_PLACEMENT_3D('',#1429,#1157,#1158);
#953=AXIS2_PLACEMENT_3D('',#1431,#1159,#1160);
#954=AXIS2_PLACEMENT_3D('',#1433,#1162,#1163);
#955=AXIS2_PLACEMENT_3D('',#1437,#1166,#1167);
#956=AXIS2_PLACEMENT_3D('',#1441,#1170,#1171);
#957=AXIS2_PLACEMENT_3D('',#1445,#1174,#1175);
#958=AXIS2_PLACEMENT_3D('',#1449,#1178,#1179);
#959=AXIS2_PLACEMENT_3D('',#1453,#1182,#1183);
#960=AXIS2_PLACEMENT_3D('',#1455,#1184,#1185);
#961=AXIS2_PLACEMENT_3D('',#1457,#1187,#1188);
#962=AXIS2_PLACEMENT_3D('',#1459,#1189,#1190);
#963=AXIS2_PLACEMENT_3D('',#1461,#1192,#1193);
#964=AXIS2_PLACEMENT_3D('',#1463,#1195,#1196);
#965=AXIS2_PLACEMENT_3D('',#1464,#1197,#1198);
#966=AXIS2_PLACEMENT_3D('',#1465,#1199,#1200);
#967=AXIS2_PLACEMENT_3D('',#1467,#1201,#1202);
#968=AXIS2_PLACEMENT_3D('',#1478,#1208,#1209);
#969=AXIS2_PLACEMENT_3D('',#1479,#1210,#1211);
#970=AXIS2_PLACEMENT_3D('',#1480,#1212,#1213);
#971=AXIS2_PLACEMENT_3D('',#1481,#1214,#1215);
#972=AXIS2_PLACEMENT_3D('',#1483,#1217,#1218);
#973=AXIS2_PLACEMENT_3D('',#1485,#1220,#1221);
#974=AXIS2_PLACEMENT_3D('',#1487,#1223,#1224);
#975=AXIS2_PLACEMENT_3D('',#1488,#1225,#1226);
#976=AXIS2_PLACEMENT_3D('',#1490,#1228,#1229);
#977=AXIS2_PLACEMENT_3D('',#1492,#1231,#1232);
#978=AXIS2_PLACEMENT_3D('',#1494,#1234,#1235);
#979=AXIS2_PLACEMENT_3D('',#1495,#1236,#1237);
#980=DIRECTION('axis',(0.,0.,1.));
#981=DIRECTION('refdir',(1.,0.,0.));
#982=DIRECTION('axis',(0.,0.,1.));
#983=DIRECTION('refdir',(1.,0.,0.));
#984=DIRECTION('center_axis',(0.,0.,-1.));
#985=DIRECTION('ref_axis',(0.980079468299336,0.198605729570146,0.));
#986=DIRECTION('center_axis',(0.,0.,-1.));
#987=DIRECTION('ref_axis',(0.980079468299336,0.198605729570146,0.));
#988=DIRECTION('',(0.,0.,-1.));
#989=DIRECTION('center_axis',(0.,0.,-1.));
#990=DIRECTION('ref_axis',(0.980079468299336,0.198605729570146,0.));
#991=DIRECTION('',(0.,0.,-1.));
#992=DIRECTION('center_axis',(0.,0.,-1.));
#993=DIRECTION('ref_axis',(0.199412904411332,0.979915554297531,0.));
#994=DIRECTION('center_axis',(0.,0.,-1.));
#995=DIRECTION('ref_axis',(0.199412904411332,0.979915554297531,0.));
#996=DIRECTION('',(0.,0.,-1.));
#997=DIRECTION('center_axis',(0.,0.,-1.));
#998=DIRECTION('ref_axis',(0.199412904411332,0.979915554297531,0.));
#999=DIRECTION('center_axis',(0.000288331827577452,0.999999958432378,0.));
#1000=DIRECTION('ref_axis',(0.999999958432378,-0.000288331827577452,0.));
#1001=DIRECTION('',(0.999999958432378,-0.000288331827577452,0.));
#1002=DIRECTION('',(0.,0.,-1.));
#1003=DIRECTION('',(0.999999958432378,-0.000288331827577452,0.));
#1004=DIRECTION('center_axis',(0.,0.,-1.));
#1005=DIRECTION('ref_axis',(0.00328683140716108,0.999994598355062,0.));
#1006=DIRECTION('center_axis',(0.,0.,-1.));
#1007=DIRECTION('ref_axis',(0.00328683140716108,0.999994598355062,0.));
#1008=DIRECTION('',(0.,0.,-1.));
#1009=DIRECTION('center_axis',(0.,0.,-1.));
#1010=DIRECTION('ref_axis',(0.00328683140716108,0.999994598355062,0.));
#1011=DIRECTION('center_axis',(-0.999977520783217,0.00670506735621041,0.));
#1012=DIRECTION('ref_axis',(0.00670506735621041,0.999977520783217,0.));
#1013=DIRECTION('',(0.00670506735621041,0.999977520783217,0.));
#1014=DIRECTION('',(0.,0.,-1.));
#1015=DIRECTION('',(0.00670506735621041,0.999977520783217,0.));
#1016=DIRECTION('center_axis',(0.,0.,-1.));
#1017=DIRECTION('ref_axis',(-0.426892852150104,0.904302213191558,0.));
#1018=DIRECTION('center_axis',(0.,0.,-1.));
#1019=DIRECTION('ref_axis',(-0.426892852150104,0.904302213191558,0.));
#1020=DIRECTION('',(0.,0.,-1.));
#1021=DIRECTION('center_axis',(0.,0.,-1.));
#1022=DIRECTION('ref_axis',(-0.426892852150104,0.904302213191558,0.));
#1023=DIRECTION('center_axis',(0.00142720143626129,-0.999998981547512,0.));
#1024=DIRECTION('ref_axis',(-0.999998981547512,-0.00142720143626129,0.));
#1025=DIRECTION('',(-0.999998981547512,-0.00142720143626129,0.));
#1026=DIRECTION('',(0.,0.,-1.));
#1027=DIRECTION('',(-0.999998981547512,-0.00142720143626129,0.));
#1028=DIRECTION('center_axis',(0.,0.,-1.));
#1029=DIRECTION('ref_axis',(-0.260939061215195,-0.965355274669452,0.));
#1030=DIRECTION('center_axis',(0.,0.,-1.));
#1031=DIRECTION('ref_axis',(-0.260939061215195,-0.965355274669452,0.));
#1032=DIRECTION('',(0.,0.,-1.));
#1033=DIRECTION('center_axis',(0.,0.,-1.));
#1034=DIRECTION('ref_axis',(-0.260939061215195,-0.965355274669452,0.));
#1035=DIRECTION('center_axis',(0.,0.,-1.));
#1036=DIRECTION('ref_axis',(0.407543794935244,-0.913185663055317,0.));
#1037=DIRECTION('center_axis',(0.,0.,-1.));
#1038=DIRECTION('ref_axis',(0.407543794935244,-0.913185663055317,0.));
#1039=DIRECTION('',(0.,0.,-1.));
#1040=DIRECTION('center_axis',(0.,0.,-1.));
#1041=DIRECTION('ref_axis',(0.407543794935244,-0.913185663055317,0.));
#1042=DIRECTION('center_axis',(0.999998690841586,0.00161812085896131,0.));
#1043=DIRECTION('ref_axis',(0.00161812085896131,-0.999998690841586,0.));
#1044=DIRECTION('',(0.00161812085896131,-0.999998690841586,0.));
#1045=DIRECTION('',(0.,0.,-1.));
#1046=DIRECTION('',(0.00161812085896131,-0.999998690841586,0.));
#1047=DIRECTION('center_axis',(0.,-1.,0.));
#1048=DIRECTION('ref_axis',(-1.,0.,0.));
#1049=DIRECTION('',(-1.,0.,0.));
#1050=DIRECTION('',(0.,0.,-1.));
#1051=DIRECTION('',(-1.,0.,0.));
#1052=DIRECTION('center_axis',(1.,0.,0.));
#1053=DIRECTION('ref_axis',(0.,-1.,0.));
#1054=DIRECTION('',(0.,-1.,0.));
#1055=DIRECTION('',(0.,0.,-1.));
#1056=DIRECTION('',(0.,-1.,0.));
#1057=DIRECTION('center_axis',(0.,1.,0.));
#1058=DIRECTION('ref_axis',(1.,0.,0.));
#1059=DIRECTION('',(1.,0.,0.));
#1060=DIRECTION('',(0.,0.,-1.));
#1061=DIRECTION('',(1.,0.,0.));
#1062=DIRECTION('center_axis',(0.99999516017115,0.00311121106274107,0.));
#1063=DIRECTION('ref_axis',(0.00311121106274107,-0.99999516017115,0.));
#1064=DIRECTION('',(0.00311121106274107,-0.99999516017115,0.));
#1065=DIRECTION('',(0.,0.,-1.));
#1066=DIRECTION('',(0.00311121106274107,-0.99999516017115,0.));
#1067=DIRECTION('center_axis',(0.,0.,-1.));
#1068=DIRECTION('ref_axis',(0.999999994593157,0.000103988876158706,0.));
#1069=DIRECTION('center_axis',(0.,0.,-1.));
#1070=DIRECTION('ref_axis',(0.999999994593157,0.000103988876158706,0.));
#1071=DIRECTION('center_axis',(0.,0.,-1.));
#1072=DIRECTION('ref_axis',(0.999999994593157,0.000103988876158706,0.));
#1073=DIRECTION('center_axis',(-0.000288331827645237,-0.999999958432378,
0.));
#1074=DIRECTION('ref_axis',(0.999999958432378,-0.000288331827645237,0.));
#1075=DIRECTION('',(-0.999999958432378,0.000288331827645237,0.));
#1076=DIRECTION('',(0.,0.,1.));
#1077=DIRECTION('',(-0.999999958432378,0.000288331827576795,0.));
#1078=DIRECTION('',(0.,0.,1.));
#1079=DIRECTION('center_axis',(0.999977520783217,-0.00670506735621058,0.));
#1080=DIRECTION('ref_axis',(0.00670506735621058,0.999977520783217,0.));
#1081=DIRECTION('',(-0.00670506735621058,-0.999977520783217,0.));
#1082=DIRECTION('',(0.,0.,1.));
#1083=DIRECTION('',(-0.00670506735621007,-0.999977520783217,0.));
#1084=DIRECTION('',(0.,0.,1.));
#1085=DIRECTION('center_axis',(-0.00142720143619417,0.999998981547512,0.));
#1086=DIRECTION('ref_axis',(-0.999998981547512,-0.00142720143619417,0.));
#1087=DIRECTION('',(0.999998981547512,0.00142720143619417,0.));
#1088=DIRECTION('',(0.,0.,-1.));
#1089=DIRECTION('',(0.999998981547512,0.0014272014361958,0.));
#1090=DIRECTION('',(0.,0.,1.));
#1091=DIRECTION('center_axis',(0.,0.,-1.));
#1092=DIRECTION('ref_axis',(1.,0.,0.));
#1093=DIRECTION('',(0.00311121106299284,-0.999995160171149,0.));
#1094=DIRECTION('',(1.,0.,0.));
#1095=DIRECTION('',(0.,-1.,0.));
#1096=DIRECTION('',(-1.,0.,0.));
#1097=DIRECTION('',(0.00161812085897363,-0.999998690841586,0.));
#1098=DIRECTION('center_axis',(0.,0.,-1.));
#1099=DIRECTION('ref_axis',(0.418090308543771,-0.908405467785049,0.));
#1100=DIRECTION('center_axis',(0.,0.,-1.));
#1101=DIRECTION('ref_axis',(-0.212043977821475,-0.977260124772133,0.));
#1102=DIRECTION('',(-0.999998981547512,-0.00142720143628257,0.));
#1103=DIRECTION('center_axis',(0.,0.,-1.));
#1104=DIRECTION('ref_axis',(-0.624865394744705,0.780732501213152,0.));
#1105=DIRECTION('',(0.00670506735621063,0.999977520783217,0.));
#1106=DIRECTION('center_axis',(0.,0.,-1.));
#1107=DIRECTION('ref_axis',(0.00271015506658263,0.999996327523014,0.));
#1108=DIRECTION('',(0.999999958432323,-0.000288332018022527,0.));
#1109=DIRECTION('center_axis',(0.,0.,-1.));
#1110=DIRECTION('ref_axis',(0.199272624692488,0.979944090776697,0.));
#1111=DIRECTION('center_axis',(0.,0.,-1.));
#1112=DIRECTION('ref_axis',(0.980050997269433,0.198746176695781,0.));
#1113=DIRECTION('center_axis',(0.,0.,-1.));
#1114=DIRECTION('ref_axis',(0.999999767200798,0.000682347675178079,0.));
#1115=DIRECTION('',(-0.00161812086513024,0.999998690841576,0.));
#1116=DIRECTION('',(1.,0.,0.));
#1117=DIRECTION('',(0.,1.,0.));
#1118=DIRECTION('',(-1.,0.,0.));
#1119=DIRECTION('',(-0.00311121106267414,0.99999516017115,0.));
#1120=DIRECTION('center_axis',(0.,0.,-1.));
#1121=DIRECTION('ref_axis',(1.,0.,0.));
#1122=DIRECTION('center_axis',(0.,0.,-1.));
#1123=DIRECTION('ref_axis',(1.,0.,0.));
#1124=DIRECTION('center_axis',(0.,0.,-1.));
#1125=DIRECTION('ref_axis',(1.,0.,0.));
#1126=DIRECTION('center_axis',(0.,0.,-1.));
#1127=DIRECTION('ref_axis',(1.,0.,0.));
#1128=DIRECTION('center_axis',(0.,0.,-1.));
#1129=DIRECTION('ref_axis',(-0.624865394744705,0.780732501213152,0.));
#1130=DIRECTION('',(0.,0.,-1.));
#1131=DIRECTION('center_axis',(0.,0.,1.));
#1132=DIRECTION('ref_axis',(-0.624865394744705,0.780732501213152,0.));
#1133=DIRECTION('',(0.,0.,-1.));
#1134=DIRECTION('center_axis',(0.999977520783217,-0.00670506735621063,0.));
#1135=DIRECTION('ref_axis',(-0.00670506735621063,-0.999977520783217,0.));
#1136=DIRECTION('',(-0.00670506735621063,-0.999977520783217,0.));
#1137=DIRECTION('',(0.,0.,-1.));
#1138=DIRECTION('center_axis',(0.,0.,-1.));
#1139=DIRECTION('ref_axis',(0.00271015506658263,0.999996327523014,0.));
#1140=DIRECTION('center_axis',(0.,0.,1.));
#1141=DIRECTION('ref_axis',(0.00271015506658263,0.999996327523014,0.));
#1142=DIRECTION('',(0.,0.,-1.));
#1143=DIRECTION('center_axis',(-0.000288332018022527,-0.999999958432323,
0.));
#1144=DIRECTION('ref_axis',(-0.999999958432323,0.000288332018022527,0.));
#1145=DIRECTION('',(-0.999999958432323,0.000288332018022527,0.));
#1146=DIRECTION('',(0.,0.,-1.));
#1147=DIRECTION('center_axis',(0.,0.,-1.));
#1148=DIRECTION('ref_axis',(0.199272624692488,0.979944090776697,0.));
#1149=DIRECTION('center_axis',(0.,0.,1.));
#1150=DIRECTION('ref_axis',(0.199272624692488,0.979944090776697,0.));
#1151=DIRECTION('',(0.,0.,-1.));
#1152=DIRECTION('center_axis',(0.,0.,-1.));
#1153=DIRECTION('ref_axis',(0.980050997269433,0.198746176695781,0.));
#1154=DIRECTION('center_axis',(0.,0.,1.));
#1155=DIRECTION('ref_axis',(0.980050997269433,0.198746176695781,0.));
#1156=DIRECTION('',(0.,0.,-1.));
#1157=DIRECTION('center_axis',(0.,0.,-1.));
#1158=DIRECTION('ref_axis',(0.999999767200798,0.000682347675178079,0.));
#1159=DIRECTION('center_axis',(0.,0.,1.));
#1160=DIRECTION('ref_axis',(0.999999767200798,0.000682347675178079,0.));
#1161=DIRECTION('',(0.,0.,-1.));
#1162=DIRECTION('center_axis',(-0.999995160171149,-0.00311121106299284,
0.));
#1163=DIRECTION('ref_axis',(-0.00311121106299284,0.999995160171149,0.));
#1164=DIRECTION('',(-0.00311121106299284,0.999995160171149,0.));
#1165=DIRECTION('',(0.,0.,-1.));
#1166=DIRECTION('center_axis',(0.,-1.,0.));
#1167=DIRECTION('ref_axis',(-1.,0.,0.));
#1168=DIRECTION('',(-1.,0.,0.));
#1169=DIRECTION('',(0.,0.,-1.));
#1170=DIRECTION('center_axis',(-1.,0.,0.));
#1171=DIRECTION('ref_axis',(0.,1.,0.));
#1172=DIRECTION('',(0.,1.,0.));
#1173=DIRECTION('',(0.,0.,-1.));
#1174=DIRECTION('center_axis',(0.,1.,0.));
#1175=DIRECTION('ref_axis',(1.,0.,0.));
#1176=DIRECTION('',(1.,0.,0.));
#1177=DIRECTION('',(0.,0.,-1.));
#1178=DIRECTION('center_axis',(-0.999998690841586,-0.00161812085897363,
0.));
#1179=DIRECTION('ref_axis',(-0.00161812085897363,0.999998690841586,0.));
#1180=DIRECTION('',(-0.00161812085897363,0.999998690841586,0.));
#1181=DIRECTION('',(0.,0.,-1.));
#1182=DIRECTION('center_axis',(0.,0.,-1.));
#1183=DIRECTION('ref_axis',(0.418090308543771,-0.908405467785049,0.));
#1184=DIRECTION('center_axis',(0.,0.,1.));
#1185=DIRECTION('ref_axis',(0.418090308543771,-0.908405467785049,0.));
#1186=DIRECTION('',(0.,0.,-1.));
#1187=DIRECTION('center_axis',(0.,0.,-1.));
#1188=DIRECTION('ref_axis',(-0.212043977821475,-0.977260124772133,0.));
#1189=DIRECTION('center_axis',(0.,0.,1.));
#1190=DIRECTION('ref_axis',(-0.212043977821475,-0.977260124772133,0.));
#1191=DIRECTION('',(0.,0.,-1.));
#1192=DIRECTION('center_axis',(-0.00142720143628257,0.999998981547512,0.));
#1193=DIRECTION('ref_axis',(0.999998981547512,0.00142720143628257,0.));
#1194=DIRECTION('',(0.999998981547512,0.00142720143628257,0.));
#1195=DIRECTION('center_axis',(0.,0.,-1.));
#1196=DIRECTION('ref_axis',(1.,0.,0.));
#1197=DIRECTION('center_axis',(0.,0.,-1.));
#1198=DIRECTION('ref_axis',(1.,0.,0.));
#1199=DIRECTION('center_axis',(0.,0.,-1.));
#1200=DIRECTION('ref_axis',(1.,0.,0.));
#1201=DIRECTION('center_axis',(0.,0.,-1.));
#1202=DIRECTION('ref_axis',(1.,0.,0.));
#1203=DIRECTION('',(-0.00311121106267414,0.99999516017115,0.));
#1204=DIRECTION('',(-1.,0.,0.));
#1205=DIRECTION('',(0.,1.,0.));
#1206=DIRECTION('',(1.,0.,0.));
#1207=DIRECTION('',(-0.00161812085897326,0.999998690841586,0.));
#1208=DIRECTION('center_axis',(0.,0.,-1.));
#1209=DIRECTION('ref_axis',(1.,0.,0.));
#1210=DIRECTION('center_axis',(0.,0.,-1.));
#1211=DIRECTION('ref_axis',(1.,0.,0.));
#1212=DIRECTION('center_axis',(0.,0.,-1.));
#1213=DIRECTION('ref_axis',(1.,0.,0.));
#1214=DIRECTION('center_axis',(0.,0.,-1.));
#1215=DIRECTION('ref_axis',(-0.706113216351403,-0.708098951908472,0.));
#1216=DIRECTION('',(0.,0.,-1.));
#1217=DIRECTION('center_axis',(-0.99999516017115,-0.00311121106267414,0.));
#1218=DIRECTION('ref_axis',(0.00311121106267414,-0.99999516017115,0.));
#1219=DIRECTION('',(0.,0.,1.));
#1220=DIRECTION('center_axis',(0.,0.,-1.));
#1221=DIRECTION('ref_axis',(-0.67869280456116,0.734422274333307,0.));
#1222=DIRECTION('',(0.,0.,-1.));
#1223=DIRECTION('center_axis',(0.,0.,1.));
#1224=DIRECTION('ref_axis',(-1.,0.,0.));
#1225=DIRECTION('center_axis',(-0.999998690841586,-0.00161812085897326,
0.));
#1226=DIRECTION('ref_axis',(0.00161812085897326,-0.999998690841586,0.));
#1227=DIRECTION('',(0.,0.,1.));
#1228=DIRECTION('center_axis',(0.,1.,0.));
#1229=DIRECTION('ref_axis',(-1.,0.,0.));
#1230=DIRECTION('',(0.,0.,1.));
#1231=DIRECTION('center_axis',(-1.,0.,0.));
#1232=DIRECTION('ref_axis',(0.,-1.,0.));
#1233=DIRECTION('',(0.,0.,1.));
#1234=DIRECTION('center_axis',(0.,-1.,0.));
#1235=DIRECTION('ref_axis',(1.,0.,0.));
#1236=DIRECTION('',(0.,0.,1.));
#1237=DIRECTION('',(1.110223024625E-16,1.,0.));
#1238=CARTESIAN_POINT('',(0.,0.,0.));
#1239=CARTESIAN_POINT('',(0.,0.,0.));
#1240=CARTESIAN_POINT('Origin',(87.,-125.9,3.11));
#1241=CARTESIAN_POINT('',(87.7520154117197,-122.188954844232,3.11));
#1242=CARTESIAN_POINT('',(90.7110451625686,-125.14798462184,3.11));
#1243=CARTESIAN_POINT('Origin',(87.,-125.9,3.11));
#1244=CARTESIAN_POINT('',(87.7520154117197,-122.188954844232,1.51));
#1245=CARTESIAN_POINT('',(87.7520154117197,-122.188954844232,3.11));
#1246=CARTESIAN_POINT('',(90.7110451625686,-125.14798462184,1.51));
#1247=CARTESIAN_POINT('Origin',(87.,-125.9,1.51));
#1248=CARTESIAN_POINT('',(90.7110451625686,-125.14798462184,3.11));
#1249=CARTESIAN_POINT('Origin',(86.996004249455,-125.9039957505,3.11));
#1250=CARTESIAN_POINT('',(86.9960389973755,-122.112811000114,3.11));
#1251=CARTESIAN_POINT('Origin',(86.996004249455,-125.9039957505,3.11));
#1252=CARTESIAN_POINT('',(86.9960389973755,-122.112811000114,1.51));
#1253=CARTESIAN_POINT('',(86.9960389973755,-122.112811000114,3.11));
#1254=CARTESIAN_POINT('Origin',(86.996004249455,-125.9039957505,1.51));
#1255=CARTESIAN_POINT('Origin',(38.4736697526838,-122.098820455958,3.11));
#1256=CARTESIAN_POINT('',(38.4736697526838,-122.098820455958,3.11));
#1257=CARTESIAN_POINT('',(54.1809691034739,-122.103349370475,3.11));
#1258=CARTESIAN_POINT('',(38.4736697526838,-122.098820455958,1.51));
#1259=CARTESIAN_POINT('',(38.4736697526838,-122.098820455958,3.11));
#1260=CARTESIAN_POINT('',(38.4736697526838,-122.098820455958,1.51));
#1261=CARTESIAN_POINT('Origin',(38.461208688894,-125.8900086661,3.11));
#1262=CARTESIAN_POINT('',(36.959367363508,-129.371062523223,3.11));
#1263=CARTESIAN_POINT('Origin',(38.461208688894,-125.8900086661,3.11));
#1264=CARTESIAN_POINT('',(36.959367363508,-129.371062523223,1.51));
#1265=CARTESIAN_POINT('',(36.959367363508,-129.371062523223,3.11));
#1266=CARTESIAN_POINT('Origin',(38.461208688894,-125.8900086661,1.51));
#1267=CARTESIAN_POINT('Origin',(36.772757552126,-157.201598239878,3.11));
#1268=CARTESIAN_POINT('',(36.772757552126,-157.201598239878,3.11));
#1269=CARTESIAN_POINT('',(36.8171948483722,-150.574327405759,3.11));
#1270=CARTESIAN_POINT('',(36.772757552126,-157.201598239878,1.51));
#1271=CARTESIAN_POINT('',(36.772757552126,-157.201598239878,3.11));
#1272=CARTESIAN_POINT('',(36.772757552126,-157.201598239878,1.51));
#1273=CARTESIAN_POINT('Origin',(38.391198748584,-160.6299994148,3.11));
#1274=CARTESIAN_POINT('',(38.4113839332249,-164.421157427983,3.11));
#1275=CARTESIAN_POINT('Origin',(38.391198748584,-160.6299994148,3.11));
#1276=CARTESIAN_POINT('',(38.4113839332249,-164.421157427983,1.51));
#1277=CARTESIAN_POINT('',(38.4113839332249,-164.421157427983,3.11));
#1278=CARTESIAN_POINT('Origin',(38.391198748584,-160.6299994148,1.51));
#1279=CARTESIAN_POINT('Origin',(85.8854416272346,-164.353402315652,3.11));
#1280=CARTESIAN_POINT('',(85.8854416272346,-164.353402315652,3.11));
#1281=CARTESIAN_POINT('',(77.8980949261393,-164.364801879945,3.11));
#1282=CARTESIAN_POINT('',(85.8854416272346,-164.353402315652,1.51));
#1283=CARTESIAN_POINT('',(85.8854416272346,-164.353402315652,3.11));
#1284=CARTESIAN_POINT('',(85.8854416272346,-164.353402315652,1.51));
#1285=CARTESIAN_POINT('Origin',(86.9,-160.6,3.11));
#1286=CARTESIAN_POINT('',(88.7061678214575,-164.043125823379,3.11));
#1287=CARTESIAN_POINT('Origin',(86.9,-160.6,3.11));
#1288=CARTESIAN_POINT('',(88.7061678214575,-164.043125823379,1.51));
#1289=CARTESIAN_POINT('',(88.7061678214575,-164.043125823379,3.11));
#1290=CARTESIAN_POINT('Origin',(86.9,-160.6,1.51));
#1291=CARTESIAN_POINT('Origin',(87.2587992291001,-160.799998915,3.11));
#1292=CARTESIAN_POINT('',(90.809997588093,-160.75830717624,3.11));
#1293=CARTESIAN_POINT('Origin',(87.2587992291001,-160.799998915,3.11));
#1294=CARTESIAN_POINT('',(90.809997588093,-160.75830717624,1.51));
#1295=CARTESIAN_POINT('',(90.809997588093,-160.75830717624,3.11));
#1296=CARTESIAN_POINT('Origin',(87.2587992291001,-160.799998915,1.51));
#1297=CARTESIAN_POINT('Origin',(90.7904048580344,-148.65,3.11));
#1298=CARTESIAN_POINT('',(90.7904048580344,-148.65,3.11));
#1299=CARTESIAN_POINT('',(90.786751657406,-146.392322011648,3.11));
#1300=CARTESIAN_POINT('',(90.7904048580344,-148.65,1.51));
#1301=CARTESIAN_POINT('',(90.7904048580344,-148.65,3.11));
#1302=CARTESIAN_POINT('',(90.7904048580344,-148.65,1.51));
#1303=CARTESIAN_POINT('Origin',(99.05,-148.65,3.11));
#1304=CARTESIAN_POINT('',(99.05,-148.65,3.11));
#1305=CARTESIAN_POINT('',(84.4659538423977,-148.65,3.11));
#1306=CARTESIAN_POINT('',(99.05,-148.65,1.51));
#1307=CARTESIAN_POINT('',(99.05,-148.65,3.11));
#1308=CARTESIAN_POINT('',(99.05,-148.65,1.51));
#1309=CARTESIAN_POINT('Origin',(99.05,-136.2,3.11));
#1310=CARTESIAN_POINT('',(99.05,-136.2,3.11));
#1311=CARTESIAN_POINT('',(99.05,-140.184232360169,3.11));
#1312=CARTESIAN_POINT('',(99.05,-136.2,1.51));
#1313=CARTESIAN_POINT('',(99.05,-136.2,3.11));
#1314=CARTESIAN_POINT('',(99.05,-136.2,1.51));
#1315=CARTESIAN_POINT('Origin',(90.819223403433,-136.2,3.11));
#1316=CARTESIAN_POINT('',(90.819223403433,-136.2,3.11));
#1317=CARTESIAN_POINT('',(80.3505655441141,-136.2,3.11));
#1318=CARTESIAN_POINT('',(90.819223403433,-136.2,1.51));
#1319=CARTESIAN_POINT('',(90.819223403433,-136.2,3.11));
#1320=CARTESIAN_POINT('',(90.819223403433,-136.2,1.51));
#1321=CARTESIAN_POINT('Origin',(90.7871889795017,-125.903601509458,3.11));
#1322=CARTESIAN_POINT('',(90.7871889795017,-125.903601509458,3.11));
#1323=CARTESIAN_POINT('',(90.8155005864899,-135.003424502477,3.11));
#1324=CARTESIAN_POINT('',(90.7871889795017,-125.903601509458,1.51));
#1325=CARTESIAN_POINT('',(90.7871889795017,-125.903601509458,3.11));
#1326=CARTESIAN_POINT('',(90.7871889795017,-125.903601509458,1.51));
#1327=CARTESIAN_POINT('Origin',(86.996004249455,-125.9039957505,3.11));
#1328=CARTESIAN_POINT('Origin',(86.996004249455,-125.9039957505,3.11));
#1329=CARTESIAN_POINT('Origin',(86.996004249455,-125.9039957505,1.51));
#1330=CARTESIAN_POINT('Origin',(38.4732164647587,-122.34882033565,1.51));
#1331=CARTESIAN_POINT('',(85.0696001417996,-122.362255556675,1.51));
#1332=CARTESIAN_POINT('',(38.4732164636903,-122.348820335649,1.51));
#1333=CARTESIAN_POINT('',(52.6521233057454,-122.352908565943,1.51));
#1334=CARTESIAN_POINT('',(38.4732164647587,-122.348820335653,-9.49));
#1335=CARTESIAN_POINT('',(38.4732164647587,-122.348820335653,1.51));
#1336=CARTESIAN_POINT('',(85.0696001417996,-122.362255556675,-9.49));
#1337=CARTESIAN_POINT('',(86.996003,-122.362810999955,-9.49));
#1338=CARTESIAN_POINT('',(85.0696001417999,-122.362255556675,1.51));
#1339=CARTESIAN_POINT('Origin',(37.0216720000005,-157.364332999928,1.51));
#1340=CARTESIAN_POINT('',(37.2104999046713,-129.202996217457,1.51));
#1341=CARTESIAN_POINT('',(37.0216720000005,-157.364332999928,1.51));
#1342=CARTESIAN_POINT('',(37.0695139887914,-150.229294558262,1.51));
#1343=CARTESIAN_POINT('',(37.0216720000005,-157.364332999928,-9.49));
#1344=CARTESIAN_POINT('',(37.0216720000005,-157.364332999928,1.51));
#1345=CARTESIAN_POINT('',(37.2104999046713,-129.202996217457,-9.49));
#1346=CARTESIAN_POINT('',(37.2104999046713,-129.202996217457,-9.49));
#1347=CARTESIAN_POINT('',(37.2104999046713,-129.202996217457,1.51));
#1348=CARTESIAN_POINT('Origin',(85.9190233759977,-164.103354133069,1.51));
#1349=CARTESIAN_POINT('',(38.4105316983042,-164.171158389679,1.51));
#1350=CARTESIAN_POINT('',(84.8323386749629,-164.104905052615,1.51));
#1351=CARTESIAN_POINT('',(76.3868778301153,-164.116958438738,1.51));
#1352=CARTESIAN_POINT('',(84.8323386749629,-164.104905052615,-9.49));
#1353=CARTESIAN_POINT('',(84.8323386749629,-164.104905052615,1.51));
#1354=CARTESIAN_POINT('',(38.4105316983042,-164.171158389679,-9.49));
#1355=CARTESIAN_POINT('',(38.4105316983042,-164.171158389679,-9.49));
#1356=CARTESIAN_POINT('',(38.4105316983042,-164.171158389679,1.51));
#1357=CARTESIAN_POINT('Origin',(86.6954477936511,-160.384378952955,-9.49));
#1358=CARTESIAN_POINT('',(92.8076524131359,-125.900030184963,-9.49));
#1359=CARTESIAN_POINT('',(92.8334118255115,-134.179535233917,-9.49));
#1360=CARTESIAN_POINT('',(92.8741463214366,-147.272282062196,-9.49));
#1361=CARTESIAN_POINT('',(101.070464766083,-134.179535233917,-9.49));
#1362=CARTESIAN_POINT('',(93.8829562798672,-134.179535233917,-9.49));
#1363=CARTESIAN_POINT('',(101.070464766083,-150.670464766083,-9.49));
#1364=CARTESIAN_POINT('',(101.070464766083,-155.527421859519,-9.49));
#1365=CARTESIAN_POINT('',(92.8141416296925,-150.670464766083,-9.49));
#1366=CARTESIAN_POINT('',(89.7547947116718,-150.670464766083,-9.49));
#1367=CARTESIAN_POINT('',(92.830445018656,-160.745959145505,-9.49));
#1368=CARTESIAN_POINT('',(92.8301444471352,-160.560205945604,-9.49));
#1369=CARTESIAN_POINT('',(89.588359901737,-165.861550472919,-9.49));
#1370=CARTESIAN_POINT('Origin',(87.2587992291001,-160.799998915,-9.49));
#1371=CARTESIAN_POINT('',(85.647123441446,-166.374209267888,-9.49));
#1372=CARTESIAN_POINT('Origin',(86.9,-160.6,-9.49));
#1373=CARTESIAN_POINT('',(38.4177855920646,-166.441615115351,-9.49));
#1374=CARTESIAN_POINT('',(62.5608899680509,-166.407158007016,-9.49));
#1375=CARTESIAN_POINT('',(34.7596832091179,-156.092634673262,-9.49));
#1376=CARTESIAN_POINT('Origin',(38.391198748584,-160.6299994148,-9.49));
#1377=CARTESIAN_POINT('',(34.9312417237994,-130.50681292584,-9.49));
#1378=CARTESIAN_POINT('',(34.832242034848,-145.271386979565,-9.49));
#1379=CARTESIAN_POINT('',(38.4769592251534,-120.078356554349,-9.49));
#1380=CARTESIAN_POINT('Origin',(38.461208688894,-125.8900086661,-9.49));
#1381=CARTESIAN_POINT('',(86.9963299230798,-120.092346242997,-9.49));
#1382=CARTESIAN_POINT('',(86.8516976121817,-120.092304540869,-9.49));
#1383=CARTESIAN_POINT('',(88.1541069024278,-120.208904149008,-9.49));
#1384=CARTESIAN_POINT('Origin',(86.996004249455,-125.9039957505,-9.49));
#1385=CARTESIAN_POINT('',(92.6910958667104,-124.74589317508,-9.49));
#1386=CARTESIAN_POINT('Origin',(87.,-125.9,-9.49));
#1387=CARTESIAN_POINT('Origin',(86.996004249455,-125.9039957505,-9.49));
#1388=CARTESIAN_POINT('',(90.5568523935691,-158.814779186053,-9.49));
#1389=CARTESIAN_POINT('',(90.54,-148.4,-9.49));
#1390=CARTESIAN_POINT('',(90.5600000000762,-160.759999999999,-9.49));
#1391=CARTESIAN_POINT('',(98.8,-148.4,-9.49));
#1392=CARTESIAN_POINT('',(90.54,-148.4,-9.49));
#1393=CARTESIAN_POINT('',(98.8,-136.45,-9.49));
#1394=CARTESIAN_POINT('',(98.8,-148.4,-9.49));
#1395=CARTESIAN_POINT('',(90.57,-136.45,-9.49));
#1396=CARTESIAN_POINT('',(98.8,-136.45,-9.49));
#1397=CARTESIAN_POINT('',(90.5431515415637,-127.82045737061,-9.49));
#1398=CARTESIAN_POINT('',(90.57,-136.45,-9.49));
#1399=CARTESIAN_POINT('Origin',(87.,-125.9,-9.49));
#1400=CARTESIAN_POINT('Origin',(38.461208688894,-125.8900086661,-9.49));
#1401=CARTESIAN_POINT('Origin',(38.391198748584,-160.6299994148,-9.49));
#1402=CARTESIAN_POINT('Origin',(86.9,-160.6,-9.49));
#1403=CARTESIAN_POINT('Origin',(38.391198748584,-160.6299994148,3.11));
#1404=CARTESIAN_POINT('',(38.4177855920646,-166.441615115351,3.11));
#1405=CARTESIAN_POINT('',(38.4177855920646,-166.441615115351,-2.49));
#1406=CARTESIAN_POINT('',(34.7596832091179,-156.092634673262,3.11));
#1407=CARTESIAN_POINT('Origin',(38.391198748584,-160.6299994148,3.11));
#1408=CARTESIAN_POINT('',(34.7596832091179,-156.092634673262,-2.49));
#1409=CARTESIAN_POINT('Origin',(34.9312417237994,-130.50681292584,3.11));
#1410=CARTESIAN_POINT('',(34.9312417237994,-130.50681292584,3.11));
#1411=CARTESIAN_POINT('',(34.8862272604,-137.220161072566,3.11));
#1412=CARTESIAN_POINT('',(34.9312417237994,-130.50681292584,-2.49));
#1413=CARTESIAN_POINT('Origin',(38.461208688894,-125.8900086661,3.11));
#1414=CARTESIAN_POINT('',(38.4769592251533,-120.078356554349,3.11));
#1415=CARTESIAN_POINT('Origin',(38.461208688894,-125.8900086661,3.11));
#1416=CARTESIAN_POINT('',(38.4769592251533,-120.078356554349,-2.49));
#1417=CARTESIAN_POINT('Origin',(86.9963299230798,-120.092346242997,3.11));
#1418=CARTESIAN_POINT('',(86.9963299230798,-120.092346242997,3.11));
#1419=CARTESIAN_POINT('',(78.4425904731134,-120.089879925937,3.11));
#1420=CARTESIAN_POINT('',(86.9963299230798,-120.092346242997,-2.49));
#1421=CARTESIAN_POINT('Origin',(86.996004249455,-125.9039957505,3.11));
#1422=CARTESIAN_POINT('',(88.1541069024278,-120.208904149008,3.11));
#1423=CARTESIAN_POINT('Origin',(86.996004249455,-125.9039957505,3.11));
#1424=CARTESIAN_POINT('',(88.1541069024278,-120.208904149008,-2.49));
#1425=CARTESIAN_POINT('Origin',(87.,-125.9,3.11));
#1426=CARTESIAN_POINT('',(92.6910958667104,-124.74589317508,3.11));
#1427=CARTESIAN_POINT('Origin',(87.,-125.9,3.11));
#1428=CARTESIAN_POINT('',(92.6910958667104,-124.74589317508,-2.49));
#1429=CARTESIAN_POINT('Origin',(86.996004249455,-125.9039957505,3.11));
#1430=CARTESIAN_POINT('',(92.8076524131359,-125.900030184963,3.11));
#1431=CARTESIAN_POINT('Origin',(86.996004249455,-125.9039957505,3.11));
#1432=CARTESIAN_POINT('',(92.8076524131359,-125.900030184963,3.11));
#1433=CARTESIAN_POINT('Origin',(92.8334118255115,-134.179535233917,3.11));
#1434=CARTESIAN_POINT('',(92.8334118255115,-134.179535233917,3.11));
#1435=CARTESIAN_POINT('',(92.8488395031859,-139.138248318537,3.11));
#1436=CARTESIAN_POINT('',(92.8334118255115,-134.179535233917,-2.49));
#1437=CARTESIAN_POINT('Origin',(101.070464766083,-134.179535233917,3.11));
#1438=CARTESIAN_POINT('',(101.070464766083,-134.179535233917,3.11));
#1439=CARTESIAN_POINT('',(85.4761862254393,-134.179535233917,3.11));
#1440=CARTESIAN_POINT('',(101.070464766083,-134.179535233917,-2.49));
#1441=CARTESIAN_POINT('Origin',(101.070464766083,-150.670464766083,3.11));
#1442=CARTESIAN_POINT('',(101.070464766083,-150.670464766083,3.11));
#1443=CARTESIAN_POINT('',(101.070464766083,-147.419464743211,3.11));
#1444=CARTESIAN_POINT('',(101.070464766083,-150.670464766083,-2.49));
#1445=CARTESIAN_POINT('Origin',(92.8141416296925,-150.670464766083,3.11));
#1446=CARTESIAN_POINT('',(92.8141416296925,-150.670464766083,3.11));
#1447=CARTESIAN_POINT('',(81.3480246572439,-150.670464766083,3.11));
#1448=CARTESIAN_POINT('',(92.8141416296925,-150.670464766083,-2.49));
#1449=CARTESIAN_POINT('Origin',(92.830445018656,-160.745959145505,3.11));
#1450=CARTESIAN_POINT('',(92.830445018656,-160.745959145505,3.11));
#1451=CARTESIAN_POINT('',(92.8170027982042,-152.438666906309,3.11));
#1452=CARTESIAN_POINT('',(92.830445018656,-160.745959145505,-2.49));
#1453=CARTESIAN_POINT('Origin',(87.2587992291001,-160.799998915,3.11));
#1454=CARTESIAN_POINT('',(89.588359901737,-165.861550472919,3.11));
#1455=CARTESIAN_POINT('Origin',(87.2587992291001,-160.799998915,3.11));
#1456=CARTESIAN_POINT('',(89.588359901737,-165.861550472919,-2.49));
#1457=CARTESIAN_POINT('Origin',(86.9,-160.6,3.11));
#1458=CARTESIAN_POINT('',(85.647123441446,-166.374209267888,3.11));
#1459=CARTESIAN_POINT('Origin',(86.9,-160.6,3.11));
#1460=CARTESIAN_POINT('',(85.647123441446,-166.374209267888,-2.49));
#1461=CARTESIAN_POINT('Origin',(38.4177855920646,-166.441615115351,3.11));
#1462=CARTESIAN_POINT('',(54.1657087136626,-166.419139633963,3.11));
#1463=CARTESIAN_POINT('Origin',(38.461208688894,-125.8900086661,1.51));
#1464=CARTESIAN_POINT('Origin',(38.461208688894,-125.8900086661,1.51));
#1465=CARTESIAN_POINT('Origin',(38.461208688894,-125.8900086661,1.51));
#1466=CARTESIAN_POINT('',(90.5431515415637,-127.82045737061,1.51));
#1467=CARTESIAN_POINT('Origin',(87.,-125.9,1.51));
#1468=CARTESIAN_POINT('',(90.57,-136.45,1.51));
#1469=CARTESIAN_POINT('',(90.5641252392461,-134.561753846738,1.51));
#1470=CARTESIAN_POINT('',(98.8,-136.45,1.51));
#1471=CARTESIAN_POINT('',(78.69749675,-136.45,1.51));
#1472=CARTESIAN_POINT('',(98.8,-148.4,1.51));
#1473=CARTESIAN_POINT('',(98.8,-139.871726152476,1.51));
#1474=CARTESIAN_POINT('',(90.54,-148.4,1.51));
#1475=CARTESIAN_POINT('',(82.81249675,-148.4,1.51));
#1476=CARTESIAN_POINT('',(90.5568523935691,-158.814779186053,1.51));
#1477=CARTESIAN_POINT('',(90.5358374530575,-145.827545989526,1.51));
#1478=CARTESIAN_POINT('Origin',(86.9,-160.6,1.51));
#1479=CARTESIAN_POINT('Origin',(38.391198748584,-160.6299994148,1.51));
#1480=CARTESIAN_POINT('Origin',(38.391198748584,-160.6299994148,1.51));
#1481=CARTESIAN_POINT('Origin',(87.,-125.9,1.51));
#1482=CARTESIAN_POINT('',(90.5431515415637,-127.82045737061,1.51));
#1483=CARTESIAN_POINT('Origin',(90.5371889999998,-125.903997,1.51));
#1484=CARTESIAN_POINT('',(90.57,-136.45,1.51));
#1485=CARTESIAN_POINT('Origin',(86.9,-160.6,1.51));
#1486=CARTESIAN_POINT('',(90.5568523935691,-158.814779186053,1.51));
#1487=CARTESIAN_POINT('Origin',(69.8819076847953,-144.168464720339,3.11));
#1488=CARTESIAN_POINT('Origin',(90.54,-148.4,1.51));
#1489=CARTESIAN_POINT('',(90.54,-148.4,1.51));
#1490=CARTESIAN_POINT('Origin',(98.8,-148.4,1.51));
#1491=CARTESIAN_POINT('',(98.8,-148.4,1.51));
#1492=CARTESIAN_POINT('Origin',(98.8,-136.45,1.51));
#1493=CARTESIAN_POINT('',(98.8,-136.45,1.51));
#1494=CARTESIAN_POINT('Origin',(90.57,-136.45,1.51));
#1495=CARTESIAN_POINT('',(86.5,-143.975,1.595));
#1496=UNCERTAINTY_MEASURE_WITH_UNIT(LENGTH_MEASURE(0.01),#1502,
'DISTANCE_ACCURACY_VALUE',
'Maximum model space distance between geometric entities at asserted c
onnectivities');
#1497=UNCERTAINTY_MEASURE_WITH_UNIT(LENGTH_MEASURE(0.01),#1502,
'DISTANCE_ACCURACY_VALUE',
'Maximum model space distance between geometric entities at asserted c
onnectivities');
#1498=UNCERTAINTY_MEASURE_WITH_UNIT(LENGTH_MEASURE(0.01),#1502,
'DISTANCE_ACCURACY_VALUE',
'Maximum model space distance between geometric entities at asserted c
onnectivities');
#1499=(
GEOMETRIC_REPRESENTATION_CONTEXT(3)
GLOBAL_UNCERTAINTY_ASSIGNED_CONTEXT((#1496))
GLOBAL_UNIT_ASSIGNED_CONTEXT((#1502,#1504,#1505))
REPRESENTATION_CONTEXT('','3D')
);
#1500=(
GEOMETRIC_REPRESENTATION_CONTEXT(3)
GLOBAL_UNCERTAINTY_ASSIGNED_CONTEXT((#1497))
GLOBAL_UNIT_ASSIGNED_CONTEXT((#1502,#1504,#1505))
REPRESENTATION_CONTEXT('','3D')
);
#1501=(
GEOMETRIC_REPRESENTATION_CONTEXT(3)
GLOBAL_UNCERTAINTY_ASSIGNED_CONTEXT((#1498))
GLOBAL_UNIT_ASSIGNED_CONTEXT((#1502,#1504,#1505))
REPRESENTATION_CONTEXT('','3D')
);
#1502=(
LENGTH_UNIT()
NAMED_UNIT(*)
SI_UNIT(.MILLI.,.METRE.)
);
#1503=(
LENGTH_UNIT()
NAMED_UNIT(*)
SI_UNIT($,.METRE.)
);
#1504=(
NAMED_UNIT(*)
PLANE_ANGLE_UNIT()
SI_UNIT($,.RADIAN.)
);
#1505=(
NAMED_UNIT(*)
SI_UNIT($,.STERADIAN.)
SOLID_ANGLE_UNIT()
);
#1506=SHAPE_DEFINITION_REPRESENTATION(#1508,#1511);
#1507=SHAPE_DEFINITION_REPRESENTATION(#1509,#1512);
#1508=PRODUCT_DEFINITION_SHAPE('',$,#1514);
#1509=PRODUCT_DEFINITION_SHAPE('',$,#1515);
#1510=PRODUCT_DEFINITION_SHAPE($,$,#16);
#1511=SHAPE_REPRESENTATION('',(#896,#979),#1499);
#1512=SHAPE_REPRESENTATION('',(#897),#1500);
#1513=PRODUCT_DEFINITION_CONTEXT('part definition',#1521,'design');
#1514=PRODUCT_DEFINITION('Main_Board 1','Main_Board v2',#1516,#1513);
#1515=PRODUCT_DEFINITION('C_0603_1608Metric','C_0603_1608Metric',#1517,
#1513);
#1516=PRODUCT_DEFINITION_FORMATION('',$,#1523);
#1517=PRODUCT_DEFINITION_FORMATION('',$,#1524);
#1518=PRODUCT_RELATED_PRODUCT_CATEGORY('Main_Board v2','Main_Board v2',
(#1523));
#1519=PRODUCT_RELATED_PRODUCT_CATEGORY('C_0603_1608Metric',
'C_0603_1608Metric',(#1524));
#1520=APPLICATION_PROTOCOL_DEFINITION('international standard',
'automotive_design',2009,#1521);
#1521=APPLICATION_CONTEXT(
'Core Data for Automotive Mechanical Design Process');
#1522=PRODUCT_CONTEXT('part definition',#1521,'mechanical');
#1523=PRODUCT('Main_Board 1','Main_Board v2',
'KiCad electronic assembly',(#1522));
#1524=PRODUCT('C_0603_1608Metric','C_0603_1608Metric',$,(#1522));
#1525=PRESENTATION_STYLE_ASSIGNMENT((#1526));
#1526=SURFACE_STYLE_USAGE(.BOTH.,#1527);
#1527=SURFACE_SIDE_STYLE('',(#1528));
#1528=SURFACE_STYLE_FILL_AREA(#1529);
#1529=FILL_AREA_STYLE('Steel - Satin',(#1530));
#1530=FILL_AREA_STYLE_COLOUR('Steel - Satin',#1531);
#1531=COLOUR_RGB('Steel - Satin',0.627450980392157,0.627450980392157,0.627450980392157);
ENDSEC;
END-ISO-10303-21;
